var midifile = {"header":{"format":0,"numTracks":1,"ticksPerBeat":960},"tracks":[[{"deltaTime":0,"channel":0,"type":"programChange","programNumber":0},{"deltaTime":0,"channel":1,"type":"programChange","programNumber":0},{"deltaTime":0,"meta":true,"type":"timeSignature","numerator":4,"denominator":4,"metronome":24,"thirtyseconds":8},{"deltaTime":0,"meta":true,"type":"setTempo","microsecondsPerBeat":370370},{"deltaTime":0,"channel":0,"type":"controller","controllerType":7,"value":100},{"deltaTime":0,"channel":0,"type":"controller","controllerType":10,"value":103},{"deltaTime":0,"channel":0,"type":"controller","controllerType":91,"value":0},{"deltaTime":0,"channel":0,"type":"controller","controllerType":93,"value":0},{"deltaTime":0,"channel":0,"type":"controller","controllerType":121,"value":0},{"deltaTime":0,"meta":true,"type":"keySignature","key":4,"scale":0},{"deltaTime":0,"meta":true,"type":"keySignature","key":4,"scale":0},{"deltaTime":0,"channel":1,"type":"controller","controllerType":7,"value":100},{"deltaTime":0,"channel":1,"type":"controller","controllerType":10,"value":25},{"deltaTime":0,"channel":1,"type":"controller","controllerType":91,"value":0},{"deltaTime":0,"channel":1,"type":"controller","controllerType":93,"value":0},{"deltaTime":0,"channel":1,"type":"controller","controllerType":121,"value":0},{"deltaTime":0,"meta":true,"type":"keySignature","key":4,"scale":0},{"deltaTime":960,"channel":0,"type":"noteOn","noteNumber":80,"velocity":86},{"deltaTime":478,"channel":0,"type":"noteOff","noteNumber":80,"velocity":0},{"deltaTime":2,"channel":0,"type":"noteOn","noteNumber":73,"velocity":69},{"deltaTime":478,"channel":0,"type":"noteOff","noteNumber":73,"velocity":0},{"deltaTime":2,"channel":0,"type":"noteOn","noteNumber":78,"velocity":82},{"deltaTime":478,"channel":0,"type":"noteOff","noteNumber":78,"velocity":0},{"deltaTime":2,"channel":0,"type":"noteOn","noteNumber":69,"velocity":90},{"deltaTime":1366,"channel":0,"type":"noteOff","noteNumber":69,"velocity":0},{"deltaTime":74,"channel":0,"type":"noteOn","noteNumber":76,"velocity":96},{"deltaTime":478,"channel":0,"type":"noteOff","noteNumber":76,"velocity":0},{"deltaTime":2,"channel":0,"type":"noteOn","noteNumber":75,"velocity":72},{"deltaTime":238,"channel":0,"type":"noteOff","noteNumber":75,"velocity":0},{"deltaTime":242,"channel":0,"type":"noteOn","noteNumber":73,"velocity":88},{"deltaTime":238,"channel":0,"type":"noteOff","noteNumber":73,"velocity":0},{"deltaTime":242,"channel":0,"type":"noteOn","noteNumber":72,"velocity":88},{"deltaTime":478,"channel":0,"type":"noteOff","noteNumber":72,"velocity":0},{"deltaTime":2,"channel":0,"type":"noteOn","noteNumber":73,"velocity":98},{"deltaTime":238,"channel":0,"type":"noteOff","noteNumber":73,"velocity":0},{"deltaTime":242,"channel":0,"type":"noteOn","noteNumber":68,"velocity":89},{"deltaTime":1366,"channel":0,"type":"noteOff","noteNumber":68,"velocity":0},{"deltaTime":1034,"channel":0,"type":"noteOn","noteNumber":80,"velocity":101},{"deltaTime":478,"channel":0,"type":"noteOff","noteNumber":80,"velocity":0},{"deltaTime":2,"channel":0,"type":"noteOn","noteNumber":73,"velocity":47},{"deltaTime":478,"channel":0,"type":"noteOff","noteNumber":73,"velocity":0},{"deltaTime":2,"channel":0,"type":"noteOn","noteNumber":78,"velocity":91},{"deltaTime":478,"channel":0,"type":"noteOff","noteNumber":78,"velocity":0},{"deltaTime":2,"channel":0,"type":"noteOn","noteNumber":69,"velocity":80},{"deltaTime":1366,"channel":0,"type":"noteOff","noteNumber":69,"velocity":0},{"deltaTime":74,"channel":0,"type":"noteOn","noteNumber":76,"velocity":97},{"deltaTime":478,"channel":0,"type":"noteOff","noteNumber":76,"velocity":0},{"deltaTime":2,"channel":0,"type":"noteOn","noteNumber":75,"velocity":80},{"deltaTime":478,"channel":0,"type":"noteOff","noteNumber":75,"velocity":0},{"deltaTime":2,"channel":0,"type":"noteOn","noteNumber":73,"velocity":94},{"deltaTime":478,"channel":0,"type":"noteOff","noteNumber":73,"velocity":0},{"deltaTime":2,"channel":0,"type":"noteOn","noteNumber":72,"velocity":85},{"deltaTime":478,"channel":0,"type":"noteOff","noteNumber":72,"velocity":0},{"deltaTime":2,"channel":0,"type":"noteOn","noteNumber":73,"velocity":94},{"deltaTime":238,"channel":0,"type":"noteOff","noteNumber":73,"velocity":0},{"deltaTime":242,"channel":0,"type":"noteOn","noteNumber":68,"velocity":79},{"deltaTime":478,"channel":0,"type":"noteOff","noteNumber":68,"velocity":0},{"deltaTime":2,"channel":0,"type":"noteOn","noteNumber":71,"velocity":110},{"deltaTime":478,"channel":0,"type":"noteOff","noteNumber":71,"velocity":0},{"deltaTime":2,"channel":0,"type":"noteOn","noteNumber":69,"velocity":92},{"deltaTime":478,"channel":0,"type":"noteOff","noteNumber":69,"velocity":0},{"deltaTime":2,"channel":0,"type":"noteOn","noteNumber":80,"velocity":112},{"deltaTime":0,"channel":0,"type":"noteOn","noteNumber":68,"velocity":80},{"deltaTime":238,"channel":0,"type":"noteOff","noteNumber":80,"velocity":0},{"deltaTime":0,"channel":0,"type":"noteOff","noteNumber":68,"velocity":0},{"deltaTime":242,"channel":0,"type":"noteOn","noteNumber":85,"velocity":76},{"deltaTime":0,"channel":1,"type":"noteOn","noteNumber":49,"velocity":89},{"deltaTime":0,"channel":1,"type":"noteOn","noteNumber":61,"velocity":89},{"deltaTime":238,"channel":0,"type":"noteOff","noteNumber":85,"velocity":0},{"deltaTime":0,"channel":1,"type":"noteOff","noteNumber":49,"velocity":0},{"deltaTime":0,"channel":1,"type":"noteOff","noteNumber":61,"velocity":0},{"deltaTime":242,"channel":0,"type":"noteOn","noteNumber":88,"velocity":88},{"deltaTime":0,"channel":1,"type":"noteOn","noteNumber":68,"velocity":90},{"deltaTime":0,"channel":1,"type":"noteOn","noteNumber":80,"velocity":75},{"deltaTime":238,"channel":0,"type":"noteOff","noteNumber":88,"velocity":0},{"deltaTime":2,"channel":0,"type":"noteOn","noteNumber":90,"velocity":88},{"deltaTime":238,"channel":0,"type":"noteOff","noteNumber":90,"velocity":0},{"deltaTime":0,"channel":1,"type":"noteOff","noteNumber":68,"velocity":0},{"deltaTime":0,"channel":1,"type":"noteOff","noteNumber":80,"velocity":0},{"deltaTime":2,"channel":0,"type":"noteOn","noteNumber":88,"velocity":104},{"deltaTime":0,"channel":1,"type":"noteOn","noteNumber":73,"velocity":79},{"deltaTime":0,"channel":1,"type":"noteOn","noteNumber":61,"velocity":92},{"deltaTime":238,"channel":0,"type":"noteOff","noteNumber":88,"velocity":0},{"deltaTime":2,"channel":0,"type":"noteOn","noteNumber":97,"velocity":106},{"deltaTime":238,"channel":0,"type":"noteOff","noteNumber":97,"velocity":0},{"deltaTime":0,"channel":1,"type":"noteOff","noteNumber":73,"velocity":0},{"deltaTime":0,"channel":1,"type":"noteOff","noteNumber":61,"velocity":0},{"deltaTime":2,"channel":0,"type":"noteOn","noteNumber":93,"velocity":103},{"deltaTime":0,"channel":1,"type":"noteOn","noteNumber":78,"velocity":83},{"deltaTime":0,"channel":1,"type":"noteOn","noteNumber":66,"velocity":93},{"deltaTime":238,"channel":0,"type":"noteOff","noteNumber":93,"velocity":0},{"deltaTime":0,"channel":1,"type":"noteOff","noteNumber":78,"velocity":0},{"deltaTime":0,"channel":1,"type":"noteOff","noteNumber":66,"velocity":0},{"deltaTime":2,"channel":0,"type":"noteOn","noteNumber":92,"velocity":85},{"deltaTime":238,"channel":0,"type":"noteOff","noteNumber":92,"velocity":0},{"deltaTime":2,"channel":0,"type":"noteOn","noteNumber":90,"velocity":95},{"deltaTime":0,"channel":1,"type":"noteOn","noteNumber":69,"velocity":88},{"deltaTime":0,"channel":1,"type":"noteOn","noteNumber":57,"velocity":95},{"deltaTime":238,"channel":0,"type":"noteOff","noteNumber":90,"velocity":0},{"deltaTime":2,"channel":0,"type":"noteOn","noteNumber":88,"velocity":80},{"deltaTime":238,"channel":0,"type":"noteOff","noteNumber":88,"velocity":0},{"deltaTime":2,"channel":0,"type":"noteOn","noteNumber":87,"velocity":109},{"deltaTime":238,"channel":0,"type":"noteOff","noteNumber":87,"velocity":0},{"deltaTime":2,"channel":0,"type":"noteOn","noteNumber":85,"velocity":74},{"deltaTime":238,"channel":0,"type":"noteOff","noteNumber":85,"velocity":0},{"deltaTime":2,"channel":0,"type":"noteOn","noteNumber":84,"velocity":87},{"deltaTime":238,"channel":0,"type":"noteOff","noteNumber":84,"velocity":0},{"deltaTime":2,"channel":0,"type":"noteOn","noteNumber":81,"velocity":79},{"deltaTime":166,"channel":1,"type":"noteOff","noteNumber":69,"velocity":0},{"deltaTime":0,"channel":1,"type":"noteOff","noteNumber":57,"velocity":0},{"deltaTime":72,"channel":0,"type":"noteOff","noteNumber":81,"velocity":0},{"deltaTime":2,"channel":0,"type":"noteOn","noteNumber":80,"velocity":80},{"deltaTime":0,"channel":0,"type":"noteOn","noteNumber":68,"velocity":93},{"deltaTime":0,"channel":1,"type":"noteOn","noteNumber":64,"velocity":98},{"deltaTime":238,"channel":0,"type":"noteOff","noteNumber":80,"velocity":0},{"deltaTime":0,"channel":0,"type":"noteOff","noteNumber":68,"velocity":0},{"deltaTime":240,"channel":1,"type":"noteOff","noteNumber":64,"velocity":0},{"deltaTime":2,"channel":0,"type":"noteOn","noteNumber":81,"velocity":81},{"deltaTime":0,"channel":1,"type":"noteOn","noteNumber":63,"velocity":85},{"deltaTime":110,"channel":0,"type":"noteOff","noteNumber":81,"velocity":0},{"deltaTime":10,"channel":0,"type":"noteOn","noteNumber":83,"velocity":81},{"deltaTime":110,"channel":0,"type":"noteOff","noteNumber":83,"velocity":0},{"deltaTime":10,"channel":0,"type":"noteOn","noteNumber":81,"velocity":81},{"deltaTime":110,"channel":0,"type":"noteOff","noteNumber":81,"velocity":0},{"deltaTime":10,"channel":0,"type":"noteOn","noteNumber":83,"velocity":81},{"deltaTime":110,"channel":0,"type":"noteOff","noteNumber":83,"velocity":0},{"deltaTime":8,"channel":1,"type":"noteOff","noteNumber":63,"velocity":0},{"deltaTime":2,"channel":0,"type":"noteOn","noteNumber":81,"velocity":81},{"deltaTime":0,"channel":1,"type":"noteOn","noteNumber":61,"velocity":95},{"deltaTime":110,"channel":0,"type":"noteOff","noteNumber":81,"velocity":0},{"deltaTime":10,"channel":0,"type":"noteOn","noteNumber":83,"velocity":81},{"deltaTime":110,"channel":0,"type":"noteOff","noteNumber":83,"velocity":0},{"deltaTime":10,"channel":0,"type":"noteOn","noteNumber":81,"velocity":81},{"deltaTime":110,"channel":0,"type":"noteOff","noteNumber":81,"velocity":0},{"deltaTime":10,"channel":0,"type":"noteOn","noteNumber":83,"velocity":81},{"deltaTime":110,"channel":0,"type":"noteOff","noteNumber":83,"velocity":0},{"deltaTime":8,"channel":1,"type":"noteOff","noteNumber":61,"velocity":0},{"deltaTime":2,"channel":0,"type":"noteOn","noteNumber":83,"velocity":63},{"deltaTime":0,"channel":1,"type":"noteOn","noteNumber":60,"velocity":85},{"deltaTime":118,"channel":0,"type":"noteOff","noteNumber":83,"velocity":0},{"deltaTime":2,"channel":0,"type":"noteOn","noteNumber":81,"velocity":80},{"deltaTime":118,"channel":0,"type":"noteOff","noteNumber":81,"velocity":0},{"deltaTime":2,"channel":0,"type":"noteOn","noteNumber":80,"velocity":80},{"deltaTime":118,"channel":0,"type":"noteOff","noteNumber":80,"velocity":0},{"deltaTime":2,"channel":0,"type":"noteOn","noteNumber":78,"velocity":80},{"deltaTime":118,"channel":0,"type":"noteOff","noteNumber":78,"velocity":0},{"deltaTime":0,"channel":1,"type":"noteOff","noteNumber":60,"velocity":0},{"deltaTime":2,"channel":0,"type":"noteOn","noteNumber":76,"velocity":80},{"deltaTime":0,"channel":1,"type":"noteOn","noteNumber":61,"velocity":85},{"deltaTime":238,"channel":1,"type":"noteOff","noteNumber":61,"velocity":0},{"deltaTime":216,"channel":0,"type":"noteOff","noteNumber":76,"velocity":0},{"deltaTime":26,"channel":0,"type":"noteOn","noteNumber":87,"velocity":71},{"deltaTime":0,"channel":1,"type":"noteOn","noteNumber":56,"velocity":85},{"deltaTime":0,"channel":1,"type":"noteOn","noteNumber":44,"velocity":94},{"deltaTime":478,"channel":0,"type":"noteOff","noteNumber":87,"velocity":0},{"deltaTime":2,"channel":0,"type":"noteOn","noteNumber":84,"velocity":100},{"deltaTime":478,"channel":0,"type":"noteOff","noteNumber":84,"velocity":0},{"deltaTime":2,"channel":0,"type":"noteOn","noteNumber":75,"velocity":80},{"deltaTime":406,"channel":1,"type":"noteOff","noteNumber":56,"velocity":0},{"deltaTime":0,"channel":1,"type":"noteOff","noteNumber":44,"velocity":0},{"deltaTime":48,"channel":0,"type":"noteOff","noteNumber":75,"velocity":0},{"deltaTime":26,"channel":0,"type":"noteOn","noteNumber":76,"velocity":95},{"deltaTime":238,"channel":0,"type":"noteOff","noteNumber":76,"velocity":0},{"deltaTime":722,"channel":0,"type":"noteOn","noteNumber":80,"velocity":101},{"deltaTime":0,"channel":1,"type":"noteOn","noteNumber":68,"velocity":106},{"deltaTime":0,"channel":1,"type":"noteOn","noteNumber":73,"velocity":101},{"deltaTime":238,"channel":0,"type":"noteOff","noteNumber":80,"velocity":0},{"deltaTime":0,"channel":1,"type":"noteOff","noteNumber":68,"velocity":0},{"deltaTime":0,"channel":1,"type":"noteOff","noteNumber":73,"velocity":0},{"deltaTime":242,"channel":0,"type":"noteOn","noteNumber":76,"velocity":85},{"deltaTime":0,"channel":1,"type":"noteOn","noteNumber":61,"velocity":100},{"deltaTime":0,"channel":1,"type":"noteOn","noteNumber":68,"velocity":95},{"deltaTime":0,"channel":1,"type":"noteOn","noteNumber":49,"velocity":76},{"deltaTime":238,"channel":0,"type":"noteOff","noteNumber":76,"velocity":0},{"deltaTime":0,"channel":1,"type":"noteOff","noteNumber":61,"velocity":0},{"deltaTime":0,"channel":1,"type":"noteOff","noteNumber":68,"velocity":0},{"deltaTime":0,"channel":1,"type":"noteOff","noteNumber":49,"velocity":0},{"deltaTime":242,"channel":0,"type":"noteOn","noteNumber":90,"velocity":100},{"deltaTime":0,"channel":1,"type":"noteOn","noteNumber":66,"velocity":105},{"deltaTime":0,"channel":1,"type":"noteOn","noteNumber":72,"velocity":94},{"deltaTime":0,"channel":1,"type":"noteOn","noteNumber":60,"velocity":94},{"deltaTime":238,"channel":0,"type":"noteOff","noteNumber":90,"velocity":0},{"deltaTime":0,"channel":1,"type":"noteOff","noteNumber":66,"velocity":0},{"deltaTime":0,"channel":1,"type":"noteOff","noteNumber":72,"velocity":0},{"deltaTime":0,"channel":1,"type":"noteOff","noteNumber":60,"velocity":0},{"deltaTime":2,"channel":0,"type":"noteOn","noteNumber":88,"velocity":94},{"deltaTime":238,"channel":0,"type":"noteOff","noteNumber":88,"velocity":0},{"deltaTime":2,"channel":0,"type":"noteOn","noteNumber":87,"velocity":94},{"deltaTime":158,"channel":0,"type":"noteOff","noteNumber":87,"velocity":0},{"deltaTime":2,"channel":0,"type":"noteOn","noteNumber":84,"velocity":99},{"deltaTime":158,"channel":0,"type":"noteOff","noteNumber":84,"velocity":0},{"deltaTime":2,"channel":0,"type":"noteOn","noteNumber":81,"velocity":76},{"deltaTime":158,"channel":0,"type":"noteOff","noteNumber":81,"velocity":0},{"deltaTime":2,"channel":0,"type":"noteOn","noteNumber":78,"velocity":99},{"deltaTime":0,"channel":1,"type":"noteOn","noteNumber":66,"velocity":80},{"deltaTime":0,"channel":1,"type":"noteOn","noteNumber":72,"velocity":80},{"deltaTime":0,"channel":1,"type":"noteOn","noteNumber":75,"velocity":80},{"deltaTime":0,"channel":1,"type":"noteOn","noteNumber":33,"velocity":110},{"deltaTime":0,"channel":1,"type":"noteOn","noteNumber":45,"velocity":105},{"deltaTime":958,"channel":0,"type":"noteOff","noteNumber":78,"velocity":0},{"deltaTime":0,"channel":1,"type":"noteOff","noteNumber":66,"velocity":0},{"deltaTime":0,"channel":1,"type":"noteOff","noteNumber":72,"velocity":0},{"deltaTime":0,"channel":1,"type":"noteOff","noteNumber":75,"velocity":0},{"deltaTime":0,"channel":1,"type":"noteOff","noteNumber":33,"velocity":0},{"deltaTime":0,"channel":1,"type":"noteOff","noteNumber":45,"velocity":0},{"deltaTime":2,"channel":0,"type":"noteOn","noteNumber":76,"velocity":99},{"deltaTime":0,"channel":1,"type":"noteOn","noteNumber":64,"velocity":85},{"deltaTime":0,"channel":1,"type":"noteOn","noteNumber":52,"velocity":85},{"deltaTime":226,"channel":0,"type":"noteOff","noteNumber":76,"velocity":0},{"deltaTime":14,"channel":0,"type":"noteOn","noteNumber":88,"velocity":80},{"deltaTime":214,"channel":1,"type":"noteOff","noteNumber":52,"velocity":0},{"deltaTime":12,"channel":0,"type":"noteOff","noteNumber":88,"velocity":0},{"deltaTime":12,"channel":1,"type":"noteOff","noteNumber":64,"velocity":0},{"deltaTime":2,"channel":0,"type":"noteOn","noteNumber":75,"velocity":99},{"deltaTime":0,"channel":1,"type":"noteOn","noteNumber":63,"velocity":85},{"deltaTime":226,"channel":0,"type":"noteOff","noteNumber":75,"velocity":0},{"deltaTime":12,"channel":1,"type":"noteOff","noteNumber":63,"velocity":0},{"deltaTime":2,"channel":0,"type":"noteOn","noteNumber":87,"velocity":80},{"deltaTime":226,"channel":0,"type":"noteOff","noteNumber":87,"velocity":0},{"deltaTime":14,"channel":0,"type":"noteOn","noteNumber":68,"velocity":102},{"deltaTime":0,"channel":0,"type":"noteOn","noteNumber":73,"velocity":102},{"deltaTime":0,"channel":1,"type":"noteOn","noteNumber":61,"velocity":92},{"deltaTime":0,"channel":1,"type":"noteOn","noteNumber":49,"velocity":92},{"deltaTime":238,"channel":0,"type":"noteOff","noteNumber":68,"velocity":0},{"deltaTime":0,"channel":0,"type":"noteOff","noteNumber":73,"velocity":0},{"deltaTime":0,"channel":1,"type":"noteOff","noteNumber":61,"velocity":0},{"deltaTime":0,"channel":1,"type":"noteOff","noteNumber":49,"velocity":0},{"deltaTime":242,"channel":0,"type":"noteOn","noteNumber":78,"velocity":110},{"deltaTime":0,"channel":0,"type":"noteOn","noteNumber":84,"velocity":110},{"deltaTime":0,"channel":0,"type":"noteOn","noteNumber":72,"velocity":110},{"deltaTime":0,"channel":1,"type":"noteOn","noteNumber":60,"velocity":100},{"deltaTime":0,"channel":1,"type":"noteOn","noteNumber":48,"velocity":100},{"deltaTime":238,"channel":0,"type":"noteOff","noteNumber":78,"velocity":0},{"deltaTime":0,"channel":0,"type":"noteOff","noteNumber":84,"velocity":0},{"deltaTime":0,"channel":0,"type":"noteOff","noteNumber":72,"velocity":0},{"deltaTime":0,"channel":1,"type":"noteOff","noteNumber":60,"velocity":0},{"deltaTime":0,"channel":1,"type":"noteOff","noteNumber":48,"velocity":0},{"deltaTime":242,"channel":0,"type":"noteOn","noteNumber":85,"velocity":117},{"deltaTime":0,"channel":0,"type":"noteOn","noteNumber":73,"velocity":108},{"deltaTime":0,"channel":0,"type":"noteOn","noteNumber":76,"velocity":117},{"deltaTime":0,"channel":1,"type":"noteOn","noteNumber":61,"velocity":113},{"deltaTime":0,"channel":1,"type":"noteOn","noteNumber":49,"velocity":113},{"deltaTime":478,"channel":0,"type":"noteOff","noteNumber":85,"velocity":0},{"deltaTime":0,"channel":0,"type":"noteOff","noteNumber":73,"velocity":0},{"deltaTime":0,"channel":0,"type":"noteOff","noteNumber":76,"velocity":0},{"deltaTime":0,"channel":1,"type":"noteOff","noteNumber":61,"velocity":0},{"deltaTime":0,"channel":1,"type":"noteOff","noteNumber":49,"velocity":0},{"deltaTime":482,"channel":1,"type":"noteOn","noteNumber":37,"velocity":95},{"deltaTime":0,"channel":1,"type":"noteOn","noteNumber":49,"velocity":80},{"deltaTime":600,"channel":0,"type":"noteOn","noteNumber":80,"velocity":31},{"deltaTime":118,"channel":0,"type":"noteOff","noteNumber":80,"velocity":0},{"deltaTime":2,"channel":0,"type":"noteOn","noteNumber":84,"velocity":46},{"deltaTime":118,"channel":0,"type":"noteOff","noteNumber":84,"velocity":0},{"deltaTime":2,"channel":0,"type":"noteOn","noteNumber":87,"velocity":71},{"deltaTime":118,"channel":0,"type":"noteOff","noteNumber":87,"velocity":0},{"deltaTime":0,"channel":1,"type":"noteOff","noteNumber":37,"velocity":0},{"deltaTime":0,"channel":1,"type":"noteOff","noteNumber":49,"velocity":0},{"deltaTime":2,"channel":0,"type":"noteOn","noteNumber":97,"velocity":71},{"deltaTime":0,"channel":1,"type":"noteOn","noteNumber":68,"velocity":49},{"deltaTime":4,"channel":0,"type":"controller","controllerType":64,"value":127},{"deltaTime":0,"channel":1,"type":"controller","controllerType":64,"value":127},{"deltaTime":234,"channel":0,"type":"noteOff","noteNumber":97,"velocity":0},{"deltaTime":240,"channel":1,"type":"noteOff","noteNumber":68,"velocity":0},{"deltaTime":2,"channel":0,"type":"noteOn","noteNumber":85,"velocity":67},{"deltaTime":0,"channel":1,"type":"noteOn","noteNumber":73,"velocity":71},{"deltaTime":0,"channel":1,"type":"noteOn","noteNumber":37,"velocity":59},{"deltaTime":478,"channel":0,"type":"noteOff","noteNumber":85,"velocity":0},{"deltaTime":0,"channel":1,"type":"noteOff","noteNumber":73,"velocity":0},{"deltaTime":0,"channel":1,"type":"noteOff","noteNumber":37,"velocity":0},{"deltaTime":2,"channel":0,"type":"noteOn","noteNumber":95,"velocity":80},{"deltaTime":0,"channel":1,"type":"noteOn","noteNumber":76,"velocity":83},{"deltaTime":0,"channel":1,"type":"noteOn","noteNumber":56,"velocity":68},{"deltaTime":238,"channel":0,"type":"noteOff","noteNumber":95,"velocity":0},{"deltaTime":0,"channel":1,"type":"noteOff","noteNumber":76,"velocity":0},{"deltaTime":2,"channel":1,"type":"noteOn","noteNumber":78,"velocity":72},{"deltaTime":238,"channel":1,"type":"noteOff","noteNumber":78,"velocity":0},{"deltaTime":0,"channel":1,"type":"noteOff","noteNumber":56,"velocity":0},{"deltaTime":2,"channel":0,"type":"noteOn","noteNumber":80,"velocity":70},{"deltaTime":0,"channel":1,"type":"noteOn","noteNumber":76,"velocity":71},{"deltaTime":0,"channel":1,"type":"noteOn","noteNumber":49,"velocity":61},{"deltaTime":238,"channel":1,"type":"noteOff","noteNumber":76,"velocity":0},{"deltaTime":2,"channel":1,"type":"noteOn","noteNumber":73,"velocity":92},{"deltaTime":238,"channel":0,"type":"noteOff","noteNumber":80,"velocity":0},{"deltaTime":0,"channel":1,"type":"noteOff","noteNumber":73,"velocity":0},{"deltaTime":0,"channel":1,"type":"noteOff","noteNumber":49,"velocity":0},{"deltaTime":2,"channel":0,"type":"noteOn","noteNumber":93,"velocity":81},{"deltaTime":0,"channel":1,"type":"noteOn","noteNumber":69,"velocity":99},{"deltaTime":0,"channel":1,"type":"noteOn","noteNumber":54,"velocity":75},{"deltaTime":2,"channel":0,"type":"controller","controllerType":64,"value":0},{"deltaTime":0,"channel":1,"type":"controller","controllerType":64,"value":0},{"deltaTime":236,"channel":0,"type":"noteOff","noteNumber":93,"velocity":0},{"deltaTime":0,"channel":1,"type":"noteOff","noteNumber":69,"velocity":0},{"deltaTime":0,"channel":1,"type":"noteOff","noteNumber":54,"velocity":0},{"deltaTime":2,"channel":1,"type":"noteOn","noteNumber":68,"velocity":78},{"deltaTime":238,"channel":1,"type":"noteOff","noteNumber":68,"velocity":0},{"deltaTime":2,"channel":0,"type":"noteOn","noteNumber":88,"velocity":97},{"deltaTime":0,"channel":1,"type":"noteOn","noteNumber":66,"velocity":85},{"deltaTime":0,"channel":1,"type":"noteOn","noteNumber":45,"velocity":85},{"deltaTime":4,"channel":0,"type":"controller","controllerType":64,"value":127},{"deltaTime":0,"channel":1,"type":"controller","controllerType":64,"value":127},{"deltaTime":234,"channel":1,"type":"noteOff","noteNumber":66,"velocity":0},{"deltaTime":2,"channel":1,"type":"noteOn","noteNumber":76,"velocity":92},{"deltaTime":238,"channel":0,"type":"noteOff","noteNumber":88,"velocity":0},{"deltaTime":0,"channel":1,"type":"noteOff","noteNumber":76,"velocity":0},{"deltaTime":2,"channel":0,"type":"noteOn","noteNumber":91,"velocity":117},{"deltaTime":0,"channel":1,"type":"noteOn","noteNumber":75,"velocity":117},{"deltaTime":238,"channel":0,"type":"noteOff","noteNumber":91,"velocity":0},{"deltaTime":0,"channel":1,"type":"noteOff","noteNumber":75,"velocity":0},{"deltaTime":2,"channel":1,"type":"noteOn","noteNumber":73,"velocity":85},{"deltaTime":238,"channel":1,"type":"noteOff","noteNumber":73,"velocity":0},{"deltaTime":2,"channel":0,"type":"noteOn","noteNumber":85,"velocity":103},{"deltaTime":0,"channel":1,"type":"noteOn","noteNumber":69,"velocity":95},{"deltaTime":238,"channel":1,"type":"noteOff","noteNumber":69,"velocity":0},{"deltaTime":2,"channel":1,"type":"noteOn","noteNumber":67,"velocity":101},{"deltaTime":166,"channel":1,"type":"noteOff","noteNumber":45,"velocity":0},{"deltaTime":60,"channel":1,"type":"noteOff","noteNumber":67,"velocity":0},{"deltaTime":12,"channel":0,"type":"noteOff","noteNumber":85,"velocity":0},{"deltaTime":2,"channel":0,"type":"noteOn","noteNumber":80,"velocity":100},{"deltaTime":0,"channel":1,"type":"noteOn","noteNumber":68,"velocity":100},{"deltaTime":0,"channel":1,"type":"noteOn","noteNumber":52,"velocity":85},{"deltaTime":2,"channel":0,"type":"controller","controllerType":64,"value":0},{"deltaTime":0,"channel":1,"type":"controller","controllerType":64,"value":0},{"deltaTime":236,"channel":0,"type":"noteOff","noteNumber":80,"velocity":0},{"deltaTime":0,"channel":1,"type":"noteOff","noteNumber":68,"velocity":0},{"deltaTime":240,"channel":1,"type":"noteOff","noteNumber":52,"velocity":0},{"deltaTime":2,"channel":0,"type":"noteOn","noteNumber":81,"velocity":95},{"deltaTime":0,"channel":1,"type":"noteOn","noteNumber":69,"velocity":76},{"deltaTime":0,"channel":1,"type":"noteOn","noteNumber":51,"velocity":72},{"deltaTime":110,"channel":1,"type":"noteOff","noteNumber":69,"velocity":0},{"deltaTime":10,"channel":1,"type":"noteOn","noteNumber":71,"velocity":76},{"deltaTime":110,"channel":1,"type":"noteOff","noteNumber":71,"velocity":0},{"deltaTime":8,"channel":1,"type":"noteOff","noteNumber":51,"velocity":0},{"deltaTime":2,"channel":1,"type":"noteOn","noteNumber":69,"velocity":76},{"deltaTime":110,"channel":1,"type":"noteOff","noteNumber":69,"velocity":0},{"deltaTime":10,"channel":1,"type":"noteOn","noteNumber":71,"velocity":76},{"deltaTime":110,"channel":1,"type":"noteOff","noteNumber":71,"velocity":0},{"deltaTime":10,"channel":1,"type":"noteOn","noteNumber":69,"velocity":76},{"deltaTime":0,"channel":1,"type":"noteOn","noteNumber":49,"velocity":78},{"deltaTime":110,"channel":1,"type":"noteOff","noteNumber":69,"velocity":0},{"deltaTime":10,"channel":1,"type":"noteOn","noteNumber":71,"velocity":76},{"deltaTime":110,"channel":1,"type":"noteOff","noteNumber":71,"velocity":0},{"deltaTime":10,"channel":1,"type":"noteOn","noteNumber":69,"velocity":76},{"deltaTime":110,"channel":1,"type":"noteOff","noteNumber":69,"velocity":0},{"deltaTime":10,"channel":1,"type":"noteOn","noteNumber":71,"velocity":76},{"deltaTime":70,"channel":0,"type":"noteOff","noteNumber":81,"velocity":0},{"deltaTime":40,"channel":1,"type":"noteOff","noteNumber":71,"velocity":0},{"deltaTime":8,"channel":1,"type":"noteOff","noteNumber":49,"velocity":0},{"deltaTime":2,"channel":0,"type":"noteOn","noteNumber":84,"velocity":95},{"deltaTime":0,"channel":1,"type":"noteOn","noteNumber":71,"velocity":47},{"deltaTime":0,"channel":1,"type":"noteOn","noteNumber":48,"velocity":88},{"deltaTime":112,"channel":1,"type":"noteOff","noteNumber":71,"velocity":0},{"deltaTime":8,"channel":1,"type":"noteOn","noteNumber":69,"velocity":80},{"deltaTime":112,"channel":1,"type":"noteOff","noteNumber":69,"velocity":0},{"deltaTime":6,"channel":0,"type":"noteOff","noteNumber":84,"velocity":0},{"deltaTime":0,"channel":1,"type":"noteOff","noteNumber":48,"velocity":0},{"deltaTime":2,"channel":1,"type":"noteOn","noteNumber":68,"velocity":80},{"deltaTime":112,"channel":1,"type":"noteOff","noteNumber":68,"velocity":0},{"deltaTime":8,"channel":1,"type":"noteOn","noteNumber":66,"velocity":80},{"deltaTime":112,"channel":1,"type":"noteOff","noteNumber":66,"velocity":0},{"deltaTime":8,"channel":0,"type":"noteOn","noteNumber":85,"velocity":95},{"deltaTime":0,"channel":1,"type":"noteOn","noteNumber":64,"velocity":95},{"deltaTime":0,"channel":1,"type":"noteOn","noteNumber":49,"velocity":98},{"deltaTime":238,"channel":1,"type":"noteOff","noteNumber":49,"velocity":0},{"deltaTime":240,"channel":0,"type":"noteOff","noteNumber":85,"velocity":0},{"deltaTime":0,"channel":1,"type":"noteOff","noteNumber":64,"velocity":0},{"deltaTime":2,"channel":0,"type":"noteOn","noteNumber":87,"velocity":95},{"deltaTime":0,"channel":1,"type":"noteOn","noteNumber":75,"velocity":95},{"deltaTime":0,"channel":1,"type":"noteOn","noteNumber":44,"velocity":85},{"deltaTime":238,"channel":1,"type":"noteOff","noteNumber":44,"velocity":0},{"deltaTime":2,"channel":1,"type":"noteOn","noteNumber":46,"velocity":61},{"deltaTime":238,"channel":0,"type":"noteOff","noteNumber":87,"velocity":0},{"deltaTime":0,"channel":1,"type":"noteOff","noteNumber":75,"velocity":0},{"deltaTime":0,"channel":1,"type":"noteOff","noteNumber":46,"velocity":0},{"deltaTime":2,"channel":0,"type":"noteOn","noteNumber":88,"velocity":95},{"deltaTime":0,"channel":1,"type":"noteOn","noteNumber":72,"velocity":95},{"deltaTime":0,"channel":1,"type":"noteOn","noteNumber":48,"velocity":84},{"deltaTime":238,"channel":1,"type":"noteOff","noteNumber":48,"velocity":0},{"deltaTime":2,"channel":1,"type":"noteOn","noteNumber":49,"velocity":73},{"deltaTime":238,"channel":0,"type":"noteOff","noteNumber":88,"velocity":0},{"deltaTime":0,"channel":1,"type":"noteOff","noteNumber":72,"velocity":0},{"deltaTime":0,"channel":1,"type":"noteOff","noteNumber":49,"velocity":0},{"deltaTime":2,"channel":0,"type":"noteOn","noteNumber":93,"velocity":95},{"deltaTime":0,"channel":1,"type":"noteOn","noteNumber":63,"velocity":95},{"deltaTime":0,"channel":1,"type":"noteOn","noteNumber":51,"velocity":69},{"deltaTime":238,"channel":1,"type":"noteOff","noteNumber":63,"velocity":0},{"deltaTime":0,"channel":1,"type":"noteOff","noteNumber":51,"velocity":0},{"deltaTime":2,"channel":1,"type":"noteOn","noteNumber":54,"velocity":93},{"deltaTime":238,"channel":0,"type":"noteOff","noteNumber":93,"velocity":0},{"deltaTime":0,"channel":1,"type":"noteOff","noteNumber":54,"velocity":0},{"deltaTime":2,"channel":0,"type":"noteOn","noteNumber":92,"velocity":93},{"deltaTime":0,"channel":0,"type":"noteOn","noteNumber":76,"velocity":86},{"deltaTime":0,"channel":0,"type":"noteOn","noteNumber":83,"velocity":86},{"deltaTime":0,"channel":1,"type":"noteOn","noteNumber":64,"velocity":93},{"deltaTime":0,"channel":1,"type":"noteOn","noteNumber":68,"velocity":93},{"deltaTime":0,"channel":1,"type":"noteOn","noteNumber":52,"velocity":93},{"deltaTime":238,"channel":0,"type":"noteOff","noteNumber":92,"velocity":0},{"deltaTime":0,"channel":0,"type":"noteOff","noteNumber":76,"velocity":0},{"deltaTime":0,"channel":0,"type":"noteOff","noteNumber":83,"velocity":0},{"deltaTime":0,"channel":1,"type":"noteOff","noteNumber":64,"velocity":0},{"deltaTime":0,"channel":1,"type":"noteOff","noteNumber":68,"velocity":0},{"deltaTime":0,"channel":1,"type":"noteOff","noteNumber":52,"velocity":0},{"deltaTime":242,"channel":0,"type":"noteOn","noteNumber":88,"velocity":100},{"deltaTime":0,"channel":0,"type":"noteOn","noteNumber":76,"velocity":92},{"deltaTime":0,"channel":0,"type":"noteOn","noteNumber":83,"velocity":73},{"deltaTime":0,"channel":1,"type":"noteOn","noteNumber":68,"velocity":100},{"deltaTime":0,"channel":1,"type":"noteOn","noteNumber":52,"velocity":100},{"deltaTime":238,"channel":0,"type":"noteOff","noteNumber":88,"velocity":0},{"deltaTime":0,"channel":0,"type":"noteOff","noteNumber":76,"velocity":0},{"deltaTime":0,"channel":0,"type":"noteOff","noteNumber":83,"velocity":0},{"deltaTime":0,"channel":1,"type":"noteOff","noteNumber":68,"velocity":0},{"deltaTime":0,"channel":1,"type":"noteOff","noteNumber":52,"velocity":0},{"deltaTime":2,"channel":0,"type":"noteOn","noteNumber":78,"velocity":74},{"deltaTime":0,"channel":0,"type":"noteOn","noteNumber":81,"velocity":78},{"deltaTime":0,"channel":1,"type":"noteOn","noteNumber":66,"velocity":88},{"deltaTime":0,"channel":1,"type":"noteOn","noteNumber":54,"velocity":81},{"deltaTime":238,"channel":0,"type":"noteOff","noteNumber":78,"velocity":0},{"deltaTime":0,"channel":0,"type":"noteOff","noteNumber":81,"velocity":0},{"deltaTime":0,"channel":1,"type":"noteOff","noteNumber":66,"velocity":0},{"deltaTime":0,"channel":1,"type":"noteOff","noteNumber":54,"velocity":0},{"deltaTime":2,"channel":0,"type":"noteOn","noteNumber":85,"velocity":95},{"deltaTime":0,"channel":0,"type":"noteOn","noteNumber":76,"velocity":85},{"deltaTime":0,"channel":0,"type":"noteOn","noteNumber":78,"velocity":78},{"deltaTime":0,"channel":1,"type":"noteOn","noteNumber":64,"velocity":86},{"deltaTime":0,"channel":1,"type":"noteOn","noteNumber":68,"velocity":79},{"deltaTime":0,"channel":1,"type":"noteOn","noteNumber":56,"velocity":100},{"deltaTime":158,"channel":0,"type":"noteOff","noteNumber":85,"velocity":0},{"deltaTime":2,"channel":0,"type":"noteOn","noteNumber":83,"velocity":66},{"deltaTime":78,"channel":0,"type":"noteOff","noteNumber":76,"velocity":0},{"deltaTime":0,"channel":0,"type":"noteOff","noteNumber":78,"velocity":0},{"deltaTime":0,"channel":1,"type":"noteOff","noteNumber":64,"velocity":0},{"deltaTime":0,"channel":1,"type":"noteOff","noteNumber":68,"velocity":0},{"deltaTime":0,"channel":1,"type":"noteOff","noteNumber":56,"velocity":0},{"deltaTime":80,"channel":0,"type":"noteOff","noteNumber":83,"velocity":0},{"deltaTime":2,"channel":0,"type":"noteOn","noteNumber":81,"velocity":63},{"deltaTime":158,"channel":0,"type":"noteOff","noteNumber":81,"velocity":0},{"deltaTime":2,"channel":0,"type":"noteOn","noteNumber":92,"velocity":84},{"deltaTime":0,"channel":0,"type":"noteOn","noteNumber":80,"velocity":82},{"deltaTime":0,"channel":1,"type":"noteOn","noteNumber":73,"velocity":70},{"deltaTime":0,"channel":1,"type":"noteOn","noteNumber":49,"velocity":85},{"deltaTime":158,"channel":0,"type":"noteOff","noteNumber":92,"velocity":0},{"deltaTime":2,"channel":0,"type":"noteOn","noteNumber":90,"velocity":85},{"deltaTime":78,"channel":0,"type":"noteOff","noteNumber":80,"velocity":0},{"deltaTime":0,"channel":1,"type":"noteOff","noteNumber":73,"velocity":0},{"deltaTime":0,"channel":1,"type":"noteOff","noteNumber":49,"velocity":0},{"deltaTime":80,"channel":0,"type":"noteOff","noteNumber":90,"velocity":0},{"deltaTime":2,"channel":0,"type":"noteOn","noteNumber":88,"velocity":108},{"deltaTime":158,"channel":0,"type":"noteOff","noteNumber":88,"velocity":0},{"deltaTime":2,"channel":0,"type":"noteOn","noteNumber":81,"velocity":105},{"deltaTime":0,"channel":1,"type":"noteOn","noteNumber":66,"velocity":105},{"deltaTime":0,"channel":1,"type":"noteOn","noteNumber":72,"velocity":105},{"deltaTime":0,"channel":1,"type":"noteOn","noteNumber":75,"velocity":105},{"deltaTime":0,"channel":1,"type":"noteOn","noteNumber":54,"velocity":85},{"deltaTime":238,"channel":0,"type":"noteOff","noteNumber":81,"velocity":0},{"deltaTime":0,"channel":1,"type":"noteOff","noteNumber":66,"velocity":0},{"deltaTime":0,"channel":1,"type":"noteOff","noteNumber":72,"velocity":0},{"deltaTime":0,"channel":1,"type":"noteOff","noteNumber":75,"velocity":0},{"deltaTime":0,"channel":1,"type":"noteOff","noteNumber":54,"velocity":0},{"deltaTime":242,"channel":0,"type":"noteOn","noteNumber":90,"velocity":59},{"deltaTime":0,"channel":1,"type":"noteOn","noteNumber":66,"velocity":59},{"deltaTime":0,"channel":1,"type":"noteOn","noteNumber":33,"velocity":89},{"deltaTime":0,"channel":1,"type":"noteOn","noteNumber":45,"velocity":89},{"deltaTime":4,"channel":0,"type":"controller","controllerType":64,"value":127},{"deltaTime":0,"channel":1,"type":"controller","controllerType":64,"value":127},{"deltaTime":474,"channel":0,"type":"noteOff","noteNumber":90,"velocity":0},{"deltaTime":0,"channel":1,"type":"noteOff","noteNumber":66,"velocity":0},{"deltaTime":2,"channel":0,"type":"noteOn","noteNumber":87,"velocity":83},{"deltaTime":0,"channel":1,"type":"noteOn","noteNumber":68,"velocity":83},{"deltaTime":478,"channel":0,"type":"noteOff","noteNumber":87,"velocity":0},{"deltaTime":0,"channel":1,"type":"noteOff","noteNumber":68,"velocity":0},{"deltaTime":2,"channel":0,"type":"noteOn","noteNumber":81,"velocity":98},{"deltaTime":0,"channel":1,"type":"noteOn","noteNumber":69,"velocity":98},{"deltaTime":406,"channel":1,"type":"noteOff","noteNumber":33,"velocity":0},{"deltaTime":0,"channel":1,"type":"noteOff","noteNumber":45,"velocity":0},{"deltaTime":48,"channel":0,"type":"noteOff","noteNumber":81,"velocity":0},{"deltaTime":24,"channel":1,"type":"noteOff","noteNumber":69,"velocity":0},{"deltaTime":2,"channel":0,"type":"noteOn","noteNumber":83,"velocity":91},{"deltaTime":0,"channel":1,"type":"noteOn","noteNumber":64,"velocity":85},{"deltaTime":0,"channel":1,"type":"noteOn","noteNumber":68,"velocity":85},{"deltaTime":0,"channel":1,"type":"noteOn","noteNumber":71,"velocity":91},{"deltaTime":0,"channel":1,"type":"noteOn","noteNumber":52,"velocity":85},{"deltaTime":2,"channel":0,"type":"controller","controllerType":64,"value":0},{"deltaTime":0,"channel":1,"type":"controller","controllerType":64,"value":0},{"deltaTime":224,"channel":0,"type":"noteOff","noteNumber":83,"velocity":0},{"deltaTime":12,"channel":1,"type":"noteOff","noteNumber":64,"velocity":0},{"deltaTime":0,"channel":1,"type":"noteOff","noteNumber":68,"velocity":0},{"deltaTime":0,"channel":1,"type":"noteOff","noteNumber":71,"velocity":0},{"deltaTime":0,"channel":1,"type":"noteOff","noteNumber":52,"velocity":0},{"deltaTime":2,"channel":0,"type":"noteOn","noteNumber":95,"velocity":92},{"deltaTime":0,"channel":0,"type":"noteOn","noteNumber":107,"velocity":69},{"deltaTime":226,"channel":0,"type":"noteOff","noteNumber":95,"velocity":0},{"deltaTime":0,"channel":0,"type":"noteOff","noteNumber":107,"velocity":0},{"deltaTime":14,"channel":0,"type":"noteOn","noteNumber":80,"velocity":106},{"deltaTime":0,"channel":1,"type":"noteOn","noteNumber":68,"velocity":99},{"deltaTime":226,"channel":0,"type":"noteOff","noteNumber":80,"velocity":0},{"deltaTime":12,"channel":1,"type":"noteOff","noteNumber":68,"velocity":0},{"deltaTime":2,"channel":0,"type":"noteOn","noteNumber":92,"velocity":91},{"deltaTime":0,"channel":0,"type":"noteOn","noteNumber":104,"velocity":64},{"deltaTime":226,"channel":0,"type":"noteOff","noteNumber":92,"velocity":0},{"deltaTime":0,"channel":0,"type":"noteOff","noteNumber":104,"velocity":0},{"deltaTime":14,"channel":0,"type":"noteOn","noteNumber":76,"velocity":106},{"deltaTime":0,"channel":1,"type":"noteOn","noteNumber":61,"velocity":106},{"deltaTime":0,"channel":1,"type":"noteOn","noteNumber":68,"velocity":106},{"deltaTime":0,"channel":1,"type":"noteOn","noteNumber":71,"velocity":106},{"deltaTime":0,"channel":1,"type":"noteOn","noteNumber":49,"velocity":108},{"deltaTime":226,"channel":0,"type":"noteOff","noteNumber":76,"velocity":0},{"deltaTime":12,"channel":1,"type":"noteOff","noteNumber":61,"velocity":0},{"deltaTime":0,"channel":1,"type":"noteOff","noteNumber":68,"velocity":0},{"deltaTime":0,"channel":1,"type":"noteOff","noteNumber":71,"velocity":0},{"deltaTime":0,"channel":1,"type":"noteOff","noteNumber":49,"velocity":0},{"deltaTime":2,"channel":0,"type":"noteOn","noteNumber":88,"velocity":102},{"deltaTime":0,"channel":0,"type":"noteOn","noteNumber":93,"velocity":70},{"deltaTime":0,"channel":0,"type":"noteOn","noteNumber":100,"velocity":54},{"deltaTime":226,"channel":0,"type":"noteOff","noteNumber":88,"velocity":0},{"deltaTime":0,"channel":0,"type":"noteOff","noteNumber":93,"velocity":0},{"deltaTime":0,"channel":0,"type":"noteOff","noteNumber":100,"velocity":0},{"deltaTime":14,"channel":0,"type":"noteOn","noteNumber":73,"velocity":106},{"deltaTime":0,"channel":0,"type":"noteOn","noteNumber":85,"velocity":106},{"deltaTime":226,"channel":0,"type":"noteOff","noteNumber":73,"velocity":0},{"deltaTime":0,"channel":0,"type":"noteOff","noteNumber":85,"velocity":0},{"deltaTime":14,"channel":0,"type":"noteOn","noteNumber":92,"velocity":71},{"deltaTime":0,"channel":0,"type":"noteOn","noteNumber":97,"velocity":65},{"deltaTime":226,"channel":0,"type":"noteOff","noteNumber":92,"velocity":0},{"deltaTime":0,"channel":0,"type":"noteOff","noteNumber":97,"velocity":0},{"deltaTime":14,"channel":0,"type":"noteOn","noteNumber":90,"velocity":109},{"deltaTime":0,"channel":0,"type":"noteOn","noteNumber":96,"velocity":87},{"deltaTime":0,"channel":0,"type":"noteOn","noteNumber":80,"velocity":109},{"deltaTime":0,"channel":0,"type":"noteOn","noteNumber":84,"velocity":109},{"deltaTime":0,"channel":1,"type":"noteOn","noteNumber":60,"velocity":98},{"deltaTime":0,"channel":1,"type":"noteOn","noteNumber":48,"velocity":98},{"deltaTime":478,"channel":0,"type":"noteOff","noteNumber":90,"velocity":0},{"deltaTime":0,"channel":0,"type":"noteOff","noteNumber":96,"velocity":0},{"deltaTime":0,"channel":0,"type":"noteOff","noteNumber":80,"velocity":0},{"deltaTime":0,"channel":0,"type":"noteOff","noteNumber":84,"velocity":0},{"deltaTime":0,"channel":1,"type":"noteOff","noteNumber":60,"velocity":0},{"deltaTime":0,"channel":1,"type":"noteOff","noteNumber":48,"velocity":0},{"deltaTime":2,"channel":0,"type":"noteOn","noteNumber":87,"velocity":95},{"deltaTime":0,"channel":0,"type":"noteOn","noteNumber":75,"velocity":95},{"deltaTime":238,"channel":0,"type":"noteOff","noteNumber":87,"velocity":0},{"deltaTime":0,"channel":0,"type":"noteOff","noteNumber":75,"velocity":0},{"deltaTime":242,"channel":0,"type":"noteOn","noteNumber":90,"velocity":110},{"deltaTime":0,"channel":0,"type":"noteOn","noteNumber":66,"velocity":110},{"deltaTime":0,"channel":0,"type":"noteOn","noteNumber":78,"velocity":110},{"deltaTime":0,"channel":1,"type":"noteOn","noteNumber":56,"velocity":110},{"deltaTime":0,"channel":1,"type":"noteOn","noteNumber":44,"velocity":110},{"deltaTime":238,"channel":0,"type":"noteOff","noteNumber":90,"velocity":0},{"deltaTime":0,"channel":0,"type":"noteOff","noteNumber":66,"velocity":0},{"deltaTime":0,"channel":0,"type":"noteOff","noteNumber":78,"velocity":0},{"deltaTime":0,"channel":1,"type":"noteOff","noteNumber":56,"velocity":0},{"deltaTime":0,"channel":1,"type":"noteOff","noteNumber":44,"velocity":0},{"deltaTime":242,"channel":0,"type":"noteOn","noteNumber":81,"velocity":121},{"deltaTime":0,"channel":0,"type":"noteOn","noteNumber":63,"velocity":120},{"deltaTime":0,"channel":0,"type":"noteOn","noteNumber":69,"velocity":120},{"deltaTime":0,"channel":0,"type":"noteOn","noteNumber":72,"velocity":120},{"deltaTime":0,"channel":1,"type":"noteOn","noteNumber":54,"velocity":120},{"deltaTime":0,"channel":1,"type":"noteOn","noteNumber":35,"velocity":105},{"deltaTime":238,"channel":1,"type":"noteOff","noteNumber":35,"velocity":0},{"deltaTime":2,"channel":1,"type":"noteOn","noteNumber":36,"velocity":100},{"deltaTime":214,"channel":0,"type":"noteOff","noteNumber":81,"velocity":0},{"deltaTime":0,"channel":0,"type":"noteOff","noteNumber":63,"velocity":0},{"deltaTime":0,"channel":0,"type":"noteOff","noteNumber":69,"velocity":0},{"deltaTime":0,"channel":0,"type":"noteOff","noteNumber":72,"velocity":0},{"deltaTime":24,"channel":1,"type":"noteOff","noteNumber":54,"velocity":0},{"deltaTime":0,"channel":1,"type":"noteOff","noteNumber":36,"velocity":0},{"deltaTime":2,"channel":1,"type":"noteOn","noteNumber":37,"velocity":117},{"deltaTime":0,"channel":1,"type":"noteOn","noteNumber":49,"velocity":117},{"deltaTime":478,"channel":1,"type":"noteOff","noteNumber":37,"velocity":0},{"deltaTime":0,"channel":1,"type":"noteOff","noteNumber":49,"velocity":0},{"deltaTime":2,"channel":0,"type":"noteOn","noteNumber":85,"velocity":76},{"deltaTime":0,"channel":1,"type":"noteOn","noteNumber":63,"velocity":60},{"deltaTime":0,"channel":1,"type":"noteOn","noteNumber":64,"velocity":60},{"deltaTime":0,"channel":1,"type":"noteOn","noteNumber":68,"velocity":60},{"deltaTime":4,"channel":0,"type":"controller","controllerType":64,"value":127},{"deltaTime":0,"channel":1,"type":"controller","controllerType":64,"value":127},{"deltaTime":234,"channel":0,"type":"noteOff","noteNumber":85,"velocity":0},{"deltaTime":2,"channel":0,"type":"noteOn","noteNumber":84,"velocity":78},{"deltaTime":238,"channel":0,"type":"noteOff","noteNumber":84,"velocity":0},{"deltaTime":2,"channel":0,"type":"noteOn","noteNumber":85,"velocity":73},{"deltaTime":430,"channel":1,"type":"noteOff","noteNumber":63,"velocity":0},{"deltaTime":0,"channel":1,"type":"noteOff","noteNumber":64,"velocity":0},{"deltaTime":0,"channel":1,"type":"noteOff","noteNumber":68,"velocity":0},{"deltaTime":24,"channel":0,"type":"noteOff","noteNumber":85,"velocity":0},{"deltaTime":26,"channel":0,"type":"noteOn","noteNumber":85,"velocity":69},{"deltaTime":0,"channel":1,"type":"noteOn","noteNumber":63,"velocity":42},{"deltaTime":0,"channel":1,"type":"noteOn","noteNumber":64,"velocity":42},{"deltaTime":0,"channel":1,"type":"noteOn","noteNumber":68,"velocity":42},{"deltaTime":238,"channel":0,"type":"noteOff","noteNumber":85,"velocity":0},{"deltaTime":2,"channel":0,"type":"noteOn","noteNumber":84,"velocity":63},{"deltaTime":238,"channel":0,"type":"noteOff","noteNumber":84,"velocity":0},{"deltaTime":2,"channel":0,"type":"noteOn","noteNumber":85,"velocity":66},{"deltaTime":430,"channel":1,"type":"noteOff","noteNumber":63,"velocity":0},{"deltaTime":0,"channel":1,"type":"noteOff","noteNumber":64,"velocity":0},{"deltaTime":0,"channel":1,"type":"noteOff","noteNumber":68,"velocity":0},{"deltaTime":24,"channel":0,"type":"noteOff","noteNumber":85,"velocity":0},{"deltaTime":26,"channel":0,"type":"noteOn","noteNumber":85,"velocity":80},{"deltaTime":0,"channel":1,"type":"noteOn","noteNumber":63,"velocity":55},{"deltaTime":0,"channel":1,"type":"noteOn","noteNumber":64,"velocity":55},{"deltaTime":0,"channel":1,"type":"noteOn","noteNumber":68,"velocity":55},{"deltaTime":238,"channel":0,"type":"noteOff","noteNumber":85,"velocity":0},{"deltaTime":2,"channel":0,"type":"noteOn","noteNumber":84,"velocity":70},{"deltaTime":238,"channel":0,"type":"noteOff","noteNumber":84,"velocity":0},{"deltaTime":2,"channel":0,"type":"noteOn","noteNumber":85,"velocity":90},{"deltaTime":430,"channel":1,"type":"noteOff","noteNumber":63,"velocity":0},{"deltaTime":0,"channel":1,"type":"noteOff","noteNumber":64,"velocity":0},{"deltaTime":0,"channel":1,"type":"noteOff","noteNumber":68,"velocity":0},{"deltaTime":48,"channel":0,"type":"noteOff","noteNumber":85,"velocity":0},{"deltaTime":2,"channel":0,"type":"noteOn","noteNumber":80,"velocity":90},{"deltaTime":0,"channel":1,"type":"noteOn","noteNumber":63,"velocity":77},{"deltaTime":0,"channel":1,"type":"noteOn","noteNumber":64,"velocity":77},{"deltaTime":0,"channel":1,"type":"noteOn","noteNumber":68,"velocity":77},{"deltaTime":2,"channel":0,"type":"controller","controllerType":64,"value":0},{"deltaTime":0,"channel":1,"type":"controller","controllerType":64,"value":0},{"deltaTime":236,"channel":0,"type":"noteOff","noteNumber":80,"velocity":0},{"deltaTime":0,"channel":1,"type":"noteOff","noteNumber":63,"velocity":0},{"deltaTime":0,"channel":1,"type":"noteOff","noteNumber":64,"velocity":0},{"deltaTime":0,"channel":1,"type":"noteOff","noteNumber":68,"velocity":0},{"deltaTime":242,"channel":0,"type":"noteOn","noteNumber":73,"velocity":84},{"deltaTime":0,"channel":1,"type":"noteOn","noteNumber":61,"velocity":33},{"deltaTime":0,"channel":1,"type":"noteOn","noteNumber":63,"velocity":33},{"deltaTime":0,"channel":1,"type":"noteOn","noteNumber":64,"velocity":33},{"deltaTime":0,"channel":1,"type":"noteOn","noteNumber":67,"velocity":33},{"deltaTime":238,"channel":0,"type":"noteOff","noteNumber":73,"velocity":0},{"deltaTime":216,"channel":1,"type":"noteOff","noteNumber":61,"velocity":0},{"deltaTime":0,"channel":1,"type":"noteOff","noteNumber":63,"velocity":0},{"deltaTime":0,"channel":1,"type":"noteOff","noteNumber":64,"velocity":0},{"deltaTime":0,"channel":1,"type":"noteOff","noteNumber":67,"velocity":0},{"deltaTime":26,"channel":0,"type":"noteOn","noteNumber":82,"velocity":65},{"deltaTime":0,"channel":1,"type":"noteOn","noteNumber":61,"velocity":62},{"deltaTime":0,"channel":1,"type":"noteOn","noteNumber":63,"velocity":62},{"deltaTime":0,"channel":1,"type":"noteOn","noteNumber":67,"velocity":62},{"deltaTime":4,"channel":0,"type":"controller","controllerType":64,"value":127},{"deltaTime":0,"channel":1,"type":"controller","controllerType":64,"value":127},{"deltaTime":234,"channel":0,"type":"noteOff","noteNumber":82,"velocity":0},{"deltaTime":2,"channel":0,"type":"noteOn","noteNumber":81,"velocity":75},{"deltaTime":238,"channel":0,"type":"noteOff","noteNumber":81,"velocity":0},{"deltaTime":2,"channel":0,"type":"noteOn","noteNumber":82,"velocity":83},{"deltaTime":430,"channel":1,"type":"noteOff","noteNumber":61,"velocity":0},{"deltaTime":0,"channel":1,"type":"noteOff","noteNumber":63,"velocity":0},{"deltaTime":0,"channel":1,"type":"noteOff","noteNumber":67,"velocity":0},{"deltaTime":24,"channel":0,"type":"noteOff","noteNumber":82,"velocity":0},{"deltaTime":26,"channel":0,"type":"noteOn","noteNumber":79,"velocity":74},{"deltaTime":0,"channel":1,"type":"noteOn","noteNumber":61,"velocity":72},{"deltaTime":0,"channel":1,"type":"noteOn","noteNumber":63,"velocity":72},{"deltaTime":0,"channel":1,"type":"noteOn","noteNumber":67,"velocity":72},{"deltaTime":238,"channel":0,"type":"noteOff","noteNumber":79,"velocity":0},{"deltaTime":2,"channel":0,"type":"noteOn","noteNumber":78,"velocity":93},{"deltaTime":214,"channel":1,"type":"noteOff","noteNumber":61,"velocity":0},{"deltaTime":0,"channel":1,"type":"noteOff","noteNumber":63,"velocity":0},{"deltaTime":0,"channel":1,"type":"noteOff","noteNumber":67,"velocity":0},{"deltaTime":24,"channel":0,"type":"noteOff","noteNumber":78,"velocity":0},{"deltaTime":2,"channel":0,"type":"noteOn","noteNumber":79,"velocity":106},{"deltaTime":2,"channel":0,"type":"controller","controllerType":64,"value":0},{"deltaTime":0,"channel":1,"type":"controller","controllerType":64,"value":0},{"deltaTime":236,"channel":0,"type":"noteOff","noteNumber":79,"velocity":0},{"deltaTime":242,"channel":0,"type":"noteOn","noteNumber":82,"velocity":59},{"deltaTime":0,"channel":0,"type":"noteOn","noteNumber":88,"velocity":40},{"deltaTime":0,"channel":0,"type":"noteOn","noteNumber":73,"velocity":59},{"deltaTime":0,"channel":1,"type":"noteOn","noteNumber":61,"velocity":99},{"deltaTime":0,"channel":1,"type":"noteOn","noteNumber":64,"velocity":99},{"deltaTime":0,"channel":1,"type":"noteOn","noteNumber":55,"velocity":99},{"deltaTime":226,"channel":0,"type":"noteOff","noteNumber":82,"velocity":0},{"deltaTime":0,"channel":0,"type":"noteOff","noteNumber":88,"velocity":0},{"deltaTime":0,"channel":0,"type":"noteOff","noteNumber":73,"velocity":0},{"deltaTime":14,"channel":0,"type":"noteOn","noteNumber":82,"velocity":98},{"deltaTime":0,"channel":0,"type":"noteOn","noteNumber":88,"velocity":98},{"deltaTime":0,"channel":0,"type":"noteOn","noteNumber":73,"velocity":98},{"deltaTime":0,"channel":0,"type":"noteOn","noteNumber":79,"velocity":98},{"deltaTime":226,"channel":0,"type":"noteOff","noteNumber":82,"velocity":0},{"deltaTime":0,"channel":0,"type":"noteOff","noteNumber":88,"velocity":0},{"deltaTime":0,"channel":0,"type":"noteOff","noteNumber":73,"velocity":0},{"deltaTime":0,"channel":0,"type":"noteOff","noteNumber":79,"velocity":0},{"deltaTime":12,"channel":1,"type":"noteOff","noteNumber":61,"velocity":0},{"deltaTime":0,"channel":1,"type":"noteOff","noteNumber":64,"velocity":0},{"deltaTime":0,"channel":1,"type":"noteOff","noteNumber":55,"velocity":0},{"deltaTime":2,"channel":0,"type":"noteOn","noteNumber":82,"velocity":111},{"deltaTime":0,"channel":0,"type":"noteOn","noteNumber":87,"velocity":111},{"deltaTime":0,"channel":1,"type":"noteOn","noteNumber":63,"velocity":111},{"deltaTime":0,"channel":1,"type":"noteOn","noteNumber":67,"velocity":111},{"deltaTime":0,"channel":1,"type":"noteOn","noteNumber":58,"velocity":111},{"deltaTime":238,"channel":0,"type":"noteOff","noteNumber":82,"velocity":0},{"deltaTime":0,"channel":0,"type":"noteOff","noteNumber":87,"velocity":0},{"deltaTime":0,"channel":1,"type":"noteOff","noteNumber":63,"velocity":0},{"deltaTime":0,"channel":1,"type":"noteOff","noteNumber":67,"velocity":0},{"deltaTime":0,"channel":1,"type":"noteOff","noteNumber":58,"velocity":0},{"deltaTime":242,"channel":0,"type":"noteOn","noteNumber":85,"velocity":121},{"deltaTime":0,"channel":0,"type":"noteOn","noteNumber":75,"velocity":118},{"deltaTime":0,"channel":0,"type":"noteOn","noteNumber":79,"velocity":114},{"deltaTime":0,"channel":1,"type":"noteOn","noteNumber":63,"velocity":113},{"deltaTime":0,"channel":1,"type":"noteOn","noteNumber":70,"velocity":113},{"deltaTime":478,"channel":0,"type":"noteOff","noteNumber":85,"velocity":0},{"deltaTime":0,"channel":0,"type":"noteOff","noteNumber":75,"velocity":0},{"deltaTime":0,"channel":0,"type":"noteOff","noteNumber":79,"velocity":0},{"deltaTime":0,"channel":1,"type":"noteOff","noteNumber":63,"velocity":0},{"deltaTime":0,"channel":1,"type":"noteOff","noteNumber":70,"velocity":0},{"deltaTime":2,"channel":1,"type":"noteOn","noteNumber":68,"velocity":113},{"deltaTime":0,"channel":1,"type":"noteOn","noteNumber":37,"velocity":103},{"deltaTime":0,"channel":1,"type":"noteOn","noteNumber":49,"velocity":113},{"deltaTime":238,"channel":1,"type":"noteOff","noteNumber":68,"velocity":0},{"deltaTime":0,"channel":1,"type":"noteOff","noteNumber":37,"velocity":0},{"deltaTime":0,"channel":1,"type":"noteOff","noteNumber":49,"velocity":0},{"deltaTime":242,"channel":0,"type":"noteOn","noteNumber":85,"velocity":88},{"deltaTime":0,"channel":1,"type":"noteOn","noteNumber":63,"velocity":70},{"deltaTime":0,"channel":1,"type":"noteOn","noteNumber":64,"velocity":70},{"deltaTime":0,"channel":1,"type":"noteOn","noteNumber":68,"velocity":70},{"deltaTime":4,"channel":0,"type":"controller","controllerType":64,"value":127},{"deltaTime":0,"channel":1,"type":"controller","controllerType":64,"value":127},{"deltaTime":234,"channel":0,"type":"noteOff","noteNumber":85,"velocity":0},{"deltaTime":2,"channel":0,"type":"noteOn","noteNumber":84,"velocity":93},{"deltaTime":238,"channel":0,"type":"noteOff","noteNumber":84,"velocity":0},{"deltaTime":2,"channel":0,"type":"noteOn","noteNumber":85,"velocity":87},{"deltaTime":0,"channel":0,"type":"noteOn","noteNumber":76,"velocity":93},{"deltaTime":430,"channel":1,"type":"noteOff","noteNumber":63,"velocity":0},{"deltaTime":0,"channel":1,"type":"noteOff","noteNumber":64,"velocity":0},{"deltaTime":0,"channel":1,"type":"noteOff","noteNumber":68,"velocity":0},{"deltaTime":24,"channel":0,"type":"noteOff","noteNumber":85,"velocity":0},{"deltaTime":26,"channel":0,"type":"noteOn","noteNumber":85,"velocity":107},{"deltaTime":0,"channel":1,"type":"noteOn","noteNumber":63,"velocity":58},{"deltaTime":0,"channel":1,"type":"noteOn","noteNumber":64,"velocity":58},{"deltaTime":0,"channel":1,"type":"noteOn","noteNumber":68,"velocity":58},{"deltaTime":238,"channel":0,"type":"noteOff","noteNumber":85,"velocity":0},{"deltaTime":2,"channel":0,"type":"noteOn","noteNumber":84,"velocity":102},{"deltaTime":238,"channel":0,"type":"noteOff","noteNumber":84,"velocity":0},{"deltaTime":0,"channel":0,"type":"noteOff","noteNumber":76,"velocity":0},{"deltaTime":2,"channel":0,"type":"noteOn","noteNumber":85,"velocity":108},{"deltaTime":0,"channel":0,"type":"noteOn","noteNumber":75,"velocity":100},{"deltaTime":430,"channel":1,"type":"noteOff","noteNumber":63,"velocity":0},{"deltaTime":0,"channel":1,"type":"noteOff","noteNumber":64,"velocity":0},{"deltaTime":0,"channel":1,"type":"noteOff","noteNumber":68,"velocity":0},{"deltaTime":24,"channel":0,"type":"noteOff","noteNumber":85,"velocity":0},{"deltaTime":26,"channel":0,"type":"noteOn","noteNumber":85,"velocity":85},{"deltaTime":0,"channel":1,"type":"noteOn","noteNumber":63,"velocity":83},{"deltaTime":0,"channel":1,"type":"noteOn","noteNumber":64,"velocity":83},{"deltaTime":0,"channel":1,"type":"noteOn","noteNumber":68,"velocity":83},{"deltaTime":238,"channel":0,"type":"noteOff","noteNumber":85,"velocity":0},{"deltaTime":2,"channel":0,"type":"noteOn","noteNumber":84,"velocity":102},{"deltaTime":238,"channel":0,"type":"noteOff","noteNumber":84,"velocity":0},{"deltaTime":0,"channel":0,"type":"noteOff","noteNumber":75,"velocity":0},{"deltaTime":2,"channel":0,"type":"noteOn","noteNumber":85,"velocity":111},{"deltaTime":0,"channel":0,"type":"noteOn","noteNumber":73,"velocity":94},{"deltaTime":430,"channel":1,"type":"noteOff","noteNumber":63,"velocity":0},{"deltaTime":0,"channel":1,"type":"noteOff","noteNumber":64,"velocity":0},{"deltaTime":0,"channel":1,"type":"noteOff","noteNumber":68,"velocity":0},{"deltaTime":48,"channel":0,"type":"noteOff","noteNumber":85,"velocity":0},{"deltaTime":2,"channel":0,"type":"noteOn","noteNumber":88,"velocity":99},{"deltaTime":0,"channel":1,"type":"noteOn","noteNumber":63,"velocity":91},{"deltaTime":0,"channel":1,"type":"noteOn","noteNumber":64,"velocity":91},{"deltaTime":0,"channel":1,"type":"noteOn","noteNumber":68,"velocity":91},{"deltaTime":430,"channel":0,"type":"noteOff","noteNumber":73,"velocity":0},{"deltaTime":24,"channel":0,"type":"noteOff","noteNumber":88,"velocity":0},{"deltaTime":0,"channel":1,"type":"noteOff","noteNumber":63,"velocity":0},{"deltaTime":0,"channel":1,"type":"noteOff","noteNumber":64,"velocity":0},{"deltaTime":0,"channel":1,"type":"noteOff","noteNumber":68,"velocity":0},{"deltaTime":26,"channel":0,"type":"noteOn","noteNumber":92,"velocity":113},{"deltaTime":0,"channel":1,"type":"noteOn","noteNumber":42,"velocity":100},{"deltaTime":0,"channel":1,"type":"noteOn","noteNumber":54,"velocity":100},{"deltaTime":2,"channel":0,"type":"controller","controllerType":64,"value":0},{"deltaTime":0,"channel":1,"type":"controller","controllerType":64,"value":0},{"deltaTime":236,"channel":0,"type":"noteOff","noteNumber":92,"velocity":0},{"deltaTime":0,"channel":1,"type":"noteOff","noteNumber":42,"velocity":0},{"deltaTime":0,"channel":1,"type":"noteOff","noteNumber":54,"velocity":0},{"deltaTime":2,"channel":0,"type":"noteOn","noteNumber":90,"velocity":119},{"deltaTime":238,"channel":0,"type":"noteOff","noteNumber":90,"velocity":0},{"deltaTime":2,"channel":0,"type":"noteOn","noteNumber":89,"velocity":107},{"deltaTime":0,"channel":1,"type":"noteOn","noteNumber":57,"velocity":108},{"deltaTime":0,"channel":1,"type":"noteOn","noteNumber":61,"velocity":108},{"deltaTime":0,"channel":1,"type":"noteOn","noteNumber":63,"velocity":108},{"deltaTime":0,"channel":1,"type":"noteOn","noteNumber":66,"velocity":108},{"deltaTime":238,"channel":0,"type":"noteOff","noteNumber":89,"velocity":0},{"deltaTime":0,"channel":1,"type":"noteOff","noteNumber":57,"velocity":0},{"deltaTime":0,"channel":1,"type":"noteOff","noteNumber":61,"velocity":0},{"deltaTime":0,"channel":1,"type":"noteOff","noteNumber":63,"velocity":0},{"deltaTime":0,"channel":1,"type":"noteOff","noteNumber":66,"velocity":0},{"deltaTime":2,"channel":0,"type":"noteOn","noteNumber":88,"velocity":89},{"deltaTime":238,"channel":0,"type":"noteOff","noteNumber":88,"velocity":0},{"deltaTime":2,"channel":0,"type":"noteOn","noteNumber":87,"velocity":103},{"deltaTime":0,"channel":1,"type":"noteOn","noteNumber":42,"velocity":113},{"deltaTime":238,"channel":0,"type":"noteOff","noteNumber":87,"velocity":0},{"deltaTime":0,"channel":1,"type":"noteOff","noteNumber":42,"velocity":0},{"deltaTime":2,"channel":0,"type":"noteOn","noteNumber":86,"velocity":113},{"deltaTime":0,"channel":1,"type":"noteOn","noteNumber":43,"velocity":103},{"deltaTime":238,"channel":0,"type":"noteOff","noteNumber":86,"velocity":0},{"deltaTime":0,"channel":1,"type":"noteOff","noteNumber":43,"velocity":0},{"deltaTime":2,"channel":0,"type":"noteOn","noteNumber":85,"velocity":95},{"deltaTime":0,"channel":0,"type":"noteOn","noteNumber":80,"velocity":97},{"deltaTime":0,"channel":1,"type":"noteOn","noteNumber":61,"velocity":91},{"deltaTime":0,"channel":1,"type":"noteOn","noteNumber":63,"velocity":91},{"deltaTime":0,"channel":1,"type":"noteOn","noteNumber":66,"velocity":91},{"deltaTime":0,"channel":1,"type":"noteOn","noteNumber":32,"velocity":111},{"deltaTime":0,"channel":1,"type":"noteOn","noteNumber":44,"velocity":111},{"deltaTime":238,"channel":0,"type":"noteOff","noteNumber":85,"velocity":0},{"deltaTime":0,"channel":0,"type":"noteOff","noteNumber":80,"velocity":0},{"deltaTime":2,"channel":0,"type":"noteOn","noteNumber":76,"velocity":78},{"deltaTime":214,"channel":1,"type":"noteOff","noteNumber":61,"velocity":0},{"deltaTime":0,"channel":1,"type":"noteOff","noteNumber":63,"velocity":0},{"deltaTime":0,"channel":1,"type":"noteOff","noteNumber":66,"velocity":0},{"deltaTime":24,"channel":0,"type":"noteOff","noteNumber":76,"velocity":0},{"deltaTime":2,"channel":1,"type":"noteOn","noteNumber":73,"velocity":92},{"deltaTime":226,"channel":1,"type":"noteOff","noteNumber":73,"velocity":0},{"deltaTime":14,"channel":0,"type":"noteOn","noteNumber":87,"velocity":75},{"deltaTime":0,"channel":1,"type":"noteOn","noteNumber":68,"velocity":95},{"deltaTime":226,"channel":1,"type":"noteOff","noteNumber":68,"velocity":0},{"deltaTime":12,"channel":0,"type":"noteOff","noteNumber":87,"velocity":0},{"deltaTime":2,"channel":0,"type":"noteOn","noteNumber":85,"velocity":88},{"deltaTime":0,"channel":1,"type":"noteOn","noteNumber":64,"velocity":72},{"deltaTime":158,"channel":0,"type":"noteOff","noteNumber":85,"velocity":0},{"deltaTime":2,"channel":0,"type":"noteOn","noteNumber":87,"velocity":86},{"deltaTime":66,"channel":1,"type":"noteOff","noteNumber":64,"velocity":0},{"deltaTime":14,"channel":1,"type":"noteOn","noteNumber":63,"velocity":80},{"deltaTime":78,"channel":0,"type":"noteOff","noteNumber":87,"velocity":0},{"deltaTime":2,"channel":0,"type":"noteOn","noteNumber":85,"velocity":83},{"deltaTime":86,"channel":1,"type":"noteOff","noteNumber":32,"velocity":0},{"deltaTime":0,"channel":1,"type":"noteOff","noteNumber":44,"velocity":0},{"deltaTime":60,"channel":1,"type":"noteOff","noteNumber":63,"velocity":0},{"deltaTime":4,"channel":0,"type":"noteOff","noteNumber":85,"velocity":0},{"deltaTime":10,"channel":0,"type":"noteOn","noteNumber":87,"velocity":93},{"deltaTime":0,"channel":0,"type":"noteOn","noteNumber":78,"velocity":93},{"deltaTime":0,"channel":0,"type":"noteOn","noteNumber":81,"velocity":93},{"deltaTime":0,"channel":1,"type":"noteOn","noteNumber":36,"velocity":93},{"deltaTime":0,"channel":1,"type":"noteOn","noteNumber":48,"velocity":93},{"deltaTime":478,"channel":0,"type":"noteOff","noteNumber":87,"velocity":0},{"deltaTime":0,"channel":0,"type":"noteOff","noteNumber":78,"velocity":0},{"deltaTime":0,"channel":0,"type":"noteOff","noteNumber":81,"velocity":0},{"deltaTime":0,"channel":1,"type":"noteOff","noteNumber":36,"velocity":0},{"deltaTime":0,"channel":1,"type":"noteOff","noteNumber":48,"velocity":0},{"deltaTime":2,"channel":0,"type":"noteOn","noteNumber":84,"velocity":101},{"deltaTime":0,"channel":0,"type":"noteOn","noteNumber":80,"velocity":101},{"deltaTime":0,"channel":1,"type":"noteOn","noteNumber":56,"velocity":101},{"deltaTime":238,"channel":0,"type":"noteOff","noteNumber":84,"velocity":0},{"deltaTime":0,"channel":0,"type":"noteOff","noteNumber":80,"velocity":0},{"deltaTime":0,"channel":1,"type":"noteOff","noteNumber":56,"velocity":0},{"deltaTime":242,"channel":1,"type":"noteOn","noteNumber":37,"velocity":80},{"deltaTime":0,"channel":1,"type":"noteOn","noteNumber":49,"velocity":80},{"deltaTime":238,"channel":1,"type":"noteOff","noteNumber":37,"velocity":0},{"deltaTime":0,"channel":1,"type":"noteOff","noteNumber":49,"velocity":0},{"deltaTime":242,"channel":0,"type":"noteOn","noteNumber":85,"velocity":66},{"deltaTime":0,"channel":1,"type":"noteOn","noteNumber":63,"velocity":31},{"deltaTime":0,"channel":1,"type":"noteOn","noteNumber":64,"velocity":35},{"deltaTime":0,"channel":1,"type":"noteOn","noteNumber":68,"velocity":35},{"deltaTime":0,"channel":1,"type":"noteOn","noteNumber":37,"velocity":82},{"deltaTime":0,"channel":1,"type":"noteOn","noteNumber":49,"velocity":82},{"deltaTime":4,"channel":0,"type":"controller","controllerType":64,"value":127},{"deltaTime":0,"channel":1,"type":"controller","controllerType":64,"value":127},{"deltaTime":234,"channel":0,"type":"noteOff","noteNumber":85,"velocity":0},{"deltaTime":2,"channel":0,"type":"noteOn","noteNumber":84,"velocity":57},{"deltaTime":238,"channel":0,"type":"noteOff","noteNumber":84,"velocity":0},{"deltaTime":2,"channel":0,"type":"noteOn","noteNumber":85,"velocity":77},{"deltaTime":430,"channel":1,"type":"noteOff","noteNumber":63,"velocity":0},{"deltaTime":0,"channel":1,"type":"noteOff","noteNumber":64,"velocity":0},{"deltaTime":0,"channel":1,"type":"noteOff","noteNumber":68,"velocity":0},{"deltaTime":0,"channel":1,"type":"noteOff","noteNumber":37,"velocity":0},{"deltaTime":0,"channel":1,"type":"noteOff","noteNumber":49,"velocity":0},{"deltaTime":24,"channel":0,"type":"noteOff","noteNumber":85,"velocity":0},{"deltaTime":26,"channel":0,"type":"noteOn","noteNumber":84,"velocity":74},{"deltaTime":0,"channel":1,"type":"noteOn","noteNumber":63,"velocity":40},{"deltaTime":0,"channel":1,"type":"noteOn","noteNumber":64,"velocity":43},{"deltaTime":0,"channel":1,"type":"noteOn","noteNumber":68,"velocity":43},{"deltaTime":0,"channel":1,"type":"noteOn","noteNumber":48,"velocity":67},{"deltaTime":2,"channel":0,"type":"controller","controllerType":64,"value":0},{"deltaTime":0,"channel":1,"type":"controller","controllerType":64,"value":0},{"deltaTime":236,"channel":0,"type":"noteOff","noteNumber":84,"velocity":0},{"deltaTime":0,"channel":1,"type":"noteOff","noteNumber":63,"velocity":0},{"deltaTime":0,"channel":1,"type":"noteOff","noteNumber":64,"velocity":0},{"deltaTime":0,"channel":1,"type":"noteOff","noteNumber":68,"velocity":0},{"deltaTime":0,"channel":1,"type":"noteOff","noteNumber":48,"velocity":0},{"deltaTime":2,"channel":0,"type":"noteOn","noteNumber":85,"velocity":76},{"deltaTime":0,"channel":1,"type":"noteOn","noteNumber":49,"velocity":87},{"deltaTime":238,"channel":0,"type":"noteOff","noteNumber":85,"velocity":0},{"deltaTime":0,"channel":1,"type":"noteOff","noteNumber":49,"velocity":0},{"deltaTime":2,"channel":0,"type":"noteOn","noteNumber":84,"velocity":76},{"deltaTime":0,"channel":1,"type":"noteOn","noteNumber":36,"velocity":86},{"deltaTime":0,"channel":1,"type":"noteOn","noteNumber":48,"velocity":86},{"deltaTime":238,"channel":0,"type":"noteOff","noteNumber":84,"velocity":0},{"deltaTime":0,"channel":1,"type":"noteOff","noteNumber":36,"velocity":0},{"deltaTime":0,"channel":1,"type":"noteOff","noteNumber":48,"velocity":0},{"deltaTime":2,"channel":0,"type":"noteOn","noteNumber":85,"velocity":74},{"deltaTime":238,"channel":0,"type":"noteOff","noteNumber":85,"velocity":0},{"deltaTime":2,"channel":0,"type":"noteOn","noteNumber":87,"velocity":97},{"deltaTime":0,"channel":0,"type":"noteOn","noteNumber":75,"velocity":91},{"deltaTime":0,"channel":1,"type":"noteOn","noteNumber":64,"velocity":95},{"deltaTime":0,"channel":1,"type":"noteOn","noteNumber":68,"velocity":95},{"deltaTime":0,"channel":1,"type":"noteOn","noteNumber":44,"velocity":84},{"deltaTime":238,"channel":1,"type":"noteOff","noteNumber":64,"velocity":0},{"deltaTime":0,"channel":1,"type":"noteOff","noteNumber":68,"velocity":0},{"deltaTime":0,"channel":1,"type":"noteOff","noteNumber":44,"velocity":0},{"deltaTime":240,"channel":0,"type":"noteOff","noteNumber":87,"velocity":0},{"deltaTime":0,"channel":0,"type":"noteOff","noteNumber":75,"velocity":0},{"deltaTime":2,"channel":0,"type":"noteOn","noteNumber":88,"velocity":109},{"deltaTime":0,"channel":0,"type":"noteOn","noteNumber":71,"velocity":95},{"deltaTime":0,"channel":0,"type":"noteOn","noteNumber":80,"velocity":96},{"deltaTime":0,"channel":1,"type":"noteOn","noteNumber":63,"velocity":76},{"deltaTime":0,"channel":1,"type":"noteOn","noteNumber":47,"velocity":95},{"deltaTime":238,"channel":0,"type":"noteOff","noteNumber":88,"velocity":0},{"deltaTime":0,"channel":0,"type":"noteOff","noteNumber":71,"velocity":0},{"deltaTime":0,"channel":0,"type":"noteOff","noteNumber":80,"velocity":0},{"deltaTime":0,"channel":1,"type":"noteOff","noteNumber":63,"velocity":0},{"deltaTime":0,"channel":1,"type":"noteOff","noteNumber":47,"velocity":0},{"deltaTime":242,"channel":0,"type":"noteOn","noteNumber":90,"velocity":106},{"deltaTime":0,"channel":0,"type":"noteOn","noteNumber":73,"velocity":107},{"deltaTime":0,"channel":0,"type":"noteOn","noteNumber":80,"velocity":106},{"deltaTime":0,"channel":1,"type":"noteOn","noteNumber":57,"velocity":114},{"deltaTime":0,"channel":1,"type":"noteOn","noteNumber":63,"velocity":80},{"deltaTime":0,"channel":1,"type":"noteOn","noteNumber":64,"velocity":80},{"deltaTime":0,"channel":1,"type":"noteOn","noteNumber":45,"velocity":113},{"deltaTime":238,"channel":0,"type":"noteOff","noteNumber":90,"velocity":0},{"deltaTime":0,"channel":0,"type":"noteOff","noteNumber":73,"velocity":0},{"deltaTime":0,"channel":0,"type":"noteOff","noteNumber":80,"velocity":0},{"deltaTime":0,"channel":1,"type":"noteOff","noteNumber":57,"velocity":0},{"deltaTime":0,"channel":1,"type":"noteOff","noteNumber":63,"velocity":0},{"deltaTime":0,"channel":1,"type":"noteOff","noteNumber":64,"velocity":0},{"deltaTime":0,"channel":1,"type":"noteOff","noteNumber":45,"velocity":0},{"deltaTime":242,"channel":0,"type":"noteOn","noteNumber":87,"velocity":108},{"deltaTime":0,"channel":0,"type":"noteOn","noteNumber":91,"velocity":108},{"deltaTime":0,"channel":0,"type":"noteOn","noteNumber":76,"velocity":108},{"deltaTime":0,"channel":0,"type":"noteOn","noteNumber":83,"velocity":98},{"deltaTime":0,"channel":1,"type":"noteOn","noteNumber":55,"velocity":110},{"deltaTime":0,"channel":1,"type":"noteOn","noteNumber":43,"velocity":104},{"deltaTime":238,"channel":0,"type":"noteOff","noteNumber":87,"velocity":0},{"deltaTime":0,"channel":0,"type":"noteOff","noteNumber":91,"velocity":0},{"deltaTime":0,"channel":0,"type":"noteOff","noteNumber":76,"velocity":0},{"deltaTime":0,"channel":0,"type":"noteOff","noteNumber":83,"velocity":0},{"deltaTime":0,"channel":1,"type":"noteOff","noteNumber":55,"velocity":0},{"deltaTime":0,"channel":1,"type":"noteOff","noteNumber":43,"velocity":0},{"deltaTime":242,"channel":0,"type":"noteOn","noteNumber":85,"velocity":111},{"deltaTime":0,"channel":0,"type":"noteOn","noteNumber":73,"velocity":106},{"deltaTime":0,"channel":0,"type":"noteOn","noteNumber":79,"velocity":111},{"deltaTime":0,"channel":1,"type":"noteOn","noteNumber":57,"velocity":121},{"deltaTime":0,"channel":1,"type":"noteOn","noteNumber":63,"velocity":115},{"deltaTime":0,"channel":1,"type":"noteOn","noteNumber":45,"velocity":119},{"deltaTime":478,"channel":1,"type":"noteOff","noteNumber":57,"velocity":0},{"deltaTime":0,"channel":1,"type":"noteOff","noteNumber":63,"velocity":0},{"deltaTime":0,"channel":1,"type":"noteOff","noteNumber":45,"velocity":0},{"deltaTime":2,"channel":1,"type":"noteOn","noteNumber":40,"velocity":100},{"deltaTime":238,"channel":1,"type":"noteOff","noteNumber":40,"velocity":0},{"deltaTime":240,"channel":0,"type":"noteOff","noteNumber":85,"velocity":0},{"deltaTime":0,"channel":0,"type":"noteOff","noteNumber":73,"velocity":0},{"deltaTime":0,"channel":0,"type":"noteOff","noteNumber":79,"velocity":0},{"deltaTime":2,"channel":0,"type":"noteOn","noteNumber":84,"velocity":78},{"deltaTime":0,"channel":0,"type":"noteOn","noteNumber":73,"velocity":58},{"deltaTime":0,"channel":0,"type":"noteOn","noteNumber":75,"velocity":85},{"deltaTime":0,"channel":0,"type":"noteOn","noteNumber":79,"velocity":98},{"deltaTime":0,"channel":1,"type":"noteOn","noteNumber":37,"velocity":84},{"deltaTime":238,"channel":0,"type":"noteOff","noteNumber":84,"velocity":0},{"deltaTime":0,"channel":1,"type":"noteOff","noteNumber":37,"velocity":0},{"deltaTime":2,"channel":0,"type":"noteOn","noteNumber":85,"velocity":88},{"deltaTime":214,"channel":0,"type":"noteOff","noteNumber":73,"velocity":0},{"deltaTime":0,"channel":0,"type":"noteOff","noteNumber":75,"velocity":0},{"deltaTime":0,"channel":0,"type":"noteOff","noteNumber":79,"velocity":0},{"deltaTime":24,"channel":0,"type":"noteOff","noteNumber":85,"velocity":0},{"deltaTime":2,"channel":0,"type":"noteOn","noteNumber":84,"velocity":70},{"deltaTime":0,"channel":1,"type":"noteOn","noteNumber":33,"velocity":100},{"deltaTime":238,"channel":1,"type":"noteOff","noteNumber":33,"velocity":0},{"deltaTime":216,"channel":0,"type":"noteOff","noteNumber":84,"velocity":0},{"deltaTime":26,"channel":0,"type":"noteOn","noteNumber":79,"velocity":69},{"deltaTime":0,"channel":1,"type":"noteOn","noteNumber":55,"velocity":63},{"deltaTime":0,"channel":1,"type":"noteOn","noteNumber":61,"velocity":63},{"deltaTime":0,"channel":1,"type":"noteOn","noteNumber":64,"velocity":63},{"deltaTime":238,"channel":1,"type":"noteOff","noteNumber":55,"velocity":0},{"deltaTime":0,"channel":1,"type":"noteOff","noteNumber":61,"velocity":0},{"deltaTime":0,"channel":1,"type":"noteOff","noteNumber":64,"velocity":0},{"deltaTime":240,"channel":0,"type":"noteOff","noteNumber":79,"velocity":0},{"deltaTime":2,"channel":0,"type":"noteOn","noteNumber":81,"velocity":69},{"deltaTime":0,"channel":1,"type":"noteOn","noteNumber":58,"velocity":51},{"deltaTime":0,"channel":1,"type":"noteOn","noteNumber":63,"velocity":51},{"deltaTime":0,"channel":1,"type":"noteOn","noteNumber":67,"velocity":51},{"deltaTime":478,"channel":0,"type":"noteOff","noteNumber":81,"velocity":0},{"deltaTime":0,"channel":1,"type":"noteOff","noteNumber":58,"velocity":0},{"deltaTime":0,"channel":1,"type":"noteOff","noteNumber":63,"velocity":0},{"deltaTime":0,"channel":1,"type":"noteOff","noteNumber":67,"velocity":0},{"deltaTime":2,"channel":0,"type":"noteOn","noteNumber":69,"velocity":70},{"deltaTime":0,"channel":0,"type":"noteOn","noteNumber":75,"velocity":71},{"deltaTime":0,"channel":1,"type":"noteOn","noteNumber":61,"velocity":76},{"deltaTime":0,"channel":1,"type":"noteOn","noteNumber":63,"velocity":54},{"deltaTime":238,"channel":0,"type":"noteOff","noteNumber":69,"velocity":0},{"deltaTime":0,"channel":0,"type":"noteOff","noteNumber":75,"velocity":0},{"deltaTime":0,"channel":1,"type":"noteOff","noteNumber":61,"velocity":0},{"deltaTime":0,"channel":1,"type":"noteOff","noteNumber":63,"velocity":0},{"deltaTime":242,"channel":0,"type":"noteOn","noteNumber":85,"velocity":101},{"deltaTime":0,"channel":0,"type":"noteOn","noteNumber":79,"velocity":101},{"deltaTime":0,"channel":1,"type":"noteOn","noteNumber":68,"velocity":101},{"deltaTime":0,"channel":1,"type":"noteOn","noteNumber":37,"velocity":90},{"deltaTime":0,"channel":1,"type":"noteOn","noteNumber":49,"velocity":100},{"deltaTime":238,"channel":0,"type":"noteOff","noteNumber":85,"velocity":0},{"deltaTime":0,"channel":0,"type":"noteOff","noteNumber":79,"velocity":0},{"deltaTime":0,"channel":1,"type":"noteOff","noteNumber":68,"velocity":0},{"deltaTime":0,"channel":1,"type":"noteOff","noteNumber":37,"velocity":0},{"deltaTime":0,"channel":1,"type":"noteOff","noteNumber":49,"velocity":0},{"deltaTime":242,"channel":0,"type":"noteOn","noteNumber":80,"velocity":60},{"deltaTime":0,"channel":0,"type":"noteOn","noteNumber":75,"velocity":69},{"deltaTime":0,"channel":1,"type":"noteOn","noteNumber":64,"velocity":68},{"deltaTime":0,"channel":1,"type":"noteOn","noteNumber":68,"velocity":56},{"deltaTime":4,"channel":0,"type":"controller","controllerType":64,"value":127},{"deltaTime":0,"channel":1,"type":"controller","controllerType":64,"value":127},{"deltaTime":474,"channel":0,"type":"noteOff","noteNumber":80,"velocity":0},{"deltaTime":0,"channel":0,"type":"noteOff","noteNumber":75,"velocity":0},{"deltaTime":2,"channel":0,"type":"noteOn","noteNumber":76,"velocity":70},{"deltaTime":238,"channel":0,"type":"noteOff","noteNumber":76,"velocity":0},{"deltaTime":2,"channel":0,"type":"noteOn","noteNumber":72,"velocity":59},{"deltaTime":238,"channel":0,"type":"noteOff","noteNumber":72,"velocity":0},{"deltaTime":0,"channel":1,"type":"noteOff","noteNumber":64,"velocity":0},{"deltaTime":0,"channel":1,"type":"noteOff","noteNumber":68,"velocity":0},{"deltaTime":2,"channel":0,"type":"noteOn","noteNumber":80,"velocity":68},{"deltaTime":0,"channel":1,"type":"noteOn","noteNumber":63,"velocity":64},{"deltaTime":0,"channel":1,"type":"noteOn","noteNumber":64,"velocity":64},{"deltaTime":0,"channel":1,"type":"noteOn","noteNumber":68,"velocity":47},{"deltaTime":2,"channel":0,"type":"controller","controllerType":64,"value":0},{"deltaTime":0,"channel":1,"type":"controller","controllerType":64,"value":0},{"deltaTime":236,"channel":0,"type":"noteOff","noteNumber":80,"velocity":0},{"deltaTime":0,"channel":1,"type":"noteOff","noteNumber":63,"velocity":0},{"deltaTime":0,"channel":1,"type":"noteOff","noteNumber":64,"velocity":0},{"deltaTime":0,"channel":1,"type":"noteOff","noteNumber":68,"velocity":0},{"deltaTime":2,"channel":0,"type":"noteOn","noteNumber":73,"velocity":73},{"deltaTime":238,"channel":0,"type":"noteOff","noteNumber":73,"velocity":0},{"deltaTime":2,"channel":0,"type":"noteOn","noteNumber":79,"velocity":77},{"deltaTime":0,"channel":0,"type":"noteOn","noteNumber":75,"velocity":77},{"deltaTime":238,"channel":0,"type":"noteOff","noteNumber":79,"velocity":0},{"deltaTime":0,"channel":0,"type":"noteOff","noteNumber":75,"velocity":0},{"deltaTime":2,"channel":0,"type":"noteOn","noteNumber":80,"velocity":66},{"deltaTime":0,"channel":0,"type":"noteOn","noteNumber":76,"velocity":72},{"deltaTime":238,"channel":0,"type":"noteOff","noteNumber":80,"velocity":0},{"deltaTime":0,"channel":0,"type":"noteOff","noteNumber":76,"velocity":0},{"deltaTime":2,"channel":0,"type":"noteOn","noteNumber":81,"velocity":55},{"deltaTime":0,"channel":0,"type":"noteOn","noteNumber":73,"velocity":90},{"deltaTime":0,"channel":1,"type":"noteOn","noteNumber":63,"velocity":91},{"deltaTime":0,"channel":1,"type":"noteOn","noteNumber":66,"velocity":88},{"deltaTime":0,"channel":1,"type":"noteOn","noteNumber":69,"velocity":70},{"deltaTime":454,"channel":0,"type":"noteOff","noteNumber":81,"velocity":0},{"deltaTime":0,"channel":0,"type":"noteOff","noteNumber":73,"velocity":0},{"deltaTime":0,"channel":1,"type":"noteOff","noteNumber":63,"velocity":0},{"deltaTime":0,"channel":1,"type":"noteOff","noteNumber":66,"velocity":0},{"deltaTime":0,"channel":1,"type":"noteOff","noteNumber":69,"velocity":0},{"deltaTime":26,"channel":0,"type":"noteOn","noteNumber":76,"velocity":73},{"deltaTime":0,"channel":1,"type":"noteOn","noteNumber":69,"velocity":67},{"deltaTime":238,"channel":0,"type":"noteOff","noteNumber":76,"velocity":0},{"deltaTime":0,"channel":1,"type":"noteOff","noteNumber":69,"velocity":0},{"deltaTime":2,"channel":0,"type":"noteOn","noteNumber":78,"velocity":81},{"deltaTime":0,"channel":1,"type":"noteOn","noteNumber":68,"velocity":81},{"deltaTime":118,"channel":0,"type":"noteOff","noteNumber":78,"velocity":0},{"deltaTime":0,"channel":1,"type":"noteOff","noteNumber":68,"velocity":0},{"deltaTime":2,"channel":0,"type":"noteOn","noteNumber":79,"velocity":100},{"deltaTime":0,"channel":1,"type":"noteOn","noteNumber":66,"velocity":100},{"deltaTime":118,"channel":0,"type":"noteOff","noteNumber":79,"velocity":0},{"deltaTime":0,"channel":1,"type":"noteOff","noteNumber":66,"velocity":0},{"deltaTime":2,"channel":0,"type":"noteOn","noteNumber":80,"velocity":108},{"deltaTime":0,"channel":0,"type":"noteOn","noteNumber":73,"velocity":100},{"deltaTime":0,"channel":1,"type":"noteOn","noteNumber":57,"velocity":89},{"deltaTime":0,"channel":1,"type":"noteOn","noteNumber":63,"velocity":100},{"deltaTime":0,"channel":1,"type":"noteOn","noteNumber":68,"velocity":100},{"deltaTime":454,"channel":0,"type":"noteOff","noteNumber":80,"velocity":0},{"deltaTime":0,"channel":0,"type":"noteOff","noteNumber":73,"velocity":0},{"deltaTime":0,"channel":1,"type":"noteOff","noteNumber":57,"velocity":0},{"deltaTime":0,"channel":1,"type":"noteOff","noteNumber":63,"velocity":0},{"deltaTime":0,"channel":1,"type":"noteOff","noteNumber":68,"velocity":0},{"deltaTime":26,"channel":0,"type":"noteOn","noteNumber":75,"velocity":87},{"deltaTime":0,"channel":0,"type":"noteOn","noteNumber":78,"velocity":104},{"deltaTime":0,"channel":0,"type":"noteOn","noteNumber":69,"velocity":104},{"deltaTime":0,"channel":1,"type":"noteOn","noteNumber":54,"velocity":104},{"deltaTime":0,"channel":1,"type":"noteOn","noteNumber":60,"velocity":104},{"deltaTime":0,"channel":1,"type":"noteOn","noteNumber":42,"velocity":104},{"deltaTime":238,"channel":0,"type":"noteOff","noteNumber":75,"velocity":0},{"deltaTime":0,"channel":0,"type":"noteOff","noteNumber":78,"velocity":0},{"deltaTime":0,"channel":0,"type":"noteOff","noteNumber":69,"velocity":0},{"deltaTime":0,"channel":1,"type":"noteOff","noteNumber":54,"velocity":0},{"deltaTime":0,"channel":1,"type":"noteOff","noteNumber":60,"velocity":0},{"deltaTime":0,"channel":1,"type":"noteOff","noteNumber":42,"velocity":0},{"deltaTime":242,"channel":0,"type":"noteOn","noteNumber":73,"velocity":86},{"deltaTime":0,"channel":0,"type":"noteOn","noteNumber":76,"velocity":101},{"deltaTime":0,"channel":0,"type":"noteOn","noteNumber":67,"velocity":86},{"deltaTime":0,"channel":1,"type":"noteOn","noteNumber":57,"velocity":118},{"deltaTime":0,"channel":1,"type":"noteOn","noteNumber":45,"velocity":104},{"deltaTime":238,"channel":0,"type":"noteOff","noteNumber":67,"velocity":0},{"deltaTime":0,"channel":1,"type":"noteOff","noteNumber":57,"velocity":0},{"deltaTime":0,"channel":1,"type":"noteOff","noteNumber":45,"velocity":0},{"deltaTime":240,"channel":0,"type":"noteOff","noteNumber":73,"velocity":0},{"deltaTime":0,"channel":0,"type":"noteOff","noteNumber":76,"velocity":0},{"deltaTime":2,"channel":0,"type":"noteOn","noteNumber":68,"velocity":116},{"deltaTime":0,"channel":1,"type":"noteOn","noteNumber":54,"velocity":117},{"deltaTime":0,"channel":1,"type":"noteOn","noteNumber":42,"velocity":117},{"deltaTime":238,"channel":0,"type":"noteOff","noteNumber":68,"velocity":0},{"deltaTime":0,"channel":1,"type":"noteOff","noteNumber":54,"velocity":0},{"deltaTime":0,"channel":1,"type":"noteOff","noteNumber":42,"velocity":0},{"deltaTime":2,"channel":1,"type":"noteOn","noteNumber":55,"velocity":109},{"deltaTime":0,"channel":1,"type":"noteOn","noteNumber":43,"velocity":109},{"deltaTime":238,"channel":1,"type":"noteOff","noteNumber":55,"velocity":0},{"deltaTime":0,"channel":1,"type":"noteOff","noteNumber":43,"velocity":0},{"deltaTime":2,"channel":0,"type":"noteOn","noteNumber":78,"velocity":126},{"deltaTime":0,"channel":0,"type":"noteOn","noteNumber":83,"velocity":122},{"deltaTime":0,"channel":0,"type":"noteOn","noteNumber":72,"velocity":125},{"deltaTime":0,"channel":0,"type":"noteOn","noteNumber":76,"velocity":115},{"deltaTime":0,"channel":1,"type":"noteOn","noteNumber":56,"velocity":115},{"deltaTime":0,"channel":1,"type":"noteOn","noteNumber":44,"velocity":125},{"deltaTime":4,"channel":0,"type":"controller","controllerType":64,"value":127},{"deltaTime":0,"channel":1,"type":"controller","controllerType":64,"value":127},{"deltaTime":702,"channel":0,"type":"noteOff","noteNumber":78,"velocity":0},{"deltaTime":0,"channel":0,"type":"noteOff","noteNumber":83,"velocity":0},{"deltaTime":14,"channel":0,"type":"noteOn","noteNumber":81,"velocity":102},{"deltaTime":238,"channel":0,"type":"noteOff","noteNumber":81,"velocity":0},{"deltaTime":2,"channel":0,"type":"noteOn","noteNumber":75,"velocity":80},{"deltaTime":238,"channel":0,"type":"noteOff","noteNumber":75,"velocity":0},{"deltaTime":2,"channel":0,"type":"noteOn","noteNumber":73,"velocity":88},{"deltaTime":190,"channel":0,"type":"noteOff","noteNumber":72,"velocity":0},{"deltaTime":0,"channel":0,"type":"noteOff","noteNumber":76,"velocity":0},{"deltaTime":0,"channel":1,"type":"noteOff","noteNumber":56,"velocity":0},{"deltaTime":0,"channel":1,"type":"noteOff","noteNumber":44,"velocity":0},{"deltaTime":48,"channel":0,"type":"noteOff","noteNumber":73,"velocity":0},{"deltaTime":2,"channel":0,"type":"noteOn","noteNumber":72,"velocity":115},{"deltaTime":0,"channel":0,"type":"noteOn","noteNumber":63,"velocity":115},{"deltaTime":0,"channel":0,"type":"noteOn","noteNumber":66,"velocity":118},{"deltaTime":0,"channel":1,"type":"noteOn","noteNumber":56,"velocity":115},{"deltaTime":0,"channel":1,"type":"noteOn","noteNumber":36,"velocity":104},{"deltaTime":0,"channel":1,"type":"noteOn","noteNumber":48,"velocity":115},{"deltaTime":958,"channel":0,"type":"noteOff","noteNumber":72,"velocity":0},{"deltaTime":2,"meta":true,"type":"setTempo","microsecondsPerBeat":370370},{"deltaTime":960,"meta":true,"type":"setTempo","microsecondsPerBeat":618555},{"deltaTime":0,"channel":0,"type":"noteOn","noteNumber":99,"velocity":59},{"deltaTime":454,"channel":0,"type":"noteOff","noteNumber":99,"velocity":0},{"deltaTime":26,"channel":0,"type":"noteOn","noteNumber":87,"velocity":44},{"deltaTime":226,"channel":0,"type":"noteOff","noteNumber":87,"velocity":0},{"deltaTime":14,"channel":0,"type":"noteOn","noteNumber":99,"velocity":82},{"deltaTime":226,"channel":0,"type":"noteOff","noteNumber":99,"velocity":0},{"deltaTime":14,"channel":0,"type":"noteOn","noteNumber":87,"velocity":87},{"deltaTime":110,"channel":0,"type":"noteOff","noteNumber":87,"velocity":0},{"deltaTime":10,"channel":0,"type":"noteOn","noteNumber":99,"velocity":87},{"deltaTime":110,"channel":0,"type":"noteOff","noteNumber":99,"velocity":0},{"deltaTime":10,"channel":0,"type":"noteOn","noteNumber":87,"velocity":87},{"deltaTime":110,"channel":0,"type":"noteOff","noteNumber":87,"velocity":0},{"deltaTime":10,"channel":0,"type":"noteOn","noteNumber":99,"velocity":87},{"deltaTime":110,"channel":0,"type":"noteOff","noteNumber":99,"velocity":0},{"deltaTime":10,"channel":0,"type":"noteOn","noteNumber":87,"velocity":87},{"deltaTime":110,"channel":0,"type":"noteOff","noteNumber":87,"velocity":0},{"deltaTime":10,"channel":0,"type":"noteOn","noteNumber":99,"velocity":87},{"deltaTime":110,"channel":0,"type":"noteOff","noteNumber":99,"velocity":0},{"deltaTime":10,"channel":0,"type":"noteOn","noteNumber":87,"velocity":87},{"deltaTime":110,"channel":0,"type":"noteOff","noteNumber":87,"velocity":0},{"deltaTime":10,"channel":0,"type":"noteOn","noteNumber":99,"velocity":87},{"deltaTime":110,"channel":0,"type":"noteOff","noteNumber":99,"velocity":0},{"deltaTime":776,"channel":0,"type":"noteOff","noteNumber":63,"velocity":0},{"deltaTime":0,"channel":0,"type":"noteOff","noteNumber":66,"velocity":0},{"deltaTime":0,"channel":1,"type":"noteOff","noteNumber":56,"velocity":0},{"deltaTime":0,"channel":1,"type":"noteOff","noteNumber":36,"velocity":0},{"deltaTime":0,"channel":1,"type":"noteOff","noteNumber":48,"velocity":0},{"deltaTime":194,"meta":true,"type":"setTempo","microsecondsPerBeat":370370},{"deltaTime":2,"channel":0,"type":"controller","controllerType":64,"value":0},{"deltaTime":0,"channel":1,"type":"controller","controllerType":64,"value":0},{"deltaTime":478,"channel":0,"type":"noteOn","noteNumber":97,"velocity":81},{"deltaTime":0,"channel":0,"type":"noteOn","noteNumber":82,"velocity":61},{"deltaTime":118,"channel":0,"type":"noteOff","noteNumber":82,"velocity":0},{"deltaTime":2,"channel":0,"type":"noteOn","noteNumber":84,"velocity":51},{"deltaTime":118,"channel":0,"type":"noteOff","noteNumber":84,"velocity":0},{"deltaTime":2,"channel":0,"type":"noteOn","noteNumber":85,"velocity":93},{"deltaTime":238,"channel":0,"type":"noteOff","noteNumber":97,"velocity":0},{"deltaTime":0,"channel":0,"type":"noteOff","noteNumber":85,"velocity":0},{"deltaTime":2,"channel":0,"type":"noteOn","noteNumber":92,"velocity":91},{"deltaTime":0,"channel":0,"type":"noteOn","noteNumber":80,"velocity":91},{"deltaTime":238,"channel":0,"type":"noteOff","noteNumber":92,"velocity":0},{"deltaTime":0,"channel":0,"type":"noteOff","noteNumber":80,"velocity":0},{"deltaTime":242,"channel":0,"type":"noteOn","noteNumber":81,"velocity":79},{"deltaTime":238,"channel":0,"type":"noteOff","noteNumber":81,"velocity":0},{"deltaTime":242,"channel":0,"type":"noteOn","noteNumber":92,"velocity":114},{"deltaTime":0,"channel":0,"type":"noteOn","noteNumber":78,"velocity":65},{"deltaTime":166,"channel":0,"type":"noteOff","noteNumber":78,"velocity":0},{"deltaTime":2,"channel":0,"type":"noteOn","noteNumber":80,"velocity":112},{"deltaTime":70,"channel":0,"type":"noteOff","noteNumber":92,"velocity":0},{"deltaTime":82,"channel":0,"type":"noteOff","noteNumber":80,"velocity":0},{"deltaTime":160,"channel":0,"type":"noteOn","noteNumber":78,"velocity":72},{"deltaTime":238,"channel":0,"type":"noteOff","noteNumber":78,"velocity":0},{"deltaTime":242,"channel":0,"type":"noteOn","noteNumber":76,"velocity":113},{"deltaTime":238,"channel":0,"type":"noteOff","noteNumber":76,"velocity":0},{"deltaTime":242,"channel":0,"type":"noteOn","noteNumber":72,"velocity":99},{"deltaTime":238,"channel":0,"type":"noteOff","noteNumber":72,"velocity":0},{"deltaTime":242,"channel":0,"type":"noteOn","noteNumber":78,"velocity":81},{"deltaTime":0,"channel":0,"type":"noteOn","noteNumber":72,"velocity":81},{"deltaTime":0,"channel":1,"type":"noteOn","noteNumber":49,"velocity":103},{"deltaTime":166,"channel":0,"type":"noteOff","noteNumber":78,"velocity":0},{"deltaTime":0,"channel":0,"type":"noteOff","noteNumber":72,"velocity":0},{"deltaTime":2,"channel":0,"type":"noteOn","noteNumber":79,"velocity":112},{"deltaTime":0,"channel":0,"type":"noteOn","noteNumber":73,"velocity":112},{"deltaTime":152,"channel":0,"type":"noteOff","noteNumber":79,"velocity":0},{"deltaTime":0,"channel":0,"type":"noteOff","noteNumber":73,"velocity":0},{"deltaTime":158,"channel":1,"type":"noteOff","noteNumber":49,"velocity":0},{"deltaTime":2,"channel":0,"type":"noteOn","noteNumber":80,"velocity":97},{"deltaTime":0,"channel":1,"type":"noteOn","noteNumber":63,"velocity":59},{"deltaTime":0,"channel":1,"type":"noteOn","noteNumber":64,"velocity":59},{"deltaTime":0,"channel":1,"type":"noteOn","noteNumber":68,"velocity":90},{"deltaTime":478,"channel":0,"type":"noteOff","noteNumber":80,"velocity":0},{"deltaTime":0,"channel":1,"type":"noteOff","noteNumber":63,"velocity":0},{"deltaTime":0,"channel":1,"type":"noteOff","noteNumber":64,"velocity":0},{"deltaTime":0,"channel":1,"type":"noteOff","noteNumber":68,"velocity":0},{"deltaTime":2,"channel":0,"type":"noteOn","noteNumber":86,"velocity":79},{"deltaTime":0,"channel":0,"type":"noteOn","noteNumber":74,"velocity":47},{"deltaTime":0,"channel":1,"type":"noteOn","noteNumber":44,"velocity":95},{"deltaTime":166,"channel":0,"type":"noteOff","noteNumber":86,"velocity":0},{"deltaTime":0,"channel":0,"type":"noteOff","noteNumber":74,"velocity":0},{"deltaTime":2,"channel":0,"type":"noteOn","noteNumber":87,"velocity":115},{"deltaTime":0,"channel":0,"type":"noteOn","noteNumber":75,"velocity":82},{"deltaTime":70,"channel":1,"type":"noteOff","noteNumber":44,"velocity":0},{"deltaTime":238,"channel":0,"type":"noteOff","noteNumber":87,"velocity":0},{"deltaTime":0,"channel":0,"type":"noteOff","noteNumber":75,"velocity":0},{"deltaTime":4,"channel":0,"type":"noteOn","noteNumber":85,"velocity":86},{"deltaTime":0,"channel":0,"type":"noteOn","noteNumber":73,"velocity":86},{"deltaTime":0,"channel":1,"type":"noteOn","noteNumber":64,"velocity":62},{"deltaTime":0,"channel":1,"type":"noteOn","noteNumber":68,"velocity":62},{"deltaTime":118,"channel":1,"type":"noteOff","noteNumber":64,"velocity":0},{"deltaTime":0,"channel":1,"type":"noteOff","noteNumber":68,"velocity":0},{"deltaTime":122,"channel":1,"type":"noteOn","noteNumber":63,"velocity":62},{"deltaTime":0,"channel":1,"type":"noteOn","noteNumber":64,"velocity":62},{"deltaTime":0,"channel":1,"type":"noteOn","noteNumber":68,"velocity":62},{"deltaTime":118,"channel":1,"type":"noteOff","noteNumber":63,"velocity":0},{"deltaTime":0,"channel":1,"type":"noteOff","noteNumber":64,"velocity":0},{"deltaTime":0,"channel":1,"type":"noteOff","noteNumber":68,"velocity":0},{"deltaTime":96,"channel":0,"type":"noteOff","noteNumber":73,"velocity":0},{"deltaTime":26,"channel":1,"type":"noteOn","noteNumber":49,"velocity":103},{"deltaTime":226,"channel":0,"type":"noteOff","noteNumber":85,"velocity":0},{"deltaTime":12,"channel":1,"type":"noteOff","noteNumber":49,"velocity":0},{"deltaTime":2,"channel":0,"type":"noteOn","noteNumber":87,"velocity":99},{"deltaTime":238,"channel":0,"type":"noteOff","noteNumber":87,"velocity":0},{"deltaTime":2,"channel":0,"type":"noteOn","noteNumber":85,"velocity":86},{"deltaTime":0,"channel":1,"type":"noteOn","noteNumber":61,"velocity":69},{"deltaTime":0,"channel":1,"type":"noteOn","noteNumber":64,"velocity":69},{"deltaTime":0,"channel":1,"type":"noteOn","noteNumber":68,"velocity":69},{"deltaTime":0,"channel":1,"type":"noteOn","noteNumber":56,"velocity":59},{"deltaTime":238,"channel":0,"type":"noteOff","noteNumber":85,"velocity":0},{"deltaTime":0,"channel":1,"type":"noteOff","noteNumber":61,"velocity":0},{"deltaTime":0,"channel":1,"type":"noteOff","noteNumber":64,"velocity":0},{"deltaTime":0,"channel":1,"type":"noteOff","noteNumber":68,"velocity":0},{"deltaTime":0,"channel":1,"type":"noteOff","noteNumber":56,"velocity":0},{"deltaTime":2,"channel":0,"type":"noteOn","noteNumber":84,"velocity":76},{"deltaTime":238,"channel":0,"type":"noteOff","noteNumber":84,"velocity":0},{"deltaTime":2,"channel":0,"type":"noteOn","noteNumber":85,"velocity":103},{"deltaTime":0,"channel":1,"type":"noteOn","noteNumber":52,"velocity":64},{"deltaTime":478,"channel":0,"type":"noteOff","noteNumber":85,"velocity":0},{"deltaTime":0,"channel":1,"type":"noteOff","noteNumber":52,"velocity":0},{"deltaTime":2,"channel":0,"type":"noteOn","noteNumber":80,"velocity":103},{"deltaTime":0,"channel":1,"type":"noteOn","noteNumber":61,"velocity":84},{"deltaTime":0,"channel":1,"type":"noteOn","noteNumber":64,"velocity":84},{"deltaTime":0,"channel":1,"type":"noteOn","noteNumber":68,"velocity":84},{"deltaTime":0,"channel":1,"type":"noteOn","noteNumber":51,"velocity":64},{"deltaTime":238,"channel":0,"type":"noteOff","noteNumber":80,"velocity":0},{"deltaTime":0,"channel":1,"type":"noteOff","noteNumber":61,"velocity":0},{"deltaTime":0,"channel":1,"type":"noteOff","noteNumber":64,"velocity":0},{"deltaTime":0,"channel":1,"type":"noteOff","noteNumber":68,"velocity":0},{"deltaTime":240,"channel":1,"type":"noteOff","noteNumber":51,"velocity":0},{"deltaTime":2,"channel":0,"type":"noteOn","noteNumber":95,"velocity":87},{"deltaTime":0,"channel":0,"type":"noteOn","noteNumber":83,"velocity":102},{"deltaTime":0,"channel":1,"type":"noteOn","noteNumber":44,"velocity":84},{"deltaTime":478,"channel":0,"type":"noteOff","noteNumber":95,"velocity":0},{"deltaTime":0,"channel":0,"type":"noteOff","noteNumber":83,"velocity":0},{"deltaTime":0,"channel":1,"type":"noteOff","noteNumber":44,"velocity":0},{"deltaTime":2,"channel":0,"type":"noteOn","noteNumber":93,"velocity":77},{"deltaTime":0,"channel":0,"type":"noteOn","noteNumber":81,"velocity":77},{"deltaTime":0,"channel":1,"type":"noteOn","noteNumber":57,"velocity":59},{"deltaTime":0,"channel":1,"type":"noteOn","noteNumber":60,"velocity":59},{"deltaTime":0,"channel":1,"type":"noteOn","noteNumber":63,"velocity":59},{"deltaTime":0,"channel":1,"type":"noteOn","noteNumber":67,"velocity":83},{"deltaTime":478,"channel":0,"type":"noteOff","noteNumber":93,"velocity":0},{"deltaTime":0,"channel":0,"type":"noteOff","noteNumber":81,"velocity":0},{"deltaTime":0,"channel":1,"type":"noteOff","noteNumber":57,"velocity":0},{"deltaTime":0,"channel":1,"type":"noteOff","noteNumber":60,"velocity":0},{"deltaTime":0,"channel":1,"type":"noteOff","noteNumber":63,"velocity":0},{"deltaTime":0,"channel":1,"type":"noteOff","noteNumber":67,"velocity":0},{"deltaTime":2,"channel":0,"type":"noteOn","noteNumber":91,"velocity":116},{"deltaTime":0,"channel":0,"type":"noteOn","noteNumber":79,"velocity":116},{"deltaTime":0,"channel":1,"type":"noteOn","noteNumber":51,"velocity":94},{"deltaTime":238,"channel":0,"type":"noteOff","noteNumber":91,"velocity":0},{"deltaTime":0,"channel":0,"type":"noteOff","noteNumber":79,"velocity":0},{"deltaTime":0,"channel":1,"type":"noteOff","noteNumber":51,"velocity":0},{"deltaTime":242,"channel":0,"type":"noteOn","noteNumber":92,"velocity":98},{"deltaTime":0,"channel":0,"type":"noteOn","noteNumber":80,"velocity":109},{"deltaTime":0,"channel":1,"type":"noteOn","noteNumber":63,"velocity":46},{"deltaTime":0,"channel":1,"type":"noteOn","noteNumber":66,"velocity":46},{"deltaTime":118,"channel":1,"type":"noteOff","noteNumber":63,"velocity":0},{"deltaTime":0,"channel":1,"type":"noteOff","noteNumber":66,"velocity":0},{"deltaTime":122,"channel":1,"type":"noteOn","noteNumber":57,"velocity":66},{"deltaTime":0,"channel":1,"type":"noteOn","noteNumber":63,"velocity":66},{"deltaTime":0,"channel":1,"type":"noteOn","noteNumber":66,"velocity":66},{"deltaTime":118,"channel":1,"type":"noteOff","noteNumber":57,"velocity":0},{"deltaTime":0,"channel":1,"type":"noteOff","noteNumber":63,"velocity":0},{"deltaTime":0,"channel":1,"type":"noteOff","noteNumber":66,"velocity":0},{"deltaTime":120,"channel":0,"type":"noteOff","noteNumber":92,"velocity":0},{"deltaTime":0,"channel":0,"type":"noteOff","noteNumber":80,"velocity":0},{"deltaTime":2,"channel":1,"type":"noteOn","noteNumber":48,"velocity":91},{"deltaTime":238,"channel":1,"type":"noteOff","noteNumber":48,"velocity":0},{"deltaTime":242,"channel":0,"type":"noteOn","noteNumber":78,"velocity":92},{"deltaTime":0,"channel":1,"type":"noteOn","noteNumber":60,"velocity":69},{"deltaTime":0,"channel":1,"type":"noteOn","noteNumber":66,"velocity":69},{"deltaTime":238,"channel":0,"type":"noteOff","noteNumber":78,"velocity":0},{"deltaTime":0,"channel":1,"type":"noteOff","noteNumber":60,"velocity":0},{"deltaTime":0,"channel":1,"type":"noteOff","noteNumber":66,"velocity":0},{"deltaTime":242,"channel":0,"type":"noteOn","noteNumber":81,"velocity":79},{"deltaTime":0,"channel":1,"type":"noteOn","noteNumber":44,"velocity":93},{"deltaTime":478,"channel":0,"type":"noteOff","noteNumber":81,"velocity":0},{"deltaTime":0,"channel":1,"type":"noteOff","noteNumber":44,"velocity":0},{"deltaTime":2,"channel":0,"type":"noteOn","noteNumber":79,"velocity":104},{"deltaTime":0,"channel":1,"type":"noteOn","noteNumber":60,"velocity":80},{"deltaTime":0,"channel":1,"type":"noteOn","noteNumber":66,"velocity":80},{"deltaTime":0,"channel":1,"type":"noteOn","noteNumber":68,"velocity":80},{"deltaTime":238,"channel":0,"type":"noteOff","noteNumber":79,"velocity":0},{"deltaTime":0,"channel":1,"type":"noteOff","noteNumber":60,"velocity":0},{"deltaTime":0,"channel":1,"type":"noteOff","noteNumber":66,"velocity":0},{"deltaTime":0,"channel":1,"type":"noteOff","noteNumber":68,"velocity":0},{"deltaTime":242,"channel":0,"type":"noteOn","noteNumber":80,"velocity":115},{"deltaTime":0,"channel":1,"type":"noteOn","noteNumber":49,"velocity":98},{"deltaTime":478,"channel":0,"type":"noteOff","noteNumber":80,"velocity":0},{"deltaTime":0,"channel":1,"type":"noteOff","noteNumber":49,"velocity":0},{"deltaTime":2,"channel":0,"type":"noteOn","noteNumber":86,"velocity":96},{"deltaTime":0,"channel":1,"type":"noteOn","noteNumber":63,"velocity":59},{"deltaTime":0,"channel":1,"type":"noteOn","noteNumber":64,"velocity":59},{"deltaTime":0,"channel":1,"type":"noteOn","noteNumber":68,"velocity":59},{"deltaTime":166,"channel":0,"type":"noteOff","noteNumber":86,"velocity":0},{"deltaTime":2,"channel":0,"type":"noteOn","noteNumber":87,"velocity":79},{"deltaTime":308,"channel":0,"type":"noteOff","noteNumber":87,"velocity":0},{"deltaTime":2,"channel":1,"type":"noteOff","noteNumber":63,"velocity":0},{"deltaTime":0,"channel":1,"type":"noteOff","noteNumber":64,"velocity":0},{"deltaTime":0,"channel":1,"type":"noteOff","noteNumber":68,"velocity":0},{"deltaTime":2,"channel":0,"type":"noteOn","noteNumber":80,"velocity":91},{"deltaTime":0,"channel":0,"type":"noteOn","noteNumber":85,"velocity":84},{"deltaTime":0,"channel":1,"type":"noteOn","noteNumber":44,"velocity":66},{"deltaTime":238,"channel":0,"type":"noteOff","noteNumber":80,"velocity":0},{"deltaTime":0,"channel":0,"type":"noteOff","noteNumber":85,"velocity":0},{"deltaTime":0,"channel":1,"type":"noteOff","noteNumber":44,"velocity":0},{"deltaTime":242,"channel":0,"type":"noteOn","noteNumber":78,"velocity":92},{"deltaTime":0,"channel":1,"type":"noteOn","noteNumber":64,"velocity":55},{"deltaTime":0,"channel":1,"type":"noteOn","noteNumber":68,"velocity":55},{"deltaTime":118,"channel":1,"type":"noteOff","noteNumber":64,"velocity":0},{"deltaTime":0,"channel":1,"type":"noteOff","noteNumber":68,"velocity":0},{"deltaTime":120,"channel":0,"type":"noteOff","noteNumber":78,"velocity":0},{"deltaTime":2,"channel":0,"type":"noteOn","noteNumber":79,"velocity":94},{"deltaTime":0,"channel":1,"type":"noteOn","noteNumber":63,"velocity":86},{"deltaTime":0,"channel":1,"type":"noteOn","noteNumber":64,"velocity":86},{"deltaTime":0,"channel":1,"type":"noteOn","noteNumber":68,"velocity":86},{"deltaTime":118,"channel":1,"type":"noteOff","noteNumber":63,"velocity":0},{"deltaTime":0,"channel":1,"type":"noteOff","noteNumber":64,"velocity":0},{"deltaTime":0,"channel":1,"type":"noteOff","noteNumber":68,"velocity":0},{"deltaTime":120,"channel":0,"type":"noteOff","noteNumber":79,"velocity":0},{"deltaTime":2,"channel":0,"type":"noteOn","noteNumber":80,"velocity":97},{"deltaTime":0,"channel":0,"type":"noteOn","noteNumber":73,"velocity":97},{"deltaTime":0,"channel":1,"type":"noteOn","noteNumber":49,"velocity":74},{"deltaTime":454,"channel":0,"type":"noteOff","noteNumber":80,"velocity":0},{"deltaTime":0,"channel":0,"type":"noteOff","noteNumber":73,"velocity":0},{"deltaTime":24,"channel":1,"type":"noteOff","noteNumber":49,"velocity":0},{"deltaTime":2,"channel":0,"type":"noteOn","noteNumber":81,"velocity":91},{"deltaTime":0,"channel":1,"type":"noteOn","noteNumber":61,"velocity":69},{"deltaTime":0,"channel":1,"type":"noteOn","noteNumber":64,"velocity":69},{"deltaTime":0,"channel":1,"type":"noteOn","noteNumber":68,"velocity":69},{"deltaTime":0,"channel":1,"type":"noteOn","noteNumber":56,"velocity":59},{"deltaTime":238,"channel":0,"type":"noteOff","noteNumber":81,"velocity":0},{"deltaTime":0,"channel":1,"type":"noteOff","noteNumber":61,"velocity":0},{"deltaTime":0,"channel":1,"type":"noteOff","noteNumber":64,"velocity":0},{"deltaTime":0,"channel":1,"type":"noteOff","noteNumber":68,"velocity":0},{"deltaTime":0,"channel":1,"type":"noteOff","noteNumber":56,"velocity":0},{"deltaTime":2,"channel":0,"type":"noteOn","noteNumber":79,"velocity":99},{"deltaTime":238,"channel":0,"type":"noteOff","noteNumber":79,"velocity":0},{"deltaTime":2,"channel":0,"type":"noteOn","noteNumber":80,"velocity":94},{"deltaTime":0,"channel":1,"type":"noteOn","noteNumber":52,"velocity":64},{"deltaTime":238,"channel":0,"type":"noteOff","noteNumber":80,"velocity":0},{"deltaTime":2,"channel":0,"type":"noteOn","noteNumber":76,"velocity":92},{"deltaTime":238,"channel":0,"type":"noteOff","noteNumber":76,"velocity":0},{"deltaTime":0,"channel":1,"type":"noteOff","noteNumber":52,"velocity":0},{"deltaTime":2,"channel":0,"type":"noteOn","noteNumber":73,"velocity":84},{"deltaTime":0,"channel":1,"type":"noteOn","noteNumber":61,"velocity":89},{"deltaTime":0,"channel":1,"type":"noteOn","noteNumber":44,"velocity":68},{"deltaTime":226,"channel":0,"type":"noteOff","noteNumber":73,"velocity":0},{"deltaTime":12,"channel":1,"type":"noteOff","noteNumber":61,"velocity":0},{"deltaTime":0,"channel":1,"type":"noteOff","noteNumber":44,"velocity":0},{"deltaTime":2,"channel":0,"type":"noteOn","noteNumber":68,"velocity":92},{"deltaTime":226,"channel":0,"type":"noteOff","noteNumber":68,"velocity":0},{"deltaTime":14,"channel":0,"type":"noteOn","noteNumber":66,"velocity":97},{"deltaTime":0,"channel":0,"type":"noteOn","noteNumber":72,"velocity":80},{"deltaTime":0,"channel":0,"type":"noteOn","noteNumber":76,"velocity":97},{"deltaTime":0,"channel":1,"type":"noteOn","noteNumber":44,"velocity":84},{"deltaTime":240,"channel":0,"type":"noteOn","noteNumber":88,"velocity":106},{"deltaTime":226,"channel":0,"type":"noteOff","noteNumber":88,"velocity":0},{"deltaTime":12,"channel":0,"type":"noteOff","noteNumber":66,"velocity":0},{"deltaTime":0,"channel":0,"type":"noteOff","noteNumber":72,"velocity":0},{"deltaTime":0,"channel":0,"type":"noteOff","noteNumber":76,"velocity":0},{"deltaTime":0,"channel":1,"type":"noteOff","noteNumber":44,"velocity":0},{"deltaTime":2,"channel":0,"type":"noteOn","noteNumber":72,"velocity":71},{"deltaTime":0,"channel":0,"type":"noteOn","noteNumber":80,"velocity":75},{"deltaTime":0,"channel":0,"type":"noteOn","noteNumber":84,"velocity":71},{"deltaTime":0,"channel":1,"type":"noteOn","noteNumber":56,"velocity":59},{"deltaTime":0,"channel":1,"type":"noteOn","noteNumber":60,"velocity":59},{"deltaTime":238,"channel":0,"type":"noteOff","noteNumber":72,"velocity":0},{"deltaTime":0,"channel":0,"type":"noteOff","noteNumber":80,"velocity":0},{"deltaTime":0,"channel":0,"type":"noteOff","noteNumber":84,"velocity":0},{"deltaTime":0,"channel":1,"type":"noteOff","noteNumber":56,"velocity":0},{"deltaTime":0,"channel":1,"type":"noteOff","noteNumber":60,"velocity":0},{"deltaTime":2,"channel":0,"type":"noteOn","noteNumber":87,"velocity":107},{"deltaTime":226,"channel":0,"type":"noteOff","noteNumber":87,"velocity":0},{"deltaTime":14,"channel":0,"type":"noteOn","noteNumber":68,"velocity":97},{"deltaTime":0,"channel":0,"type":"noteOn","noteNumber":78,"velocity":95},{"deltaTime":0,"channel":0,"type":"noteOn","noteNumber":80,"velocity":97},{"deltaTime":0,"channel":1,"type":"noteOn","noteNumber":54,"velocity":102},{"deltaTime":238,"channel":0,"type":"noteOff","noteNumber":68,"velocity":0},{"deltaTime":0,"channel":0,"type":"noteOff","noteNumber":78,"velocity":0},{"deltaTime":0,"channel":0,"type":"noteOff","noteNumber":80,"velocity":0},{"deltaTime":0,"channel":1,"type":"noteOff","noteNumber":54,"velocity":0},{"deltaTime":2,"channel":0,"type":"noteOn","noteNumber":85,"velocity":100},{"deltaTime":0,"channel":1,"type":"noteOn","noteNumber":55,"velocity":83},{"deltaTime":226,"channel":0,"type":"noteOff","noteNumber":85,"velocity":0},{"deltaTime":12,"channel":1,"type":"noteOff","noteNumber":55,"velocity":0},{"deltaTime":2,"channel":0,"type":"noteOn","noteNumber":84,"velocity":105},{"deltaTime":0,"channel":0,"type":"noteOn","noteNumber":66,"velocity":112},{"deltaTime":0,"channel":0,"type":"noteOn","noteNumber":75,"velocity":105},{"deltaTime":0,"channel":0,"type":"noteOn","noteNumber":78,"velocity":112},{"deltaTime":0,"channel":1,"type":"noteOn","noteNumber":60,"velocity":125},{"deltaTime":0,"channel":1,"type":"noteOn","noteNumber":44,"velocity":104},{"deltaTime":454,"channel":1,"type":"noteOff","noteNumber":60,"velocity":0},{"deltaTime":0,"channel":1,"type":"noteOff","noteNumber":44,"velocity":0},{"deltaTime":26,"channel":1,"type":"noteOn","noteNumber":48,"velocity":57},{"deltaTime":238,"channel":1,"type":"noteOff","noteNumber":48,"velocity":0},{"deltaTime":192,"channel":0,"type":"noteOff","noteNumber":84,"velocity":0},{"deltaTime":0,"channel":0,"type":"noteOff","noteNumber":66,"velocity":0},{"deltaTime":0,"channel":0,"type":"noteOff","noteNumber":75,"velocity":0},{"deltaTime":0,"channel":0,"type":"noteOff","noteNumber":78,"velocity":0},{"deltaTime":50,"channel":0,"type":"noteOn","noteNumber":72,"velocity":82},{"deltaTime":0,"channel":1,"type":"noteOn","noteNumber":54,"velocity":69},{"deltaTime":0,"channel":1,"type":"noteOn","noteNumber":60,"velocity":69},{"deltaTime":238,"channel":1,"type":"noteOff","noteNumber":54,"velocity":0},{"deltaTime":0,"channel":1,"type":"noteOff","noteNumber":60,"velocity":0},{"deltaTime":240,"channel":0,"type":"noteOff","noteNumber":72,"velocity":0},{"deltaTime":2,"channel":0,"type":"noteOn","noteNumber":73,"velocity":72},{"deltaTime":0,"channel":1,"type":"noteOn","noteNumber":44,"velocity":93},{"deltaTime":238,"channel":0,"type":"noteOff","noteNumber":73,"velocity":0},{"deltaTime":0,"channel":1,"type":"noteOff","noteNumber":44,"velocity":0},{"deltaTime":242,"channel":0,"type":"noteOn","noteNumber":75,"velocity":84},{"deltaTime":0,"channel":1,"type":"noteOn","noteNumber":54,"velocity":69},{"deltaTime":0,"channel":1,"type":"noteOn","noteNumber":60,"velocity":80},{"deltaTime":238,"channel":0,"type":"noteOff","noteNumber":75,"velocity":0},{"deltaTime":0,"channel":1,"type":"noteOff","noteNumber":54,"velocity":0},{"deltaTime":0,"channel":1,"type":"noteOff","noteNumber":60,"velocity":0},{"deltaTime":242,"channel":0,"type":"noteOn","noteNumber":76,"velocity":98},{"deltaTime":0,"channel":0,"type":"noteOn","noteNumber":64,"velocity":98},{"deltaTime":0,"channel":1,"type":"noteOn","noteNumber":45,"velocity":98},{"deltaTime":4,"channel":0,"type":"controller","controllerType":64,"value":127},{"deltaTime":0,"channel":1,"type":"controller","controllerType":64,"value":127},{"deltaTime":474,"channel":0,"type":"noteOff","noteNumber":76,"velocity":0},{"deltaTime":0,"channel":0,"type":"noteOff","noteNumber":64,"velocity":0},{"deltaTime":0,"channel":1,"type":"noteOff","noteNumber":45,"velocity":0},{"deltaTime":2,"channel":0,"type":"noteOn","noteNumber":73,"velocity":97},{"deltaTime":0,"channel":0,"type":"noteOn","noteNumber":61,"velocity":77},{"deltaTime":0,"channel":1,"type":"noteOn","noteNumber":59,"velocity":77},{"deltaTime":454,"channel":0,"type":"noteOff","noteNumber":73,"velocity":0},{"deltaTime":0,"channel":0,"type":"noteOff","noteNumber":61,"velocity":0},{"deltaTime":0,"channel":1,"type":"noteOff","noteNumber":59,"velocity":0},{"deltaTime":26,"channel":0,"type":"noteOn","noteNumber":81,"velocity":84},{"deltaTime":0,"channel":0,"type":"noteOn","noteNumber":69,"velocity":87},{"deltaTime":0,"channel":1,"type":"noteOn","noteNumber":40,"velocity":97},{"deltaTime":2,"channel":0,"type":"controller","controllerType":64,"value":0},{"deltaTime":0,"channel":1,"type":"controller","controllerType":64,"value":0},{"deltaTime":476,"channel":0,"type":"noteOff","noteNumber":81,"velocity":0},{"deltaTime":0,"channel":0,"type":"noteOff","noteNumber":69,"velocity":0},{"deltaTime":0,"channel":1,"type":"noteOff","noteNumber":40,"velocity":0},{"deltaTime":2,"channel":0,"type":"noteOn","noteNumber":93,"velocity":85},{"deltaTime":0,"channel":1,"type":"noteOn","noteNumber":57,"velocity":74},{"deltaTime":118,"channel":1,"type":"noteOff","noteNumber":57,"velocity":0},{"deltaTime":122,"channel":1,"type":"noteOn","noteNumber":56,"velocity":74},{"deltaTime":0,"channel":1,"type":"noteOn","noteNumber":60,"velocity":74},{"deltaTime":0,"channel":1,"type":"noteOn","noteNumber":63,"velocity":74},{"deltaTime":118,"channel":1,"type":"noteOff","noteNumber":56,"velocity":0},{"deltaTime":0,"channel":1,"type":"noteOff","noteNumber":60,"velocity":0},{"deltaTime":0,"channel":1,"type":"noteOff","noteNumber":63,"velocity":0},{"deltaTime":96,"channel":0,"type":"noteOff","noteNumber":93,"velocity":0},{"deltaTime":26,"channel":0,"type":"noteOn","noteNumber":80,"velocity":108},{"deltaTime":0,"channel":0,"type":"noteOn","noteNumber":68,"velocity":108},{"deltaTime":0,"channel":1,"type":"noteOn","noteNumber":44,"velocity":74},{"deltaTime":4,"channel":0,"type":"controller","controllerType":64,"value":127},{"deltaTime":0,"channel":1,"type":"controller","controllerType":64,"value":127},{"deltaTime":474,"channel":0,"type":"noteOff","noteNumber":80,"velocity":0},{"deltaTime":0,"channel":0,"type":"noteOff","noteNumber":68,"velocity":0},{"deltaTime":0,"channel":1,"type":"noteOff","noteNumber":44,"velocity":0},{"deltaTime":2,"channel":0,"type":"noteOn","noteNumber":84,"velocity":73},{"deltaTime":0,"channel":0,"type":"noteOn","noteNumber":72,"velocity":79},{"deltaTime":0,"channel":1,"type":"noteOn","noteNumber":54,"velocity":79},{"deltaTime":0,"channel":1,"type":"noteOn","noteNumber":60,"velocity":79},{"deltaTime":0,"channel":1,"type":"noteOn","noteNumber":63,"velocity":79},{"deltaTime":454,"channel":1,"type":"noteOff","noteNumber":54,"velocity":0},{"deltaTime":0,"channel":1,"type":"noteOff","noteNumber":60,"velocity":0},{"deltaTime":0,"channel":1,"type":"noteOff","noteNumber":63,"velocity":0},{"deltaTime":24,"channel":0,"type":"noteOff","noteNumber":84,"velocity":0},{"deltaTime":0,"channel":0,"type":"noteOff","noteNumber":72,"velocity":0},{"deltaTime":2,"channel":0,"type":"noteOn","noteNumber":87,"velocity":105},{"deltaTime":0,"channel":0,"type":"noteOn","noteNumber":75,"velocity":107},{"deltaTime":0,"channel":1,"type":"noteOn","noteNumber":48,"velocity":64},{"deltaTime":2,"channel":0,"type":"controller","controllerType":64,"value":0},{"deltaTime":0,"channel":1,"type":"controller","controllerType":64,"value":0},{"deltaTime":452,"channel":0,"type":"noteOff","noteNumber":87,"velocity":0},{"deltaTime":0,"channel":0,"type":"noteOff","noteNumber":75,"velocity":0},{"deltaTime":24,"channel":1,"type":"noteOff","noteNumber":48,"velocity":0},{"deltaTime":2,"channel":0,"type":"noteOn","noteNumber":84,"velocity":86},{"deltaTime":0,"channel":1,"type":"noteOn","noteNumber":51,"velocity":68},{"deltaTime":0,"channel":1,"type":"noteOn","noteNumber":56,"velocity":89},{"deltaTime":238,"channel":0,"type":"noteOff","noteNumber":84,"velocity":0},{"deltaTime":0,"channel":1,"type":"noteOff","noteNumber":51,"velocity":0},{"deltaTime":0,"channel":1,"type":"noteOff","noteNumber":56,"velocity":0},{"deltaTime":2,"channel":0,"type":"noteOn","noteNumber":80,"velocity":92},{"deltaTime":238,"channel":0,"type":"noteOff","noteNumber":80,"velocity":0},{"deltaTime":2,"channel":0,"type":"noteOn","noteNumber":76,"velocity":87},{"deltaTime":0,"channel":1,"type":"noteOn","noteNumber":49,"velocity":98},{"deltaTime":454,"channel":0,"type":"noteOff","noteNumber":76,"velocity":0},{"deltaTime":24,"channel":1,"type":"noteOff","noteNumber":49,"velocity":0},{"deltaTime":2,"channel":0,"type":"noteOn","noteNumber":78,"velocity":96},{"deltaTime":0,"channel":1,"type":"noteOn","noteNumber":63,"velocity":51},{"deltaTime":0,"channel":1,"type":"noteOn","noteNumber":64,"velocity":51},{"deltaTime":0,"channel":1,"type":"noteOn","noteNumber":68,"velocity":51},{"deltaTime":158,"channel":0,"type":"noteOff","noteNumber":78,"velocity":0},{"deltaTime":2,"channel":0,"type":"noteOn","noteNumber":76,"velocity":96},{"deltaTime":158,"channel":0,"type":"noteOff","noteNumber":76,"velocity":0},{"deltaTime":2,"channel":0,"type":"noteOn","noteNumber":75,"velocity":96},{"deltaTime":150,"channel":0,"type":"noteOff","noteNumber":75,"velocity":0},{"deltaTime":8,"channel":1,"type":"noteOff","noteNumber":63,"velocity":0},{"deltaTime":0,"channel":1,"type":"noteOff","noteNumber":64,"velocity":0},{"deltaTime":0,"channel":1,"type":"noteOff","noteNumber":68,"velocity":0},{"deltaTime":2,"channel":0,"type":"noteOn","noteNumber":76,"velocity":97},{"deltaTime":0,"channel":1,"type":"noteOn","noteNumber":44,"velocity":96},{"deltaTime":478,"channel":0,"type":"noteOff","noteNumber":76,"velocity":0},{"deltaTime":0,"channel":1,"type":"noteOff","noteNumber":44,"velocity":0},{"deltaTime":2,"channel":0,"type":"noteOn","noteNumber":78,"velocity":84},{"deltaTime":0,"channel":1,"type":"noteOn","noteNumber":61,"velocity":40},{"deltaTime":0,"channel":1,"type":"noteOn","noteNumber":68,"velocity":40},{"deltaTime":118,"channel":1,"type":"noteOff","noteNumber":61,"velocity":0},{"deltaTime":0,"channel":1,"type":"noteOff","noteNumber":68,"velocity":0},{"deltaTime":120,"channel":0,"type":"noteOff","noteNumber":78,"velocity":0},{"deltaTime":2,"channel":1,"type":"noteOn","noteNumber":63,"velocity":62},{"deltaTime":0,"channel":1,"type":"noteOn","noteNumber":64,"velocity":62},{"deltaTime":0,"channel":1,"type":"noteOn","noteNumber":68,"velocity":62},{"deltaTime":118,"channel":1,"type":"noteOff","noteNumber":63,"velocity":0},{"deltaTime":0,"channel":1,"type":"noteOff","noteNumber":64,"velocity":0},{"deltaTime":0,"channel":1,"type":"noteOff","noteNumber":68,"velocity":0},{"deltaTime":122,"channel":0,"type":"noteOn","noteNumber":80,"velocity":70},{"deltaTime":0,"channel":1,"type":"noteOn","noteNumber":50,"velocity":85},{"deltaTime":238,"channel":0,"type":"noteOff","noteNumber":80,"velocity":0},{"deltaTime":0,"channel":1,"type":"noteOff","noteNumber":50,"velocity":0},{"deltaTime":242,"channel":0,"type":"noteOn","noteNumber":81,"velocity":100},{"deltaTime":0,"channel":1,"type":"noteOn","noteNumber":61,"velocity":86},{"deltaTime":0,"channel":1,"type":"noteOn","noteNumber":66,"velocity":94},{"deltaTime":0,"channel":1,"type":"noteOn","noteNumber":69,"velocity":94},{"deltaTime":238,"channel":0,"type":"noteOff","noteNumber":81,"velocity":0},{"deltaTime":0,"channel":1,"type":"noteOff","noteNumber":61,"velocity":0},{"deltaTime":0,"channel":1,"type":"noteOff","noteNumber":66,"velocity":0},{"deltaTime":0,"channel":1,"type":"noteOff","noteNumber":69,"velocity":0},{"deltaTime":242,"channel":0,"type":"noteOn","noteNumber":83,"velocity":102},{"deltaTime":0,"channel":1,"type":"noteOn","noteNumber":61,"velocity":96},{"deltaTime":0,"channel":1,"type":"noteOn","noteNumber":66,"velocity":106},{"deltaTime":0,"channel":1,"type":"noteOn","noteNumber":71,"velocity":96},{"deltaTime":0,"channel":1,"type":"noteOn","noteNumber":52,"velocity":101},{"deltaTime":238,"channel":0,"type":"noteOff","noteNumber":83,"velocity":0},{"deltaTime":240,"channel":1,"type":"noteOff","noteNumber":61,"velocity":0},{"deltaTime":0,"channel":1,"type":"noteOff","noteNumber":66,"velocity":0},{"deltaTime":0,"channel":1,"type":"noteOff","noteNumber":71,"velocity":0},{"deltaTime":0,"channel":1,"type":"noteOff","noteNumber":52,"velocity":0},{"deltaTime":2,"channel":0,"type":"noteOn","noteNumber":85,"velocity":110},{"deltaTime":0,"channel":1,"type":"noteOn","noteNumber":69,"velocity":101},{"deltaTime":0,"channel":1,"type":"noteOn","noteNumber":73,"velocity":106},{"deltaTime":0,"channel":1,"type":"noteOn","noteNumber":76,"velocity":79},{"deltaTime":0,"channel":1,"type":"noteOn","noteNumber":54,"velocity":101},{"deltaTime":238,"channel":0,"type":"noteOff","noteNumber":85,"velocity":0},{"deltaTime":0,"channel":1,"type":"noteOff","noteNumber":69,"velocity":0},{"deltaTime":0,"channel":1,"type":"noteOff","noteNumber":73,"velocity":0},{"deltaTime":0,"channel":1,"type":"noteOff","noteNumber":76,"velocity":0},{"deltaTime":0,"channel":1,"type":"noteOff","noteNumber":54,"velocity":0},{"deltaTime":242,"channel":0,"type":"noteOn","noteNumber":87,"velocity":96},{"deltaTime":0,"channel":0,"type":"noteOn","noteNumber":76,"velocity":99},{"deltaTime":0,"channel":1,"type":"noteOn","noteNumber":44,"velocity":92},{"deltaTime":0,"channel":1,"type":"noteOn","noteNumber":56,"velocity":92},{"deltaTime":166,"channel":0,"type":"noteOff","noteNumber":87,"velocity":0},{"deltaTime":2,"channel":0,"type":"noteOn","noteNumber":88,"velocity":99},{"deltaTime":312,"channel":1,"type":"noteOn","noteNumber":64,"velocity":69},{"deltaTime":0,"channel":1,"type":"noteOn","noteNumber":68,"velocity":69},{"deltaTime":0,"channel":1,"type":"noteOn","noteNumber":73,"velocity":69},{"deltaTime":430,"channel":0,"type":"noteOff","noteNumber":76,"velocity":0},{"deltaTime":6,"channel":0,"type":"noteOff","noteNumber":88,"velocity":0},{"deltaTime":42,"channel":1,"type":"noteOff","noteNumber":64,"velocity":0},{"deltaTime":0,"channel":1,"type":"noteOff","noteNumber":68,"velocity":0},{"deltaTime":0,"channel":1,"type":"noteOff","noteNumber":73,"velocity":0},{"deltaTime":0,"channel":1,"type":"noteOff","noteNumber":44,"velocity":0},{"deltaTime":0,"channel":1,"type":"noteOff","noteNumber":56,"velocity":0},{"deltaTime":2,"channel":0,"type":"noteOn","noteNumber":87,"velocity":96},{"deltaTime":0,"channel":0,"type":"noteOn","noteNumber":76,"velocity":106},{"deltaTime":0,"channel":1,"type":"noteOn","noteNumber":49,"velocity":69},{"deltaTime":166,"channel":0,"type":"noteOff","noteNumber":87,"velocity":0},{"deltaTime":2,"channel":0,"type":"noteOn","noteNumber":88,"velocity":106},{"deltaTime":70,"channel":1,"type":"noteOff","noteNumber":49,"velocity":0},{"deltaTime":216,"channel":0,"type":"noteOff","noteNumber":76,"velocity":0},{"deltaTime":22,"channel":0,"type":"noteOff","noteNumber":88,"velocity":0},{"deltaTime":4,"channel":0,"type":"noteOn","noteNumber":92,"velocity":118},{"deltaTime":0,"channel":1,"type":"noteOn","noteNumber":63,"velocity":78},{"deltaTime":0,"channel":1,"type":"noteOn","noteNumber":68,"velocity":78},{"deltaTime":118,"channel":1,"type":"noteOff","noteNumber":63,"velocity":0},{"deltaTime":0,"channel":1,"type":"noteOff","noteNumber":68,"velocity":0},{"deltaTime":122,"channel":1,"type":"noteOn","noteNumber":61,"velocity":93},{"deltaTime":0,"channel":1,"type":"noteOn","noteNumber":68,"velocity":93},{"deltaTime":118,"channel":1,"type":"noteOff","noteNumber":61,"velocity":0},{"deltaTime":0,"channel":1,"type":"noteOff","noteNumber":68,"velocity":0},{"deltaTime":120,"channel":0,"type":"noteOff","noteNumber":92,"velocity":0},{"deltaTime":2,"channel":0,"type":"noteOn","noteNumber":90,"velocity":87},{"deltaTime":0,"channel":0,"type":"noteOn","noteNumber":78,"velocity":104},{"deltaTime":0,"channel":1,"type":"noteOn","noteNumber":39,"velocity":87},{"deltaTime":0,"channel":1,"type":"noteOn","noteNumber":51,"velocity":87},{"deltaTime":478,"channel":0,"type":"noteOff","noteNumber":90,"velocity":0},{"deltaTime":0,"channel":0,"type":"noteOff","noteNumber":78,"velocity":0},{"deltaTime":0,"channel":1,"type":"noteOff","noteNumber":39,"velocity":0},{"deltaTime":0,"channel":1,"type":"noteOff","noteNumber":51,"velocity":0},{"deltaTime":2,"channel":0,"type":"noteOn","noteNumber":88,"velocity":101},{"deltaTime":0,"channel":0,"type":"noteOn","noteNumber":76,"velocity":105},{"deltaTime":0,"channel":1,"type":"noteOn","noteNumber":63,"velocity":66},{"deltaTime":0,"channel":1,"type":"noteOn","noteNumber":68,"velocity":66},{"deltaTime":0,"channel":1,"type":"noteOn","noteNumber":72,"velocity":66},{"deltaTime":478,"channel":0,"type":"noteOff","noteNumber":88,"velocity":0},{"deltaTime":0,"channel":0,"type":"noteOff","noteNumber":76,"velocity":0},{"deltaTime":2,"channel":0,"type":"noteOn","noteNumber":87,"velocity":116},{"deltaTime":0,"channel":0,"type":"noteOn","noteNumber":75,"velocity":101},{"deltaTime":0,"channel":1,"type":"noteOn","noteNumber":44,"velocity":86},{"deltaTime":454,"channel":0,"type":"noteOff","noteNumber":87,"velocity":0},{"deltaTime":24,"channel":0,"type":"noteOff","noteNumber":75,"velocity":0},{"deltaTime":0,"channel":1,"type":"noteOff","noteNumber":63,"velocity":0},{"deltaTime":0,"channel":1,"type":"noteOff","noteNumber":68,"velocity":0},{"deltaTime":0,"channel":1,"type":"noteOff","noteNumber":72,"velocity":0},{"deltaTime":0,"channel":1,"type":"noteOff","noteNumber":44,"velocity":0},{"deltaTime":2,"channel":0,"type":"noteOn","noteNumber":78,"velocity":84},{"deltaTime":0,"channel":0,"type":"noteOn","noteNumber":72,"velocity":81},{"deltaTime":0,"channel":1,"type":"noteOn","noteNumber":57,"velocity":66},{"deltaTime":0,"channel":1,"type":"noteOn","noteNumber":63,"velocity":66},{"deltaTime":238,"channel":0,"type":"noteOff","noteNumber":78,"velocity":0},{"deltaTime":0,"channel":1,"type":"noteOff","noteNumber":57,"velocity":0},{"deltaTime":0,"channel":1,"type":"noteOff","noteNumber":63,"velocity":0},{"deltaTime":2,"channel":0,"type":"noteOn","noteNumber":85,"velocity":96},{"deltaTime":214,"channel":0,"type":"noteOff","noteNumber":72,"velocity":0},{"deltaTime":24,"channel":0,"type":"noteOff","noteNumber":85,"velocity":0},{"deltaTime":2,"channel":0,"type":"noteOn","noteNumber":86,"velocity":96},{"deltaTime":0,"channel":1,"type":"noteOn","noteNumber":56,"velocity":94},{"deltaTime":166,"channel":0,"type":"noteOff","noteNumber":86,"velocity":0},{"deltaTime":2,"channel":0,"type":"noteOn","noteNumber":87,"velocity":99},{"deltaTime":292,"channel":0,"type":"noteOff","noteNumber":87,"velocity":0},{"deltaTime":18,"channel":1,"type":"noteOff","noteNumber":56,"velocity":0},{"deltaTime":2,"channel":0,"type":"noteOn","noteNumber":80,"velocity":72},{"deltaTime":0,"channel":1,"type":"noteOn","noteNumber":63,"velocity":69},{"deltaTime":0,"channel":1,"type":"noteOn","noteNumber":68,"velocity":69},{"deltaTime":0,"channel":1,"type":"noteOn","noteNumber":72,"velocity":69},{"deltaTime":226,"channel":0,"type":"noteOff","noteNumber":80,"velocity":0},{"deltaTime":14,"channel":0,"type":"noteOn","noteNumber":92,"velocity":72},{"deltaTime":226,"channel":0,"type":"noteOff","noteNumber":92,"velocity":0},{"deltaTime":14,"channel":0,"type":"noteOn","noteNumber":80,"velocity":72},{"deltaTime":0,"channel":1,"type":"noteOn","noteNumber":48,"velocity":69},{"deltaTime":226,"channel":0,"type":"noteOff","noteNumber":80,"velocity":0},{"deltaTime":14,"channel":0,"type":"noteOn","noteNumber":92,"velocity":72},{"deltaTime":226,"channel":0,"type":"noteOff","noteNumber":92,"velocity":0},{"deltaTime":12,"channel":1,"type":"noteOff","noteNumber":63,"velocity":0},{"deltaTime":0,"channel":1,"type":"noteOff","noteNumber":68,"velocity":0},{"deltaTime":0,"channel":1,"type":"noteOff","noteNumber":72,"velocity":0},{"deltaTime":0,"channel":1,"type":"noteOff","noteNumber":48,"velocity":0},{"deltaTime":2,"channel":0,"type":"noteOn","noteNumber":87,"velocity":120},{"deltaTime":0,"channel":0,"type":"noteOn","noteNumber":92,"velocity":113},{"deltaTime":0,"channel":0,"type":"noteOn","noteNumber":75,"velocity":96},{"deltaTime":0,"channel":1,"type":"noteOn","noteNumber":63,"velocity":90},{"deltaTime":0,"channel":1,"type":"noteOn","noteNumber":68,"velocity":90},{"deltaTime":118,"channel":1,"type":"noteOff","noteNumber":63,"velocity":0},{"deltaTime":0,"channel":1,"type":"noteOff","noteNumber":68,"velocity":0},{"deltaTime":122,"channel":1,"type":"noteOn","noteNumber":60,"velocity":92},{"deltaTime":0,"channel":1,"type":"noteOn","noteNumber":68,"velocity":92},{"deltaTime":118,"channel":1,"type":"noteOff","noteNumber":60,"velocity":0},{"deltaTime":0,"channel":1,"type":"noteOff","noteNumber":68,"velocity":0},{"deltaTime":120,"channel":0,"type":"noteOff","noteNumber":87,"velocity":0},{"deltaTime":0,"channel":0,"type":"noteOff","noteNumber":92,"velocity":0},{"deltaTime":0,"channel":0,"type":"noteOff","noteNumber":75,"velocity":0},{"deltaTime":2,"channel":0,"type":"noteOn","noteNumber":85,"velocity":90},{"deltaTime":0,"channel":0,"type":"noteOn","noteNumber":73,"velocity":90},{"deltaTime":0,"channel":1,"type":"noteOn","noteNumber":51,"velocity":87},{"deltaTime":238,"channel":0,"type":"noteOff","noteNumber":85,"velocity":0},{"deltaTime":0,"channel":0,"type":"noteOff","noteNumber":73,"velocity":0},{"deltaTime":240,"channel":1,"type":"noteOff","noteNumber":51,"velocity":0},{"deltaTime":2,"channel":0,"type":"noteOn","noteNumber":85,"velocity":80},{"deltaTime":0,"channel":1,"type":"noteOn","noteNumber":60,"velocity":79},{"deltaTime":0,"channel":1,"type":"noteOn","noteNumber":63,"velocity":79},{"deltaTime":0,"channel":1,"type":"noteOn","noteNumber":68,"velocity":79},{"deltaTime":238,"channel":0,"type":"noteOff","noteNumber":85,"velocity":0},{"deltaTime":0,"channel":1,"type":"noteOff","noteNumber":60,"velocity":0},{"deltaTime":0,"channel":1,"type":"noteOff","noteNumber":63,"velocity":0},{"deltaTime":0,"channel":1,"type":"noteOff","noteNumber":68,"velocity":0},{"deltaTime":2,"channel":0,"type":"noteOn","noteNumber":87,"velocity":84},{"deltaTime":238,"channel":0,"type":"noteOff","noteNumber":87,"velocity":0},{"deltaTime":2,"channel":0,"type":"noteOn","noteNumber":84,"velocity":102},{"deltaTime":0,"channel":0,"type":"noteOn","noteNumber":66,"velocity":112},{"deltaTime":0,"channel":0,"type":"noteOn","noteNumber":76,"velocity":112},{"deltaTime":0,"channel":1,"type":"noteOn","noteNumber":51,"velocity":112},{"deltaTime":0,"channel":1,"type":"noteOn","noteNumber":60,"velocity":102},{"deltaTime":0,"channel":1,"type":"noteOn","noteNumber":32,"velocity":114},{"deltaTime":238,"channel":0,"type":"noteOff","noteNumber":84,"velocity":0},{"deltaTime":0,"channel":0,"type":"noteOff","noteNumber":66,"velocity":0},{"deltaTime":0,"channel":0,"type":"noteOff","noteNumber":76,"velocity":0},{"deltaTime":2,"channel":0,"type":"noteOn","noteNumber":80,"velocity":84},{"deltaTime":238,"channel":0,"type":"noteOff","noteNumber":80,"velocity":0},{"deltaTime":2,"channel":0,"type":"noteOn","noteNumber":78,"velocity":99},{"deltaTime":0,"channel":0,"type":"noteOn","noteNumber":63,"velocity":77},{"deltaTime":0,"channel":0,"type":"noteOn","noteNumber":68,"velocity":77},{"deltaTime":226,"channel":0,"type":"noteOff","noteNumber":63,"velocity":0},{"deltaTime":0,"channel":0,"type":"noteOff","noteNumber":68,"velocity":0},{"deltaTime":14,"channel":0,"type":"noteOn","noteNumber":72,"velocity":90},{"deltaTime":226,"channel":0,"type":"noteOff","noteNumber":72,"velocity":0},{"deltaTime":12,"channel":0,"type":"noteOff","noteNumber":78,"velocity":0},{"deltaTime":0,"channel":1,"type":"noteOff","noteNumber":51,"velocity":0},{"deltaTime":0,"channel":1,"type":"noteOff","noteNumber":60,"velocity":0},{"deltaTime":0,"channel":1,"type":"noteOff","noteNumber":32,"velocity":0},{"deltaTime":2,"channel":0,"type":"noteOn","noteNumber":85,"velocity":45},{"deltaTime":0,"channel":0,"type":"noteOn","noteNumber":68,"velocity":85},{"deltaTime":0,"channel":0,"type":"noteOn","noteNumber":76,"velocity":61},{"deltaTime":0,"channel":1,"type":"noteOn","noteNumber":61,"velocity":49},{"deltaTime":0,"channel":1,"type":"noteOn","noteNumber":49,"velocity":61},{"deltaTime":238,"channel":0,"type":"noteOff","noteNumber":85,"velocity":0},{"deltaTime":2,"channel":0,"type":"noteOn","noteNumber":84,"velocity":53},{"deltaTime":214,"channel":0,"type":"noteOff","noteNumber":68,"velocity":0},{"deltaTime":0,"channel":0,"type":"noteOff","noteNumber":76,"velocity":0},{"deltaTime":24,"channel":0,"type":"noteOff","noteNumber":84,"velocity":0},{"deltaTime":2,"channel":0,"type":"noteOn","noteNumber":85,"velocity":72},{"deltaTime":238,"channel":0,"type":"noteOff","noteNumber":85,"velocity":0},{"deltaTime":2,"channel":0,"type":"noteOn","noteNumber":87,"velocity":78},{"deltaTime":190,"channel":1,"type":"noteOff","noteNumber":61,"velocity":0},{"deltaTime":0,"channel":1,"type":"noteOff","noteNumber":49,"velocity":0},{"deltaTime":48,"channel":0,"type":"noteOff","noteNumber":87,"velocity":0},{"deltaTime":2,"channel":0,"type":"noteOn","noteNumber":88,"velocity":91},{"deltaTime":0,"channel":1,"type":"noteOn","noteNumber":71,"velocity":23},{"deltaTime":238,"channel":0,"type":"noteOff","noteNumber":88,"velocity":0},{"deltaTime":0,"channel":1,"type":"noteOff","noteNumber":71,"velocity":0},{"deltaTime":2,"channel":0,"type":"noteOn","noteNumber":87,"velocity":88},{"deltaTime":0,"channel":1,"type":"noteOn","noteNumber":68,"velocity":46},{"deltaTime":238,"channel":0,"type":"noteOff","noteNumber":87,"velocity":0},{"deltaTime":0,"channel":1,"type":"noteOff","noteNumber":68,"velocity":0},{"deltaTime":2,"channel":0,"type":"noteOn","noteNumber":88,"velocity":102},{"deltaTime":0,"channel":1,"type":"noteOn","noteNumber":69,"velocity":69},{"deltaTime":238,"channel":0,"type":"noteOff","noteNumber":88,"velocity":0},{"deltaTime":0,"channel":1,"type":"noteOff","noteNumber":69,"velocity":0},{"deltaTime":2,"channel":0,"type":"noteOn","noteNumber":90,"velocity":107},{"deltaTime":0,"channel":1,"type":"noteOn","noteNumber":66,"velocity":79},{"deltaTime":238,"channel":0,"type":"noteOff","noteNumber":90,"velocity":0},{"deltaTime":0,"channel":1,"type":"noteOff","noteNumber":66,"velocity":0},{"deltaTime":2,"channel":0,"type":"noteOn","noteNumber":92,"velocity":83},{"deltaTime":0,"channel":0,"type":"noteOn","noteNumber":80,"velocity":104},{"deltaTime":0,"channel":1,"type":"noteOn","noteNumber":61,"velocity":101},{"deltaTime":0,"channel":1,"type":"noteOn","noteNumber":68,"velocity":101},{"deltaTime":238,"channel":0,"type":"noteOff","noteNumber":92,"velocity":0},{"deltaTime":2,"channel":0,"type":"noteOn","noteNumber":88,"velocity":105},{"deltaTime":214,"channel":0,"type":"noteOff","noteNumber":80,"velocity":0},{"deltaTime":24,"channel":0,"type":"noteOff","noteNumber":88,"velocity":0},{"deltaTime":0,"channel":1,"type":"noteOff","noteNumber":61,"velocity":0},{"deltaTime":0,"channel":1,"type":"noteOff","noteNumber":68,"velocity":0},{"deltaTime":2,"channel":0,"type":"noteOn","noteNumber":85,"velocity":105},{"deltaTime":0,"channel":1,"type":"noteOn","noteNumber":64,"velocity":77},{"deltaTime":238,"channel":0,"type":"noteOff","noteNumber":85,"velocity":0},{"deltaTime":0,"channel":1,"type":"noteOff","noteNumber":64,"velocity":0},{"deltaTime":2,"channel":0,"type":"noteOn","noteNumber":80,"velocity":96},{"deltaTime":226,"channel":0,"type":"noteOff","noteNumber":80,"velocity":0},{"deltaTime":14,"channel":0,"type":"noteOn","noteNumber":93,"velocity":111},{"deltaTime":0,"channel":0,"type":"noteOn","noteNumber":81,"velocity":118},{"deltaTime":0,"channel":1,"type":"noteOn","noteNumber":60,"velocity":107},{"deltaTime":0,"channel":1,"type":"noteOn","noteNumber":69,"velocity":107},{"deltaTime":0,"channel":1,"type":"noteOn","noteNumber":51,"velocity":96},{"deltaTime":238,"channel":0,"type":"noteOff","noteNumber":93,"velocity":0},{"deltaTime":0,"channel":0,"type":"noteOff","noteNumber":81,"velocity":0},{"deltaTime":2,"channel":0,"type":"noteOn","noteNumber":91,"velocity":109},{"deltaTime":0,"channel":0,"type":"noteOn","noteNumber":79,"velocity":89},{"deltaTime":214,"channel":1,"type":"noteOff","noteNumber":60,"velocity":0},{"deltaTime":0,"channel":1,"type":"noteOff","noteNumber":69,"velocity":0},{"deltaTime":0,"channel":1,"type":"noteOff","noteNumber":51,"velocity":0},{"deltaTime":24,"channel":0,"type":"noteOff","noteNumber":91,"velocity":0},{"deltaTime":0,"channel":0,"type":"noteOff","noteNumber":79,"velocity":0},{"deltaTime":2,"channel":0,"type":"noteOn","noteNumber":87,"velocity":112},{"deltaTime":0,"channel":0,"type":"noteOn","noteNumber":75,"velocity":112},{"deltaTime":0,"channel":1,"type":"noteOn","noteNumber":67,"velocity":101},{"deltaTime":0,"channel":1,"type":"noteOn","noteNumber":55,"velocity":96},{"deltaTime":238,"channel":0,"type":"noteOff","noteNumber":87,"velocity":0},{"deltaTime":0,"channel":0,"type":"noteOff","noteNumber":75,"velocity":0},{"deltaTime":2,"channel":0,"type":"noteOn","noteNumber":81,"velocity":98},{"deltaTime":0,"channel":0,"type":"noteOn","noteNumber":69,"velocity":98},{"deltaTime":214,"channel":1,"type":"noteOff","noteNumber":67,"velocity":0},{"deltaTime":0,"channel":1,"type":"noteOff","noteNumber":55,"velocity":0},{"deltaTime":24,"channel":0,"type":"noteOff","noteNumber":81,"velocity":0},{"deltaTime":0,"channel":0,"type":"noteOff","noteNumber":69,"velocity":0},{"deltaTime":2,"channel":0,"type":"noteOn","noteNumber":91,"velocity":125},{"deltaTime":0,"channel":0,"type":"noteOn","noteNumber":79,"velocity":93},{"deltaTime":0,"channel":1,"type":"noteOn","noteNumber":37,"velocity":103},{"deltaTime":0,"channel":1,"type":"noteOn","noteNumber":49,"velocity":103},{"deltaTime":454,"channel":0,"type":"noteOff","noteNumber":91,"velocity":0},{"deltaTime":0,"channel":0,"type":"noteOff","noteNumber":79,"velocity":0},{"deltaTime":24,"channel":1,"type":"noteOff","noteNumber":37,"velocity":0},{"deltaTime":0,"channel":1,"type":"noteOff","noteNumber":49,"velocity":0},{"deltaTime":2,"channel":0,"type":"noteOn","noteNumber":80,"velocity":108},{"deltaTime":0,"channel":1,"type":"noteOn","noteNumber":63,"velocity":64},{"deltaTime":0,"channel":1,"type":"noteOn","noteNumber":64,"velocity":64},{"deltaTime":0,"channel":1,"type":"noteOn","noteNumber":68,"velocity":108},{"deltaTime":454,"channel":0,"type":"noteOff","noteNumber":80,"velocity":0},{"deltaTime":0,"channel":1,"type":"noteOff","noteNumber":63,"velocity":0},{"deltaTime":0,"channel":1,"type":"noteOff","noteNumber":64,"velocity":0},{"deltaTime":0,"channel":1,"type":"noteOff","noteNumber":68,"velocity":0},{"deltaTime":26,"channel":0,"type":"noteOn","noteNumber":91,"velocity":96},{"deltaTime":0,"channel":1,"type":"noteOn","noteNumber":44,"velocity":107},{"deltaTime":166,"channel":0,"type":"noteOff","noteNumber":91,"velocity":0},{"deltaTime":2,"channel":0,"type":"noteOn","noteNumber":92,"velocity":101},{"deltaTime":70,"channel":1,"type":"noteOff","noteNumber":44,"velocity":0},{"deltaTime":222,"channel":0,"type":"noteOff","noteNumber":92,"velocity":0},{"deltaTime":20,"channel":0,"type":"noteOn","noteNumber":91,"velocity":96},{"deltaTime":0,"channel":0,"type":"noteOn","noteNumber":79,"velocity":96},{"deltaTime":0,"channel":1,"type":"noteOn","noteNumber":64,"velocity":49},{"deltaTime":0,"channel":1,"type":"noteOn","noteNumber":68,"velocity":49},{"deltaTime":118,"channel":1,"type":"noteOff","noteNumber":64,"velocity":0},{"deltaTime":0,"channel":1,"type":"noteOff","noteNumber":68,"velocity":0},{"deltaTime":48,"channel":0,"type":"noteOff","noteNumber":91,"velocity":0},{"deltaTime":0,"channel":0,"type":"noteOff","noteNumber":79,"velocity":0},{"deltaTime":2,"channel":0,"type":"noteOn","noteNumber":92,"velocity":116},{"deltaTime":0,"channel":0,"type":"noteOn","noteNumber":80,"velocity":119},{"deltaTime":72,"channel":1,"type":"noteOn","noteNumber":63,"velocity":59},{"deltaTime":0,"channel":1,"type":"noteOn","noteNumber":64,"velocity":59},{"deltaTime":0,"channel":1,"type":"noteOn","noteNumber":68,"velocity":59},{"deltaTime":118,"channel":1,"type":"noteOff","noteNumber":63,"velocity":0},{"deltaTime":0,"channel":1,"type":"noteOff","noteNumber":64,"velocity":0},{"deltaTime":0,"channel":1,"type":"noteOff","noteNumber":68,"velocity":0},{"deltaTime":102,"channel":0,"type":"noteOff","noteNumber":92,"velocity":0},{"deltaTime":0,"channel":0,"type":"noteOff","noteNumber":80,"velocity":0},{"deltaTime":20,"channel":1,"type":"noteOn","noteNumber":49,"velocity":84},{"deltaTime":238,"channel":1,"type":"noteOff","noteNumber":49,"velocity":0},{"deltaTime":2,"channel":0,"type":"noteOn","noteNumber":87,"velocity":97},{"deltaTime":238,"channel":0,"type":"noteOff","noteNumber":87,"velocity":0},{"deltaTime":2,"channel":0,"type":"noteOn","noteNumber":85,"velocity":83},{"deltaTime":0,"channel":1,"type":"noteOn","noteNumber":61,"velocity":79},{"deltaTime":0,"channel":1,"type":"noteOn","noteNumber":64,"velocity":79},{"deltaTime":0,"channel":1,"type":"noteOn","noteNumber":68,"velocity":79},{"deltaTime":0,"channel":1,"type":"noteOn","noteNumber":56,"velocity":69},{"deltaTime":238,"channel":0,"type":"noteOff","noteNumber":85,"velocity":0},{"deltaTime":0,"channel":1,"type":"noteOff","noteNumber":61,"velocity":0},{"deltaTime":0,"channel":1,"type":"noteOff","noteNumber":64,"velocity":0},{"deltaTime":0,"channel":1,"type":"noteOff","noteNumber":68,"velocity":0},{"deltaTime":0,"channel":1,"type":"noteOff","noteNumber":56,"velocity":0},{"deltaTime":2,"channel":0,"type":"noteOn","noteNumber":84,"velocity":73},{"deltaTime":226,"channel":0,"type":"noteOff","noteNumber":84,"velocity":0},{"deltaTime":14,"channel":0,"type":"noteOn","noteNumber":91,"velocity":96},{"deltaTime":0,"channel":0,"type":"noteOn","noteNumber":79,"velocity":96},{"deltaTime":0,"channel":1,"type":"noteOn","noteNumber":52,"velocity":74},{"deltaTime":166,"channel":0,"type":"noteOff","noteNumber":91,"velocity":0},{"deltaTime":0,"channel":0,"type":"noteOff","noteNumber":79,"velocity":0},{"deltaTime":2,"channel":0,"type":"noteOn","noteNumber":85,"velocity":113},{"deltaTime":0,"channel":0,"type":"noteOn","noteNumber":92,"velocity":108},{"deltaTime":0,"channel":0,"type":"noteOn","noteNumber":80,"velocity":87},{"deltaTime":292,"channel":0,"type":"noteOff","noteNumber":80,"velocity":0},{"deltaTime":18,"channel":1,"type":"noteOff","noteNumber":52,"velocity":0},{"deltaTime":2,"channel":0,"type":"noteOn","noteNumber":80,"velocity":99},{"deltaTime":0,"channel":1,"type":"noteOn","noteNumber":61,"velocity":94},{"deltaTime":0,"channel":1,"type":"noteOn","noteNumber":64,"velocity":94},{"deltaTime":0,"channel":1,"type":"noteOn","noteNumber":68,"velocity":94},{"deltaTime":0,"channel":1,"type":"noteOn","noteNumber":51,"velocity":74},{"deltaTime":238,"channel":1,"type":"noteOff","noteNumber":61,"velocity":0},{"deltaTime":0,"channel":1,"type":"noteOff","noteNumber":64,"velocity":0},{"deltaTime":0,"channel":1,"type":"noteOff","noteNumber":68,"velocity":0},{"deltaTime":198,"channel":0,"type":"noteOff","noteNumber":85,"velocity":0},{"deltaTime":0,"channel":0,"type":"noteOff","noteNumber":92,"velocity":0},{"deltaTime":18,"channel":0,"type":"noteOff","noteNumber":80,"velocity":0},{"deltaTime":24,"channel":1,"type":"noteOff","noteNumber":51,"velocity":0},{"deltaTime":2,"channel":0,"type":"noteOn","noteNumber":83,"velocity":96},{"deltaTime":0,"channel":1,"type":"noteOn","noteNumber":32,"velocity":94},{"deltaTime":0,"channel":1,"type":"noteOn","noteNumber":44,"velocity":94},{"deltaTime":226,"channel":0,"type":"noteOff","noteNumber":83,"velocity":0},{"deltaTime":14,"channel":0,"type":"noteOn","noteNumber":95,"velocity":81},{"deltaTime":226,"channel":0,"type":"noteOff","noteNumber":95,"velocity":0},{"deltaTime":12,"channel":1,"type":"noteOff","noteNumber":32,"velocity":0},{"deltaTime":0,"channel":1,"type":"noteOff","noteNumber":44,"velocity":0},{"deltaTime":2,"channel":0,"type":"noteOn","noteNumber":81,"velocity":96},{"deltaTime":0,"channel":1,"type":"noteOn","noteNumber":60,"velocity":69},{"deltaTime":0,"channel":1,"type":"noteOn","noteNumber":63,"velocity":69},{"deltaTime":0,"channel":1,"type":"noteOn","noteNumber":67,"velocity":93},{"deltaTime":118,"channel":1,"type":"noteOff","noteNumber":60,"velocity":0},{"deltaTime":0,"channel":1,"type":"noteOff","noteNumber":63,"velocity":0},{"deltaTime":0,"channel":1,"type":"noteOff","noteNumber":67,"velocity":0},{"deltaTime":108,"channel":0,"type":"noteOff","noteNumber":81,"velocity":0},{"deltaTime":14,"channel":0,"type":"noteOn","noteNumber":93,"velocity":105},{"deltaTime":0,"channel":1,"type":"noteOn","noteNumber":57,"velocity":84},{"deltaTime":0,"channel":1,"type":"noteOn","noteNumber":63,"velocity":84},{"deltaTime":0,"channel":1,"type":"noteOn","noteNumber":67,"velocity":93},{"deltaTime":118,"channel":1,"type":"noteOff","noteNumber":57,"velocity":0},{"deltaTime":0,"channel":1,"type":"noteOff","noteNumber":63,"velocity":0},{"deltaTime":0,"channel":1,"type":"noteOff","noteNumber":67,"velocity":0},{"deltaTime":108,"channel":0,"type":"noteOff","noteNumber":93,"velocity":0},{"deltaTime":14,"channel":0,"type":"noteOn","noteNumber":91,"velocity":108},{"deltaTime":0,"channel":0,"type":"noteOn","noteNumber":79,"velocity":108},{"deltaTime":0,"channel":1,"type":"noteOn","noteNumber":51,"velocity":90},{"deltaTime":238,"channel":0,"type":"noteOff","noteNumber":91,"velocity":0},{"deltaTime":0,"channel":0,"type":"noteOff","noteNumber":79,"velocity":0},{"deltaTime":0,"channel":1,"type":"noteOff","noteNumber":51,"velocity":0},{"deltaTime":242,"channel":0,"type":"noteOn","noteNumber":92,"velocity":119},{"deltaTime":0,"channel":0,"type":"noteOn","noteNumber":72,"velocity":96},{"deltaTime":0,"channel":0,"type":"noteOn","noteNumber":80,"velocity":119},{"deltaTime":0,"channel":1,"type":"noteOn","noteNumber":57,"velocity":113},{"deltaTime":0,"channel":1,"type":"noteOn","noteNumber":63,"velocity":106},{"deltaTime":0,"channel":1,"type":"noteOn","noteNumber":66,"velocity":106},{"deltaTime":238,"channel":0,"type":"noteOff","noteNumber":72,"velocity":0},{"deltaTime":0,"channel":0,"type":"noteOff","noteNumber":80,"velocity":0},{"deltaTime":2,"channel":0,"type":"noteOn","noteNumber":84,"velocity":49},{"deltaTime":214,"channel":0,"type":"noteOff","noteNumber":92,"velocity":0},{"deltaTime":0,"channel":1,"type":"noteOff","noteNumber":57,"velocity":0},{"deltaTime":0,"channel":1,"type":"noteOff","noteNumber":63,"velocity":0},{"deltaTime":0,"channel":1,"type":"noteOff","noteNumber":66,"velocity":0},{"deltaTime":24,"channel":0,"type":"noteOff","noteNumber":84,"velocity":0},{"deltaTime":2,"channel":0,"type":"noteOn","noteNumber":78,"velocity":96},{"deltaTime":0,"channel":1,"type":"noteOn","noteNumber":36,"velocity":90},{"deltaTime":0,"channel":1,"type":"noteOn","noteNumber":48,"velocity":90},{"deltaTime":240,"channel":0,"type":"noteOn","noteNumber":92,"velocity":91},{"deltaTime":238,"channel":0,"type":"noteOff","noteNumber":92,"velocity":0},{"deltaTime":0,"channel":1,"type":"noteOff","noteNumber":36,"velocity":0},{"deltaTime":0,"channel":1,"type":"noteOff","noteNumber":48,"velocity":0},{"deltaTime":2,"channel":0,"type":"noteOn","noteNumber":90,"velocity":78},{"deltaTime":0,"channel":1,"type":"noteOn","noteNumber":60,"velocity":74},{"deltaTime":0,"channel":1,"type":"noteOn","noteNumber":66,"velocity":74},{"deltaTime":238,"channel":0,"type":"noteOff","noteNumber":90,"velocity":0},{"deltaTime":0,"channel":1,"type":"noteOff","noteNumber":60,"velocity":0},{"deltaTime":0,"channel":1,"type":"noteOff","noteNumber":66,"velocity":0},{"deltaTime":2,"channel":0,"type":"noteOn","noteNumber":87,"velocity":88},{"deltaTime":190,"channel":0,"type":"noteOff","noteNumber":78,"velocity":0},{"deltaTime":48,"channel":0,"type":"noteOff","noteNumber":87,"velocity":0},{"deltaTime":2,"channel":0,"type":"noteOn","noteNumber":84,"velocity":111},{"deltaTime":0,"channel":1,"type":"noteOn","noteNumber":44,"velocity":98},{"deltaTime":238,"channel":0,"type":"noteOff","noteNumber":84,"velocity":0},{"deltaTime":0,"channel":1,"type":"noteOff","noteNumber":44,"velocity":0},{"deltaTime":2,"channel":0,"type":"noteOn","noteNumber":80,"velocity":84},{"deltaTime":238,"channel":0,"type":"noteOff","noteNumber":80,"velocity":0},{"deltaTime":2,"channel":0,"type":"noteOn","noteNumber":81,"velocity":113},{"deltaTime":0,"channel":1,"type":"noteOn","noteNumber":60,"velocity":85},{"deltaTime":0,"channel":1,"type":"noteOn","noteNumber":66,"velocity":85},{"deltaTime":0,"channel":1,"type":"noteOn","noteNumber":68,"velocity":85},{"deltaTime":238,"channel":0,"type":"noteOff","noteNumber":81,"velocity":0},{"deltaTime":0,"channel":1,"type":"noteOff","noteNumber":60,"velocity":0},{"deltaTime":0,"channel":1,"type":"noteOff","noteNumber":66,"velocity":0},{"deltaTime":0,"channel":1,"type":"noteOff","noteNumber":68,"velocity":0},{"deltaTime":2,"channel":0,"type":"noteOn","noteNumber":75,"velocity":91},{"deltaTime":238,"channel":0,"type":"noteOff","noteNumber":75,"velocity":0},{"deltaTime":2,"channel":0,"type":"noteOn","noteNumber":79,"velocity":96},{"deltaTime":0,"channel":1,"type":"noteOn","noteNumber":37,"velocity":98},{"deltaTime":0,"channel":1,"type":"noteOn","noteNumber":49,"velocity":98},{"deltaTime":166,"channel":0,"type":"noteOff","noteNumber":79,"velocity":0},{"deltaTime":2,"channel":0,"type":"noteOn","noteNumber":80,"velocity":109},{"deltaTime":292,"channel":0,"type":"noteOff","noteNumber":80,"velocity":0},{"deltaTime":18,"channel":1,"type":"noteOff","noteNumber":37,"velocity":0},{"deltaTime":0,"channel":1,"type":"noteOff","noteNumber":49,"velocity":0},{"deltaTime":2,"channel":1,"type":"noteOn","noteNumber":61,"velocity":59},{"deltaTime":0,"channel":1,"type":"noteOn","noteNumber":63,"velocity":59},{"deltaTime":0,"channel":1,"type":"noteOn","noteNumber":64,"velocity":59},{"deltaTime":480,"channel":0,"type":"noteOn","noteNumber":79,"velocity":96},{"deltaTime":0,"channel":0,"type":"noteOn","noteNumber":67,"velocity":96},{"deltaTime":0,"channel":1,"type":"noteOn","noteNumber":44,"velocity":66},{"deltaTime":166,"channel":0,"type":"noteOff","noteNumber":79,"velocity":0},{"deltaTime":0,"channel":0,"type":"noteOff","noteNumber":67,"velocity":0},{"deltaTime":2,"channel":0,"type":"noteOn","noteNumber":80,"velocity":113},{"deltaTime":0,"channel":0,"type":"noteOn","noteNumber":68,"velocity":114},{"deltaTime":190,"channel":1,"type":"noteOff","noteNumber":44,"velocity":0},{"deltaTime":102,"channel":0,"type":"noteOff","noteNumber":80,"velocity":0},{"deltaTime":0,"channel":0,"type":"noteOff","noteNumber":68,"velocity":0},{"deltaTime":18,"channel":1,"type":"noteOff","noteNumber":61,"velocity":0},{"deltaTime":0,"channel":1,"type":"noteOff","noteNumber":63,"velocity":0},{"deltaTime":0,"channel":1,"type":"noteOff","noteNumber":64,"velocity":0},{"deltaTime":2,"channel":0,"type":"noteOn","noteNumber":84,"velocity":96},{"deltaTime":0,"channel":0,"type":"noteOn","noteNumber":73,"velocity":109},{"deltaTime":0,"channel":1,"type":"noteOn","noteNumber":63,"velocity":113},{"deltaTime":0,"channel":1,"type":"noteOn","noteNumber":68,"velocity":113},{"deltaTime":118,"channel":0,"type":"noteOff","noteNumber":84,"velocity":0},{"deltaTime":0,"channel":1,"type":"noteOff","noteNumber":63,"velocity":0},{"deltaTime":0,"channel":1,"type":"noteOff","noteNumber":68,"velocity":0},{"deltaTime":2,"channel":0,"type":"noteOn","noteNumber":85,"velocity":109},{"deltaTime":118,"channel":0,"type":"noteOff","noteNumber":85,"velocity":0},{"deltaTime":2,"channel":0,"type":"noteOn","noteNumber":84,"velocity":96},{"deltaTime":0,"channel":1,"type":"noteOn","noteNumber":64,"velocity":103},{"deltaTime":0,"channel":1,"type":"noteOn","noteNumber":49,"velocity":102},{"deltaTime":78,"channel":0,"type":"noteOff","noteNumber":84,"velocity":0},{"deltaTime":2,"channel":0,"type":"noteOn","noteNumber":82,"velocity":96},{"deltaTime":78,"channel":0,"type":"noteOff","noteNumber":82,"velocity":0},{"deltaTime":2,"channel":0,"type":"noteOn","noteNumber":80,"velocity":96},{"deltaTime":54,"channel":0,"type":"noteOff","noteNumber":73,"velocity":0},{"deltaTime":12,"channel":1,"type":"noteOff","noteNumber":64,"velocity":0},{"deltaTime":0,"channel":1,"type":"noteOff","noteNumber":49,"velocity":0},{"deltaTime":12,"channel":0,"type":"noteOff","noteNumber":80,"velocity":0},{"deltaTime":2,"channel":0,"type":"noteOn","noteNumber":79,"velocity":96},{"deltaTime":0,"channel":1,"type":"noteOn","noteNumber":56,"velocity":98},{"deltaTime":0,"channel":1,"type":"noteOn","noteNumber":44,"velocity":112},{"deltaTime":54,"channel":0,"type":"noteOff","noteNumber":79,"velocity":0},{"deltaTime":6,"channel":0,"type":"noteOn","noteNumber":77,"velocity":96},{"deltaTime":54,"channel":0,"type":"noteOff","noteNumber":77,"velocity":0},{"deltaTime":4,"channel":1,"type":"noteOff","noteNumber":56,"velocity":0},{"deltaTime":0,"channel":1,"type":"noteOff","noteNumber":44,"velocity":0},{"deltaTime":2,"channel":0,"type":"noteOn","noteNumber":75,"velocity":96},{"deltaTime":54,"channel":0,"type":"noteOff","noteNumber":75,"velocity":0},{"deltaTime":6,"channel":0,"type":"noteOn","noteNumber":73,"velocity":96},{"deltaTime":54,"channel":0,"type":"noteOff","noteNumber":73,"velocity":0},{"deltaTime":6,"channel":0,"type":"noteOn","noteNumber":72,"velocity":74},{"deltaTime":0,"channel":1,"type":"noteOn","noteNumber":52,"velocity":109},{"deltaTime":0,"channel":1,"type":"noteOn","noteNumber":40,"velocity":122},{"deltaTime":118,"channel":1,"type":"noteOff","noteNumber":52,"velocity":0},{"deltaTime":0,"channel":1,"type":"noteOff","noteNumber":40,"velocity":0},{"deltaTime":108,"channel":0,"type":"noteOff","noteNumber":72,"velocity":0},{"deltaTime":14,"channel":0,"type":"noteOn","noteNumber":73,"velocity":108},{"deltaTime":0,"channel":0,"type":"noteOn","noteNumber":78,"velocity":112},{"deltaTime":0,"channel":0,"type":"noteOn","noteNumber":69,"velocity":118},{"deltaTime":0,"channel":1,"type":"noteOn","noteNumber":51,"velocity":112},{"deltaTime":0,"channel":1,"type":"noteOn","noteNumber":56,"velocity":108},{"deltaTime":0,"channel":1,"type":"noteOn","noteNumber":39,"velocity":110},{"deltaTime":226,"channel":0,"type":"noteOff","noteNumber":69,"velocity":0},{"deltaTime":12,"channel":1,"type":"noteOff","noteNumber":51,"velocity":0},{"deltaTime":0,"channel":1,"type":"noteOff","noteNumber":56,"velocity":0},{"deltaTime":0,"channel":1,"type":"noteOff","noteNumber":39,"velocity":0},{"deltaTime":2,"channel":0,"type":"noteOn","noteNumber":66,"velocity":89},{"deltaTime":214,"channel":0,"type":"noteOff","noteNumber":73,"velocity":0},{"deltaTime":0,"channel":0,"type":"noteOff","noteNumber":78,"velocity":0},{"deltaTime":12,"channel":0,"type":"noteOff","noteNumber":66,"velocity":0},{"deltaTime":14,"channel":0,"type":"noteOn","noteNumber":78,"velocity":96},{"deltaTime":0,"channel":0,"type":"noteOn","noteNumber":68,"velocity":119},{"deltaTime":0,"channel":1,"type":"noteOn","noteNumber":52,"velocity":66},{"deltaTime":118,"channel":0,"type":"noteOff","noteNumber":78,"velocity":0},{"deltaTime":2,"channel":0,"type":"noteOn","noteNumber":80,"velocity":115},{"deltaTime":118,"channel":0,"type":"noteOff","noteNumber":80,"velocity":0},{"deltaTime":2,"channel":0,"type":"noteOn","noteNumber":76,"velocity":85},{"deltaTime":214,"channel":0,"type":"noteOff","noteNumber":68,"velocity":0},{"deltaTime":24,"channel":0,"type":"noteOff","noteNumber":76,"velocity":0},{"deltaTime":0,"channel":1,"type":"noteOff","noteNumber":52,"velocity":0},{"deltaTime":2,"channel":0,"type":"noteOn","noteNumber":73,"velocity":119},{"deltaTime":0,"channel":0,"type":"noteOn","noteNumber":61,"velocity":91},{"deltaTime":0,"channel":1,"type":"noteOn","noteNumber":44,"velocity":70},{"deltaTime":238,"channel":0,"type":"noteOff","noteNumber":73,"velocity":0},{"deltaTime":0,"channel":1,"type":"noteOff","noteNumber":44,"velocity":0},{"deltaTime":2,"channel":0,"type":"noteOn","noteNumber":68,"velocity":94},{"deltaTime":214,"channel":0,"type":"noteOff","noteNumber":61,"velocity":0},{"deltaTime":12,"channel":0,"type":"noteOff","noteNumber":68,"velocity":0},{"deltaTime":14,"channel":0,"type":"noteOn","noteNumber":54,"velocity":99},{"deltaTime":0,"channel":0,"type":"noteOn","noteNumber":60,"velocity":82},{"deltaTime":0,"channel":0,"type":"noteOn","noteNumber":64,"velocity":99},{"deltaTime":0,"channel":1,"type":"noteOn","noteNumber":32,"velocity":89},{"deltaTime":240,"channel":0,"type":"noteOn","noteNumber":76,"velocity":99},{"deltaTime":238,"channel":0,"type":"noteOff","noteNumber":76,"velocity":0},{"deltaTime":0,"channel":0,"type":"noteOff","noteNumber":54,"velocity":0},{"deltaTime":0,"channel":0,"type":"noteOff","noteNumber":60,"velocity":0},{"deltaTime":0,"channel":0,"type":"noteOff","noteNumber":64,"velocity":0},{"deltaTime":0,"channel":1,"type":"noteOff","noteNumber":32,"velocity":0},{"deltaTime":2,"channel":0,"type":"noteOn","noteNumber":60,"velocity":71},{"deltaTime":0,"channel":0,"type":"noteOn","noteNumber":68,"velocity":75},{"deltaTime":0,"channel":0,"type":"noteOn","noteNumber":72,"velocity":71},{"deltaTime":0,"channel":1,"type":"noteOn","noteNumber":44,"velocity":64},{"deltaTime":0,"channel":1,"type":"noteOn","noteNumber":48,"velocity":64},{"deltaTime":238,"channel":0,"type":"noteOff","noteNumber":60,"velocity":0},{"deltaTime":0,"channel":0,"type":"noteOff","noteNumber":68,"velocity":0},{"deltaTime":0,"channel":0,"type":"noteOff","noteNumber":72,"velocity":0},{"deltaTime":0,"channel":1,"type":"noteOff","noteNumber":44,"velocity":0},{"deltaTime":0,"channel":1,"type":"noteOff","noteNumber":48,"velocity":0},{"deltaTime":2,"channel":0,"type":"noteOn","noteNumber":75,"velocity":98},{"deltaTime":226,"channel":0,"type":"noteOff","noteNumber":75,"velocity":0},{"deltaTime":14,"channel":0,"type":"noteOn","noteNumber":56,"velocity":97},{"deltaTime":0,"channel":0,"type":"noteOn","noteNumber":66,"velocity":95},{"deltaTime":0,"channel":0,"type":"noteOn","noteNumber":68,"velocity":97},{"deltaTime":0,"channel":1,"type":"noteOn","noteNumber":39,"velocity":56},{"deltaTime":238,"channel":0,"type":"noteOff","noteNumber":56,"velocity":0},{"deltaTime":0,"channel":0,"type":"noteOff","noteNumber":66,"velocity":0},{"deltaTime":0,"channel":0,"type":"noteOff","noteNumber":68,"velocity":0},{"deltaTime":0,"channel":1,"type":"noteOff","noteNumber":39,"velocity":0},{"deltaTime":2,"channel":0,"type":"noteOn","noteNumber":73,"velocity":92},{"deltaTime":226,"channel":0,"type":"noteOff","noteNumber":73,"velocity":0},{"deltaTime":14,"channel":0,"type":"noteOn","noteNumber":72,"velocity":87},{"deltaTime":0,"channel":0,"type":"noteOn","noteNumber":54,"velocity":112},{"deltaTime":0,"channel":0,"type":"noteOn","noteNumber":63,"velocity":91},{"deltaTime":0,"channel":0,"type":"noteOn","noteNumber":66,"velocity":112},{"deltaTime":0,"channel":1,"type":"noteOn","noteNumber":44,"velocity":54},{"deltaTime":0,"channel":1,"type":"noteOn","noteNumber":48,"velocity":54},{"deltaTime":118,"channel":1,"type":"noteOff","noteNumber":44,"velocity":0},{"deltaTime":0,"channel":1,"type":"noteOff","noteNumber":48,"velocity":0},{"deltaTime":122,"channel":1,"type":"noteOn","noteNumber":44,"velocity":68},{"deltaTime":0,"channel":1,"type":"noteOn","noteNumber":48,"velocity":68},{"deltaTime":118,"channel":1,"type":"noteOff","noteNumber":44,"velocity":0},{"deltaTime":0,"channel":1,"type":"noteOff","noteNumber":48,"velocity":0},{"deltaTime":122,"channel":1,"type":"noteOn","noteNumber":36,"velocity":62},{"deltaTime":238,"channel":1,"type":"noteOff","noteNumber":36,"velocity":0},{"deltaTime":192,"channel":0,"type":"noteOff","noteNumber":72,"velocity":0},{"deltaTime":0,"channel":0,"type":"noteOff","noteNumber":54,"velocity":0},{"deltaTime":0,"channel":0,"type":"noteOff","noteNumber":63,"velocity":0},{"deltaTime":0,"channel":0,"type":"noteOff","noteNumber":66,"velocity":0},{"deltaTime":50,"channel":0,"type":"noteOn","noteNumber":60,"velocity":82},{"deltaTime":0,"channel":1,"type":"noteOn","noteNumber":48,"velocity":74},{"deltaTime":0,"channel":1,"type":"noteOn","noteNumber":42,"velocity":74},{"deltaTime":238,"channel":1,"type":"noteOff","noteNumber":48,"velocity":0},{"deltaTime":0,"channel":1,"type":"noteOff","noteNumber":42,"velocity":0},{"deltaTime":216,"channel":0,"type":"noteOff","noteNumber":60,"velocity":0},{"deltaTime":26,"channel":0,"type":"noteOn","noteNumber":73,"velocity":101},{"deltaTime":0,"channel":1,"type":"noteOn","noteNumber":44,"velocity":98},{"deltaTime":226,"channel":0,"type":"noteOff","noteNumber":73,"velocity":0},{"deltaTime":14,"channel":0,"type":"noteOn","noteNumber":68,"velocity":71},{"deltaTime":226,"channel":0,"type":"noteOff","noteNumber":68,"velocity":0},{"deltaTime":12,"channel":1,"type":"noteOff","noteNumber":44,"velocity":0},{"deltaTime":2,"channel":0,"type":"noteOn","noteNumber":75,"velocity":96},{"deltaTime":0,"channel":1,"type":"noteOn","noteNumber":54,"velocity":74},{"deltaTime":0,"channel":1,"type":"noteOn","noteNumber":60,"velocity":85},{"deltaTime":226,"channel":0,"type":"noteOff","noteNumber":75,"velocity":0},{"deltaTime":12,"channel":1,"type":"noteOff","noteNumber":54,"velocity":0},{"deltaTime":0,"channel":1,"type":"noteOff","noteNumber":60,"velocity":0},{"deltaTime":2,"channel":0,"type":"noteOn","noteNumber":72,"velocity":84},{"deltaTime":226,"channel":0,"type":"noteOff","noteNumber":72,"velocity":0},{"deltaTime":14,"channel":0,"type":"noteOn","noteNumber":73,"velocity":98},{"deltaTime":0,"channel":0,"type":"noteOn","noteNumber":76,"velocity":127},{"deltaTime":0,"channel":0,"type":"noteOn","noteNumber":64,"velocity":119},{"deltaTime":0,"channel":1,"type":"noteOn","noteNumber":45,"velocity":126},{"deltaTime":454,"channel":0,"type":"noteOff","noteNumber":73,"velocity":0},{"deltaTime":0,"channel":0,"type":"noteOff","noteNumber":76,"velocity":0},{"deltaTime":0,"channel":0,"type":"noteOff","noteNumber":64,"velocity":0},{"deltaTime":0,"channel":1,"type":"noteOff","noteNumber":45,"velocity":0},{"deltaTime":26,"channel":0,"type":"noteOn","noteNumber":67,"velocity":72},{"deltaTime":0,"channel":1,"type":"noteOn","noteNumber":59,"velocity":76},{"deltaTime":0,"channel":1,"type":"noteOn","noteNumber":61,"velocity":68},{"deltaTime":238,"channel":0,"type":"noteOff","noteNumber":67,"velocity":0},{"deltaTime":2,"channel":0,"type":"noteOn","noteNumber":68,"velocity":86},{"deltaTime":214,"channel":1,"type":"noteOff","noteNumber":59,"velocity":0},{"deltaTime":0,"channel":1,"type":"noteOff","noteNumber":61,"velocity":0},{"deltaTime":24,"channel":0,"type":"noteOff","noteNumber":68,"velocity":0},{"deltaTime":2,"channel":0,"type":"noteOn","noteNumber":69,"velocity":85},{"deltaTime":0,"channel":1,"type":"noteOn","noteNumber":57,"velocity":62},{"deltaTime":0,"channel":1,"type":"noteOn","noteNumber":40,"velocity":74},{"deltaTime":454,"channel":1,"type":"noteOff","noteNumber":57,"velocity":0},{"deltaTime":0,"channel":1,"type":"noteOff","noteNumber":40,"velocity":0},{"deltaTime":24,"channel":0,"type":"noteOff","noteNumber":69,"velocity":0},{"deltaTime":2,"channel":0,"type":"noteOn","noteNumber":70,"velocity":47},{"deltaTime":0,"channel":1,"type":"noteOn","noteNumber":56,"velocity":72},{"deltaTime":0,"channel":1,"type":"noteOn","noteNumber":61,"velocity":62},{"deltaTime":0,"channel":1,"type":"noteOn","noteNumber":64,"velocity":57},{"deltaTime":238,"channel":0,"type":"noteOff","noteNumber":70,"velocity":0},{"deltaTime":2,"channel":0,"type":"noteOn","noteNumber":71,"velocity":62},{"deltaTime":214,"channel":1,"type":"noteOff","noteNumber":56,"velocity":0},{"deltaTime":0,"channel":1,"type":"noteOff","noteNumber":61,"velocity":0},{"deltaTime":0,"channel":1,"type":"noteOff","noteNumber":64,"velocity":0},{"deltaTime":24,"channel":0,"type":"noteOff","noteNumber":71,"velocity":0},{"deltaTime":2,"channel":0,"type":"noteOn","noteNumber":72,"velocity":64},{"deltaTime":0,"channel":1,"type":"noteOn","noteNumber":60,"velocity":64},{"deltaTime":0,"channel":1,"type":"noteOn","noteNumber":44,"velocity":49},{"deltaTime":454,"channel":1,"type":"noteOff","noteNumber":60,"velocity":0},{"deltaTime":0,"channel":1,"type":"noteOff","noteNumber":44,"velocity":0},{"deltaTime":24,"channel":0,"type":"noteOff","noteNumber":72,"velocity":0},{"deltaTime":2,"channel":0,"type":"noteOn","noteNumber":73,"velocity":80},{"deltaTime":0,"channel":1,"type":"noteOn","noteNumber":64,"velocity":62},{"deltaTime":0,"channel":1,"type":"noteOn","noteNumber":68,"velocity":45},{"deltaTime":0,"channel":1,"type":"noteOn","noteNumber":54,"velocity":55},{"deltaTime":226,"channel":1,"type":"noteOff","noteNumber":64,"velocity":0},{"deltaTime":0,"channel":1,"type":"noteOff","noteNumber":68,"velocity":0},{"deltaTime":12,"channel":0,"type":"noteOff","noteNumber":73,"velocity":0},{"deltaTime":2,"channel":0,"type":"noteOn","noteNumber":74,"velocity":86},{"deltaTime":0,"channel":1,"type":"noteOn","noteNumber":62,"velocity":75},{"deltaTime":214,"channel":1,"type":"noteOff","noteNumber":54,"velocity":0},{"deltaTime":12,"channel":1,"type":"noteOff","noteNumber":62,"velocity":0},{"deltaTime":12,"channel":0,"type":"noteOff","noteNumber":74,"velocity":0},{"deltaTime":2,"channel":0,"type":"noteOn","noteNumber":75,"velocity":105},{"deltaTime":0,"channel":1,"type":"noteOn","noteNumber":63,"velocity":103},{"deltaTime":0,"channel":1,"type":"noteOn","noteNumber":66,"velocity":90},{"deltaTime":0,"channel":1,"type":"noteOn","noteNumber":48,"velocity":109},{"deltaTime":454,"channel":1,"type":"noteOff","noteNumber":63,"velocity":0},{"deltaTime":0,"channel":1,"type":"noteOff","noteNumber":66,"velocity":0},{"deltaTime":0,"channel":1,"type":"noteOff","noteNumber":48,"velocity":0},{"deltaTime":24,"channel":0,"type":"noteOff","noteNumber":75,"velocity":0},{"deltaTime":2,"channel":0,"type":"noteOn","noteNumber":76,"velocity":100},{"deltaTime":0,"channel":1,"type":"noteOn","noteNumber":68,"velocity":100},{"deltaTime":0,"channel":1,"type":"noteOn","noteNumber":56,"velocity":89},{"deltaTime":226,"channel":0,"type":"noteOff","noteNumber":76,"velocity":0},{"deltaTime":14,"channel":0,"type":"noteOn","noteNumber":78,"velocity":123},{"deltaTime":214,"channel":1,"type":"noteOff","noteNumber":68,"velocity":0},{"deltaTime":0,"channel":1,"type":"noteOff","noteNumber":56,"velocity":0},{"deltaTime":12,"channel":0,"type":"noteOff","noteNumber":78,"velocity":0},{"deltaTime":14,"channel":0,"type":"noteOn","noteNumber":92,"velocity":117},{"deltaTime":0,"channel":0,"type":"noteOn","noteNumber":75,"velocity":115},{"deltaTime":0,"channel":0,"type":"noteOn","noteNumber":80,"velocity":123},{"deltaTime":0,"channel":1,"type":"noteOn","noteNumber":61,"velocity":115},{"deltaTime":0,"channel":1,"type":"noteOn","noteNumber":64,"velocity":116},{"deltaTime":0,"channel":1,"type":"noteOn","noteNumber":49,"velocity":115},{"deltaTime":238,"channel":0,"type":"noteOff","noteNumber":92,"velocity":0},{"deltaTime":0,"channel":0,"type":"noteOff","noteNumber":75,"velocity":0},{"deltaTime":0,"channel":0,"type":"noteOff","noteNumber":80,"velocity":0},{"deltaTime":0,"channel":1,"type":"noteOff","noteNumber":61,"velocity":0},{"deltaTime":0,"channel":1,"type":"noteOff","noteNumber":64,"velocity":0},{"deltaTime":0,"channel":1,"type":"noteOff","noteNumber":49,"velocity":0},{"deltaTime":242,"channel":0,"type":"noteOn","noteNumber":78,"velocity":49},{"deltaTime":0,"channel":1,"type":"noteOn","noteNumber":63,"velocity":55},{"deltaTime":0,"channel":1,"type":"noteOn","noteNumber":64,"velocity":55},{"deltaTime":0,"channel":1,"type":"noteOn","noteNumber":68,"velocity":55},{"deltaTime":158,"channel":0,"type":"noteOff","noteNumber":78,"velocity":0},{"deltaTime":2,"channel":0,"type":"noteOn","noteNumber":76,"velocity":49},{"deltaTime":158,"channel":0,"type":"noteOff","noteNumber":76,"velocity":0},{"deltaTime":2,"channel":0,"type":"noteOn","noteNumber":75,"velocity":49},{"deltaTime":158,"channel":0,"type":"noteOff","noteNumber":75,"velocity":0},{"deltaTime":0,"channel":1,"type":"noteOff","noteNumber":63,"velocity":0},{"deltaTime":0,"channel":1,"type":"noteOff","noteNumber":64,"velocity":0},{"deltaTime":0,"channel":1,"type":"noteOff","noteNumber":68,"velocity":0},{"deltaTime":2,"channel":0,"type":"noteOn","noteNumber":81,"velocity":85},{"deltaTime":0,"channel":0,"type":"noteOn","noteNumber":76,"velocity":71},{"deltaTime":0,"channel":1,"type":"noteOn","noteNumber":69,"velocity":49},{"deltaTime":0,"channel":1,"type":"noteOn","noteNumber":44,"velocity":58},{"deltaTime":238,"channel":1,"type":"noteOff","noteNumber":69,"velocity":0},{"deltaTime":0,"channel":1,"type":"noteOff","noteNumber":44,"velocity":0},{"deltaTime":216,"channel":0,"type":"noteOff","noteNumber":81,"velocity":0},{"deltaTime":0,"channel":0,"type":"noteOff","noteNumber":76,"velocity":0},{"deltaTime":26,"channel":0,"type":"noteOn","noteNumber":78,"velocity":60},{"deltaTime":0,"channel":0,"type":"noteOn","noteNumber":82,"velocity":86},{"deltaTime":0,"channel":0,"type":"noteOn","noteNumber":87,"velocity":60},{"deltaTime":0,"channel":1,"type":"noteOn","noteNumber":66,"velocity":64},{"deltaTime":0,"channel":1,"type":"noteOn","noteNumber":70,"velocity":54},{"deltaTime":226,"channel":0,"type":"noteOff","noteNumber":78,"velocity":0},{"deltaTime":0,"channel":0,"type":"noteOff","noteNumber":82,"velocity":0},{"deltaTime":0,"channel":0,"type":"noteOff","noteNumber":87,"velocity":0},{"deltaTime":0,"channel":1,"type":"noteOff","noteNumber":66,"velocity":0},{"deltaTime":0,"channel":1,"type":"noteOff","noteNumber":70,"velocity":0},{"deltaTime":14,"channel":0,"type":"noteOn","noteNumber":76,"velocity":51},{"deltaTime":0,"channel":0,"type":"noteOn","noteNumber":79,"velocity":86},{"deltaTime":0,"channel":1,"type":"noteOn","noteNumber":61,"velocity":58},{"deltaTime":0,"channel":1,"type":"noteOn","noteNumber":67,"velocity":51},{"deltaTime":226,"channel":0,"type":"noteOff","noteNumber":76,"velocity":0},{"deltaTime":0,"channel":0,"type":"noteOff","noteNumber":79,"velocity":0},{"deltaTime":0,"channel":1,"type":"noteOff","noteNumber":61,"velocity":0},{"deltaTime":0,"channel":1,"type":"noteOff","noteNumber":67,"velocity":0},{"deltaTime":14,"channel":0,"type":"noteOn","noteNumber":80,"velocity":82},{"deltaTime":0,"channel":0,"type":"noteOn","noteNumber":81,"velocity":100},{"deltaTime":0,"channel":1,"type":"noteOn","noteNumber":69,"velocity":92},{"deltaTime":0,"channel":1,"type":"noteOn","noteNumber":72,"velocity":94},{"deltaTime":0,"channel":1,"type":"noteOn","noteNumber":50,"velocity":96},{"deltaTime":478,"channel":0,"type":"noteOff","noteNumber":80,"velocity":0},{"deltaTime":0,"channel":0,"type":"noteOff","noteNumber":81,"velocity":0},{"deltaTime":0,"channel":1,"type":"noteOff","noteNumber":69,"velocity":0},{"deltaTime":0,"channel":1,"type":"noteOff","noteNumber":72,"velocity":0},{"deltaTime":0,"channel":1,"type":"noteOff","noteNumber":50,"velocity":0},{"deltaTime":2,"channel":0,"type":"noteOn","noteNumber":81,"velocity":97},{"deltaTime":0,"channel":0,"type":"noteOn","noteNumber":84,"velocity":102},{"deltaTime":0,"channel":0,"type":"noteOn","noteNumber":76,"velocity":98},{"deltaTime":0,"channel":1,"type":"noteOn","noteNumber":66,"velocity":92},{"deltaTime":0,"channel":1,"type":"noteOn","noteNumber":60,"velocity":105},{"deltaTime":238,"channel":0,"type":"noteOff","noteNumber":81,"velocity":0},{"deltaTime":0,"channel":0,"type":"noteOff","noteNumber":84,"velocity":0},{"deltaTime":0,"channel":0,"type":"noteOff","noteNumber":76,"velocity":0},{"deltaTime":0,"channel":1,"type":"noteOff","noteNumber":66,"velocity":0},{"deltaTime":0,"channel":1,"type":"noteOff","noteNumber":60,"velocity":0},{"deltaTime":242,"channel":0,"type":"noteOn","noteNumber":80,"velocity":99},{"deltaTime":0,"channel":0,"type":"noteOn","noteNumber":85,"velocity":111},{"deltaTime":0,"channel":0,"type":"noteOn","noteNumber":73,"velocity":115},{"deltaTime":0,"channel":1,"type":"noteOn","noteNumber":64,"velocity":104},{"deltaTime":0,"channel":1,"type":"noteOn","noteNumber":45,"velocity":104},{"deltaTime":0,"channel":1,"type":"noteOn","noteNumber":57,"velocity":49},{"deltaTime":238,"channel":0,"type":"noteOff","noteNumber":80,"velocity":0},{"deltaTime":0,"channel":0,"type":"noteOff","noteNumber":85,"velocity":0},{"deltaTime":0,"channel":0,"type":"noteOff","noteNumber":73,"velocity":0},{"deltaTime":0,"channel":1,"type":"noteOff","noteNumber":64,"velocity":0},{"deltaTime":0,"channel":1,"type":"noteOff","noteNumber":45,"velocity":0},{"deltaTime":0,"channel":1,"type":"noteOff","noteNumber":57,"velocity":0},{"deltaTime":242,"channel":0,"type":"noteOn","noteNumber":81,"velocity":118},{"deltaTime":0,"channel":0,"type":"noteOn","noteNumber":87,"velocity":124},{"deltaTime":0,"channel":0,"type":"noteOn","noteNumber":72,"velocity":117},{"deltaTime":0,"channel":1,"type":"noteOn","noteNumber":63,"velocity":123},{"deltaTime":0,"channel":1,"type":"noteOn","noteNumber":42,"velocity":119},{"deltaTime":0,"channel":1,"type":"noteOn","noteNumber":54,"velocity":49},{"deltaTime":238,"channel":0,"type":"noteOff","noteNumber":81,"velocity":0},{"deltaTime":0,"channel":0,"type":"noteOff","noteNumber":87,"velocity":0},{"deltaTime":0,"channel":0,"type":"noteOff","noteNumber":72,"velocity":0},{"deltaTime":0,"channel":1,"type":"noteOff","noteNumber":63,"velocity":0},{"deltaTime":0,"channel":1,"type":"noteOff","noteNumber":42,"velocity":0},{"deltaTime":0,"channel":1,"type":"noteOff","noteNumber":54,"velocity":0},{"deltaTime":242,"channel":0,"type":"noteOn","noteNumber":87,"velocity":49},{"deltaTime":0,"channel":0,"type":"noteOn","noteNumber":73,"velocity":114},{"deltaTime":0,"channel":0,"type":"noteOn","noteNumber":76,"velocity":125},{"deltaTime":0,"channel":1,"type":"noteOn","noteNumber":44,"velocity":118},{"deltaTime":0,"channel":1,"type":"noteOn","noteNumber":56,"velocity":118},{"deltaTime":166,"channel":0,"type":"noteOff","noteNumber":87,"velocity":0},{"deltaTime":2,"channel":0,"type":"noteOn","noteNumber":83,"velocity":118},{"deltaTime":0,"channel":0,"type":"noteOn","noteNumber":88,"velocity":118},{"deltaTime":312,"channel":1,"type":"noteOn","noteNumber":64,"velocity":69},{"deltaTime":0,"channel":1,"type":"noteOn","noteNumber":68,"velocity":69},{"deltaTime":430,"channel":0,"type":"noteOff","noteNumber":73,"velocity":0},{"deltaTime":0,"channel":0,"type":"noteOff","noteNumber":76,"velocity":0},{"deltaTime":6,"channel":0,"type":"noteOff","noteNumber":83,"velocity":0},{"deltaTime":0,"channel":0,"type":"noteOff","noteNumber":88,"velocity":0},{"deltaTime":42,"channel":1,"type":"noteOff","noteNumber":64,"velocity":0},{"deltaTime":0,"channel":1,"type":"noteOff","noteNumber":68,"velocity":0},{"deltaTime":0,"channel":1,"type":"noteOff","noteNumber":44,"velocity":0},{"deltaTime":0,"channel":1,"type":"noteOff","noteNumber":56,"velocity":0},{"deltaTime":2,"channel":0,"type":"noteOn","noteNumber":87,"velocity":49},{"deltaTime":0,"channel":0,"type":"noteOn","noteNumber":76,"velocity":102},{"deltaTime":0,"channel":1,"type":"noteOn","noteNumber":49,"velocity":94},{"deltaTime":166,"channel":0,"type":"noteOff","noteNumber":87,"velocity":0},{"deltaTime":2,"channel":0,"type":"noteOn","noteNumber":88,"velocity":102},{"deltaTime":286,"channel":0,"type":"noteOff","noteNumber":76,"velocity":0},{"deltaTime":0,"channel":1,"type":"noteOff","noteNumber":49,"velocity":0},{"deltaTime":22,"channel":0,"type":"noteOff","noteNumber":88,"velocity":0},{"deltaTime":4,"channel":0,"type":"noteOn","noteNumber":92,"velocity":87},{"deltaTime":0,"channel":1,"type":"noteOn","noteNumber":63,"velocity":102},{"deltaTime":0,"channel":1,"type":"noteOn","noteNumber":68,"velocity":102},{"deltaTime":118,"channel":1,"type":"noteOff","noteNumber":63,"velocity":0},{"deltaTime":0,"channel":1,"type":"noteOff","noteNumber":68,"velocity":0},{"deltaTime":122,"channel":1,"type":"noteOn","noteNumber":61,"velocity":64},{"deltaTime":0,"channel":1,"type":"noteOn","noteNumber":64,"velocity":64},{"deltaTime":0,"channel":1,"type":"noteOn","noteNumber":68,"velocity":64},{"deltaTime":118,"channel":1,"type":"noteOff","noteNumber":61,"velocity":0},{"deltaTime":0,"channel":1,"type":"noteOff","noteNumber":64,"velocity":0},{"deltaTime":0,"channel":1,"type":"noteOff","noteNumber":68,"velocity":0},{"deltaTime":120,"channel":0,"type":"noteOff","noteNumber":92,"velocity":0},{"deltaTime":2,"channel":0,"type":"noteOn","noteNumber":93,"velocity":110},{"deltaTime":0,"channel":0,"type":"noteOn","noteNumber":81,"velocity":110},{"deltaTime":0,"channel":1,"type":"noteOn","noteNumber":51,"velocity":87},{"deltaTime":478,"channel":0,"type":"noteOff","noteNumber":93,"velocity":0},{"deltaTime":0,"channel":0,"type":"noteOff","noteNumber":81,"velocity":0},{"deltaTime":2,"channel":0,"type":"noteOn","noteNumber":90,"velocity":86},{"deltaTime":0,"channel":0,"type":"noteOn","noteNumber":78,"velocity":86},{"deltaTime":0,"channel":1,"type":"noteOn","noteNumber":63,"velocity":66},{"deltaTime":0,"channel":1,"type":"noteOn","noteNumber":68,"velocity":66},{"deltaTime":0,"channel":1,"type":"noteOn","noteNumber":72,"velocity":66},{"deltaTime":238,"channel":1,"type":"noteOff","noteNumber":63,"velocity":0},{"deltaTime":0,"channel":1,"type":"noteOff","noteNumber":68,"velocity":0},{"deltaTime":0,"channel":1,"type":"noteOff","noteNumber":72,"velocity":0},{"deltaTime":240,"channel":0,"type":"noteOff","noteNumber":90,"velocity":0},{"deltaTime":0,"channel":0,"type":"noteOff","noteNumber":78,"velocity":0},{"deltaTime":0,"channel":1,"type":"noteOff","noteNumber":51,"velocity":0},{"deltaTime":2,"channel":0,"type":"noteOn","noteNumber":87,"velocity":102},{"deltaTime":0,"channel":0,"type":"noteOn","noteNumber":75,"velocity":109},{"deltaTime":0,"channel":1,"type":"noteOn","noteNumber":44,"velocity":86},{"deltaTime":454,"channel":0,"type":"noteOff","noteNumber":87,"velocity":0},{"deltaTime":0,"channel":0,"type":"noteOff","noteNumber":75,"velocity":0},{"deltaTime":0,"channel":1,"type":"noteOff","noteNumber":44,"velocity":0},{"deltaTime":26,"channel":0,"type":"noteOn","noteNumber":93,"velocity":88},{"deltaTime":0,"channel":0,"type":"noteOn","noteNumber":72,"velocity":81},{"deltaTime":0,"channel":0,"type":"noteOn","noteNumber":78,"velocity":88},{"deltaTime":0,"channel":0,"type":"noteOn","noteNumber":81,"velocity":88},{"deltaTime":0,"channel":1,"type":"noteOn","noteNumber":57,"velocity":66},{"deltaTime":0,"channel":1,"type":"noteOn","noteNumber":63,"velocity":66},{"deltaTime":238,"channel":0,"type":"noteOff","noteNumber":93,"velocity":0},{"deltaTime":0,"channel":0,"type":"noteOff","noteNumber":72,"velocity":0},{"deltaTime":0,"channel":0,"type":"noteOff","noteNumber":78,"velocity":0},{"deltaTime":0,"channel":0,"type":"noteOff","noteNumber":81,"velocity":0},{"deltaTime":0,"channel":1,"type":"noteOff","noteNumber":57,"velocity":0},{"deltaTime":0,"channel":1,"type":"noteOff","noteNumber":63,"velocity":0},{"deltaTime":2,"channel":0,"type":"noteOn","noteNumber":94,"velocity":75},{"deltaTime":0,"channel":0,"type":"noteOn","noteNumber":82,"velocity":91},{"deltaTime":238,"channel":0,"type":"noteOff","noteNumber":94,"velocity":0},{"deltaTime":0,"channel":0,"type":"noteOff","noteNumber":82,"velocity":0},{"deltaTime":2,"channel":0,"type":"noteOn","noteNumber":95,"velocity":110},{"deltaTime":0,"channel":0,"type":"noteOn","noteNumber":83,"velocity":117},{"deltaTime":0,"channel":1,"type":"noteOn","noteNumber":40,"velocity":106},{"deltaTime":0,"channel":1,"type":"noteOn","noteNumber":52,"velocity":106},{"deltaTime":478,"channel":0,"type":"noteOff","noteNumber":95,"velocity":0},{"deltaTime":0,"channel":0,"type":"noteOff","noteNumber":83,"velocity":0},{"deltaTime":2,"channel":0,"type":"noteOn","noteNumber":92,"velocity":77},{"deltaTime":0,"channel":0,"type":"noteOn","noteNumber":80,"velocity":84},{"deltaTime":0,"channel":1,"type":"noteOn","noteNumber":56,"velocity":69},{"deltaTime":0,"channel":1,"type":"noteOn","noteNumber":59,"velocity":69},{"deltaTime":0,"channel":1,"type":"noteOn","noteNumber":64,"velocity":69},{"deltaTime":478,"channel":0,"type":"noteOff","noteNumber":92,"velocity":0},{"deltaTime":0,"channel":0,"type":"noteOff","noteNumber":80,"velocity":0},{"deltaTime":0,"channel":1,"type":"noteOff","noteNumber":56,"velocity":0},{"deltaTime":0,"channel":1,"type":"noteOff","noteNumber":59,"velocity":0},{"deltaTime":0,"channel":1,"type":"noteOff","noteNumber":64,"velocity":0},{"deltaTime":0,"channel":1,"type":"noteOff","noteNumber":40,"velocity":0},{"deltaTime":0,"channel":1,"type":"noteOff","noteNumber":52,"velocity":0},{"deltaTime":2,"channel":0,"type":"noteOn","noteNumber":88,"velocity":106},{"deltaTime":0,"channel":0,"type":"noteOn","noteNumber":76,"velocity":113},{"deltaTime":0,"channel":1,"type":"noteOn","noteNumber":47,"velocity":94},{"deltaTime":454,"channel":0,"type":"noteOff","noteNumber":88,"velocity":0},{"deltaTime":0,"channel":0,"type":"noteOff","noteNumber":76,"velocity":0},{"deltaTime":0,"channel":1,"type":"noteOff","noteNumber":47,"velocity":0},{"deltaTime":26,"channel":0,"type":"noteOn","noteNumber":75,"velocity":95},{"deltaTime":0,"channel":0,"type":"noteOn","noteNumber":83,"velocity":93},{"deltaTime":0,"channel":1,"type":"noteOn","noteNumber":59,"velocity":69},{"deltaTime":0,"channel":1,"type":"noteOn","noteNumber":64,"velocity":69},{"deltaTime":0,"channel":1,"type":"noteOn","noteNumber":68,"velocity":69},{"deltaTime":118,"channel":1,"type":"noteOff","noteNumber":59,"velocity":0},{"deltaTime":0,"channel":1,"type":"noteOff","noteNumber":64,"velocity":0},{"deltaTime":0,"channel":1,"type":"noteOff","noteNumber":68,"velocity":0},{"deltaTime":120,"channel":0,"type":"noteOff","noteNumber":75,"velocity":0},{"deltaTime":0,"channel":0,"type":"noteOff","noteNumber":83,"velocity":0},{"deltaTime":2,"channel":0,"type":"noteOn","noteNumber":84,"velocity":83},{"deltaTime":0,"channel":1,"type":"noteOn","noteNumber":59,"velocity":55},{"deltaTime":0,"channel":1,"type":"noteOn","noteNumber":61,"velocity":55},{"deltaTime":0,"channel":1,"type":"noteOn","noteNumber":68,"velocity":55},{"deltaTime":118,"channel":1,"type":"noteOff","noteNumber":59,"velocity":0},{"deltaTime":0,"channel":1,"type":"noteOff","noteNumber":61,"velocity":0},{"deltaTime":0,"channel":1,"type":"noteOff","noteNumber":68,"velocity":0},{"deltaTime":120,"channel":0,"type":"noteOff","noteNumber":84,"velocity":0},{"deltaTime":2,"channel":0,"type":"noteOn","noteNumber":99,"velocity":46},{"deltaTime":0,"channel":0,"type":"noteOn","noteNumber":87,"velocity":94},{"deltaTime":0,"channel":1,"type":"noteOn","noteNumber":41,"velocity":76},{"deltaTime":0,"channel":1,"type":"noteOn","noteNumber":53,"velocity":76},{"deltaTime":4,"channel":0,"type":"controller","controllerType":64,"value":127},{"deltaTime":0,"channel":1,"type":"controller","controllerType":64,"value":127},{"deltaTime":222,"channel":0,"type":"noteOff","noteNumber":99,"velocity":0},{"deltaTime":14,"channel":0,"type":"noteOn","noteNumber":99,"velocity":85},{"deltaTime":214,"channel":0,"type":"noteOff","noteNumber":87,"velocity":0},{"deltaTime":12,"channel":0,"type":"noteOff","noteNumber":99,"velocity":0},{"deltaTime":14,"channel":0,"type":"noteOn","noteNumber":85,"velocity":49},{"deltaTime":0,"channel":0,"type":"noteOff","noteNumber":85,"velocity":0},{"deltaTime":0,"channel":0,"type":"noteOn","noteNumber":73,"velocity":69},{"deltaTime":0,"channel":0,"type":"noteOn","noteNumber":85,"velocity":90},{"deltaTime":0,"channel":1,"type":"noteOn","noteNumber":61,"velocity":81},{"deltaTime":454,"channel":1,"type":"noteOff","noteNumber":61,"velocity":0},{"deltaTime":24,"channel":0,"type":"noteOff","noteNumber":73,"velocity":0},{"deltaTime":0,"channel":0,"type":"noteOff","noteNumber":85,"velocity":0},{"deltaTime":2,"channel":0,"type":"noteOn","noteNumber":80,"velocity":49},{"deltaTime":0,"channel":0,"type":"noteOff","noteNumber":80,"velocity":0},{"deltaTime":0,"channel":0,"type":"noteOn","noteNumber":80,"velocity":93},{"deltaTime":0,"channel":1,"type":"noteOn","noteNumber":65,"velocity":86},{"deltaTime":240,"channel":0,"type":"noteOn","noteNumber":92,"velocity":97},{"deltaTime":214,"channel":1,"type":"noteOff","noteNumber":65,"velocity":0},{"deltaTime":12,"channel":0,"type":"noteOff","noteNumber":92,"velocity":0},{"deltaTime":12,"channel":0,"type":"noteOff","noteNumber":80,"velocity":0},{"deltaTime":2,"channel":0,"type":"noteOn","noteNumber":85,"velocity":55},{"deltaTime":0,"channel":0,"type":"noteOn","noteNumber":77,"velocity":104},{"deltaTime":0,"channel":1,"type":"noteOn","noteNumber":71,"velocity":68},{"deltaTime":454,"channel":0,"type":"noteOff","noteNumber":85,"velocity":0},{"deltaTime":0,"channel":0,"type":"noteOff","noteNumber":77,"velocity":0},{"deltaTime":0,"channel":1,"type":"noteOff","noteNumber":71,"velocity":0},{"deltaTime":24,"channel":1,"type":"noteOff","noteNumber":41,"velocity":0},{"deltaTime":0,"channel":1,"type":"noteOff","noteNumber":53,"velocity":0},{"deltaTime":2,"channel":0,"type":"noteOn","noteNumber":95,"velocity":46},{"deltaTime":0,"channel":0,"type":"noteOn","noteNumber":83,"velocity":94},{"deltaTime":0,"channel":1,"type":"noteOn","noteNumber":66,"velocity":46},{"deltaTime":0,"channel":1,"type":"noteOn","noteNumber":54,"velocity":60},{"deltaTime":2,"channel":0,"type":"controller","controllerType":64,"value":0},{"deltaTime":0,"channel":1,"type":"controller","controllerType":64,"value":0},{"deltaTime":2,"channel":0,"type":"controller","controllerType":64,"value":127},{"deltaTime":0,"channel":1,"type":"controller","controllerType":64,"value":127},{"deltaTime":222,"channel":0,"type":"noteOff","noteNumber":95,"velocity":0},{"deltaTime":14,"channel":0,"type":"noteOn","noteNumber":95,"velocity":84},{"deltaTime":214,"channel":0,"type":"noteOff","noteNumber":83,"velocity":0},{"deltaTime":0,"channel":1,"type":"noteOff","noteNumber":66,"velocity":0},{"deltaTime":12,"channel":0,"type":"noteOff","noteNumber":95,"velocity":0},{"deltaTime":14,"channel":0,"type":"noteOn","noteNumber":81,"velocity":91},{"deltaTime":0,"channel":1,"type":"noteOn","noteNumber":64,"velocity":49},{"deltaTime":454,"channel":0,"type":"noteOff","noteNumber":81,"velocity":0},{"deltaTime":0,"channel":1,"type":"noteOff","noteNumber":64,"velocity":0},{"deltaTime":26,"channel":0,"type":"noteOn","noteNumber":88,"velocity":78},{"deltaTime":0,"channel":1,"type":"noteOn","noteNumber":66,"velocity":67},{"deltaTime":454,"channel":0,"type":"noteOff","noteNumber":88,"velocity":0},{"deltaTime":0,"channel":1,"type":"noteOff","noteNumber":66,"velocity":0},{"deltaTime":26,"channel":0,"type":"noteOn","noteNumber":81,"velocity":60},{"deltaTime":0,"channel":1,"type":"noteOn","noteNumber":73,"velocity":55},{"deltaTime":454,"channel":0,"type":"noteOff","noteNumber":81,"velocity":0},{"deltaTime":0,"channel":1,"type":"noteOff","noteNumber":73,"velocity":0},{"deltaTime":24,"channel":1,"type":"noteOff","noteNumber":54,"velocity":0},{"deltaTime":2,"channel":0,"type":"noteOn","noteNumber":78,"velocity":49},{"deltaTime":0,"channel":1,"type":"noteOn","noteNumber":64,"velocity":73},{"deltaTime":2,"channel":0,"type":"controller","controllerType":64,"value":0},{"deltaTime":0,"channel":1,"type":"controller","controllerType":64,"value":0},{"deltaTime":2,"channel":0,"type":"controller","controllerType":64,"value":127},{"deltaTime":0,"channel":1,"type":"controller","controllerType":64,"value":127},{"deltaTime":162,"channel":0,"type":"noteOff","noteNumber":78,"velocity":0},{"deltaTime":2,"channel":0,"type":"noteOn","noteNumber":79,"velocity":77},{"deltaTime":308,"channel":0,"type":"noteOff","noteNumber":79,"velocity":0},{"deltaTime":4,"channel":0,"type":"noteOn","noteNumber":80,"velocity":89},{"deltaTime":0,"channel":1,"type":"noteOn","noteNumber":71,"velocity":78},{"deltaTime":454,"channel":1,"type":"noteOff","noteNumber":71,"velocity":0},{"deltaTime":24,"channel":0,"type":"noteOff","noteNumber":80,"velocity":0},{"deltaTime":2,"channel":0,"type":"noteOn","noteNumber":88,"velocity":85},{"deltaTime":0,"channel":1,"type":"noteOn","noteNumber":78,"velocity":74},{"deltaTime":454,"channel":0,"type":"noteOff","noteNumber":88,"velocity":0},{"deltaTime":0,"channel":1,"type":"noteOff","noteNumber":78,"velocity":0},{"deltaTime":26,"channel":0,"type":"noteOn","noteNumber":92,"velocity":87},{"deltaTime":0,"channel":1,"type":"noteOn","noteNumber":76,"velocity":78},{"deltaTime":454,"channel":0,"type":"noteOff","noteNumber":92,"velocity":0},{"deltaTime":0,"channel":1,"type":"noteOff","noteNumber":76,"velocity":0},{"deltaTime":24,"channel":1,"type":"noteOff","noteNumber":64,"velocity":0},{"deltaTime":2,"channel":0,"type":"noteOn","noteNumber":95,"velocity":82},{"deltaTime":0,"channel":1,"type":"noteOn","noteNumber":50,"velocity":48},{"deltaTime":0,"channel":1,"type":"noteOn","noteNumber":62,"velocity":57},{"deltaTime":2,"channel":0,"type":"controller","controllerType":64,"value":0},{"deltaTime":0,"channel":1,"type":"controller","controllerType":64,"value":0},{"deltaTime":2,"channel":0,"type":"controller","controllerType":64,"value":127},{"deltaTime":0,"channel":1,"type":"controller","controllerType":64,"value":127},{"deltaTime":474,"channel":0,"type":"noteOff","noteNumber":95,"velocity":0},{"deltaTime":2,"channel":0,"type":"noteOn","noteNumber":93,"velocity":82},{"deltaTime":0,"channel":1,"type":"noteOn","noteNumber":66,"velocity":68},{"deltaTime":454,"channel":1,"type":"noteOff","noteNumber":66,"velocity":0},{"deltaTime":24,"channel":0,"type":"noteOff","noteNumber":93,"velocity":0},{"deltaTime":2,"channel":0,"type":"noteOn","noteNumber":95,"velocity":73},{"deltaTime":0,"channel":0,"type":"noteOn","noteNumber":86,"velocity":69},{"deltaTime":0,"channel":1,"type":"noteOn","noteNumber":74,"velocity":69},{"deltaTime":454,"channel":0,"type":"noteOff","noteNumber":86,"velocity":0},{"deltaTime":0,"channel":1,"type":"noteOff","noteNumber":74,"velocity":0},{"deltaTime":24,"channel":0,"type":"noteOff","noteNumber":95,"velocity":0},{"deltaTime":2,"channel":0,"type":"noteOn","noteNumber":93,"velocity":61},{"deltaTime":0,"channel":0,"type":"noteOn","noteNumber":90,"velocity":84},{"deltaTime":0,"channel":1,"type":"noteOn","noteNumber":78,"velocity":78},{"deltaTime":454,"channel":0,"type":"noteOff","noteNumber":90,"velocity":0},{"deltaTime":0,"channel":1,"type":"noteOff","noteNumber":78,"velocity":0},{"deltaTime":24,"channel":0,"type":"noteOff","noteNumber":93,"velocity":0},{"deltaTime":0,"channel":1,"type":"noteOff","noteNumber":50,"velocity":0},{"deltaTime":0,"channel":1,"type":"noteOff","noteNumber":62,"velocity":0},{"deltaTime":2,"channel":0,"type":"noteOn","noteNumber":95,"velocity":73},{"deltaTime":0,"channel":1,"type":"noteOn","noteNumber":49,"velocity":58},{"deltaTime":0,"channel":1,"type":"noteOn","noteNumber":61,"velocity":58},{"deltaTime":2,"channel":0,"type":"controller","controllerType":64,"value":0},{"deltaTime":0,"channel":1,"type":"controller","controllerType":64,"value":0},{"deltaTime":2,"channel":0,"type":"controller","controllerType":64,"value":127},{"deltaTime":0,"channel":1,"type":"controller","controllerType":64,"value":127},{"deltaTime":236,"channel":0,"type":"noteOn","noteNumber":83,"velocity":36},{"deltaTime":226,"channel":0,"type":"noteOff","noteNumber":83,"velocity":0},{"deltaTime":12,"channel":0,"type":"noteOff","noteNumber":95,"velocity":0},{"deltaTime":2,"channel":0,"type":"noteOn","noteNumber":93,"velocity":68},{"deltaTime":0,"channel":1,"type":"noteOn","noteNumber":66,"velocity":71},{"deltaTime":240,"channel":0,"type":"noteOn","noteNumber":81,"velocity":26},{"deltaTime":214,"channel":1,"type":"noteOff","noteNumber":66,"velocity":0},{"deltaTime":12,"channel":0,"type":"noteOff","noteNumber":81,"velocity":0},{"deltaTime":12,"channel":0,"type":"noteOff","noteNumber":93,"velocity":0},{"deltaTime":2,"channel":0,"type":"noteOn","noteNumber":95,"velocity":76},{"deltaTime":0,"channel":1,"type":"noteOn","noteNumber":73,"velocity":84},{"deltaTime":240,"channel":0,"type":"noteOn","noteNumber":83,"velocity":60},{"deltaTime":214,"channel":1,"type":"noteOff","noteNumber":73,"velocity":0},{"deltaTime":12,"channel":0,"type":"noteOff","noteNumber":83,"velocity":0},{"deltaTime":12,"channel":0,"type":"noteOff","noteNumber":95,"velocity":0},{"deltaTime":2,"channel":0,"type":"noteOn","noteNumber":93,"velocity":91},{"deltaTime":0,"channel":1,"type":"noteOn","noteNumber":78,"velocity":96},{"deltaTime":240,"channel":0,"type":"noteOn","noteNumber":81,"velocity":63},{"deltaTime":214,"channel":0,"type":"noteOff","noteNumber":93,"velocity":0},{"deltaTime":0,"channel":1,"type":"noteOff","noteNumber":78,"velocity":0},{"deltaTime":12,"channel":0,"type":"noteOff","noteNumber":81,"velocity":0},{"deltaTime":12,"channel":1,"type":"noteOff","noteNumber":49,"velocity":0},{"deltaTime":0,"channel":1,"type":"noteOff","noteNumber":61,"velocity":0},{"deltaTime":2,"channel":0,"type":"noteOn","noteNumber":95,"velocity":77},{"deltaTime":0,"channel":1,"type":"noteOn","noteNumber":48,"velocity":87},{"deltaTime":0,"channel":1,"type":"noteOn","noteNumber":60,"velocity":87},{"deltaTime":2,"channel":0,"type":"controller","controllerType":64,"value":0},{"deltaTime":0,"channel":1,"type":"controller","controllerType":64,"value":0},{"deltaTime":2,"channel":0,"type":"controller","controllerType":64,"value":127},{"deltaTime":0,"channel":1,"type":"controller","controllerType":64,"value":127},{"deltaTime":234,"channel":0,"type":"noteOff","noteNumber":95,"velocity":0},{"deltaTime":2,"channel":0,"type":"noteOn","noteNumber":93,"velocity":64},{"deltaTime":238,"channel":0,"type":"noteOff","noteNumber":93,"velocity":0},{"deltaTime":2,"channel":0,"type":"noteOn","noteNumber":95,"velocity":73},{"deltaTime":0,"channel":0,"type":"noteOn","noteNumber":83,"velocity":67},{"deltaTime":0,"channel":1,"type":"noteOn","noteNumber":66,"velocity":108},{"deltaTime":238,"channel":0,"type":"noteOff","noteNumber":95,"velocity":0},{"deltaTime":0,"channel":0,"type":"noteOff","noteNumber":83,"velocity":0},{"deltaTime":2,"channel":0,"type":"noteOn","noteNumber":93,"velocity":79},{"deltaTime":0,"channel":0,"type":"noteOn","noteNumber":81,"velocity":87},{"deltaTime":214,"channel":1,"type":"noteOff","noteNumber":66,"velocity":0},{"deltaTime":24,"channel":0,"type":"noteOff","noteNumber":93,"velocity":0},{"deltaTime":0,"channel":0,"type":"noteOff","noteNumber":81,"velocity":0},{"deltaTime":2,"channel":0,"type":"noteOn","noteNumber":95,"velocity":91},{"deltaTime":0,"channel":0,"type":"noteOn","noteNumber":85,"velocity":76},{"deltaTime":0,"channel":1,"type":"noteOn","noteNumber":72,"velocity":112},{"deltaTime":238,"channel":0,"type":"noteOff","noteNumber":95,"velocity":0},{"deltaTime":0,"channel":0,"type":"noteOff","noteNumber":85,"velocity":0},{"deltaTime":2,"channel":0,"type":"noteOn","noteNumber":93,"velocity":92},{"deltaTime":0,"channel":0,"type":"noteOn","noteNumber":84,"velocity":82},{"deltaTime":214,"channel":1,"type":"noteOff","noteNumber":72,"velocity":0},{"deltaTime":24,"channel":0,"type":"noteOff","noteNumber":93,"velocity":0},{"deltaTime":0,"channel":0,"type":"noteOff","noteNumber":84,"velocity":0},{"deltaTime":2,"channel":0,"type":"noteOn","noteNumber":95,"velocity":106},{"deltaTime":0,"channel":0,"type":"noteOn","noteNumber":83,"velocity":88},{"deltaTime":0,"channel":1,"type":"noteOn","noteNumber":78,"velocity":113},{"deltaTime":238,"channel":0,"type":"noteOff","noteNumber":95,"velocity":0},{"deltaTime":0,"channel":0,"type":"noteOff","noteNumber":83,"velocity":0},{"deltaTime":2,"channel":0,"type":"noteOn","noteNumber":93,"velocity":112},{"deltaTime":0,"channel":0,"type":"noteOn","noteNumber":81,"velocity":101},{"deltaTime":214,"channel":1,"type":"noteOff","noteNumber":78,"velocity":0},{"deltaTime":24,"channel":0,"type":"noteOff","noteNumber":93,"velocity":0},{"deltaTime":0,"channel":0,"type":"noteOff","noteNumber":81,"velocity":0},{"deltaTime":0,"channel":1,"type":"noteOff","noteNumber":48,"velocity":0},{"deltaTime":0,"channel":1,"type":"noteOff","noteNumber":60,"velocity":0},{"deltaTime":2,"channel":0,"type":"noteOn","noteNumber":92,"velocity":123},{"deltaTime":0,"channel":0,"type":"noteOn","noteNumber":80,"velocity":107},{"deltaTime":0,"channel":1,"type":"noteOn","noteNumber":32,"velocity":121},{"deltaTime":0,"channel":1,"type":"noteOn","noteNumber":44,"velocity":121},{"deltaTime":2,"channel":0,"type":"controller","controllerType":64,"value":0},{"deltaTime":0,"channel":1,"type":"controller","controllerType":64,"value":0},{"deltaTime":2,"channel":0,"type":"controller","controllerType":64,"value":127},{"deltaTime":0,"channel":1,"type":"controller","controllerType":64,"value":127},{"deltaTime":234,"channel":0,"type":"noteOff","noteNumber":92,"velocity":0},{"deltaTime":2,"channel":0,"type":"noteOn","noteNumber":87,"velocity":107},{"deltaTime":238,"channel":0,"type":"noteOff","noteNumber":87,"velocity":0},{"deltaTime":0,"channel":0,"type":"noteOff","noteNumber":80,"velocity":0},{"deltaTime":2,"channel":0,"type":"noteOn","noteNumber":85,"velocity":119},{"deltaTime":0,"channel":0,"type":"noteOn","noteNumber":73,"velocity":119},{"deltaTime":238,"channel":0,"type":"noteOff","noteNumber":85,"velocity":0},{"deltaTime":2,"channel":0,"type":"noteOn","noteNumber":81,"velocity":119},{"deltaTime":238,"channel":0,"type":"noteOff","noteNumber":81,"velocity":0},{"deltaTime":0,"channel":0,"type":"noteOff","noteNumber":73,"velocity":0},{"deltaTime":0,"channel":1,"type":"noteOff","noteNumber":32,"velocity":0},{"deltaTime":0,"channel":1,"type":"noteOff","noteNumber":44,"velocity":0},{"deltaTime":2,"channel":0,"type":"noteOn","noteNumber":80,"velocity":96},{"deltaTime":0,"channel":0,"type":"noteOn","noteNumber":84,"velocity":111},{"deltaTime":0,"channel":0,"type":"noteOn","noteNumber":72,"velocity":125},{"deltaTime":0,"channel":1,"type":"noteOn","noteNumber":63,"velocity":115},{"deltaTime":0,"channel":1,"type":"noteOn","noteNumber":66,"velocity":119},{"deltaTime":0,"channel":1,"type":"noteOn","noteNumber":48,"velocity":118},{"deltaTime":238,"channel":0,"type":"noteOff","noteNumber":80,"velocity":0},{"deltaTime":0,"channel":0,"type":"noteOff","noteNumber":84,"velocity":0},{"deltaTime":2,"channel":0,"type":"noteOn","noteNumber":78,"velocity":110},{"deltaTime":238,"channel":0,"type":"noteOff","noteNumber":78,"velocity":0},{"deltaTime":2,"channel":0,"type":"noteOn","noteNumber":75,"velocity":117},{"deltaTime":226,"channel":0,"type":"noteOff","noteNumber":75,"velocity":0},{"deltaTime":14,"channel":0,"type":"noteOn","noteNumber":67,"velocity":112},{"deltaTime":190,"channel":0,"type":"noteOff","noteNumber":72,"velocity":0},{"deltaTime":36,"channel":0,"type":"noteOff","noteNumber":67,"velocity":0},{"deltaTime":12,"channel":1,"type":"noteOff","noteNumber":63,"velocity":0},{"deltaTime":0,"channel":1,"type":"noteOff","noteNumber":66,"velocity":0},{"deltaTime":0,"channel":1,"type":"noteOff","noteNumber":48,"velocity":0},{"deltaTime":2,"channel":0,"type":"noteOn","noteNumber":68,"velocity":121},{"deltaTime":0,"channel":0,"type":"noteOn","noteNumber":73,"velocity":114},{"deltaTime":0,"channel":0,"type":"noteOn","noteNumber":56,"velocity":122},{"deltaTime":0,"channel":0,"type":"noteOn","noteNumber":63,"velocity":124},{"deltaTime":0,"channel":1,"type":"noteOn","noteNumber":49,"velocity":113},{"deltaTime":0,"channel":1,"type":"noteOn","noteNumber":37,"velocity":116},{"deltaTime":2,"channel":0,"type":"controller","controllerType":64,"value":0},{"deltaTime":0,"channel":1,"type":"controller","controllerType":64,"value":0},{"deltaTime":476,"channel":0,"type":"noteOff","noteNumber":68,"velocity":0},{"deltaTime":0,"channel":0,"type":"noteOff","noteNumber":73,"velocity":0},{"deltaTime":0,"channel":0,"type":"noteOff","noteNumber":56,"velocity":0},{"deltaTime":0,"channel":0,"type":"noteOff","noteNumber":63,"velocity":0},{"deltaTime":2,"channel":0,"type":"noteOn","noteNumber":80,"velocity":124},{"deltaTime":0,"channel":0,"type":"noteOn","noteNumber":85,"velocity":96},{"deltaTime":238,"channel":0,"type":"noteOff","noteNumber":80,"velocity":0},{"deltaTime":0,"channel":0,"type":"noteOff","noteNumber":85,"velocity":0},{"deltaTime":2,"channel":0,"type":"noteOn","noteNumber":85,"velocity":108},{"deltaTime":0,"channel":0,"type":"noteOn","noteNumber":68,"velocity":108},{"deltaTime":0,"channel":0,"type":"noteOn","noteNumber":73,"velocity":108},{"deltaTime":238,"channel":0,"type":"noteOff","noteNumber":85,"velocity":0},{"deltaTime":0,"channel":0,"type":"noteOff","noteNumber":68,"velocity":0},{"deltaTime":0,"channel":0,"type":"noteOff","noteNumber":73,"velocity":0},{"deltaTime":0,"channel":1,"type":"noteOff","noteNumber":49,"velocity":0},{"deltaTime":0,"channel":1,"type":"noteOff","noteNumber":37,"velocity":0},{"deltaTime":2,"channel":0,"type":"noteOn","noteNumber":80,"velocity":118},{"deltaTime":0,"channel":0,"type":"noteOn","noteNumber":85,"velocity":112},{"deltaTime":0,"channel":0,"type":"noteOn","noteNumber":68,"velocity":121},{"deltaTime":0,"channel":0,"type":"noteOn","noteNumber":75,"velocity":118},{"deltaTime":0,"channel":1,"type":"noteOn","noteNumber":37,"velocity":120},{"deltaTime":226,"channel":1,"type":"noteOff","noteNumber":37,"velocity":0},{"deltaTime":14,"channel":1,"type":"noteOn","noteNumber":49,"velocity":87},{"deltaTime":226,"channel":1,"type":"noteOff","noteNumber":49,"velocity":0},{"deltaTime":12,"channel":0,"type":"noteOff","noteNumber":80,"velocity":0},{"deltaTime":0,"channel":0,"type":"noteOff","noteNumber":85,"velocity":0},{"deltaTime":0,"channel":0,"type":"noteOff","noteNumber":68,"velocity":0},{"deltaTime":0,"channel":0,"type":"noteOff","noteNumber":75,"velocity":0},{"deltaTime":2,"channel":0,"type":"noteOn","noteNumber":75,"velocity":112},{"deltaTime":0,"channel":0,"type":"noteOn","noteNumber":66,"velocity":111},{"deltaTime":0,"channel":1,"type":"noteOn","noteNumber":39,"velocity":104},{"deltaTime":226,"channel":1,"type":"noteOff","noteNumber":39,"velocity":0},{"deltaTime":12,"channel":0,"type":"noteOff","noteNumber":75,"velocity":0},{"deltaTime":0,"channel":0,"type":"noteOff","noteNumber":66,"velocity":0},{"deltaTime":2,"channel":1,"type":"noteOn","noteNumber":51,"velocity":93},{"deltaTime":226,"channel":1,"type":"noteOff","noteNumber":51,"velocity":0},{"deltaTime":14,"channel":0,"type":"noteOn","noteNumber":73,"velocity":75},{"deltaTime":0,"channel":0,"type":"noteOn","noteNumber":78,"velocity":97},{"deltaTime":0,"channel":0,"type":"noteOn","noteNumber":66,"velocity":97},{"deltaTime":0,"channel":1,"type":"noteOn","noteNumber":40,"velocity":95},{"deltaTime":226,"channel":1,"type":"noteOff","noteNumber":40,"velocity":0},{"deltaTime":14,"channel":1,"type":"noteOn","noteNumber":52,"velocity":68},{"deltaTime":226,"channel":1,"type":"noteOff","noteNumber":52,"velocity":0},{"deltaTime":12,"channel":0,"type":"noteOff","noteNumber":73,"velocity":0},{"deltaTime":0,"channel":0,"type":"noteOff","noteNumber":78,"velocity":0},{"deltaTime":0,"channel":0,"type":"noteOff","noteNumber":66,"velocity":0},{"deltaTime":2,"channel":0,"type":"noteOn","noteNumber":73,"velocity":79},{"deltaTime":0,"channel":0,"type":"noteOn","noteNumber":76,"velocity":86},{"deltaTime":0,"channel":0,"type":"noteOn","noteNumber":64,"velocity":92},{"deltaTime":0,"channel":1,"type":"noteOn","noteNumber":42,"velocity":82},{"deltaTime":226,"channel":1,"type":"noteOff","noteNumber":42,"velocity":0},{"deltaTime":12,"channel":0,"type":"noteOff","noteNumber":73,"velocity":0},{"deltaTime":0,"channel":0,"type":"noteOff","noteNumber":76,"velocity":0},{"deltaTime":0,"channel":0,"type":"noteOff","noteNumber":64,"velocity":0},{"deltaTime":2,"channel":1,"type":"noteOn","noteNumber":54,"velocity":78},{"deltaTime":226,"channel":1,"type":"noteOff","noteNumber":54,"velocity":0},{"deltaTime":14,"channel":0,"type":"noteOn","noteNumber":69,"velocity":78},{"deltaTime":0,"channel":0,"type":"noteOn","noteNumber":75,"velocity":97},{"deltaTime":0,"channel":0,"type":"noteOn","noteNumber":63,"velocity":97},{"deltaTime":0,"channel":1,"type":"noteOn","noteNumber":44,"velocity":101},{"deltaTime":226,"channel":1,"type":"noteOff","noteNumber":44,"velocity":0},{"deltaTime":14,"channel":1,"type":"noteOn","noteNumber":56,"velocity":78},{"deltaTime":226,"channel":1,"type":"noteOff","noteNumber":56,"velocity":0},{"deltaTime":12,"channel":0,"type":"noteOff","noteNumber":69,"velocity":0},{"deltaTime":0,"channel":0,"type":"noteOff","noteNumber":75,"velocity":0},{"deltaTime":0,"channel":0,"type":"noteOff","noteNumber":63,"velocity":0},{"deltaTime":2,"channel":0,"type":"noteOn","noteNumber":66,"velocity":101},{"deltaTime":0,"channel":0,"type":"noteOn","noteNumber":73,"velocity":102},{"deltaTime":0,"channel":0,"type":"noteOn","noteNumber":61,"velocity":102},{"deltaTime":0,"channel":1,"type":"noteOn","noteNumber":57,"velocity":97},{"deltaTime":0,"channel":1,"type":"noteOn","noteNumber":45,"velocity":108},{"deltaTime":238,"channel":0,"type":"noteOff","noteNumber":66,"velocity":0},{"deltaTime":0,"channel":0,"type":"noteOff","noteNumber":73,"velocity":0},{"deltaTime":0,"channel":0,"type":"noteOff","noteNumber":61,"velocity":0},{"deltaTime":216,"channel":1,"type":"noteOff","noteNumber":57,"velocity":0},{"deltaTime":0,"channel":1,"type":"noteOff","noteNumber":45,"velocity":0},{"deltaTime":26,"channel":0,"type":"noteOn","noteNumber":72,"velocity":74},{"deltaTime":0,"channel":0,"type":"noteOn","noteNumber":75,"velocity":73},{"deltaTime":0,"channel":0,"type":"noteOn","noteNumber":78,"velocity":73},{"deltaTime":0,"channel":1,"type":"noteOn","noteNumber":60,"velocity":80},{"deltaTime":454,"channel":0,"type":"noteOff","noteNumber":72,"velocity":0},{"deltaTime":0,"channel":0,"type":"noteOff","noteNumber":75,"velocity":0},{"deltaTime":0,"channel":0,"type":"noteOff","noteNumber":78,"velocity":0},{"deltaTime":0,"channel":1,"type":"noteOff","noteNumber":60,"velocity":0},{"deltaTime":26,"channel":0,"type":"noteOn","noteNumber":64,"velocity":36},{"deltaTime":0,"channel":0,"type":"noteOn","noteNumber":67,"velocity":56},{"deltaTime":0,"channel":1,"type":"noteOn","noteNumber":56,"velocity":49},{"deltaTime":118,"channel":1,"type":"noteOff","noteNumber":56,"velocity":0},{"deltaTime":120,"channel":0,"type":"noteOff","noteNumber":64,"velocity":0},{"deltaTime":0,"channel":0,"type":"noteOff","noteNumber":67,"velocity":0},{"deltaTime":2,"channel":0,"type":"noteOn","noteNumber":68,"velocity":81},{"deltaTime":0,"channel":1,"type":"noteOn","noteNumber":44,"velocity":57},{"deltaTime":118,"channel":1,"type":"noteOff","noteNumber":44,"velocity":0},{"deltaTime":120,"channel":0,"type":"noteOff","noteNumber":68,"velocity":0},{"deltaTime":2,"channel":0,"type":"noteOn","noteNumber":78,"velocity":62},{"deltaTime":0,"channel":0,"type":"noteOn","noteNumber":66,"velocity":62},{"deltaTime":0,"channel":1,"type":"noteOn","noteNumber":56,"velocity":57},{"deltaTime":0,"channel":1,"type":"noteOn","noteNumber":44,"velocity":94},{"deltaTime":238,"channel":1,"type":"noteOff","noteNumber":44,"velocity":0},{"deltaTime":2,"channel":1,"type":"noteOn","noteNumber":48,"velocity":85},{"deltaTime":214,"channel":0,"type":"noteOff","noteNumber":78,"velocity":0},{"deltaTime":0,"channel":0,"type":"noteOff","noteNumber":66,"velocity":0},{"deltaTime":0,"channel":1,"type":"noteOff","noteNumber":56,"velocity":0},{"deltaTime":24,"channel":1,"type":"noteOff","noteNumber":48,"velocity":0},{"deltaTime":2,"channel":0,"type":"noteOn","noteNumber":72,"velocity":68},{"deltaTime":0,"channel":1,"type":"noteOn","noteNumber":51,"velocity":86},{"deltaTime":238,"channel":0,"type":"noteOff","noteNumber":72,"velocity":0},{"deltaTime":0,"channel":1,"type":"noteOff","noteNumber":51,"velocity":0},{"deltaTime":2,"channel":0,"type":"noteOn","noteNumber":69,"velocity":78},{"deltaTime":0,"channel":1,"type":"noteOn","noteNumber":52,"velocity":66},{"deltaTime":238,"channel":0,"type":"noteOff","noteNumber":69,"velocity":0},{"deltaTime":0,"channel":1,"type":"noteOff","noteNumber":52,"velocity":0},{"deltaTime":2,"channel":0,"type":"noteOn","noteNumber":68,"velocity":88},{"deltaTime":0,"channel":1,"type":"noteOn","noteNumber":54,"velocity":116},{"deltaTime":226,"channel":0,"type":"noteOff","noteNumber":68,"velocity":0},{"deltaTime":0,"channel":1,"type":"noteOff","noteNumber":54,"velocity":0},{"deltaTime":14,"channel":0,"type":"noteOn","noteNumber":73,"velocity":87},{"deltaTime":0,"channel":1,"type":"noteOn","noteNumber":57,"velocity":106},{"deltaTime":226,"channel":0,"type":"noteOff","noteNumber":73,"velocity":0},{"deltaTime":0,"channel":1,"type":"noteOff","noteNumber":57,"velocity":0},{"deltaTime":14,"channel":0,"type":"noteOn","noteNumber":68,"velocity":90},{"deltaTime":0,"channel":1,"type":"noteOn","noteNumber":56,"velocity":115},{"deltaTime":226,"channel":0,"type":"noteOff","noteNumber":68,"velocity":0},{"deltaTime":0,"channel":1,"type":"noteOff","noteNumber":56,"velocity":0},{"deltaTime":14,"channel":0,"type":"noteOn","noteNumber":75,"velocity":104},{"deltaTime":0,"channel":1,"type":"noteOn","noteNumber":54,"velocity":97},{"deltaTime":226,"channel":0,"type":"noteOff","noteNumber":75,"velocity":0},{"deltaTime":0,"channel":1,"type":"noteOff","noteNumber":54,"velocity":0},{"deltaTime":14,"channel":0,"type":"noteOn","noteNumber":68,"velocity":104},{"deltaTime":0,"channel":1,"type":"noteOn","noteNumber":52,"velocity":118},{"deltaTime":226,"channel":0,"type":"noteOff","noteNumber":68,"velocity":0},{"deltaTime":12,"channel":1,"type":"noteOff","noteNumber":52,"velocity":0},{"deltaTime":2,"channel":0,"type":"noteOn","noteNumber":76,"velocity":109},{"deltaTime":0,"channel":1,"type":"noteOn","noteNumber":48,"velocity":101},{"deltaTime":226,"channel":0,"type":"noteOff","noteNumber":76,"velocity":0},{"deltaTime":12,"channel":1,"type":"noteOff","noteNumber":48,"velocity":0},{"deltaTime":2,"channel":0,"type":"noteOn","noteNumber":78,"velocity":114},{"deltaTime":0,"channel":0,"type":"noteOn","noteNumber":66,"velocity":114},{"deltaTime":0,"channel":0,"type":"noteOn","noteNumber":69,"velocity":114},{"deltaTime":0,"channel":1,"type":"noteOn","noteNumber":45,"velocity":114},{"deltaTime":226,"channel":0,"type":"noteOff","noteNumber":78,"velocity":0},{"deltaTime":0,"channel":0,"type":"noteOff","noteNumber":66,"velocity":0},{"deltaTime":0,"channel":0,"type":"noteOff","noteNumber":69,"velocity":0},{"deltaTime":12,"channel":1,"type":"noteOff","noteNumber":45,"velocity":0},{"deltaTime":2,"channel":0,"type":"noteOn","noteNumber":72,"velocity":113},{"deltaTime":0,"channel":1,"type":"noteOn","noteNumber":44,"velocity":107},{"deltaTime":226,"channel":0,"type":"noteOff","noteNumber":72,"velocity":0},{"deltaTime":0,"channel":1,"type":"noteOff","noteNumber":44,"velocity":0},{"deltaTime":14,"channel":0,"type":"noteOn","noteNumber":68,"velocity":121},{"deltaTime":0,"channel":0,"type":"noteOn","noteNumber":73,"velocity":114},{"deltaTime":0,"channel":0,"type":"noteOn","noteNumber":58,"velocity":92},{"deltaTime":0,"channel":0,"type":"noteOn","noteNumber":64,"velocity":124},{"deltaTime":0,"channel":1,"type":"noteOn","noteNumber":49,"velocity":113},{"deltaTime":0,"channel":1,"type":"noteOn","noteNumber":37,"velocity":116},{"deltaTime":478,"channel":0,"type":"noteOff","noteNumber":68,"velocity":0},{"deltaTime":0,"channel":0,"type":"noteOff","noteNumber":73,"velocity":0},{"deltaTime":0,"channel":1,"type":"noteOff","noteNumber":49,"velocity":0},{"deltaTime":0,"channel":1,"type":"noteOff","noteNumber":37,"velocity":0},{"deltaTime":2,"channel":0,"type":"noteOn","noteNumber":80,"velocity":118},{"deltaTime":0,"channel":0,"type":"noteOn","noteNumber":85,"velocity":87},{"deltaTime":238,"channel":0,"type":"noteOff","noteNumber":80,"velocity":0},{"deltaTime":0,"channel":0,"type":"noteOff","noteNumber":85,"velocity":0},{"deltaTime":0,"channel":0,"type":"noteOff","noteNumber":58,"velocity":0},{"deltaTime":0,"channel":0,"type":"noteOff","noteNumber":64,"velocity":0},{"deltaTime":2,"channel":0,"type":"noteOn","noteNumber":85,"velocity":112},{"deltaTime":0,"channel":0,"type":"noteOn","noteNumber":68,"velocity":112},{"deltaTime":0,"channel":0,"type":"noteOn","noteNumber":73,"velocity":112},{"deltaTime":0,"channel":0,"type":"noteOn","noteNumber":76,"velocity":112},{"deltaTime":238,"channel":0,"type":"noteOff","noteNumber":85,"velocity":0},{"deltaTime":0,"channel":0,"type":"noteOff","noteNumber":68,"velocity":0},{"deltaTime":0,"channel":0,"type":"noteOff","noteNumber":73,"velocity":0},{"deltaTime":0,"channel":0,"type":"noteOff","noteNumber":76,"velocity":0},{"deltaTime":2,"channel":0,"type":"noteOn","noteNumber":80,"velocity":117},{"deltaTime":0,"channel":0,"type":"noteOn","noteNumber":85,"velocity":113},{"deltaTime":0,"channel":0,"type":"noteOn","noteNumber":68,"velocity":122},{"deltaTime":0,"channel":0,"type":"noteOn","noteNumber":76,"velocity":122},{"deltaTime":0,"channel":1,"type":"noteOn","noteNumber":49,"velocity":120},{"deltaTime":0,"channel":1,"type":"noteOn","noteNumber":37,"velocity":120},{"deltaTime":478,"channel":0,"type":"noteOff","noteNumber":80,"velocity":0},{"deltaTime":0,"channel":0,"type":"noteOff","noteNumber":85,"velocity":0},{"deltaTime":0,"channel":0,"type":"noteOff","noteNumber":68,"velocity":0},{"deltaTime":0,"channel":0,"type":"noteOff","noteNumber":76,"velocity":0},{"deltaTime":0,"channel":1,"type":"noteOff","noteNumber":49,"velocity":0},{"deltaTime":0,"channel":1,"type":"noteOff","noteNumber":37,"velocity":0},{"deltaTime":2,"channel":0,"type":"noteOn","noteNumber":83,"velocity":95},{"deltaTime":0,"channel":0,"type":"noteOn","noteNumber":71,"velocity":85},{"deltaTime":0,"channel":1,"type":"noteOn","noteNumber":51,"velocity":119},{"deltaTime":0,"channel":1,"type":"noteOn","noteNumber":39,"velocity":119},{"deltaTime":238,"channel":0,"type":"noteOff","noteNumber":83,"velocity":0},{"deltaTime":0,"channel":0,"type":"noteOff","noteNumber":71,"velocity":0},{"deltaTime":2,"channel":0,"type":"noteOn","noteNumber":82,"velocity":79},{"deltaTime":0,"channel":0,"type":"noteOn","noteNumber":70,"velocity":71},{"deltaTime":238,"channel":0,"type":"noteOff","noteNumber":82,"velocity":0},{"deltaTime":0,"channel":0,"type":"noteOff","noteNumber":70,"velocity":0},{"deltaTime":0,"channel":1,"type":"noteOff","noteNumber":51,"velocity":0},{"deltaTime":0,"channel":1,"type":"noteOff","noteNumber":39,"velocity":0},{"deltaTime":2,"channel":0,"type":"noteOn","noteNumber":81,"velocity":100},{"deltaTime":0,"channel":0,"type":"noteOn","noteNumber":69,"velocity":91},{"deltaTime":0,"channel":1,"type":"noteOn","noteNumber":52,"velocity":112},{"deltaTime":0,"channel":1,"type":"noteOn","noteNumber":40,"velocity":112},{"deltaTime":226,"channel":0,"type":"noteOff","noteNumber":81,"velocity":0},{"deltaTime":0,"channel":0,"type":"noteOff","noteNumber":69,"velocity":0},{"deltaTime":14,"channel":0,"type":"noteOn","noteNumber":73,"velocity":107},{"deltaTime":0,"channel":0,"type":"noteOn","noteNumber":81,"velocity":107},{"deltaTime":0,"channel":0,"type":"noteOn","noteNumber":64,"velocity":95},{"deltaTime":0,"channel":0,"type":"noteOn","noteNumber":69,"velocity":107},{"deltaTime":226,"channel":0,"type":"noteOff","noteNumber":73,"velocity":0},{"deltaTime":0,"channel":0,"type":"noteOff","noteNumber":81,"velocity":0},{"deltaTime":0,"channel":0,"type":"noteOff","noteNumber":64,"velocity":0},{"deltaTime":0,"channel":0,"type":"noteOff","noteNumber":69,"velocity":0},{"deltaTime":12,"channel":1,"type":"noteOff","noteNumber":52,"velocity":0},{"deltaTime":0,"channel":1,"type":"noteOff","noteNumber":40,"velocity":0},{"deltaTime":2,"channel":0,"type":"noteOn","noteNumber":80,"velocity":87},{"deltaTime":0,"channel":0,"type":"noteOn","noteNumber":68,"velocity":87},{"deltaTime":0,"channel":1,"type":"noteOn","noteNumber":54,"velocity":119},{"deltaTime":0,"channel":1,"type":"noteOn","noteNumber":42,"velocity":119},{"deltaTime":226,"channel":0,"type":"noteOff","noteNumber":80,"velocity":0},{"deltaTime":0,"channel":0,"type":"noteOff","noteNumber":68,"velocity":0},{"deltaTime":14,"channel":0,"type":"noteOn","noteNumber":80,"velocity":99},{"deltaTime":0,"channel":0,"type":"noteOn","noteNumber":68,"velocity":99},{"deltaTime":0,"channel":0,"type":"noteOn","noteNumber":72,"velocity":80},{"deltaTime":226,"channel":0,"type":"noteOff","noteNumber":80,"velocity":0},{"deltaTime":0,"channel":0,"type":"noteOff","noteNumber":68,"velocity":0},{"deltaTime":0,"channel":0,"type":"noteOff","noteNumber":72,"velocity":0},{"deltaTime":12,"channel":1,"type":"noteOff","noteNumber":54,"velocity":0},{"deltaTime":0,"channel":1,"type":"noteOff","noteNumber":42,"velocity":0},{"deltaTime":2,"channel":0,"type":"noteOn","noteNumber":76,"velocity":110},{"deltaTime":0,"channel":0,"type":"noteOn","noteNumber":88,"velocity":99},{"deltaTime":0,"channel":0,"type":"noteOn","noteNumber":68,"velocity":106},{"deltaTime":0,"channel":0,"type":"noteOn","noteNumber":73,"velocity":106},{"deltaTime":0,"channel":1,"type":"noteOn","noteNumber":56,"velocity":106},{"deltaTime":238,"channel":0,"type":"noteOff","noteNumber":76,"velocity":0},{"deltaTime":0,"channel":0,"type":"noteOff","noteNumber":88,"velocity":0},{"deltaTime":2,"channel":0,"type":"noteOn","noteNumber":85,"velocity":107},{"deltaTime":214,"channel":0,"type":"noteOff","noteNumber":68,"velocity":0},{"deltaTime":0,"channel":0,"type":"noteOff","noteNumber":73,"velocity":0},{"deltaTime":24,"channel":0,"type":"noteOff","noteNumber":85,"velocity":0},{"deltaTime":0,"channel":1,"type":"noteOff","noteNumber":56,"velocity":0},{"deltaTime":2,"channel":0,"type":"noteOn","noteNumber":80,"velocity":112},{"deltaTime":0,"channel":0,"type":"noteOn","noteNumber":68,"velocity":112},{"deltaTime":0,"channel":1,"type":"noteOn","noteNumber":52,"velocity":118},{"deltaTime":0,"channel":1,"type":"noteOn","noteNumber":40,"velocity":122},{"deltaTime":158,"channel":0,"type":"noteOff","noteNumber":80,"velocity":0},{"deltaTime":2,"channel":0,"type":"noteOn","noteNumber":78,"velocity":112},{"deltaTime":158,"channel":0,"type":"noteOff","noteNumber":78,"velocity":0},{"deltaTime":2,"channel":0,"type":"noteOn","noteNumber":76,"velocity":112},{"deltaTime":134,"channel":0,"type":"noteOff","noteNumber":68,"velocity":0},{"deltaTime":0,"channel":1,"type":"noteOff","noteNumber":52,"velocity":0},{"deltaTime":0,"channel":1,"type":"noteOff","noteNumber":40,"velocity":0},{"deltaTime":24,"channel":0,"type":"noteOff","noteNumber":76,"velocity":0},{"deltaTime":2,"channel":0,"type":"noteOn","noteNumber":75,"velocity":102},{"deltaTime":0,"channel":0,"type":"noteOn","noteNumber":79,"velocity":104},{"deltaTime":0,"channel":0,"type":"noteOn","noteNumber":61,"velocity":111},{"deltaTime":0,"channel":0,"type":"noteOn","noteNumber":67,"velocity":116},{"deltaTime":0,"channel":1,"type":"noteOn","noteNumber":51,"velocity":119},{"deltaTime":454,"channel":0,"type":"noteOff","noteNumber":75,"velocity":0},{"deltaTime":0,"channel":0,"type":"noteOff","noteNumber":79,"velocity":0},{"deltaTime":0,"channel":0,"type":"noteOff","noteNumber":61,"velocity":0},{"deltaTime":0,"channel":0,"type":"noteOff","noteNumber":67,"velocity":0},{"deltaTime":0,"channel":1,"type":"noteOff","noteNumber":51,"velocity":0},{"deltaTime":26,"channel":0,"type":"noteOn","noteNumber":88,"velocity":101},{"deltaTime":0,"channel":0,"type":"noteOn","noteNumber":76,"velocity":101},{"deltaTime":0,"channel":1,"type":"noteOn","noteNumber":40,"velocity":109},{"deltaTime":118,"channel":1,"type":"noteOff","noteNumber":40,"velocity":0},{"deltaTime":108,"channel":0,"type":"noteOff","noteNumber":88,"velocity":0},{"deltaTime":0,"channel":0,"type":"noteOff","noteNumber":76,"velocity":0},{"deltaTime":14,"channel":0,"type":"noteOn","noteNumber":81,"velocity":111},{"deltaTime":0,"channel":0,"type":"noteOn","noteNumber":88,"velocity":111},{"deltaTime":0,"channel":0,"type":"noteOn","noteNumber":73,"velocity":102},{"deltaTime":0,"channel":0,"type":"noteOn","noteNumber":76,"velocity":111},{"deltaTime":0,"channel":1,"type":"noteOn","noteNumber":52,"velocity":112},{"deltaTime":0,"channel":1,"type":"noteOn","noteNumber":40,"velocity":103},{"deltaTime":118,"channel":1,"type":"noteOff","noteNumber":52,"velocity":0},{"deltaTime":0,"channel":1,"type":"noteOff","noteNumber":40,"velocity":0},{"deltaTime":108,"channel":0,"type":"noteOff","noteNumber":81,"velocity":0},{"deltaTime":0,"channel":0,"type":"noteOff","noteNumber":88,"velocity":0},{"deltaTime":0,"channel":0,"type":"noteOff","noteNumber":73,"velocity":0},{"deltaTime":0,"channel":0,"type":"noteOff","noteNumber":76,"velocity":0},{"deltaTime":14,"channel":0,"type":"noteOn","noteNumber":80,"velocity":107},{"deltaTime":0,"channel":0,"type":"noteOn","noteNumber":87,"velocity":114},{"deltaTime":0,"channel":0,"type":"noteOn","noteNumber":68,"velocity":120},{"deltaTime":0,"channel":0,"type":"noteOn","noteNumber":72,"velocity":107},{"deltaTime":0,"channel":1,"type":"noteOn","noteNumber":54,"velocity":116},{"deltaTime":0,"channel":1,"type":"noteOn","noteNumber":42,"velocity":116},{"deltaTime":226,"channel":0,"type":"noteOff","noteNumber":80,"velocity":0},{"deltaTime":0,"channel":0,"type":"noteOff","noteNumber":87,"velocity":0},{"deltaTime":12,"channel":1,"type":"noteOff","noteNumber":54,"velocity":0},{"deltaTime":0,"channel":1,"type":"noteOff","noteNumber":42,"velocity":0},{"deltaTime":2,"channel":0,"type":"noteOn","noteNumber":87,"velocity":105},{"deltaTime":214,"channel":0,"type":"noteOff","noteNumber":68,"velocity":0},{"deltaTime":0,"channel":0,"type":"noteOff","noteNumber":72,"velocity":0},{"deltaTime":12,"channel":0,"type":"noteOff","noteNumber":87,"velocity":0},{"deltaTime":14,"channel":0,"type":"noteOn","noteNumber":76,"velocity":86},{"deltaTime":0,"channel":0,"type":"noteOn","noteNumber":85,"velocity":108},{"deltaTime":0,"channel":0,"type":"noteOn","noteNumber":67,"velocity":92},{"deltaTime":0,"channel":1,"type":"noteOn","noteNumber":55,"velocity":113},{"deltaTime":0,"channel":1,"type":"noteOn","noteNumber":43,"velocity":113},{"deltaTime":238,"channel":0,"type":"noteOff","noteNumber":67,"velocity":0},{"deltaTime":2,"channel":0,"type":"noteOn","noteNumber":73,"velocity":111},{"deltaTime":214,"channel":0,"type":"noteOff","noteNumber":76,"velocity":0},{"deltaTime":0,"channel":0,"type":"noteOff","noteNumber":85,"velocity":0},{"deltaTime":0,"channel":1,"type":"noteOff","noteNumber":55,"velocity":0},{"deltaTime":0,"channel":1,"type":"noteOff","noteNumber":43,"velocity":0},{"deltaTime":24,"channel":0,"type":"noteOff","noteNumber":73,"velocity":0},{"deltaTime":2,"channel":0,"type":"noteOn","noteNumber":80,"velocity":99},{"deltaTime":0,"channel":0,"type":"noteOn","noteNumber":87,"velocity":110},{"deltaTime":0,"channel":0,"type":"noteOn","noteNumber":68,"velocity":92},{"deltaTime":0,"channel":0,"type":"noteOn","noteNumber":75,"velocity":110},{"deltaTime":0,"channel":1,"type":"noteOn","noteNumber":56,"velocity":114},{"deltaTime":0,"channel":1,"type":"noteOn","noteNumber":44,"velocity":102},{"deltaTime":238,"channel":0,"type":"noteOff","noteNumber":80,"velocity":0},{"deltaTime":0,"channel":0,"type":"noteOff","noteNumber":87,"velocity":0},{"deltaTime":2,"channel":0,"type":"noteOn","noteNumber":84,"velocity":97},{"deltaTime":214,"channel":0,"type":"noteOff","noteNumber":68,"velocity":0},{"deltaTime":0,"channel":0,"type":"noteOff","noteNumber":75,"velocity":0},{"deltaTime":24,"channel":0,"type":"noteOff","noteNumber":84,"velocity":0},{"deltaTime":2,"channel":0,"type":"noteOn","noteNumber":78,"velocity":112},{"deltaTime":226,"channel":0,"type":"noteOff","noteNumber":78,"velocity":0},{"deltaTime":14,"channel":0,"type":"noteOn","noteNumber":72,"velocity":78},{"deltaTime":190,"channel":1,"type":"noteOff","noteNumber":56,"velocity":0},{"deltaTime":0,"channel":1,"type":"noteOff","noteNumber":44,"velocity":0},{"deltaTime":36,"channel":0,"type":"noteOff","noteNumber":72,"velocity":0},{"deltaTime":14,"channel":0,"type":"noteOn","noteNumber":93,"velocity":112},{"deltaTime":0,"channel":1,"type":"noteOn","noteNumber":51,"velocity":105},{"deltaTime":0,"channel":1,"type":"noteOn","noteNumber":39,"velocity":105},{"deltaTime":158,"channel":0,"type":"noteOff","noteNumber":93,"velocity":0},{"deltaTime":2,"channel":0,"type":"noteOn","noteNumber":92,"velocity":112},{"deltaTime":158,"channel":0,"type":"noteOff","noteNumber":92,"velocity":0},{"deltaTime":2,"channel":0,"type":"noteOn","noteNumber":90,"velocity":112},{"deltaTime":158,"channel":0,"type":"noteOff","noteNumber":90,"velocity":0},{"deltaTime":0,"channel":1,"type":"noteOff","noteNumber":51,"velocity":0},{"deltaTime":0,"channel":1,"type":"noteOff","noteNumber":39,"velocity":0},{"deltaTime":2,"channel":0,"type":"noteOn","noteNumber":87,"velocity":112},{"deltaTime":0,"channel":1,"type":"noteOn","noteNumber":56,"velocity":93},{"deltaTime":0,"channel":1,"type":"noteOn","noteNumber":44,"velocity":93},{"deltaTime":158,"channel":0,"type":"noteOff","noteNumber":87,"velocity":0},{"deltaTime":2,"channel":0,"type":"noteOn","noteNumber":84,"velocity":112},{"deltaTime":78,"channel":1,"type":"noteOff","noteNumber":56,"velocity":0},{"deltaTime":0,"channel":1,"type":"noteOff","noteNumber":44,"velocity":0},{"deltaTime":80,"channel":0,"type":"noteOff","noteNumber":84,"velocity":0},{"deltaTime":2,"channel":0,"type":"noteOn","noteNumber":80,"velocity":112},{"deltaTime":150,"channel":0,"type":"noteOff","noteNumber":80,"velocity":0},{"deltaTime":10,"channel":0,"type":"noteOn","noteNumber":81,"velocity":90},{"deltaTime":0,"channel":0,"type":"noteOn","noteNumber":88,"velocity":104},{"deltaTime":0,"channel":0,"type":"noteOn","noteNumber":73,"velocity":89},{"deltaTime":0,"channel":1,"type":"noteOn","noteNumber":45,"velocity":95},{"deltaTime":0,"channel":1,"type":"noteOn","noteNumber":57,"velocity":95},{"deltaTime":4,"channel":0,"type":"controller","controllerType":64,"value":127},{"deltaTime":0,"channel":1,"type":"controller","controllerType":64,"value":127},{"deltaTime":474,"channel":0,"type":"noteOff","noteNumber":81,"velocity":0},{"deltaTime":0,"channel":0,"type":"noteOff","noteNumber":88,"velocity":0},{"deltaTime":2,"channel":0,"type":"noteOn","noteNumber":87,"velocity":71},{"deltaTime":0,"channel":1,"type":"noteOn","noteNumber":61,"velocity":80},{"deltaTime":0,"channel":1,"type":"noteOn","noteNumber":69,"velocity":55},{"deltaTime":454,"channel":1,"type":"noteOff","noteNumber":61,"velocity":0},{"deltaTime":0,"channel":1,"type":"noteOff","noteNumber":69,"velocity":0},{"deltaTime":24,"channel":0,"type":"noteOff","noteNumber":87,"velocity":0},{"deltaTime":0,"channel":0,"type":"noteOff","noteNumber":73,"velocity":0},{"deltaTime":2,"channel":0,"type":"noteOn","noteNumber":85,"velocity":79},{"deltaTime":0,"channel":0,"type":"noteOn","noteNumber":93,"velocity":81},{"deltaTime":0,"channel":0,"type":"noteOn","noteNumber":76,"velocity":79},{"deltaTime":0,"channel":1,"type":"noteOn","noteNumber":64,"velocity":59},{"deltaTime":0,"channel":1,"type":"noteOn","noteNumber":71,"velocity":54},{"deltaTime":478,"channel":0,"type":"noteOff","noteNumber":85,"velocity":0},{"deltaTime":0,"channel":0,"type":"noteOff","noteNumber":93,"velocity":0},{"deltaTime":0,"channel":0,"type":"noteOff","noteNumber":76,"velocity":0},{"deltaTime":2,"channel":0,"type":"noteOn","noteNumber":81,"velocity":73},{"deltaTime":0,"channel":0,"type":"noteOn","noteNumber":75,"velocity":63},{"deltaTime":382,"channel":1,"type":"noteOff","noteNumber":45,"velocity":0},{"deltaTime":0,"channel":1,"type":"noteOff","noteNumber":57,"velocity":0},{"deltaTime":48,"channel":1,"type":"noteOff","noteNumber":64,"velocity":0},{"deltaTime":0,"channel":1,"type":"noteOff","noteNumber":71,"velocity":0},{"deltaTime":48,"channel":0,"type":"noteOff","noteNumber":81,"velocity":0},{"deltaTime":0,"channel":0,"type":"noteOff","noteNumber":75,"velocity":0},{"deltaTime":2,"channel":0,"type":"noteOn","noteNumber":87,"velocity":65},{"deltaTime":0,"channel":0,"type":"noteOn","noteNumber":92,"velocity":75},{"deltaTime":0,"channel":0,"type":"noteOn","noteNumber":78,"velocity":47},{"deltaTime":0,"channel":1,"type":"noteOn","noteNumber":72,"velocity":55},{"deltaTime":0,"channel":1,"type":"noteOn","noteNumber":56,"velocity":39},{"deltaTime":0,"channel":1,"type":"noteOn","noteNumber":63,"velocity":55},{"deltaTime":2,"channel":0,"type":"controller","controllerType":64,"value":0},{"deltaTime":0,"channel":1,"type":"controller","controllerType":64,"value":0},{"deltaTime":2,"channel":0,"type":"controller","controllerType":64,"value":127},{"deltaTime":0,"channel":1,"type":"controller","controllerType":64,"value":127},{"deltaTime":450,"channel":1,"type":"noteOff","noteNumber":72,"velocity":0},{"deltaTime":0,"channel":1,"type":"noteOff","noteNumber":56,"velocity":0},{"deltaTime":0,"channel":1,"type":"noteOff","noteNumber":63,"velocity":0},{"deltaTime":24,"channel":0,"type":"noteOff","noteNumber":87,"velocity":0},{"deltaTime":0,"channel":0,"type":"noteOff","noteNumber":92,"velocity":0},{"deltaTime":0,"channel":0,"type":"noteOff","noteNumber":78,"velocity":0},{"deltaTime":2,"channel":0,"type":"noteOn","noteNumber":85,"velocity":42},{"deltaTime":0,"channel":0,"type":"noteOn","noteNumber":81,"velocity":43},{"deltaTime":0,"channel":1,"type":"noteOn","noteNumber":69,"velocity":42},{"deltaTime":0,"channel":1,"type":"noteOn","noteNumber":60,"velocity":42},{"deltaTime":454,"channel":1,"type":"noteOff","noteNumber":69,"velocity":0},{"deltaTime":0,"channel":1,"type":"noteOff","noteNumber":60,"velocity":0},{"deltaTime":24,"channel":0,"type":"noteOff","noteNumber":85,"velocity":0},{"deltaTime":0,"channel":0,"type":"noteOff","noteNumber":81,"velocity":0},{"deltaTime":2,"channel":0,"type":"noteOn","noteNumber":87,"velocity":87},{"deltaTime":0,"channel":0,"type":"noteOn","noteNumber":78,"velocity":52},{"deltaTime":0,"channel":0,"type":"noteOn","noteNumber":80,"velocity":64},{"deltaTime":0,"channel":1,"type":"noteOn","noteNumber":72,"velocity":38},{"deltaTime":0,"channel":1,"type":"noteOn","noteNumber":63,"velocity":38},{"deltaTime":454,"channel":1,"type":"noteOff","noteNumber":72,"velocity":0},{"deltaTime":26,"channel":1,"type":"noteOn","noteNumber":66,"velocity":54},{"deltaTime":0,"channel":1,"type":"noteOn","noteNumber":69,"velocity":38},{"deltaTime":430,"channel":0,"type":"noteOff","noteNumber":87,"velocity":0},{"deltaTime":0,"channel":0,"type":"noteOff","noteNumber":78,"velocity":0},{"deltaTime":0,"channel":0,"type":"noteOff","noteNumber":80,"velocity":0},{"deltaTime":0,"channel":1,"type":"noteOff","noteNumber":63,"velocity":0},{"deltaTime":24,"channel":1,"type":"noteOff","noteNumber":66,"velocity":0},{"deltaTime":0,"channel":1,"type":"noteOff","noteNumber":69,"velocity":0},{"deltaTime":26,"channel":0,"type":"noteOn","noteNumber":82,"velocity":64},{"deltaTime":0,"channel":0,"type":"noteOn","noteNumber":75,"velocity":73},{"deltaTime":0,"channel":1,"type":"noteOn","noteNumber":61,"velocity":64},{"deltaTime":0,"channel":1,"type":"noteOn","noteNumber":37,"velocity":50},{"deltaTime":0,"channel":1,"type":"noteOn","noteNumber":49,"velocity":50},{"deltaTime":2,"channel":0,"type":"controller","controllerType":64,"value":0},{"deltaTime":0,"channel":1,"type":"controller","controllerType":64,"value":0},{"deltaTime":2,"channel":0,"type":"controller","controllerType":64,"value":127},{"deltaTime":0,"channel":1,"type":"controller","controllerType":64,"value":127},{"deltaTime":114,"channel":0,"type":"noteOff","noteNumber":82,"velocity":0},{"deltaTime":0,"channel":1,"type":"noteOff","noteNumber":61,"velocity":0},{"deltaTime":2,"channel":0,"type":"noteOn","noteNumber":84,"velocity":64},{"deltaTime":0,"channel":1,"type":"noteOn","noteNumber":63,"velocity":64},{"deltaTime":118,"channel":0,"type":"noteOff","noteNumber":84,"velocity":0},{"deltaTime":0,"channel":1,"type":"noteOff","noteNumber":63,"velocity":0},{"deltaTime":2,"channel":0,"type":"noteOn","noteNumber":85,"velocity":59},{"deltaTime":0,"channel":1,"type":"noteOn","noteNumber":65,"velocity":74},{"deltaTime":214,"channel":0,"type":"noteOff","noteNumber":75,"velocity":0},{"deltaTime":24,"channel":0,"type":"noteOff","noteNumber":85,"velocity":0},{"deltaTime":0,"channel":1,"type":"noteOff","noteNumber":65,"velocity":0},{"deltaTime":2,"channel":0,"type":"noteOn","noteNumber":77,"velocity":78},{"deltaTime":0,"channel":0,"type":"noteOn","noteNumber":84,"velocity":72},{"deltaTime":0,"channel":0,"type":"noteOn","noteNumber":68,"velocity":51},{"deltaTime":0,"channel":0,"type":"noteOn","noteNumber":72,"velocity":72},{"deltaTime":0,"channel":1,"type":"noteOn","noteNumber":56,"velocity":77},{"deltaTime":430,"channel":1,"type":"noteOff","noteNumber":37,"velocity":0},{"deltaTime":0,"channel":1,"type":"noteOff","noteNumber":49,"velocity":0},{"deltaTime":24,"channel":0,"type":"noteOff","noteNumber":68,"velocity":0},{"deltaTime":0,"channel":0,"type":"noteOff","noteNumber":72,"velocity":0},{"deltaTime":24,"channel":0,"type":"noteOff","noteNumber":77,"velocity":0},{"deltaTime":0,"channel":0,"type":"noteOff","noteNumber":84,"velocity":0},{"deltaTime":0,"channel":1,"type":"noteOff","noteNumber":56,"velocity":0},{"deltaTime":2,"channel":0,"type":"noteOn","noteNumber":80,"velocity":76},{"deltaTime":0,"channel":0,"type":"noteOn","noteNumber":85,"velocity":70},{"deltaTime":0,"channel":0,"type":"noteOn","noteNumber":73,"velocity":85},{"deltaTime":0,"channel":1,"type":"noteOn","noteNumber":61,"velocity":84},{"deltaTime":0,"channel":1,"type":"noteOn","noteNumber":65,"velocity":90},{"deltaTime":0,"channel":1,"type":"noteOn","noteNumber":44,"velocity":81},{"deltaTime":454,"channel":0,"type":"noteOff","noteNumber":73,"velocity":0},{"deltaTime":24,"channel":0,"type":"noteOff","noteNumber":80,"velocity":0},{"deltaTime":0,"channel":0,"type":"noteOff","noteNumber":85,"velocity":0},{"deltaTime":2,"channel":0,"type":"noteOn","noteNumber":80,"velocity":92},{"deltaTime":0,"channel":0,"type":"noteOn","noteNumber":68,"velocity":97},{"deltaTime":0,"channel":0,"type":"noteOn","noteNumber":72,"velocity":78},{"deltaTime":226,"channel":0,"type":"noteOff","noteNumber":68,"velocity":0},{"deltaTime":0,"channel":0,"type":"noteOff","noteNumber":72,"velocity":0},{"deltaTime":12,"channel":0,"type":"noteOff","noteNumber":80,"velocity":0},{"deltaTime":2,"channel":0,"type":"noteOn","noteNumber":78,"velocity":75},{"deltaTime":0,"channel":0,"type":"noteOn","noteNumber":71,"velocity":80},{"deltaTime":190,"channel":1,"type":"noteOff","noteNumber":61,"velocity":0},{"deltaTime":0,"channel":1,"type":"noteOff","noteNumber":65,"velocity":0},{"deltaTime":0,"channel":1,"type":"noteOff","noteNumber":44,"velocity":0},{"deltaTime":36,"channel":0,"type":"noteOff","noteNumber":71,"velocity":0},{"deltaTime":12,"channel":0,"type":"noteOff","noteNumber":78,"velocity":0},{"deltaTime":2,"channel":0,"type":"noteOn","noteNumber":76,"velocity":106},{"deltaTime":0,"channel":0,"type":"noteOn","noteNumber":81,"velocity":101},{"deltaTime":0,"channel":0,"type":"noteOn","noteNumber":66,"velocity":102},{"deltaTime":0,"channel":0,"type":"noteOn","noteNumber":72,"velocity":102},{"deltaTime":0,"channel":1,"type":"noteOn","noteNumber":38,"velocity":100},{"deltaTime":0,"channel":1,"type":"noteOn","noteNumber":50,"velocity":100},{"deltaTime":2,"channel":0,"type":"controller","controllerType":64,"value":0},{"deltaTime":0,"channel":1,"type":"controller","controllerType":64,"value":0},{"deltaTime":2,"channel":0,"type":"controller","controllerType":64,"value":127},{"deltaTime":0,"channel":1,"type":"controller","controllerType":64,"value":127},{"deltaTime":450,"channel":0,"type":"noteOff","noteNumber":66,"velocity":0},{"deltaTime":0,"channel":0,"type":"noteOff","noteNumber":72,"velocity":0},{"deltaTime":24,"channel":0,"type":"noteOff","noteNumber":76,"velocity":0},{"deltaTime":0,"channel":0,"type":"noteOff","noteNumber":81,"velocity":0},{"deltaTime":2,"channel":0,"type":"noteOn","noteNumber":78,"velocity":97},{"deltaTime":0,"channel":0,"type":"noteOn","noteNumber":69,"velocity":104},{"deltaTime":0,"channel":1,"type":"noteOn","noteNumber":60,"velocity":87},{"deltaTime":454,"channel":0,"type":"noteOff","noteNumber":69,"velocity":0},{"deltaTime":24,"channel":0,"type":"noteOff","noteNumber":78,"velocity":0},{"deltaTime":0,"channel":1,"type":"noteOff","noteNumber":60,"velocity":0},{"deltaTime":0,"channel":1,"type":"noteOff","noteNumber":38,"velocity":0},{"deltaTime":0,"channel":1,"type":"noteOff","noteNumber":50,"velocity":0},{"deltaTime":2,"channel":0,"type":"noteOn","noteNumber":81,"velocity":116},{"deltaTime":0,"channel":0,"type":"noteOn","noteNumber":66,"velocity":116},{"deltaTime":0,"channel":0,"type":"noteOn","noteNumber":73,"velocity":89},{"deltaTime":0,"channel":1,"type":"noteOn","noteNumber":57,"velocity":115},{"deltaTime":0,"channel":1,"type":"noteOn","noteNumber":45,"velocity":80},{"deltaTime":454,"channel":0,"type":"noteOff","noteNumber":81,"velocity":0},{"deltaTime":26,"channel":0,"type":"noteOn","noteNumber":78,"velocity":75},{"deltaTime":238,"channel":0,"type":"noteOff","noteNumber":78,"velocity":0},{"deltaTime":2,"channel":0,"type":"noteOn","noteNumber":79,"velocity":91},{"deltaTime":190,"channel":0,"type":"noteOff","noteNumber":66,"velocity":0},{"deltaTime":0,"channel":0,"type":"noteOff","noteNumber":73,"velocity":0},{"deltaTime":0,"channel":1,"type":"noteOff","noteNumber":57,"velocity":0},{"deltaTime":0,"channel":1,"type":"noteOff","noteNumber":45,"velocity":0},{"deltaTime":48,"channel":0,"type":"noteOff","noteNumber":79,"velocity":0},{"deltaTime":2,"channel":0,"type":"noteOn","noteNumber":87,"velocity":100},{"deltaTime":0,"channel":0,"type":"noteOn","noteNumber":92,"velocity":100},{"deltaTime":0,"channel":0,"type":"noteOn","noteNumber":75,"velocity":106},{"deltaTime":0,"channel":0,"type":"noteOn","noteNumber":80,"velocity":100},{"deltaTime":0,"channel":1,"type":"noteOn","noteNumber":37,"velocity":106},{"deltaTime":0,"channel":1,"type":"noteOn","noteNumber":49,"velocity":106},{"deltaTime":2,"channel":0,"type":"controller","controllerType":64,"value":0},{"deltaTime":0,"channel":1,"type":"controller","controllerType":64,"value":0},{"deltaTime":236,"channel":1,"type":"noteOff","noteNumber":37,"velocity":0},{"deltaTime":0,"channel":1,"type":"noteOff","noteNumber":49,"velocity":0},{"deltaTime":216,"channel":0,"type":"noteOff","noteNumber":87,"velocity":0},{"deltaTime":0,"channel":0,"type":"noteOff","noteNumber":92,"velocity":0},{"deltaTime":0,"channel":0,"type":"noteOff","noteNumber":75,"velocity":0},{"deltaTime":0,"channel":0,"type":"noteOff","noteNumber":80,"velocity":0},{"deltaTime":26,"channel":0,"type":"noteOn","noteNumber":92,"velocity":61},{"deltaTime":0,"channel":0,"type":"noteOn","noteNumber":80,"velocity":87},{"deltaTime":0,"channel":1,"type":"noteOn","noteNumber":63,"velocity":70},{"deltaTime":0,"channel":1,"type":"noteOn","noteNumber":64,"velocity":70},{"deltaTime":0,"channel":1,"type":"noteOn","noteNumber":68,"velocity":70},{"deltaTime":118,"channel":1,"type":"noteOff","noteNumber":63,"velocity":0},{"deltaTime":0,"channel":1,"type":"noteOff","noteNumber":64,"velocity":0},{"deltaTime":0,"channel":1,"type":"noteOff","noteNumber":68,"velocity":0},{"deltaTime":120,"channel":0,"type":"noteOff","noteNumber":92,"velocity":0},{"deltaTime":0,"channel":0,"type":"noteOff","noteNumber":80,"velocity":0},{"deltaTime":2,"channel":0,"type":"noteOn","noteNumber":91,"velocity":55},{"deltaTime":0,"channel":0,"type":"noteOn","noteNumber":79,"velocity":71},{"deltaTime":0,"channel":1,"type":"noteOn","noteNumber":63,"velocity":70},{"deltaTime":0,"channel":1,"type":"noteOn","noteNumber":64,"velocity":70},{"deltaTime":0,"channel":1,"type":"noteOn","noteNumber":68,"velocity":70},{"deltaTime":118,"channel":1,"type":"noteOff","noteNumber":63,"velocity":0},{"deltaTime":0,"channel":1,"type":"noteOff","noteNumber":64,"velocity":0},{"deltaTime":0,"channel":1,"type":"noteOff","noteNumber":68,"velocity":0},{"deltaTime":120,"channel":0,"type":"noteOff","noteNumber":91,"velocity":0},{"deltaTime":0,"channel":0,"type":"noteOff","noteNumber":79,"velocity":0},{"deltaTime":2,"channel":0,"type":"noteOn","noteNumber":87,"velocity":77},{"deltaTime":0,"channel":0,"type":"noteOn","noteNumber":92,"velocity":53},{"deltaTime":0,"channel":0,"type":"noteOn","noteNumber":80,"velocity":102},{"deltaTime":0,"channel":1,"type":"noteOn","noteNumber":39,"velocity":62},{"deltaTime":0,"channel":1,"type":"noteOn","noteNumber":51,"velocity":78},{"deltaTime":454,"channel":0,"type":"noteOff","noteNumber":87,"velocity":0},{"deltaTime":0,"channel":0,"type":"noteOff","noteNumber":92,"velocity":0},{"deltaTime":0,"channel":0,"type":"noteOff","noteNumber":80,"velocity":0},{"deltaTime":26,"channel":0,"type":"noteOn","noteNumber":93,"velocity":83},{"deltaTime":0,"channel":0,"type":"noteOn","noteNumber":81,"velocity":78},{"deltaTime":0,"channel":1,"type":"noteOn","noteNumber":63,"velocity":52},{"deltaTime":0,"channel":1,"type":"noteOn","noteNumber":64,"velocity":52},{"deltaTime":0,"channel":1,"type":"noteOn","noteNumber":68,"velocity":52},{"deltaTime":118,"channel":1,"type":"noteOff","noteNumber":63,"velocity":0},{"deltaTime":0,"channel":1,"type":"noteOff","noteNumber":64,"velocity":0},{"deltaTime":0,"channel":1,"type":"noteOff","noteNumber":68,"velocity":0},{"deltaTime":120,"channel":0,"type":"noteOff","noteNumber":93,"velocity":0},{"deltaTime":0,"channel":0,"type":"noteOff","noteNumber":81,"velocity":0},{"deltaTime":2,"channel":0,"type":"noteOn","noteNumber":91,"velocity":82},{"deltaTime":0,"channel":0,"type":"noteOn","noteNumber":79,"velocity":82},{"deltaTime":0,"channel":1,"type":"noteOn","noteNumber":63,"velocity":52},{"deltaTime":0,"channel":1,"type":"noteOn","noteNumber":64,"velocity":52},{"deltaTime":0,"channel":1,"type":"noteOn","noteNumber":68,"velocity":52},{"deltaTime":118,"channel":1,"type":"noteOff","noteNumber":63,"velocity":0},{"deltaTime":0,"channel":1,"type":"noteOff","noteNumber":64,"velocity":0},{"deltaTime":0,"channel":1,"type":"noteOff","noteNumber":68,"velocity":0},{"deltaTime":120,"channel":0,"type":"noteOff","noteNumber":91,"velocity":0},{"deltaTime":0,"channel":0,"type":"noteOff","noteNumber":79,"velocity":0},{"deltaTime":0,"channel":1,"type":"noteOff","noteNumber":39,"velocity":0},{"deltaTime":0,"channel":1,"type":"noteOff","noteNumber":51,"velocity":0},{"deltaTime":2,"channel":0,"type":"noteOn","noteNumber":88,"velocity":84},{"deltaTime":0,"channel":0,"type":"noteOn","noteNumber":92,"velocity":94},{"deltaTime":0,"channel":0,"type":"noteOn","noteNumber":80,"velocity":94},{"deltaTime":0,"channel":1,"type":"noteOn","noteNumber":40,"velocity":55},{"deltaTime":0,"channel":1,"type":"noteOn","noteNumber":52,"velocity":58},{"deltaTime":454,"channel":0,"type":"noteOff","noteNumber":88,"velocity":0},{"deltaTime":0,"channel":0,"type":"noteOff","noteNumber":92,"velocity":0},{"deltaTime":0,"channel":0,"type":"noteOff","noteNumber":80,"velocity":0},{"deltaTime":26,"channel":0,"type":"noteOn","noteNumber":92,"velocity":97},{"deltaTime":0,"channel":0,"type":"noteOn","noteNumber":80,"velocity":97},{"deltaTime":0,"channel":1,"type":"noteOn","noteNumber":63,"velocity":75},{"deltaTime":0,"channel":1,"type":"noteOn","noteNumber":64,"velocity":75},{"deltaTime":0,"channel":1,"type":"noteOn","noteNumber":68,"velocity":75},{"deltaTime":118,"channel":1,"type":"noteOff","noteNumber":63,"velocity":0},{"deltaTime":0,"channel":1,"type":"noteOff","noteNumber":64,"velocity":0},{"deltaTime":0,"channel":1,"type":"noteOff","noteNumber":68,"velocity":0},{"deltaTime":120,"channel":0,"type":"noteOff","noteNumber":92,"velocity":0},{"deltaTime":0,"channel":0,"type":"noteOff","noteNumber":80,"velocity":0},{"deltaTime":2,"channel":0,"type":"noteOn","noteNumber":91,"velocity":111},{"deltaTime":0,"channel":0,"type":"noteOn","noteNumber":79,"velocity":111},{"deltaTime":0,"channel":1,"type":"noteOn","noteNumber":63,"velocity":78},{"deltaTime":0,"channel":1,"type":"noteOn","noteNumber":64,"velocity":78},{"deltaTime":0,"channel":1,"type":"noteOn","noteNumber":68,"velocity":78},{"deltaTime":118,"channel":1,"type":"noteOff","noteNumber":63,"velocity":0},{"deltaTime":0,"channel":1,"type":"noteOff","noteNumber":64,"velocity":0},{"deltaTime":0,"channel":1,"type":"noteOff","noteNumber":68,"velocity":0},{"deltaTime":120,"channel":0,"type":"noteOff","noteNumber":91,"velocity":0},{"deltaTime":0,"channel":0,"type":"noteOff","noteNumber":79,"velocity":0},{"deltaTime":0,"channel":1,"type":"noteOff","noteNumber":40,"velocity":0},{"deltaTime":0,"channel":1,"type":"noteOff","noteNumber":52,"velocity":0},{"deltaTime":2,"channel":0,"type":"noteOn","noteNumber":92,"velocity":109},{"deltaTime":0,"channel":0,"type":"noteOn","noteNumber":80,"velocity":109},{"deltaTime":0,"channel":1,"type":"noteOn","noteNumber":37,"velocity":76},{"deltaTime":0,"channel":1,"type":"noteOn","noteNumber":49,"velocity":76},{"deltaTime":238,"channel":0,"type":"noteOff","noteNumber":92,"velocity":0},{"deltaTime":2,"channel":0,"type":"noteOn","noteNumber":85,"velocity":93},{"deltaTime":238,"channel":0,"type":"noteOff","noteNumber":85,"velocity":0},{"deltaTime":2,"channel":0,"type":"noteOn","noteNumber":88,"velocity":90},{"deltaTime":0,"channel":1,"type":"noteOn","noteNumber":64,"velocity":78},{"deltaTime":0,"channel":1,"type":"noteOn","noteNumber":66,"velocity":78},{"deltaTime":0,"channel":1,"type":"noteOn","noteNumber":73,"velocity":78},{"deltaTime":118,"channel":1,"type":"noteOff","noteNumber":64,"velocity":0},{"deltaTime":0,"channel":1,"type":"noteOff","noteNumber":66,"velocity":0},{"deltaTime":0,"channel":1,"type":"noteOff","noteNumber":73,"velocity":0},{"deltaTime":120,"channel":0,"type":"noteOff","noteNumber":88,"velocity":0},{"deltaTime":2,"channel":0,"type":"noteOn","noteNumber":92,"velocity":78},{"deltaTime":0,"channel":1,"type":"noteOn","noteNumber":64,"velocity":98},{"deltaTime":0,"channel":1,"type":"noteOn","noteNumber":66,"velocity":98},{"deltaTime":0,"channel":1,"type":"noteOn","noteNumber":73,"velocity":98},{"deltaTime":118,"channel":1,"type":"noteOff","noteNumber":64,"velocity":0},{"deltaTime":0,"channel":1,"type":"noteOff","noteNumber":66,"velocity":0},{"deltaTime":0,"channel":1,"type":"noteOff","noteNumber":73,"velocity":0},{"deltaTime":72,"channel":0,"type":"noteOff","noteNumber":80,"velocity":0},{"deltaTime":0,"channel":1,"type":"noteOff","noteNumber":37,"velocity":0},{"deltaTime":0,"channel":1,"type":"noteOff","noteNumber":49,"velocity":0},{"deltaTime":36,"channel":0,"type":"noteOff","noteNumber":92,"velocity":0},{"deltaTime":14,"channel":0,"type":"noteOn","noteNumber":93,"velocity":113},{"deltaTime":0,"channel":1,"type":"noteOn","noteNumber":33,"velocity":80},{"deltaTime":0,"channel":1,"type":"noteOn","noteNumber":45,"velocity":87},{"deltaTime":4,"channel":0,"type":"controller","controllerType":64,"value":127},{"deltaTime":0,"channel":1,"type":"controller","controllerType":64,"value":127},{"deltaTime":234,"channel":0,"type":"noteOff","noteNumber":93,"velocity":0},{"deltaTime":2,"channel":0,"type":"noteOn","noteNumber":92,"velocity":101},{"deltaTime":238,"channel":0,"type":"noteOff","noteNumber":92,"velocity":0},{"deltaTime":2,"channel":0,"type":"noteOn","noteNumber":93,"velocity":78},{"deltaTime":0,"channel":1,"type":"noteOn","noteNumber":52,"velocity":93},{"deltaTime":238,"channel":0,"type":"noteOff","noteNumber":93,"velocity":0},{"deltaTime":0,"channel":1,"type":"noteOff","noteNumber":52,"velocity":0},{"deltaTime":2,"channel":0,"type":"noteOn","noteNumber":92,"velocity":109},{"deltaTime":0,"channel":1,"type":"noteOn","noteNumber":59,"velocity":96},{"deltaTime":238,"channel":0,"type":"noteOff","noteNumber":92,"velocity":0},{"deltaTime":0,"channel":1,"type":"noteOff","noteNumber":59,"velocity":0},{"deltaTime":2,"channel":0,"type":"noteOn","noteNumber":90,"velocity":99},{"deltaTime":0,"channel":0,"type":"noteOn","noteNumber":93,"velocity":88},{"deltaTime":0,"channel":1,"type":"noteOn","noteNumber":61,"velocity":102},{"deltaTime":238,"channel":0,"type":"noteOff","noteNumber":90,"velocity":0},{"deltaTime":0,"channel":0,"type":"noteOff","noteNumber":93,"velocity":0},{"deltaTime":0,"channel":1,"type":"noteOff","noteNumber":61,"velocity":0},{"deltaTime":2,"channel":0,"type":"noteOn","noteNumber":91,"velocity":119},{"deltaTime":0,"channel":1,"type":"noteOn","noteNumber":64,"velocity":104},{"deltaTime":238,"channel":0,"type":"noteOff","noteNumber":91,"velocity":0},{"deltaTime":0,"channel":1,"type":"noteOff","noteNumber":64,"velocity":0},{"deltaTime":2,"channel":0,"type":"noteOn","noteNumber":87,"velocity":109},{"deltaTime":0,"channel":0,"type":"noteOn","noteNumber":93,"velocity":109},{"deltaTime":0,"channel":0,"type":"noteOn","noteNumber":73,"velocity":98},{"deltaTime":0,"channel":0,"type":"noteOn","noteNumber":78,"velocity":111},{"deltaTime":226,"channel":0,"type":"noteOff","noteNumber":73,"velocity":0},{"deltaTime":0,"channel":0,"type":"noteOff","noteNumber":78,"velocity":0},{"deltaTime":12,"channel":0,"type":"noteOff","noteNumber":87,"velocity":0},{"deltaTime":0,"channel":0,"type":"noteOff","noteNumber":93,"velocity":0},{"deltaTime":2,"channel":0,"type":"noteOn","noteNumber":90,"velocity":126},{"deltaTime":0,"channel":0,"type":"noteOn","noteNumber":75,"velocity":105},{"deltaTime":0,"channel":0,"type":"noteOn","noteNumber":81,"velocity":106},{"deltaTime":142,"channel":1,"type":"noteOff","noteNumber":33,"velocity":0},{"deltaTime":0,"channel":1,"type":"noteOff","noteNumber":45,"velocity":0},{"deltaTime":84,"channel":0,"type":"noteOff","noteNumber":75,"velocity":0},{"deltaTime":0,"channel":0,"type":"noteOff","noteNumber":81,"velocity":0},{"deltaTime":12,"channel":0,"type":"noteOff","noteNumber":90,"velocity":0},{"deltaTime":2,"channel":0,"type":"noteOn","noteNumber":92,"velocity":123},{"deltaTime":0,"channel":0,"type":"noteOn","noteNumber":80,"velocity":107},{"deltaTime":0,"channel":1,"type":"noteOn","noteNumber":32,"velocity":121},{"deltaTime":0,"channel":1,"type":"noteOn","noteNumber":44,"velocity":121},{"deltaTime":2,"channel":0,"type":"controller","controllerType":64,"value":0},{"deltaTime":0,"channel":1,"type":"controller","controllerType":64,"value":0},{"deltaTime":2,"channel":0,"type":"controller","controllerType":64,"value":127},{"deltaTime":0,"channel":1,"type":"controller","controllerType":64,"value":127},{"deltaTime":234,"channel":0,"type":"noteOff","noteNumber":92,"velocity":0},{"deltaTime":2,"channel":0,"type":"noteOn","noteNumber":87,"velocity":107},{"deltaTime":214,"channel":0,"type":"noteOff","noteNumber":80,"velocity":0},{"deltaTime":24,"channel":0,"type":"noteOff","noteNumber":87,"velocity":0},{"deltaTime":2,"channel":0,"type":"noteOn","noteNumber":85,"velocity":119},{"deltaTime":0,"channel":0,"type":"noteOn","noteNumber":73,"velocity":119},{"deltaTime":238,"channel":0,"type":"noteOff","noteNumber":85,"velocity":0},{"deltaTime":2,"channel":0,"type":"noteOn","noteNumber":81,"velocity":119},{"deltaTime":190,"channel":1,"type":"noteOff","noteNumber":32,"velocity":0},{"deltaTime":0,"channel":1,"type":"noteOff","noteNumber":44,"velocity":0},{"deltaTime":24,"channel":0,"type":"noteOff","noteNumber":73,"velocity":0},{"deltaTime":24,"channel":0,"type":"noteOff","noteNumber":81,"velocity":0},{"deltaTime":2,"channel":0,"type":"noteOn","noteNumber":80,"velocity":96},{"deltaTime":0,"channel":0,"type":"noteOn","noteNumber":84,"velocity":111},{"deltaTime":0,"channel":0,"type":"noteOn","noteNumber":72,"velocity":125},{"deltaTime":0,"channel":1,"type":"noteOn","noteNumber":63,"velocity":115},{"deltaTime":0,"channel":1,"type":"noteOn","noteNumber":66,"velocity":119},{"deltaTime":0,"channel":1,"type":"noteOn","noteNumber":48,"velocity":118},{"deltaTime":238,"channel":0,"type":"noteOff","noteNumber":80,"velocity":0},{"deltaTime":0,"channel":0,"type":"noteOff","noteNumber":84,"velocity":0},{"deltaTime":2,"channel":0,"type":"noteOn","noteNumber":78,"velocity":110},{"deltaTime":238,"channel":0,"type":"noteOff","noteNumber":78,"velocity":0},{"deltaTime":2,"channel":0,"type":"noteOn","noteNumber":75,"velocity":117},{"deltaTime":238,"channel":0,"type":"noteOff","noteNumber":75,"velocity":0},{"deltaTime":2,"channel":0,"type":"noteOn","noteNumber":67,"velocity":80},{"deltaTime":190,"channel":0,"type":"noteOff","noteNumber":72,"velocity":0},{"deltaTime":0,"channel":1,"type":"noteOff","noteNumber":63,"velocity":0},{"deltaTime":0,"channel":1,"type":"noteOff","noteNumber":66,"velocity":0},{"deltaTime":0,"channel":1,"type":"noteOff","noteNumber":48,"velocity":0},{"deltaTime":36,"channel":0,"type":"noteOff","noteNumber":67,"velocity":0},{"deltaTime":14,"channel":0,"type":"noteOn","noteNumber":68,"velocity":114},{"deltaTime":0,"channel":0,"type":"noteOn","noteNumber":73,"velocity":114},{"deltaTime":0,"channel":1,"type":"noteOn","noteNumber":58,"velocity":92},{"deltaTime":0,"channel":1,"type":"noteOn","noteNumber":64,"velocity":124},{"deltaTime":0,"channel":1,"type":"noteOn","noteNumber":37,"velocity":127},{"deltaTime":0,"channel":1,"type":"noteOn","noteNumber":49,"velocity":113},{"deltaTime":2,"channel":0,"type":"controller","controllerType":64,"value":0},{"deltaTime":0,"channel":1,"type":"controller","controllerType":64,"value":0},{"deltaTime":476,"channel":0,"type":"noteOff","noteNumber":68,"velocity":0},{"deltaTime":0,"channel":0,"type":"noteOff","noteNumber":73,"velocity":0},{"deltaTime":2,"channel":0,"type":"noteOn","noteNumber":80,"velocity":124},{"deltaTime":0,"channel":0,"type":"noteOn","noteNumber":85,"velocity":96},{"deltaTime":238,"channel":0,"type":"noteOff","noteNumber":80,"velocity":0},{"deltaTime":0,"channel":0,"type":"noteOff","noteNumber":85,"velocity":0},{"deltaTime":2,"channel":0,"type":"noteOn","noteNumber":85,"velocity":114},{"deltaTime":0,"channel":0,"type":"noteOn","noteNumber":68,"velocity":114},{"deltaTime":0,"channel":0,"type":"noteOn","noteNumber":73,"velocity":114},{"deltaTime":238,"channel":0,"type":"noteOff","noteNumber":85,"velocity":0},{"deltaTime":0,"channel":0,"type":"noteOff","noteNumber":68,"velocity":0},{"deltaTime":0,"channel":0,"type":"noteOff","noteNumber":73,"velocity":0},{"deltaTime":0,"channel":1,"type":"noteOff","noteNumber":58,"velocity":0},{"deltaTime":0,"channel":1,"type":"noteOff","noteNumber":64,"velocity":0},{"deltaTime":0,"channel":1,"type":"noteOff","noteNumber":37,"velocity":0},{"deltaTime":0,"channel":1,"type":"noteOff","noteNumber":49,"velocity":0},{"deltaTime":2,"channel":0,"type":"noteOn","noteNumber":80,"velocity":107},{"deltaTime":0,"channel":0,"type":"noteOn","noteNumber":85,"velocity":112},{"deltaTime":0,"channel":0,"type":"noteOn","noteNumber":68,"velocity":121},{"deltaTime":0,"channel":0,"type":"noteOn","noteNumber":76,"velocity":107},{"deltaTime":0,"channel":1,"type":"noteOn","noteNumber":49,"velocity":120},{"deltaTime":0,"channel":1,"type":"noteOn","noteNumber":37,"velocity":120},{"deltaTime":238,"channel":0,"type":"noteOff","noteNumber":80,"velocity":0},{"deltaTime":0,"channel":0,"type":"noteOff","noteNumber":85,"velocity":0},{"deltaTime":2,"channel":0,"type":"noteOn","noteNumber":84,"velocity":120},{"deltaTime":238,"channel":0,"type":"noteOff","noteNumber":84,"velocity":0},{"deltaTime":0,"channel":0,"type":"noteOff","noteNumber":68,"velocity":0},{"deltaTime":0,"channel":0,"type":"noteOff","noteNumber":76,"velocity":0},{"deltaTime":0,"channel":1,"type":"noteOff","noteNumber":49,"velocity":0},{"deltaTime":0,"channel":1,"type":"noteOff","noteNumber":37,"velocity":0},{"deltaTime":2,"channel":0,"type":"noteOn","noteNumber":83,"velocity":98},{"deltaTime":0,"channel":0,"type":"noteOn","noteNumber":71,"velocity":93},{"deltaTime":0,"channel":1,"type":"noteOn","noteNumber":51,"velocity":119},{"deltaTime":0,"channel":1,"type":"noteOn","noteNumber":39,"velocity":119},{"deltaTime":238,"channel":0,"type":"noteOff","noteNumber":83,"velocity":0},{"deltaTime":0,"channel":0,"type":"noteOff","noteNumber":71,"velocity":0},{"deltaTime":0,"channel":1,"type":"noteOff","noteNumber":51,"velocity":0},{"deltaTime":0,"channel":1,"type":"noteOff","noteNumber":39,"velocity":0},{"deltaTime":2,"channel":0,"type":"noteOn","noteNumber":82,"velocity":85},{"deltaTime":0,"channel":0,"type":"noteOn","noteNumber":70,"velocity":77},{"deltaTime":238,"channel":0,"type":"noteOff","noteNumber":82,"velocity":0},{"deltaTime":0,"channel":0,"type":"noteOff","noteNumber":70,"velocity":0},{"deltaTime":2,"channel":0,"type":"noteOn","noteNumber":81,"velocity":89},{"deltaTime":0,"channel":0,"type":"noteOn","noteNumber":69,"velocity":89},{"deltaTime":0,"channel":1,"type":"noteOn","noteNumber":52,"velocity":121},{"deltaTime":0,"channel":1,"type":"noteOn","noteNumber":40,"velocity":121},{"deltaTime":238,"channel":0,"type":"noteOff","noteNumber":81,"velocity":0},{"deltaTime":0,"channel":0,"type":"noteOff","noteNumber":69,"velocity":0},{"deltaTime":2,"channel":0,"type":"noteOn","noteNumber":80,"velocity":89},{"deltaTime":0,"channel":0,"type":"noteOn","noteNumber":68,"velocity":89},{"deltaTime":238,"channel":0,"type":"noteOff","noteNumber":80,"velocity":0},{"deltaTime":0,"channel":0,"type":"noteOff","noteNumber":68,"velocity":0},{"deltaTime":0,"channel":1,"type":"noteOff","noteNumber":52,"velocity":0},{"deltaTime":0,"channel":1,"type":"noteOff","noteNumber":40,"velocity":0},{"deltaTime":2,"channel":0,"type":"noteOn","noteNumber":78,"velocity":89},{"deltaTime":0,"channel":0,"type":"noteOn","noteNumber":66,"velocity":89},{"deltaTime":0,"channel":1,"type":"noteOn","noteNumber":54,"velocity":104},{"deltaTime":0,"channel":1,"type":"noteOn","noteNumber":42,"velocity":104},{"deltaTime":238,"channel":0,"type":"noteOff","noteNumber":78,"velocity":0},{"deltaTime":0,"channel":0,"type":"noteOff","noteNumber":66,"velocity":0},{"deltaTime":0,"channel":1,"type":"noteOff","noteNumber":54,"velocity":0},{"deltaTime":0,"channel":1,"type":"noteOff","noteNumber":42,"velocity":0},{"deltaTime":2,"channel":0,"type":"noteOn","noteNumber":76,"velocity":80},{"deltaTime":0,"channel":0,"type":"noteOn","noteNumber":64,"velocity":80},{"deltaTime":238,"channel":0,"type":"noteOff","noteNumber":76,"velocity":0},{"deltaTime":0,"channel":0,"type":"noteOff","noteNumber":64,"velocity":0},{"deltaTime":2,"channel":0,"type":"noteOn","noteNumber":75,"velocity":110},{"deltaTime":0,"channel":0,"type":"noteOn","noteNumber":63,"velocity":90},{"deltaTime":0,"channel":1,"type":"noteOn","noteNumber":56,"velocity":115},{"deltaTime":0,"channel":1,"type":"noteOn","noteNumber":44,"velocity":115},{"deltaTime":238,"channel":0,"type":"noteOff","noteNumber":75,"velocity":0},{"deltaTime":2,"channel":0,"type":"noteOn","noteNumber":73,"velocity":83},{"deltaTime":214,"channel":1,"type":"noteOff","noteNumber":56,"velocity":0},{"deltaTime":0,"channel":1,"type":"noteOff","noteNumber":44,"velocity":0},{"deltaTime":24,"channel":0,"type":"noteOff","noteNumber":73,"velocity":0},{"deltaTime":0,"channel":0,"type":"noteOff","noteNumber":63,"velocity":0},{"deltaTime":2,"channel":0,"type":"noteOn","noteNumber":72,"velocity":101},{"deltaTime":0,"channel":0,"type":"noteOn","noteNumber":64,"velocity":101},{"deltaTime":0,"channel":1,"type":"noteOn","noteNumber":57,"velocity":115},{"deltaTime":0,"channel":1,"type":"noteOn","noteNumber":45,"velocity":122},{"deltaTime":226,"channel":1,"type":"noteOff","noteNumber":57,"velocity":0},{"deltaTime":0,"channel":1,"type":"noteOff","noteNumber":45,"velocity":0},{"deltaTime":12,"channel":0,"type":"noteOff","noteNumber":72,"velocity":0},{"deltaTime":0,"channel":0,"type":"noteOff","noteNumber":64,"velocity":0},{"deltaTime":2,"channel":0,"type":"noteOn","noteNumber":69,"velocity":113},{"deltaTime":0,"channel":0,"type":"noteOn","noteNumber":66,"velocity":115},{"deltaTime":0,"channel":1,"type":"noteOn","noteNumber":61,"velocity":115},{"deltaTime":0,"channel":1,"type":"noteOn","noteNumber":54,"velocity":99},{"deltaTime":226,"channel":1,"type":"noteOff","noteNumber":61,"velocity":0},{"deltaTime":0,"channel":1,"type":"noteOff","noteNumber":54,"velocity":0},{"deltaTime":12,"channel":0,"type":"noteOff","noteNumber":69,"velocity":0},{"deltaTime":0,"channel":0,"type":"noteOff","noteNumber":66,"velocity":0},{"deltaTime":2,"channel":0,"type":"noteOn","noteNumber":80,"velocity":122},{"deltaTime":0,"channel":0,"type":"noteOn","noteNumber":68,"velocity":122},{"deltaTime":0,"channel":1,"type":"noteOn","noteNumber":60,"velocity":122},{"deltaTime":0,"channel":1,"type":"noteOn","noteNumber":63,"velocity":115},{"deltaTime":0,"channel":1,"type":"noteOn","noteNumber":44,"velocity":122},{"deltaTime":454,"channel":0,"type":"noteOff","noteNumber":80,"velocity":0},{"deltaTime":0,"channel":0,"type":"noteOff","noteNumber":68,"velocity":0},{"deltaTime":0,"channel":1,"type":"noteOff","noteNumber":60,"velocity":0},{"deltaTime":0,"channel":1,"type":"noteOff","noteNumber":63,"velocity":0},{"deltaTime":26,"channel":0,"type":"noteOn","noteNumber":85,"velocity":103},{"deltaTime":0,"channel":1,"type":"noteOn","noteNumber":61,"velocity":119},{"deltaTime":226,"channel":0,"type":"noteOff","noteNumber":85,"velocity":0},{"deltaTime":14,"channel":0,"type":"noteOn","noteNumber":97,"velocity":109},{"deltaTime":190,"channel":1,"type":"noteOff","noteNumber":44,"velocity":0},{"deltaTime":24,"channel":1,"type":"noteOff","noteNumber":61,"velocity":0},{"deltaTime":12,"channel":0,"type":"noteOff","noteNumber":97,"velocity":0},{"deltaTime":14,"channel":0,"type":"noteOn","noteNumber":78,"velocity":98},{"deltaTime":0,"channel":1,"type":"noteOn","noteNumber":66,"velocity":111},{"deltaTime":226,"channel":0,"type":"noteOff","noteNumber":78,"velocity":0},{"deltaTime":14,"channel":0,"type":"noteOn","noteNumber":90,"velocity":116},{"deltaTime":214,"channel":1,"type":"noteOff","noteNumber":66,"velocity":0},{"deltaTime":12,"channel":0,"type":"noteOff","noteNumber":90,"velocity":0},{"deltaTime":14,"channel":0,"type":"noteOn","noteNumber":81,"velocity":96},{"deltaTime":0,"channel":1,"type":"noteOn","noteNumber":57,"velocity":120},{"deltaTime":226,"channel":0,"type":"noteOff","noteNumber":81,"velocity":0},{"deltaTime":0,"channel":1,"type":"noteOff","noteNumber":57,"velocity":0},{"deltaTime":14,"channel":0,"type":"noteOn","noteNumber":81,"velocity":103},{"deltaTime":0,"channel":1,"type":"noteOn","noteNumber":69,"velocity":112},{"deltaTime":226,"channel":0,"type":"noteOff","noteNumber":81,"velocity":0},{"deltaTime":0,"channel":1,"type":"noteOff","noteNumber":69,"velocity":0},{"deltaTime":14,"channel":0,"type":"noteOn","noteNumber":80,"velocity":85},{"deltaTime":0,"channel":1,"type":"noteOn","noteNumber":52,"velocity":119},{"deltaTime":0,"channel":1,"type":"noteOn","noteNumber":64,"velocity":119},{"deltaTime":238,"channel":0,"type":"noteOff","noteNumber":80,"velocity":0},{"deltaTime":2,"channel":0,"type":"noteOn","noteNumber":82,"velocity":64},{"deltaTime":238,"channel":0,"type":"noteOff","noteNumber":82,"velocity":0},{"deltaTime":0,"channel":1,"type":"noteOff","noteNumber":52,"velocity":0},{"deltaTime":0,"channel":1,"type":"noteOff","noteNumber":64,"velocity":0},{"deltaTime":2,"channel":0,"type":"noteOn","noteNumber":84,"velocity":90},{"deltaTime":0,"channel":1,"type":"noteOn","noteNumber":51,"velocity":112},{"deltaTime":0,"channel":1,"type":"noteOn","noteNumber":63,"velocity":112},{"deltaTime":238,"channel":0,"type":"noteOff","noteNumber":84,"velocity":0},{"deltaTime":2,"channel":0,"type":"noteOn","noteNumber":85,"velocity":84},{"deltaTime":238,"channel":0,"type":"noteOff","noteNumber":85,"velocity":0},{"deltaTime":0,"channel":1,"type":"noteOff","noteNumber":51,"velocity":0},{"deltaTime":0,"channel":1,"type":"noteOff","noteNumber":63,"velocity":0},{"deltaTime":2,"channel":0,"type":"noteOn","noteNumber":87,"velocity":92},{"deltaTime":0,"channel":1,"type":"noteOn","noteNumber":49,"velocity":120},{"deltaTime":0,"channel":1,"type":"noteOn","noteNumber":61,"velocity":120},{"deltaTime":238,"channel":0,"type":"noteOff","noteNumber":87,"velocity":0},{"deltaTime":0,"channel":1,"type":"noteOff","noteNumber":49,"velocity":0},{"deltaTime":0,"channel":1,"type":"noteOff","noteNumber":61,"velocity":0},{"deltaTime":2,"channel":0,"type":"noteOn","noteNumber":90,"velocity":100},{"deltaTime":238,"channel":0,"type":"noteOff","noteNumber":90,"velocity":0},{"deltaTime":2,"channel":0,"type":"noteOn","noteNumber":92,"velocity":108},{"deltaTime":0,"channel":1,"type":"noteOn","noteNumber":48,"velocity":120},{"deltaTime":0,"channel":1,"type":"noteOn","noteNumber":60,"velocity":120},{"deltaTime":0,"channel":1,"type":"noteOn","noteNumber":32,"velocity":119},{"deltaTime":238,"channel":0,"type":"noteOff","noteNumber":92,"velocity":0},{"deltaTime":2,"channel":0,"type":"noteOn","noteNumber":96,"velocity":106},{"deltaTime":238,"channel":0,"type":"noteOff","noteNumber":96,"velocity":0},{"deltaTime":0,"channel":1,"type":"noteOff","noteNumber":48,"velocity":0},{"deltaTime":0,"channel":1,"type":"noteOff","noteNumber":60,"velocity":0},{"deltaTime":0,"channel":1,"type":"noteOff","noteNumber":32,"velocity":0},{"deltaTime":2,"channel":0,"type":"noteOn","noteNumber":97,"velocity":118},{"deltaTime":0,"channel":0,"type":"noteOn","noteNumber":80,"velocity":118},{"deltaTime":0,"channel":0,"type":"noteOn","noteNumber":88,"velocity":118},{"deltaTime":0,"channel":1,"type":"noteOn","noteNumber":64,"velocity":118},{"deltaTime":0,"channel":1,"type":"noteOn","noteNumber":73,"velocity":118},{"deltaTime":0,"channel":1,"type":"noteOn","noteNumber":37,"velocity":118},{"deltaTime":0,"channel":1,"type":"noteOn","noteNumber":49,"velocity":118},{"deltaTime":238,"channel":0,"type":"noteOff","noteNumber":97,"velocity":0},{"deltaTime":2,"channel":0,"type":"noteOn","noteNumber":92,"velocity":114},{"deltaTime":238,"channel":0,"type":"noteOff","noteNumber":92,"velocity":0},{"deltaTime":0,"channel":0,"type":"noteOff","noteNumber":80,"velocity":0},{"deltaTime":0,"channel":0,"type":"noteOff","noteNumber":88,"velocity":0},{"deltaTime":0,"channel":1,"type":"noteOff","noteNumber":64,"velocity":0},{"deltaTime":0,"channel":1,"type":"noteOff","noteNumber":73,"velocity":0},{"deltaTime":0,"channel":1,"type":"noteOff","noteNumber":37,"velocity":0},{"deltaTime":0,"channel":1,"type":"noteOff","noteNumber":49,"velocity":0},{"deltaTime":2,"channel":0,"type":"noteOn","noteNumber":87,"velocity":95},{"deltaTime":238,"channel":0,"type":"noteOff","noteNumber":87,"velocity":0},{"deltaTime":2,"channel":0,"type":"noteOn","noteNumber":85,"velocity":114},{"deltaTime":0,"channel":0,"type":"noteOn","noteNumber":76,"velocity":96},{"deltaTime":0,"channel":0,"type":"noteOn","noteNumber":81,"velocity":111},{"deltaTime":0,"channel":1,"type":"noteOn","noteNumber":68,"velocity":114},{"deltaTime":0,"channel":1,"type":"noteOn","noteNumber":37,"velocity":109},{"deltaTime":0,"channel":1,"type":"noteOn","noteNumber":49,"velocity":120},{"deltaTime":238,"channel":0,"type":"noteOff","noteNumber":85,"velocity":0},{"deltaTime":0,"channel":0,"type":"noteOff","noteNumber":76,"velocity":0},{"deltaTime":0,"channel":0,"type":"noteOff","noteNumber":81,"velocity":0},{"deltaTime":0,"channel":1,"type":"noteOff","noteNumber":68,"velocity":0},{"deltaTime":0,"channel":1,"type":"noteOff","noteNumber":37,"velocity":0},{"deltaTime":0,"channel":1,"type":"noteOff","noteNumber":49,"velocity":0},{"deltaTime":2,"channel":0,"type":"noteOn","noteNumber":84,"velocity":83},{"deltaTime":238,"channel":0,"type":"noteOff","noteNumber":84,"velocity":0},{"deltaTime":2,"channel":0,"type":"noteOn","noteNumber":82,"velocity":102},{"deltaTime":238,"channel":0,"type":"noteOff","noteNumber":82,"velocity":0},{"deltaTime":2,"channel":0,"type":"noteOn","noteNumber":80,"velocity":100},{"deltaTime":0,"channel":0,"type":"noteOn","noteNumber":73,"velocity":96},{"deltaTime":0,"channel":1,"type":"noteOn","noteNumber":56,"velocity":124},{"deltaTime":0,"channel":1,"type":"noteOn","noteNumber":64,"velocity":118},{"deltaTime":0,"channel":1,"type":"noteOn","noteNumber":68,"velocity":118},{"deltaTime":0,"channel":1,"type":"noteOn","noteNumber":39,"velocity":122},{"deltaTime":0,"channel":1,"type":"noteOn","noteNumber":51,"velocity":122},{"deltaTime":238,"channel":0,"type":"noteOff","noteNumber":80,"velocity":0},{"deltaTime":2,"channel":0,"type":"noteOn","noteNumber":81,"velocity":105},{"deltaTime":238,"channel":0,"type":"noteOff","noteNumber":81,"velocity":0},{"deltaTime":0,"channel":0,"type":"noteOff","noteNumber":73,"velocity":0},{"deltaTime":0,"channel":1,"type":"noteOff","noteNumber":56,"velocity":0},{"deltaTime":0,"channel":1,"type":"noteOff","noteNumber":64,"velocity":0},{"deltaTime":0,"channel":1,"type":"noteOff","noteNumber":68,"velocity":0},{"deltaTime":0,"channel":1,"type":"noteOff","noteNumber":39,"velocity":0},{"deltaTime":0,"channel":1,"type":"noteOff","noteNumber":51,"velocity":0},{"deltaTime":2,"channel":0,"type":"noteOn","noteNumber":80,"velocity":80},{"deltaTime":0,"channel":1,"type":"noteOn","noteNumber":40,"velocity":106},{"deltaTime":0,"channel":1,"type":"noteOn","noteNumber":52,"velocity":106},{"deltaTime":158,"channel":0,"type":"noteOff","noteNumber":80,"velocity":0},{"deltaTime":2,"channel":0,"type":"noteOn","noteNumber":79,"velocity":80},{"deltaTime":158,"channel":0,"type":"noteOff","noteNumber":79,"velocity":0},{"deltaTime":2,"channel":0,"type":"noteOn","noteNumber":75,"velocity":80},{"deltaTime":158,"channel":0,"type":"noteOff","noteNumber":75,"velocity":0},{"deltaTime":0,"channel":1,"type":"noteOff","noteNumber":40,"velocity":0},{"deltaTime":0,"channel":1,"type":"noteOff","noteNumber":52,"velocity":0},{"deltaTime":2,"channel":0,"type":"noteOn","noteNumber":78,"velocity":80},{"deltaTime":0,"channel":1,"type":"noteOn","noteNumber":42,"velocity":108},{"deltaTime":0,"channel":1,"type":"noteOn","noteNumber":54,"velocity":108},{"deltaTime":150,"channel":0,"type":"noteOff","noteNumber":78,"velocity":0},{"deltaTime":10,"channel":0,"type":"noteOn","noteNumber":76,"velocity":80},{"deltaTime":150,"channel":0,"type":"noteOff","noteNumber":76,"velocity":0},{"deltaTime":10,"channel":0,"type":"noteOn","noteNumber":73,"velocity":80},{"deltaTime":150,"channel":0,"type":"noteOff","noteNumber":73,"velocity":0},{"deltaTime":8,"channel":1,"type":"noteOff","noteNumber":42,"velocity":0},{"deltaTime":0,"channel":1,"type":"noteOff","noteNumber":54,"velocity":0},{"deltaTime":2,"channel":0,"type":"noteOn","noteNumber":88,"velocity":114},{"deltaTime":0,"channel":0,"type":"noteOn","noteNumber":71,"velocity":95},{"deltaTime":0,"channel":0,"type":"noteOn","noteNumber":76,"velocity":114},{"deltaTime":0,"channel":1,"type":"noteOn","noteNumber":56,"velocity":110},{"deltaTime":0,"channel":1,"type":"noteOn","noteNumber":61,"velocity":110},{"deltaTime":358,"channel":1,"type":"noteOff","noteNumber":56,"velocity":0},{"deltaTime":0,"channel":1,"type":"noteOff","noteNumber":61,"velocity":0},{"deltaTime":96,"channel":0,"type":"noteOff","noteNumber":88,"velocity":0},{"deltaTime":0,"channel":0,"type":"noteOff","noteNumber":71,"velocity":0},{"deltaTime":0,"channel":0,"type":"noteOff","noteNumber":76,"velocity":0},{"deltaTime":26,"channel":0,"type":"noteOn","noteNumber":80,"velocity":113},{"deltaTime":0,"channel":0,"type":"noteOn","noteNumber":68,"velocity":113},{"deltaTime":0,"channel":1,"type":"noteOn","noteNumber":40,"velocity":122},{"deltaTime":0,"channel":1,"type":"noteOn","noteNumber":52,"velocity":102},{"deltaTime":240,"channel":1,"type":"noteOn","noteNumber":61,"velocity":102},{"deltaTime":0,"channel":1,"type":"noteOn","noteNumber":66,"velocity":102},{"deltaTime":214,"channel":0,"type":"noteOff","noteNumber":80,"velocity":0},{"deltaTime":0,"channel":0,"type":"noteOff","noteNumber":68,"velocity":0},{"deltaTime":12,"channel":1,"type":"noteOff","noteNumber":61,"velocity":0},{"deltaTime":0,"channel":1,"type":"noteOff","noteNumber":66,"velocity":0},{"deltaTime":12,"channel":1,"type":"noteOff","noteNumber":40,"velocity":0},{"deltaTime":0,"channel":1,"type":"noteOff","noteNumber":52,"velocity":0},{"deltaTime":2,"channel":0,"type":"noteOn","noteNumber":68,"velocity":113},{"deltaTime":0,"channel":0,"type":"noteOn","noteNumber":75,"velocity":113},{"deltaTime":0,"channel":1,"type":"noteOn","noteNumber":60,"velocity":111},{"deltaTime":0,"channel":1,"type":"noteOn","noteNumber":66,"velocity":113},{"deltaTime":0,"channel":1,"type":"noteOn","noteNumber":51,"velocity":107},{"deltaTime":454,"channel":0,"type":"noteOff","noteNumber":68,"velocity":0},{"deltaTime":0,"channel":0,"type":"noteOff","noteNumber":75,"velocity":0},{"deltaTime":26,"channel":0,"type":"noteOn","noteNumber":88,"velocity":99},{"deltaTime":0,"channel":0,"type":"noteOn","noteNumber":76,"velocity":99},{"deltaTime":226,"channel":0,"type":"noteOff","noteNumber":88,"velocity":0},{"deltaTime":0,"channel":0,"type":"noteOff","noteNumber":76,"velocity":0},{"deltaTime":14,"channel":0,"type":"noteOn","noteNumber":81,"velocity":113},{"deltaTime":0,"channel":0,"type":"noteOn","noteNumber":88,"velocity":113},{"deltaTime":0,"channel":0,"type":"noteOn","noteNumber":76,"velocity":113},{"deltaTime":190,"channel":1,"type":"noteOff","noteNumber":60,"velocity":0},{"deltaTime":0,"channel":1,"type":"noteOff","noteNumber":66,"velocity":0},{"deltaTime":0,"channel":1,"type":"noteOff","noteNumber":51,"velocity":0},{"deltaTime":36,"channel":0,"type":"noteOff","noteNumber":81,"velocity":0},{"deltaTime":0,"channel":0,"type":"noteOff","noteNumber":88,"velocity":0},{"deltaTime":0,"channel":0,"type":"noteOff","noteNumber":76,"velocity":0},{"deltaTime":14,"channel":0,"type":"noteOn","noteNumber":80,"velocity":114},{"deltaTime":0,"channel":0,"type":"noteOn","noteNumber":87,"velocity":114},{"deltaTime":0,"channel":1,"type":"noteOn","noteNumber":66,"velocity":120},{"deltaTime":0,"channel":1,"type":"noteOn","noteNumber":72,"velocity":114},{"deltaTime":0,"channel":1,"type":"noteOn","noteNumber":39,"velocity":99},{"deltaTime":226,"channel":0,"type":"noteOff","noteNumber":80,"velocity":0},{"deltaTime":0,"channel":0,"type":"noteOff","noteNumber":87,"velocity":0},{"deltaTime":12,"channel":1,"type":"noteOff","noteNumber":66,"velocity":0},{"deltaTime":0,"channel":1,"type":"noteOff","noteNumber":72,"velocity":0},{"deltaTime":0,"channel":1,"type":"noteOff","noteNumber":39,"velocity":0},{"deltaTime":2,"channel":0,"type":"noteOn","noteNumber":87,"velocity":105},{"deltaTime":226,"channel":0,"type":"noteOff","noteNumber":87,"velocity":0},{"deltaTime":14,"channel":0,"type":"noteOn","noteNumber":78,"velocity":97},{"deltaTime":0,"channel":0,"type":"noteOn","noteNumber":85,"velocity":99},{"deltaTime":0,"channel":1,"type":"noteOn","noteNumber":64,"velocity":120},{"deltaTime":0,"channel":1,"type":"noteOn","noteNumber":70,"velocity":114},{"deltaTime":0,"channel":1,"type":"noteOn","noteNumber":37,"velocity":90},{"deltaTime":226,"channel":0,"type":"noteOff","noteNumber":78,"velocity":0},{"deltaTime":0,"channel":0,"type":"noteOff","noteNumber":85,"velocity":0},{"deltaTime":14,"channel":0,"type":"noteOn","noteNumber":73,"velocity":111},{"deltaTime":226,"channel":0,"type":"noteOff","noteNumber":73,"velocity":0},{"deltaTime":12,"channel":1,"type":"noteOff","noteNumber":64,"velocity":0},{"deltaTime":0,"channel":1,"type":"noteOff","noteNumber":70,"velocity":0},{"deltaTime":0,"channel":1,"type":"noteOff","noteNumber":37,"velocity":0},{"deltaTime":2,"channel":0,"type":"noteOn","noteNumber":80,"velocity":99},{"deltaTime":0,"channel":0,"type":"noteOn","noteNumber":87,"velocity":110},{"deltaTime":0,"channel":0,"type":"noteOn","noteNumber":75,"velocity":110},{"deltaTime":0,"channel":1,"type":"noteOn","noteNumber":56,"velocity":114},{"deltaTime":0,"channel":1,"type":"noteOn","noteNumber":44,"velocity":102},{"deltaTime":238,"channel":0,"type":"noteOff","noteNumber":80,"velocity":0},{"deltaTime":0,"channel":0,"type":"noteOff","noteNumber":87,"velocity":0},{"deltaTime":2,"channel":0,"type":"noteOn","noteNumber":84,"velocity":97},{"deltaTime":214,"channel":0,"type":"noteOff","noteNumber":75,"velocity":0},{"deltaTime":24,"channel":0,"type":"noteOff","noteNumber":84,"velocity":0},{"deltaTime":2,"channel":0,"type":"noteOn","noteNumber":78,"velocity":109},{"deltaTime":226,"channel":0,"type":"noteOff","noteNumber":78,"velocity":0},{"deltaTime":14,"channel":0,"type":"noteOn","noteNumber":72,"velocity":99},{"deltaTime":190,"channel":1,"type":"noteOff","noteNumber":56,"velocity":0},{"deltaTime":0,"channel":1,"type":"noteOff","noteNumber":44,"velocity":0},{"deltaTime":36,"channel":0,"type":"noteOff","noteNumber":72,"velocity":0},{"deltaTime":14,"channel":0,"type":"noteOn","noteNumber":93,"velocity":80},{"deltaTime":0,"channel":1,"type":"noteOn","noteNumber":51,"velocity":105},{"deltaTime":0,"channel":1,"type":"noteOn","noteNumber":39,"velocity":105},{"deltaTime":158,"channel":0,"type":"noteOff","noteNumber":93,"velocity":0},{"deltaTime":2,"channel":0,"type":"noteOn","noteNumber":92,"velocity":80},{"deltaTime":158,"channel":0,"type":"noteOff","noteNumber":92,"velocity":0},{"deltaTime":2,"channel":0,"type":"noteOn","noteNumber":90,"velocity":80},{"deltaTime":158,"channel":0,"type":"noteOff","noteNumber":90,"velocity":0},{"deltaTime":0,"channel":1,"type":"noteOff","noteNumber":51,"velocity":0},{"deltaTime":0,"channel":1,"type":"noteOff","noteNumber":39,"velocity":0},{"deltaTime":2,"channel":0,"type":"noteOn","noteNumber":87,"velocity":80},{"deltaTime":0,"channel":1,"type":"noteOn","noteNumber":56,"velocity":93},{"deltaTime":0,"channel":1,"type":"noteOn","noteNumber":44,"velocity":93},{"deltaTime":158,"channel":0,"type":"noteOff","noteNumber":87,"velocity":0},{"deltaTime":2,"channel":0,"type":"noteOn","noteNumber":84,"velocity":80},{"deltaTime":78,"channel":1,"type":"noteOff","noteNumber":56,"velocity":0},{"deltaTime":0,"channel":1,"type":"noteOff","noteNumber":44,"velocity":0},{"deltaTime":80,"channel":0,"type":"noteOff","noteNumber":84,"velocity":0},{"deltaTime":2,"channel":0,"type":"noteOn","noteNumber":80,"velocity":80},{"deltaTime":150,"channel":0,"type":"noteOff","noteNumber":80,"velocity":0},{"deltaTime":10,"channel":0,"type":"noteOn","noteNumber":81,"velocity":75},{"deltaTime":0,"channel":0,"type":"noteOn","noteNumber":88,"velocity":89},{"deltaTime":0,"channel":0,"type":"noteOn","noteNumber":73,"velocity":73},{"deltaTime":0,"channel":1,"type":"noteOn","noteNumber":57,"velocity":64},{"deltaTime":0,"channel":1,"type":"noteOn","noteNumber":45,"velocity":64},{"deltaTime":4,"channel":0,"type":"controller","controllerType":64,"value":127},{"deltaTime":0,"channel":1,"type":"controller","controllerType":64,"value":127},{"deltaTime":154,"channel":1,"type":"noteOff","noteNumber":57,"velocity":0},{"deltaTime":2,"channel":1,"type":"noteOn","noteNumber":61,"velocity":64},{"deltaTime":158,"channel":1,"type":"noteOff","noteNumber":61,"velocity":0},{"deltaTime":2,"channel":1,"type":"noteOn","noteNumber":68,"velocity":64},{"deltaTime":134,"channel":0,"type":"noteOff","noteNumber":73,"velocity":0},{"deltaTime":24,"channel":1,"type":"noteOff","noteNumber":68,"velocity":0},{"deltaTime":2,"channel":0,"type":"noteOn","noteNumber":69,"velocity":64},{"deltaTime":150,"channel":0,"type":"noteOff","noteNumber":69,"velocity":0},{"deltaTime":10,"channel":0,"type":"noteOn","noteNumber":73,"velocity":64},{"deltaTime":150,"channel":0,"type":"noteOff","noteNumber":73,"velocity":0},{"deltaTime":10,"channel":0,"type":"noteOn","noteNumber":80,"velocity":64},{"deltaTime":110,"channel":0,"type":"noteOff","noteNumber":81,"velocity":0},{"deltaTime":0,"channel":0,"type":"noteOff","noteNumber":88,"velocity":0},{"deltaTime":40,"channel":0,"type":"noteOff","noteNumber":80,"velocity":0},{"deltaTime":10,"channel":0,"type":"noteOn","noteNumber":81,"velocity":81},{"deltaTime":0,"channel":0,"type":"noteOn","noteNumber":85,"velocity":93},{"deltaTime":0,"channel":0,"type":"noteOn","noteNumber":73,"velocity":73},{"deltaTime":0,"channel":1,"type":"noteOn","noteNumber":64,"velocity":55},{"deltaTime":454,"channel":0,"type":"noteOff","noteNumber":81,"velocity":0},{"deltaTime":0,"channel":0,"type":"noteOff","noteNumber":85,"velocity":0},{"deltaTime":0,"channel":0,"type":"noteOff","noteNumber":73,"velocity":0},{"deltaTime":26,"channel":0,"type":"noteOn","noteNumber":93,"velocity":78},{"deltaTime":0,"channel":0,"type":"noteOn","noteNumber":76,"velocity":57},{"deltaTime":382,"channel":1,"type":"noteOff","noteNumber":45,"velocity":0},{"deltaTime":48,"channel":1,"type":"noteOff","noteNumber":64,"velocity":0},{"deltaTime":24,"channel":0,"type":"noteOff","noteNumber":93,"velocity":0},{"deltaTime":0,"channel":0,"type":"noteOff","noteNumber":76,"velocity":0},{"deltaTime":26,"channel":0,"type":"noteOn","noteNumber":87,"velocity":75},{"deltaTime":0,"channel":0,"type":"noteOn","noteNumber":75,"velocity":70},{"deltaTime":0,"channel":0,"type":"noteOn","noteNumber":78,"velocity":41},{"deltaTime":0,"channel":1,"type":"noteOn","noteNumber":56,"velocity":64},{"deltaTime":0,"channel":1,"type":"noteOff","noteNumber":56,"velocity":0},{"deltaTime":0,"channel":1,"type":"noteOn","noteNumber":56,"velocity":64},{"deltaTime":2,"channel":0,"type":"controller","controllerType":64,"value":0},{"deltaTime":0,"channel":1,"type":"controller","controllerType":64,"value":0},{"deltaTime":2,"channel":0,"type":"controller","controllerType":64,"value":127},{"deltaTime":0,"channel":1,"type":"controller","controllerType":64,"value":127},{"deltaTime":156,"channel":1,"type":"noteOn","noteNumber":63,"velocity":64},{"deltaTime":158,"channel":1,"type":"noteOff","noteNumber":63,"velocity":0},{"deltaTime":2,"channel":1,"type":"noteOn","noteNumber":66,"velocity":64},{"deltaTime":134,"channel":0,"type":"noteOff","noteNumber":75,"velocity":0},{"deltaTime":0,"channel":0,"type":"noteOff","noteNumber":78,"velocity":0},{"deltaTime":24,"channel":0,"type":"noteOff","noteNumber":87,"velocity":0},{"deltaTime":0,"channel":1,"type":"noteOff","noteNumber":66,"velocity":0},{"deltaTime":0,"channel":1,"type":"noteOff","noteNumber":56,"velocity":0},{"deltaTime":2,"channel":0,"type":"noteOn","noteNumber":81,"velocity":64},{"deltaTime":0,"channel":0,"type":"noteOn","noteNumber":85,"velocity":37},{"deltaTime":0,"channel":0,"type":"noteOn","noteNumber":69,"velocity":64},{"deltaTime":0,"channel":1,"type":"noteOn","noteNumber":60,"velocity":64},{"deltaTime":150,"channel":0,"type":"noteOff","noteNumber":69,"velocity":0},{"deltaTime":10,"channel":0,"type":"noteOn","noteNumber":72,"velocity":64},{"deltaTime":150,"channel":0,"type":"noteOff","noteNumber":72,"velocity":0},{"deltaTime":10,"channel":0,"type":"noteOn","noteNumber":75,"velocity":64},{"deltaTime":150,"channel":0,"type":"noteOff","noteNumber":75,"velocity":0},{"deltaTime":8,"channel":0,"type":"noteOff","noteNumber":81,"velocity":0},{"deltaTime":0,"channel":0,"type":"noteOff","noteNumber":85,"velocity":0},{"deltaTime":0,"channel":1,"type":"noteOff","noteNumber":60,"velocity":0},{"deltaTime":2,"channel":0,"type":"noteOn","noteNumber":80,"velocity":64},{"deltaTime":0,"channel":0,"type":"noteOn","noteNumber":84,"velocity":79},{"deltaTime":0,"channel":0,"type":"noteOn","noteNumber":72,"velocity":66},{"deltaTime":0,"channel":0,"type":"noteOn","noteNumber":78,"velocity":50},{"deltaTime":0,"channel":1,"type":"noteOn","noteNumber":63,"velocity":64},{"deltaTime":454,"channel":0,"type":"noteOff","noteNumber":72,"velocity":0},{"deltaTime":0,"channel":0,"type":"noteOff","noteNumber":78,"velocity":0},{"deltaTime":0,"channel":1,"type":"noteOff","noteNumber":63,"velocity":0},{"deltaTime":24,"channel":0,"type":"noteOff","noteNumber":80,"velocity":0},{"deltaTime":0,"channel":0,"type":"noteOff","noteNumber":84,"velocity":0},{"deltaTime":2,"channel":0,"type":"noteOn","noteNumber":92,"velocity":96},{"deltaTime":0,"channel":0,"type":"noteOn","noteNumber":69,"velocity":51},{"deltaTime":0,"channel":1,"type":"noteOn","noteNumber":66,"velocity":64},{"deltaTime":454,"channel":0,"type":"noteOff","noteNumber":92,"velocity":0},{"deltaTime":0,"channel":0,"type":"noteOff","noteNumber":69,"velocity":0},{"deltaTime":0,"channel":1,"type":"noteOff","noteNumber":66,"velocity":0},{"deltaTime":26,"channel":0,"type":"noteOn","noteNumber":85,"velocity":93},{"deltaTime":0,"channel":0,"type":"noteOn","noteNumber":76,"velocity":67},{"deltaTime":0,"channel":1,"type":"noteOn","noteNumber":37,"velocity":67},{"deltaTime":0,"channel":1,"type":"noteOn","noteNumber":49,"velocity":67},{"deltaTime":2,"channel":0,"type":"controller","controllerType":64,"value":0},{"deltaTime":0,"channel":1,"type":"controller","controllerType":64,"value":0},{"deltaTime":2,"channel":0,"type":"controller","controllerType":64,"value":127},{"deltaTime":0,"channel":1,"type":"controller","controllerType":64,"value":127},{"deltaTime":156,"channel":1,"type":"noteOn","noteNumber":61,"velocity":64},{"deltaTime":158,"channel":1,"type":"noteOff","noteNumber":61,"velocity":0},{"deltaTime":2,"channel":1,"type":"noteOn","noteNumber":68,"velocity":64},{"deltaTime":134,"channel":0,"type":"noteOff","noteNumber":76,"velocity":0},{"deltaTime":24,"channel":0,"type":"noteOff","noteNumber":85,"velocity":0},{"deltaTime":0,"channel":1,"type":"noteOff","noteNumber":68,"velocity":0},{"deltaTime":2,"channel":0,"type":"noteOn","noteNumber":84,"velocity":64},{"deltaTime":0,"channel":0,"type":"noteOn","noteNumber":73,"velocity":64},{"deltaTime":158,"channel":0,"type":"noteOff","noteNumber":84,"velocity":0},{"deltaTime":2,"channel":0,"type":"noteOn","noteNumber":76,"velocity":64},{"deltaTime":158,"channel":0,"type":"noteOff","noteNumber":76,"velocity":0},{"deltaTime":2,"channel":0,"type":"noteOn","noteNumber":80,"velocity":64},{"deltaTime":134,"channel":0,"type":"noteOff","noteNumber":73,"velocity":0},{"deltaTime":24,"channel":0,"type":"noteOff","noteNumber":80,"velocity":0},{"deltaTime":2,"channel":0,"type":"noteOn","noteNumber":78,"velocity":77},{"deltaTime":0,"channel":0,"type":"noteOn","noteNumber":87,"velocity":78},{"deltaTime":0,"channel":0,"type":"noteOn","noteNumber":68,"velocity":77},{"deltaTime":0,"channel":0,"type":"noteOn","noteNumber":75,"velocity":84},{"deltaTime":454,"channel":0,"type":"noteOff","noteNumber":68,"velocity":0},{"deltaTime":0,"channel":0,"type":"noteOff","noteNumber":75,"velocity":0},{"deltaTime":24,"channel":0,"type":"noteOff","noteNumber":78,"velocity":0},{"deltaTime":0,"channel":0,"type":"noteOff","noteNumber":87,"velocity":0},{"deltaTime":2,"channel":0,"type":"noteOn","noteNumber":85,"velocity":93},{"deltaTime":0,"channel":0,"type":"noteOn","noteNumber":73,"velocity":93},{"deltaTime":382,"channel":1,"type":"noteOff","noteNumber":37,"velocity":0},{"deltaTime":0,"channel":1,"type":"noteOff","noteNumber":49,"velocity":0},{"deltaTime":72,"channel":0,"type":"noteOff","noteNumber":73,"velocity":0},{"deltaTime":24,"channel":0,"type":"noteOff","noteNumber":85,"velocity":0},{"deltaTime":2,"channel":0,"type":"noteOn","noteNumber":76,"velocity":64},{"deltaTime":0,"channel":0,"type":"noteOn","noteNumber":88,"velocity":110},{"deltaTime":0,"channel":0,"type":"noteOn","noteNumber":68,"velocity":103},{"deltaTime":0,"channel":1,"type":"noteOn","noteNumber":60,"velocity":102},{"deltaTime":0,"channel":1,"type":"noteOn","noteNumber":39,"velocity":102},{"deltaTime":0,"channel":1,"type":"noteOn","noteNumber":51,"velocity":102},{"deltaTime":2,"channel":0,"type":"controller","controllerType":64,"value":0},{"deltaTime":0,"channel":1,"type":"controller","controllerType":64,"value":0},{"deltaTime":2,"channel":0,"type":"controller","controllerType":64,"value":127},{"deltaTime":0,"channel":1,"type":"controller","controllerType":64,"value":127},{"deltaTime":450,"channel":0,"type":"noteOff","noteNumber":76,"velocity":0},{"deltaTime":0,"channel":0,"type":"noteOff","noteNumber":88,"velocity":0},{"deltaTime":0,"channel":0,"type":"noteOff","noteNumber":68,"velocity":0},{"deltaTime":0,"channel":1,"type":"noteOff","noteNumber":60,"velocity":0},{"deltaTime":26,"channel":0,"type":"noteOn","noteNumber":76,"velocity":96},{"deltaTime":0,"channel":0,"type":"noteOn","noteNumber":68,"velocity":71},{"deltaTime":0,"channel":1,"type":"noteOn","noteNumber":60,"velocity":78},{"deltaTime":430,"channel":1,"type":"noteOff","noteNumber":39,"velocity":0},{"deltaTime":0,"channel":1,"type":"noteOff","noteNumber":51,"velocity":0},{"deltaTime":24,"channel":0,"type":"noteOff","noteNumber":76,"velocity":0},{"deltaTime":0,"channel":0,"type":"noteOff","noteNumber":68,"velocity":0},{"deltaTime":0,"channel":1,"type":"noteOff","noteNumber":60,"velocity":0},{"deltaTime":26,"channel":0,"type":"noteOn","noteNumber":73,"velocity":116},{"deltaTime":0,"channel":0,"type":"noteOn","noteNumber":78,"velocity":103},{"deltaTime":0,"channel":0,"type":"noteOn","noteNumber":64,"velocity":110},{"deltaTime":0,"channel":0,"type":"noteOn","noteNumber":69,"velocity":103},{"deltaTime":0,"channel":1,"type":"noteOn","noteNumber":54,"velocity":90},{"deltaTime":0,"channel":1,"type":"noteOn","noteNumber":45,"velocity":104},{"deltaTime":454,"channel":0,"type":"noteOff","noteNumber":73,"velocity":0},{"deltaTime":0,"channel":0,"type":"noteOff","noteNumber":78,"velocity":0},{"deltaTime":0,"channel":1,"type":"noteOff","noteNumber":54,"velocity":0},{"deltaTime":26,"channel":0,"type":"noteOn","noteNumber":75,"velocity":89},{"deltaTime":0,"channel":0,"type":"noteOn","noteNumber":78,"velocity":104},{"deltaTime":0,"channel":1,"type":"noteOn","noteNumber":57,"velocity":107},{"deltaTime":430,"channel":0,"type":"noteOff","noteNumber":64,"velocity":0},{"deltaTime":0,"channel":0,"type":"noteOff","noteNumber":69,"velocity":0},{"deltaTime":0,"channel":1,"type":"noteOff","noteNumber":45,"velocity":0},{"deltaTime":24,"channel":0,"type":"noteOff","noteNumber":75,"velocity":0},{"deltaTime":0,"channel":0,"type":"noteOff","noteNumber":78,"velocity":0},{"deltaTime":0,"channel":1,"type":"noteOff","noteNumber":57,"velocity":0},{"deltaTime":26,"channel":0,"type":"noteOn","noteNumber":80,"velocity":123},{"deltaTime":0,"channel":0,"type":"noteOn","noteNumber":68,"velocity":123},{"deltaTime":0,"channel":1,"type":"noteOn","noteNumber":56,"velocity":123},{"deltaTime":0,"channel":1,"type":"noteOn","noteNumber":64,"velocity":123},{"deltaTime":0,"channel":1,"type":"noteOn","noteNumber":49,"velocity":123},{"deltaTime":2,"channel":0,"type":"controller","controllerType":64,"value":0},{"deltaTime":0,"channel":1,"type":"controller","controllerType":64,"value":0},{"deltaTime":2,"channel":0,"type":"controller","controllerType":64,"value":127},{"deltaTime":0,"channel":1,"type":"controller","controllerType":64,"value":127},{"deltaTime":450,"channel":1,"type":"noteOff","noteNumber":49,"velocity":0},{"deltaTime":26,"channel":1,"type":"noteOn","noteNumber":37,"velocity":123},{"deltaTime":202,"channel":0,"type":"noteOff","noteNumber":80,"velocity":0},{"deltaTime":0,"channel":0,"type":"noteOff","noteNumber":68,"velocity":0},{"deltaTime":0,"channel":1,"type":"noteOff","noteNumber":56,"velocity":0},{"deltaTime":0,"channel":1,"type":"noteOff","noteNumber":64,"velocity":0},{"deltaTime":24,"channel":1,"type":"noteOff","noteNumber":37,"velocity":0},{"deltaTime":14,"channel":0,"type":"noteOn","noteNumber":85,"velocity":95},{"deltaTime":0,"channel":0,"type":"noteOn","noteNumber":73,"velocity":95},{"deltaTime":0,"channel":1,"type":"noteOn","noteNumber":56,"velocity":95},{"deltaTime":0,"channel":1,"type":"noteOn","noteNumber":44,"velocity":95},{"deltaTime":226,"channel":0,"type":"noteOff","noteNumber":85,"velocity":0},{"deltaTime":0,"channel":0,"type":"noteOff","noteNumber":73,"velocity":0},{"deltaTime":0,"channel":1,"type":"noteOff","noteNumber":56,"velocity":0},{"deltaTime":0,"channel":1,"type":"noteOff","noteNumber":44,"velocity":0},{"deltaTime":14,"channel":0,"type":"noteOn","noteNumber":76,"velocity":123},{"deltaTime":0,"channel":0,"type":"noteOn","noteNumber":80,"velocity":123},{"deltaTime":0,"channel":0,"type":"noteOn","noteNumber":85,"velocity":123},{"deltaTime":0,"channel":0,"type":"noteOn","noteNumber":61,"velocity":96},{"deltaTime":0,"channel":0,"type":"noteOn","noteNumber":73,"velocity":96},{"deltaTime":0,"channel":1,"type":"noteOn","noteNumber":44,"velocity":120},{"deltaTime":0,"channel":1,"type":"noteOn","noteNumber":32,"velocity":120},{"deltaTime":158,"channel":0,"type":"noteOff","noteNumber":61,"velocity":0},{"deltaTime":0,"channel":0,"type":"noteOff","noteNumber":73,"velocity":0},{"deltaTime":2,"channel":0,"type":"noteOn","noteNumber":64,"velocity":96},{"deltaTime":158,"channel":0,"type":"noteOff","noteNumber":64,"velocity":0},{"deltaTime":2,"channel":0,"type":"noteOn","noteNumber":68,"velocity":96},{"deltaTime":134,"channel":0,"type":"noteOff","noteNumber":76,"velocity":0},{"deltaTime":0,"channel":0,"type":"noteOff","noteNumber":80,"velocity":0},{"deltaTime":0,"channel":0,"type":"noteOff","noteNumber":85,"velocity":0},{"deltaTime":0,"channel":1,"type":"noteOff","noteNumber":44,"velocity":0},{"deltaTime":0,"channel":1,"type":"noteOff","noteNumber":32,"velocity":0},{"deltaTime":24,"channel":0,"type":"noteOff","noteNumber":68,"velocity":0},{"deltaTime":2,"channel":0,"type":"noteOn","noteNumber":73,"velocity":96},{"deltaTime":0,"channel":1,"type":"noteOn","noteNumber":46,"velocity":80},{"deltaTime":150,"channel":0,"type":"noteOff","noteNumber":73,"velocity":0},{"deltaTime":10,"channel":0,"type":"noteOn","noteNumber":76,"velocity":96},{"deltaTime":150,"channel":0,"type":"noteOff","noteNumber":76,"velocity":0},{"deltaTime":10,"channel":0,"type":"noteOn","noteNumber":80,"velocity":96},{"deltaTime":134,"channel":1,"type":"noteOff","noteNumber":46,"velocity":0},{"deltaTime":16,"channel":0,"type":"noteOff","noteNumber":80,"velocity":0},{"deltaTime":10,"channel":0,"type":"noteOn","noteNumber":78,"velocity":122},{"deltaTime":0,"channel":0,"type":"noteOn","noteNumber":85,"velocity":94},{"deltaTime":0,"channel":0,"type":"noteOn","noteNumber":63,"velocity":105},{"deltaTime":0,"channel":0,"type":"noteOn","noteNumber":66,"velocity":119},{"deltaTime":0,"channel":1,"type":"noteOn","noteNumber":48,"velocity":115},{"deltaTime":2,"channel":0,"type":"controller","controllerType":64,"value":0},{"deltaTime":0,"channel":1,"type":"controller","controllerType":64,"value":0},{"deltaTime":2,"channel":0,"type":"controller","controllerType":64,"value":127},{"deltaTime":0,"channel":1,"type":"controller","controllerType":64,"value":127},{"deltaTime":234,"channel":0,"type":"noteOff","noteNumber":78,"velocity":0},{"deltaTime":0,"channel":0,"type":"noteOff","noteNumber":85,"velocity":0},{"deltaTime":2,"channel":0,"type":"noteOn","noteNumber":87,"velocity":106},{"deltaTime":214,"channel":1,"type":"noteOff","noteNumber":48,"velocity":0},{"deltaTime":24,"channel":0,"type":"noteOff","noteNumber":87,"velocity":0},{"deltaTime":2,"channel":0,"type":"noteOn","noteNumber":85,"velocity":82},{"deltaTime":0,"channel":1,"type":"noteOn","noteNumber":49,"velocity":103},{"deltaTime":238,"channel":0,"type":"noteOff","noteNumber":85,"velocity":0},{"deltaTime":2,"channel":0,"type":"noteOn","noteNumber":84,"velocity":111},{"deltaTime":190,"channel":0,"type":"noteOff","noteNumber":63,"velocity":0},{"deltaTime":0,"channel":0,"type":"noteOff","noteNumber":66,"velocity":0},{"deltaTime":24,"channel":1,"type":"noteOff","noteNumber":49,"velocity":0},{"deltaTime":24,"channel":0,"type":"noteOff","noteNumber":84,"velocity":0},{"deltaTime":2,"channel":0,"type":"noteOn","noteNumber":81,"velocity":123},{"deltaTime":0,"channel":0,"type":"noteOn","noteNumber":66,"velocity":89},{"deltaTime":0,"channel":0,"type":"noteOn","noteNumber":69,"velocity":122},{"deltaTime":0,"channel":1,"type":"noteOn","noteNumber":51,"velocity":118},{"deltaTime":0,"channel":1,"type":"noteOn","noteNumber":57,"velocity":122},{"deltaTime":0,"channel":1,"type":"noteOn","noteNumber":39,"velocity":118},{"deltaTime":238,"channel":0,"type":"noteOff","noteNumber":81,"velocity":0},{"deltaTime":2,"channel":0,"type":"noteOn","noteNumber":80,"velocity":94},{"deltaTime":214,"channel":0,"type":"noteOff","noteNumber":66,"velocity":0},{"deltaTime":0,"channel":0,"type":"noteOff","noteNumber":69,"velocity":0},{"deltaTime":0,"channel":1,"type":"noteOff","noteNumber":51,"velocity":0},{"deltaTime":0,"channel":1,"type":"noteOff","noteNumber":57,"velocity":0},{"deltaTime":0,"channel":1,"type":"noteOff","noteNumber":39,"velocity":0},{"deltaTime":24,"channel":0,"type":"noteOff","noteNumber":80,"velocity":0},{"deltaTime":2,"channel":0,"type":"noteOn","noteNumber":78,"velocity":96},{"deltaTime":0,"channel":0,"type":"noteOn","noteNumber":64,"velocity":99},{"deltaTime":0,"channel":1,"type":"noteOn","noteNumber":52,"velocity":123},{"deltaTime":158,"channel":0,"type":"noteOff","noteNumber":78,"velocity":0},{"deltaTime":2,"channel":0,"type":"noteOn","noteNumber":75,"velocity":96},{"deltaTime":158,"channel":0,"type":"noteOff","noteNumber":75,"velocity":0},{"deltaTime":2,"channel":0,"type":"noteOn","noteNumber":68,"velocity":96},{"deltaTime":134,"channel":0,"type":"noteOff","noteNumber":64,"velocity":0},{"deltaTime":0,"channel":1,"type":"noteOff","noteNumber":52,"velocity":0},{"deltaTime":16,"channel":0,"type":"noteOff","noteNumber":68,"velocity":0},{"deltaTime":10,"channel":0,"type":"noteOn","noteNumber":76,"velocity":119},{"deltaTime":0,"channel":0,"type":"noteOn","noteNumber":64,"velocity":119},{"deltaTime":0,"channel":1,"type":"noteOn","noteNumber":44,"velocity":114},{"deltaTime":2,"channel":0,"type":"controller","controllerType":64,"value":0},{"deltaTime":0,"channel":1,"type":"controller","controllerType":64,"value":0},{"deltaTime":224,"channel":1,"type":"noteOff","noteNumber":44,"velocity":0},{"deltaTime":12,"channel":0,"type":"noteOff","noteNumber":76,"velocity":0},{"deltaTime":0,"channel":0,"type":"noteOff","noteNumber":64,"velocity":0},{"deltaTime":2,"channel":1,"type":"noteOn","noteNumber":56,"velocity":89},{"deltaTime":238,"channel":1,"type":"noteOff","noteNumber":56,"velocity":0},{"deltaTime":2,"channel":0,"type":"noteOn","noteNumber":75,"velocity":101},{"deltaTime":0,"channel":0,"type":"noteOn","noteNumber":63,"velocity":115},{"deltaTime":0,"channel":1,"type":"noteOn","noteNumber":55,"velocity":111},{"deltaTime":238,"channel":0,"type":"noteOff","noteNumber":75,"velocity":0},{"deltaTime":0,"channel":0,"type":"noteOff","noteNumber":63,"velocity":0},{"deltaTime":0,"channel":1,"type":"noteOff","noteNumber":55,"velocity":0},{"deltaTime":2,"channel":1,"type":"noteOn","noteNumber":56,"velocity":86},{"deltaTime":238,"channel":1,"type":"noteOff","noteNumber":56,"velocity":0},{"deltaTime":2,"channel":0,"type":"noteOn","noteNumber":73,"velocity":104},{"deltaTime":0,"channel":0,"type":"noteOn","noteNumber":61,"velocity":104},{"deltaTime":0,"channel":1,"type":"noteOn","noteNumber":54,"velocity":89},{"deltaTime":238,"channel":0,"type":"noteOff","noteNumber":73,"velocity":0},{"deltaTime":0,"channel":0,"type":"noteOff","noteNumber":61,"velocity":0},{"deltaTime":0,"channel":1,"type":"noteOff","noteNumber":54,"velocity":0},{"deltaTime":2,"channel":1,"type":"noteOn","noteNumber":56,"velocity":108},{"deltaTime":238,"channel":1,"type":"noteOff","noteNumber":56,"velocity":0},{"deltaTime":2,"channel":0,"type":"noteOn","noteNumber":72,"velocity":96},{"deltaTime":0,"channel":0,"type":"noteOn","noteNumber":60,"velocity":96},{"deltaTime":0,"channel":1,"type":"noteOn","noteNumber":52,"velocity":103},{"deltaTime":238,"channel":1,"type":"noteOff","noteNumber":52,"velocity":0},{"deltaTime":2,"channel":1,"type":"noteOn","noteNumber":56,"velocity":96},{"deltaTime":238,"channel":0,"type":"noteOff","noteNumber":72,"velocity":0},{"deltaTime":0,"channel":0,"type":"noteOff","noteNumber":60,"velocity":0},{"deltaTime":0,"channel":1,"type":"noteOff","noteNumber":56,"velocity":0},{"deltaTime":2,"channel":0,"type":"noteOn","noteNumber":73,"velocity":114},{"deltaTime":0,"channel":0,"type":"noteOn","noteNumber":61,"velocity":114},{"deltaTime":0,"channel":1,"type":"noteOn","noteNumber":49,"velocity":122},{"deltaTime":0,"channel":1,"type":"noteOn","noteNumber":37,"velocity":122},{"deltaTime":238,"channel":0,"type":"noteOff","noteNumber":73,"velocity":0},{"deltaTime":0,"channel":0,"type":"noteOff","noteNumber":61,"velocity":0},{"deltaTime":0,"channel":1,"type":"noteOff","noteNumber":49,"velocity":0},{"deltaTime":0,"channel":1,"type":"noteOff","noteNumber":37,"velocity":0},{"deltaTime":242,"channel":0,"type":"noteOn","noteNumber":72,"velocity":88},{"deltaTime":4,"channel":0,"type":"controller","controllerType":64,"value":127},{"deltaTime":0,"channel":1,"type":"controller","controllerType":64,"value":127},{"deltaTime":222,"channel":0,"type":"noteOff","noteNumber":72,"velocity":0},{"deltaTime":14,"channel":0,"type":"noteOn","noteNumber":85,"velocity":70},{"deltaTime":0,"channel":0,"type":"noteOn","noteNumber":73,"velocity":75},{"deltaTime":226,"channel":0,"type":"noteOff","noteNumber":85,"velocity":0},{"deltaTime":0,"channel":0,"type":"noteOff","noteNumber":73,"velocity":0},{"deltaTime":14,"channel":0,"type":"noteOn","noteNumber":71,"velocity":89},{"deltaTime":226,"channel":0,"type":"noteOff","noteNumber":71,"velocity":0},{"deltaTime":14,"channel":0,"type":"noteOn","noteNumber":85,"velocity":76},{"deltaTime":0,"channel":0,"type":"noteOn","noteNumber":73,"velocity":79},{"deltaTime":226,"channel":0,"type":"noteOff","noteNumber":85,"velocity":0},{"deltaTime":0,"channel":0,"type":"noteOff","noteNumber":73,"velocity":0},{"deltaTime":14,"channel":0,"type":"noteOn","noteNumber":69,"velocity":96},{"deltaTime":226,"channel":0,"type":"noteOff","noteNumber":69,"velocity":0},{"deltaTime":14,"channel":0,"type":"noteOn","noteNumber":85,"velocity":108},{"deltaTime":0,"channel":0,"type":"noteOn","noteNumber":73,"velocity":103},{"deltaTime":226,"channel":0,"type":"noteOff","noteNumber":85,"velocity":0},{"deltaTime":0,"channel":0,"type":"noteOff","noteNumber":73,"velocity":0},{"deltaTime":14,"channel":0,"type":"noteOn","noteNumber":97,"velocity":71},{"deltaTime":0,"channel":1,"type":"noteOn","noteNumber":68,"velocity":49},{"deltaTime":2,"channel":0,"type":"controller","controllerType":64,"value":0},{"deltaTime":0,"channel":1,"type":"controller","controllerType":64,"value":0},{"deltaTime":2,"channel":0,"type":"controller","controllerType":64,"value":127},{"deltaTime":0,"channel":0,"type":"controller","controllerType":64,"value":127},{"deltaTime":0,"channel":1,"type":"controller","controllerType":64,"value":127},{"deltaTime":234,"channel":0,"type":"noteOff","noteNumber":97,"velocity":0},{"deltaTime":240,"channel":1,"type":"noteOff","noteNumber":68,"velocity":0},{"deltaTime":2,"channel":0,"type":"noteOn","noteNumber":85,"velocity":67},{"deltaTime":0,"channel":1,"type":"noteOn","noteNumber":73,"velocity":71},{"deltaTime":0,"channel":1,"type":"noteOn","noteNumber":37,"velocity":59},{"deltaTime":478,"channel":0,"type":"noteOff","noteNumber":85,"velocity":0},{"deltaTime":0,"channel":1,"type":"noteOff","noteNumber":73,"velocity":0},{"deltaTime":0,"channel":1,"type":"noteOff","noteNumber":37,"velocity":0},{"deltaTime":2,"channel":0,"type":"noteOn","noteNumber":95,"velocity":80},{"deltaTime":0,"channel":1,"type":"noteOn","noteNumber":76,"velocity":83},{"deltaTime":0,"channel":1,"type":"noteOn","noteNumber":56,"velocity":68},{"deltaTime":238,"channel":0,"type":"noteOff","noteNumber":95,"velocity":0},{"deltaTime":0,"channel":1,"type":"noteOff","noteNumber":76,"velocity":0},{"deltaTime":2,"channel":1,"type":"noteOn","noteNumber":78,"velocity":72},{"deltaTime":238,"channel":1,"type":"noteOff","noteNumber":78,"velocity":0},{"deltaTime":0,"channel":1,"type":"noteOff","noteNumber":56,"velocity":0},{"deltaTime":2,"channel":0,"type":"noteOn","noteNumber":80,"velocity":72},{"deltaTime":0,"channel":1,"type":"noteOn","noteNumber":76,"velocity":71},{"deltaTime":0,"channel":1,"type":"noteOn","noteNumber":49,"velocity":61},{"deltaTime":238,"channel":1,"type":"noteOff","noteNumber":76,"velocity":0},{"deltaTime":2,"channel":1,"type":"noteOn","noteNumber":73,"velocity":92},{"deltaTime":238,"channel":0,"type":"noteOff","noteNumber":80,"velocity":0},{"deltaTime":0,"channel":1,"type":"noteOff","noteNumber":73,"velocity":0},{"deltaTime":0,"channel":1,"type":"noteOff","noteNumber":49,"velocity":0},{"deltaTime":2,"channel":0,"type":"noteOn","noteNumber":93,"velocity":81},{"deltaTime":0,"channel":1,"type":"noteOn","noteNumber":69,"velocity":99},{"deltaTime":0,"channel":1,"type":"noteOn","noteNumber":54,"velocity":75},{"deltaTime":2,"channel":0,"type":"controller","controllerType":64,"value":0},{"deltaTime":0,"channel":1,"type":"controller","controllerType":64,"value":0},{"deltaTime":236,"channel":0,"type":"noteOff","noteNumber":93,"velocity":0},{"deltaTime":0,"channel":1,"type":"noteOff","noteNumber":69,"velocity":0},{"deltaTime":0,"channel":1,"type":"noteOff","noteNumber":54,"velocity":0},{"deltaTime":2,"channel":1,"type":"noteOn","noteNumber":68,"velocity":78},{"deltaTime":238,"channel":1,"type":"noteOff","noteNumber":68,"velocity":0},{"deltaTime":2,"channel":0,"type":"noteOn","noteNumber":88,"velocity":97},{"deltaTime":0,"channel":1,"type":"noteOn","noteNumber":66,"velocity":85},{"deltaTime":0,"channel":1,"type":"noteOn","noteNumber":45,"velocity":85},{"deltaTime":4,"channel":0,"type":"controller","controllerType":64,"value":127},{"deltaTime":0,"channel":1,"type":"controller","controllerType":64,"value":127},{"deltaTime":234,"channel":1,"type":"noteOff","noteNumber":66,"velocity":0},{"deltaTime":2,"channel":1,"type":"noteOn","noteNumber":76,"velocity":92},{"deltaTime":238,"channel":0,"type":"noteOff","noteNumber":88,"velocity":0},{"deltaTime":0,"channel":1,"type":"noteOff","noteNumber":76,"velocity":0},{"deltaTime":2,"channel":0,"type":"noteOn","noteNumber":91,"velocity":117},{"deltaTime":0,"channel":1,"type":"noteOn","noteNumber":75,"velocity":117},{"deltaTime":238,"channel":0,"type":"noteOff","noteNumber":91,"velocity":0},{"deltaTime":0,"channel":1,"type":"noteOff","noteNumber":75,"velocity":0},{"deltaTime":2,"channel":1,"type":"noteOn","noteNumber":73,"velocity":85},{"deltaTime":238,"channel":1,"type":"noteOff","noteNumber":73,"velocity":0},{"deltaTime":2,"channel":0,"type":"noteOn","noteNumber":85,"velocity":103},{"deltaTime":0,"channel":1,"type":"noteOn","noteNumber":69,"velocity":95},{"deltaTime":238,"channel":1,"type":"noteOff","noteNumber":69,"velocity":0},{"deltaTime":2,"channel":1,"type":"noteOn","noteNumber":67,"velocity":101},{"deltaTime":166,"channel":1,"type":"noteOff","noteNumber":45,"velocity":0},{"deltaTime":60,"channel":1,"type":"noteOff","noteNumber":67,"velocity":0},{"deltaTime":12,"channel":0,"type":"noteOff","noteNumber":85,"velocity":0},{"deltaTime":2,"channel":0,"type":"noteOn","noteNumber":80,"velocity":100},{"deltaTime":0,"channel":1,"type":"noteOn","noteNumber":68,"velocity":100},{"deltaTime":0,"channel":1,"type":"noteOn","noteNumber":52,"velocity":85},{"deltaTime":2,"channel":0,"type":"controller","controllerType":64,"value":0},{"deltaTime":0,"channel":1,"type":"controller","controllerType":64,"value":0},{"deltaTime":236,"channel":0,"type":"noteOff","noteNumber":80,"velocity":0},{"deltaTime":0,"channel":1,"type":"noteOff","noteNumber":68,"velocity":0},{"deltaTime":240,"channel":1,"type":"noteOff","noteNumber":52,"velocity":0},{"deltaTime":2,"channel":0,"type":"noteOn","noteNumber":81,"velocity":95},{"deltaTime":0,"channel":1,"type":"noteOn","noteNumber":69,"velocity":76},{"deltaTime":0,"channel":1,"type":"noteOn","noteNumber":51,"velocity":72},{"deltaTime":110,"channel":1,"type":"noteOff","noteNumber":69,"velocity":0},{"deltaTime":10,"channel":1,"type":"noteOn","noteNumber":71,"velocity":76},{"deltaTime":110,"channel":1,"type":"noteOff","noteNumber":71,"velocity":0},{"deltaTime":8,"channel":1,"type":"noteOff","noteNumber":51,"velocity":0},{"deltaTime":2,"channel":1,"type":"noteOn","noteNumber":69,"velocity":76},{"deltaTime":110,"channel":1,"type":"noteOff","noteNumber":69,"velocity":0},{"deltaTime":10,"channel":1,"type":"noteOn","noteNumber":71,"velocity":76},{"deltaTime":110,"channel":1,"type":"noteOff","noteNumber":71,"velocity":0},{"deltaTime":10,"channel":1,"type":"noteOn","noteNumber":69,"velocity":76},{"deltaTime":0,"channel":1,"type":"noteOn","noteNumber":49,"velocity":78},{"deltaTime":110,"channel":1,"type":"noteOff","noteNumber":69,"velocity":0},{"deltaTime":10,"channel":1,"type":"noteOn","noteNumber":71,"velocity":76},{"deltaTime":110,"channel":1,"type":"noteOff","noteNumber":71,"velocity":0},{"deltaTime":10,"channel":1,"type":"noteOn","noteNumber":69,"velocity":76},{"deltaTime":110,"channel":1,"type":"noteOff","noteNumber":69,"velocity":0},{"deltaTime":10,"channel":1,"type":"noteOn","noteNumber":71,"velocity":76},{"deltaTime":70,"channel":0,"type":"noteOff","noteNumber":81,"velocity":0},{"deltaTime":40,"channel":1,"type":"noteOff","noteNumber":71,"velocity":0},{"deltaTime":8,"channel":1,"type":"noteOff","noteNumber":49,"velocity":0},{"deltaTime":2,"channel":0,"type":"noteOn","noteNumber":84,"velocity":95},{"deltaTime":0,"channel":1,"type":"noteOn","noteNumber":71,"velocity":47},{"deltaTime":0,"channel":1,"type":"noteOn","noteNumber":48,"velocity":88},{"deltaTime":110,"channel":1,"type":"noteOff","noteNumber":71,"velocity":0},{"deltaTime":10,"channel":1,"type":"noteOn","noteNumber":69,"velocity":47},{"deltaTime":110,"channel":1,"type":"noteOff","noteNumber":69,"velocity":0},{"deltaTime":8,"channel":0,"type":"noteOff","noteNumber":84,"velocity":0},{"deltaTime":0,"channel":1,"type":"noteOff","noteNumber":48,"velocity":0},{"deltaTime":2,"channel":1,"type":"noteOn","noteNumber":68,"velocity":47},{"deltaTime":110,"channel":1,"type":"noteOff","noteNumber":68,"velocity":0},{"deltaTime":10,"channel":1,"type":"noteOn","noteNumber":66,"velocity":47},{"deltaTime":110,"channel":1,"type":"noteOff","noteNumber":66,"velocity":0},{"deltaTime":10,"channel":0,"type":"noteOn","noteNumber":85,"velocity":95},{"deltaTime":0,"channel":1,"type":"noteOn","noteNumber":64,"velocity":95},{"deltaTime":0,"channel":1,"type":"noteOn","noteNumber":49,"velocity":98},{"deltaTime":238,"channel":1,"type":"noteOff","noteNumber":49,"velocity":0},{"deltaTime":240,"channel":0,"type":"noteOff","noteNumber":85,"velocity":0},{"deltaTime":0,"channel":1,"type":"noteOff","noteNumber":64,"velocity":0},{"deltaTime":2,"channel":0,"type":"noteOn","noteNumber":87,"velocity":95},{"deltaTime":0,"channel":1,"type":"noteOn","noteNumber":75,"velocity":95},{"deltaTime":0,"channel":1,"type":"noteOn","noteNumber":44,"velocity":85},{"deltaTime":238,"channel":1,"type":"noteOff","noteNumber":44,"velocity":0},{"deltaTime":2,"channel":1,"type":"noteOn","noteNumber":46,"velocity":61},{"deltaTime":238,"channel":0,"type":"noteOff","noteNumber":87,"velocity":0},{"deltaTime":0,"channel":1,"type":"noteOff","noteNumber":75,"velocity":0},{"deltaTime":0,"channel":1,"type":"noteOff","noteNumber":46,"velocity":0},{"deltaTime":2,"channel":0,"type":"noteOn","noteNumber":88,"velocity":95},{"deltaTime":0,"channel":1,"type":"noteOn","noteNumber":72,"velocity":95},{"deltaTime":0,"channel":1,"type":"noteOn","noteNumber":48,"velocity":84},{"deltaTime":238,"channel":1,"type":"noteOff","noteNumber":48,"velocity":0},{"deltaTime":2,"channel":1,"type":"noteOn","noteNumber":49,"velocity":73},{"deltaTime":238,"channel":0,"type":"noteOff","noteNumber":88,"velocity":0},{"deltaTime":0,"channel":1,"type":"noteOff","noteNumber":72,"velocity":0},{"deltaTime":0,"channel":1,"type":"noteOff","noteNumber":49,"velocity":0},{"deltaTime":2,"channel":0,"type":"noteOn","noteNumber":93,"velocity":95},{"deltaTime":0,"channel":1,"type":"noteOn","noteNumber":63,"velocity":95},{"deltaTime":0,"channel":1,"type":"noteOn","noteNumber":51,"velocity":69},{"deltaTime":238,"channel":1,"type":"noteOff","noteNumber":63,"velocity":0},{"deltaTime":0,"channel":1,"type":"noteOff","noteNumber":51,"velocity":0},{"deltaTime":2,"channel":1,"type":"noteOn","noteNumber":54,"velocity":93},{"deltaTime":238,"channel":0,"type":"noteOff","noteNumber":93,"velocity":0},{"deltaTime":0,"channel":1,"type":"noteOff","noteNumber":54,"velocity":0},{"deltaTime":2,"channel":0,"type":"noteOn","noteNumber":92,"velocity":93},{"deltaTime":0,"channel":0,"type":"noteOn","noteNumber":76,"velocity":86},{"deltaTime":0,"channel":0,"type":"noteOn","noteNumber":83,"velocity":86},{"deltaTime":0,"channel":1,"type":"noteOn","noteNumber":64,"velocity":93},{"deltaTime":0,"channel":1,"type":"noteOn","noteNumber":68,"velocity":93},{"deltaTime":0,"channel":1,"type":"noteOn","noteNumber":52,"velocity":93},{"deltaTime":238,"channel":0,"type":"noteOff","noteNumber":92,"velocity":0},{"deltaTime":0,"channel":0,"type":"noteOff","noteNumber":76,"velocity":0},{"deltaTime":0,"channel":0,"type":"noteOff","noteNumber":83,"velocity":0},{"deltaTime":0,"channel":1,"type":"noteOff","noteNumber":64,"velocity":0},{"deltaTime":0,"channel":1,"type":"noteOff","noteNumber":68,"velocity":0},{"deltaTime":0,"channel":1,"type":"noteOff","noteNumber":52,"velocity":0},{"deltaTime":242,"channel":0,"type":"noteOn","noteNumber":88,"velocity":100},{"deltaTime":0,"channel":0,"type":"noteOn","noteNumber":76,"velocity":92},{"deltaTime":0,"channel":0,"type":"noteOn","noteNumber":83,"velocity":73},{"deltaTime":0,"channel":1,"type":"noteOn","noteNumber":68,"velocity":100},{"deltaTime":0,"channel":1,"type":"noteOn","noteNumber":52,"velocity":100},{"deltaTime":238,"channel":0,"type":"noteOff","noteNumber":88,"velocity":0},{"deltaTime":0,"channel":0,"type":"noteOff","noteNumber":76,"velocity":0},{"deltaTime":0,"channel":0,"type":"noteOff","noteNumber":83,"velocity":0},{"deltaTime":0,"channel":1,"type":"noteOff","noteNumber":68,"velocity":0},{"deltaTime":0,"channel":1,"type":"noteOff","noteNumber":52,"velocity":0},{"deltaTime":2,"channel":0,"type":"noteOn","noteNumber":78,"velocity":74},{"deltaTime":0,"channel":0,"type":"noteOn","noteNumber":81,"velocity":78},{"deltaTime":0,"channel":1,"type":"noteOn","noteNumber":66,"velocity":88},{"deltaTime":0,"channel":1,"type":"noteOn","noteNumber":54,"velocity":81},{"deltaTime":238,"channel":0,"type":"noteOff","noteNumber":78,"velocity":0},{"deltaTime":0,"channel":0,"type":"noteOff","noteNumber":81,"velocity":0},{"deltaTime":0,"channel":1,"type":"noteOff","noteNumber":66,"velocity":0},{"deltaTime":0,"channel":1,"type":"noteOff","noteNumber":54,"velocity":0},{"deltaTime":2,"channel":0,"type":"noteOn","noteNumber":85,"velocity":95},{"deltaTime":0,"channel":0,"type":"noteOn","noteNumber":76,"velocity":85},{"deltaTime":0,"channel":0,"type":"noteOn","noteNumber":78,"velocity":78},{"deltaTime":0,"channel":1,"type":"noteOn","noteNumber":64,"velocity":86},{"deltaTime":0,"channel":1,"type":"noteOn","noteNumber":68,"velocity":79},{"deltaTime":0,"channel":1,"type":"noteOn","noteNumber":56,"velocity":100},{"deltaTime":158,"channel":0,"type":"noteOff","noteNumber":85,"velocity":0},{"deltaTime":2,"channel":0,"type":"noteOn","noteNumber":83,"velocity":66},{"deltaTime":78,"channel":0,"type":"noteOff","noteNumber":76,"velocity":0},{"deltaTime":0,"channel":0,"type":"noteOff","noteNumber":78,"velocity":0},{"deltaTime":0,"channel":1,"type":"noteOff","noteNumber":64,"velocity":0},{"deltaTime":0,"channel":1,"type":"noteOff","noteNumber":68,"velocity":0},{"deltaTime":0,"channel":1,"type":"noteOff","noteNumber":56,"velocity":0},{"deltaTime":80,"channel":0,"type":"noteOff","noteNumber":83,"velocity":0},{"deltaTime":2,"channel":0,"type":"noteOn","noteNumber":81,"velocity":63},{"deltaTime":158,"channel":0,"type":"noteOff","noteNumber":81,"velocity":0},{"deltaTime":2,"channel":0,"type":"noteOn","noteNumber":92,"velocity":84},{"deltaTime":0,"channel":0,"type":"noteOn","noteNumber":80,"velocity":82},{"deltaTime":0,"channel":1,"type":"noteOn","noteNumber":73,"velocity":70},{"deltaTime":0,"channel":1,"type":"noteOn","noteNumber":49,"velocity":85},{"deltaTime":158,"channel":0,"type":"noteOff","noteNumber":92,"velocity":0},{"deltaTime":2,"channel":0,"type":"noteOn","noteNumber":90,"velocity":85},{"deltaTime":78,"channel":0,"type":"noteOff","noteNumber":80,"velocity":0},{"deltaTime":0,"channel":1,"type":"noteOff","noteNumber":73,"velocity":0},{"deltaTime":0,"channel":1,"type":"noteOff","noteNumber":49,"velocity":0},{"deltaTime":80,"channel":0,"type":"noteOff","noteNumber":90,"velocity":0},{"deltaTime":2,"channel":0,"type":"noteOn","noteNumber":88,"velocity":108},{"deltaTime":158,"channel":0,"type":"noteOff","noteNumber":88,"velocity":0},{"deltaTime":2,"channel":0,"type":"noteOn","noteNumber":81,"velocity":105},{"deltaTime":0,"channel":0,"type":"noteOn","noteNumber":73,"velocity":105},{"deltaTime":0,"channel":0,"type":"noteOn","noteNumber":76,"velocity":105},{"deltaTime":0,"channel":1,"type":"noteOn","noteNumber":66,"velocity":105},{"deltaTime":0,"channel":1,"type":"noteOn","noteNumber":54,"velocity":85},{"deltaTime":238,"channel":0,"type":"noteOff","noteNumber":81,"velocity":0},{"deltaTime":0,"channel":0,"type":"noteOff","noteNumber":73,"velocity":0},{"deltaTime":0,"channel":0,"type":"noteOff","noteNumber":76,"velocity":0},{"deltaTime":0,"channel":1,"type":"noteOff","noteNumber":66,"velocity":0},{"deltaTime":0,"channel":1,"type":"noteOff","noteNumber":54,"velocity":0},{"deltaTime":242,"channel":0,"type":"noteOn","noteNumber":85,"velocity":59},{"deltaTime":0,"channel":1,"type":"noteOn","noteNumber":64,"velocity":59},{"deltaTime":4,"channel":0,"type":"controller","controllerType":64,"value":127},{"deltaTime":0,"channel":1,"type":"controller","controllerType":64,"value":127},{"deltaTime":234,"channel":0,"type":"noteOff","noteNumber":85,"velocity":0},{"deltaTime":2,"channel":0,"type":"noteOn","noteNumber":76,"velocity":89},{"deltaTime":238,"channel":0,"type":"noteOff","noteNumber":76,"velocity":0},{"deltaTime":0,"channel":1,"type":"noteOff","noteNumber":64,"velocity":0},{"deltaTime":2,"channel":0,"type":"noteOn","noteNumber":88,"velocity":83},{"deltaTime":0,"channel":1,"type":"noteOn","noteNumber":69,"velocity":83},{"deltaTime":238,"channel":0,"type":"noteOff","noteNumber":88,"velocity":0},{"deltaTime":2,"channel":0,"type":"noteOn","noteNumber":81,"velocity":105},{"deltaTime":238,"channel":0,"type":"noteOff","noteNumber":81,"velocity":0},{"deltaTime":0,"channel":1,"type":"noteOff","noteNumber":69,"velocity":0},{"deltaTime":2,"channel":0,"type":"noteOn","noteNumber":85,"velocity":98},{"deltaTime":0,"channel":1,"type":"noteOn","noteNumber":73,"velocity":98},{"deltaTime":238,"channel":0,"type":"noteOff","noteNumber":85,"velocity":0},{"deltaTime":2,"channel":0,"type":"noteOn","noteNumber":93,"velocity":82},{"deltaTime":226,"channel":0,"type":"noteOff","noteNumber":93,"velocity":0},{"deltaTime":12,"channel":1,"type":"noteOff","noteNumber":73,"velocity":0},{"deltaTime":2,"channel":0,"type":"noteOn","noteNumber":88,"velocity":91},{"deltaTime":0,"channel":0,"type":"noteOn","noteNumber":80,"velocity":85},{"deltaTime":0,"channel":0,"type":"noteOn","noteNumber":83,"velocity":91},{"deltaTime":0,"channel":1,"type":"noteOn","noteNumber":64,"velocity":85},{"deltaTime":0,"channel":1,"type":"noteOn","noteNumber":71,"velocity":91},{"deltaTime":0,"channel":1,"type":"noteOn","noteNumber":52,"velocity":85},{"deltaTime":2,"channel":0,"type":"controller","controllerType":64,"value":0},{"deltaTime":0,"channel":1,"type":"controller","controllerType":64,"value":0},{"deltaTime":224,"channel":0,"type":"noteOff","noteNumber":88,"velocity":0},{"deltaTime":12,"channel":0,"type":"noteOff","noteNumber":80,"velocity":0},{"deltaTime":0,"channel":0,"type":"noteOff","noteNumber":83,"velocity":0},{"deltaTime":0,"channel":1,"type":"noteOff","noteNumber":64,"velocity":0},{"deltaTime":0,"channel":1,"type":"noteOff","noteNumber":71,"velocity":0},{"deltaTime":2,"channel":0,"type":"noteOn","noteNumber":95,"velocity":67},{"deltaTime":226,"channel":0,"type":"noteOff","noteNumber":95,"velocity":0},{"deltaTime":12,"channel":1,"type":"noteOff","noteNumber":52,"velocity":0},{"deltaTime":2,"channel":0,"type":"noteOn","noteNumber":81,"velocity":80},{"deltaTime":0,"channel":1,"type":"noteOn","noteNumber":69,"velocity":99},{"deltaTime":226,"channel":0,"type":"noteOff","noteNumber":81,"velocity":0},{"deltaTime":12,"channel":1,"type":"noteOff","noteNumber":69,"velocity":0},{"deltaTime":2,"channel":0,"type":"noteOn","noteNumber":93,"velocity":79},{"deltaTime":226,"channel":0,"type":"noteOff","noteNumber":93,"velocity":0},{"deltaTime":14,"channel":0,"type":"noteOn","noteNumber":80,"velocity":80},{"deltaTime":0,"channel":1,"type":"noteOn","noteNumber":66,"velocity":91},{"deltaTime":0,"channel":1,"type":"noteOn","noteNumber":71,"velocity":91},{"deltaTime":0,"channel":1,"type":"noteOn","noteNumber":75,"velocity":91},{"deltaTime":0,"channel":1,"type":"noteOn","noteNumber":52,"velocity":85},{"deltaTime":226,"channel":0,"type":"noteOff","noteNumber":80,"velocity":0},{"deltaTime":12,"channel":1,"type":"noteOff","noteNumber":66,"velocity":0},{"deltaTime":0,"channel":1,"type":"noteOff","noteNumber":71,"velocity":0},{"deltaTime":0,"channel":1,"type":"noteOff","noteNumber":75,"velocity":0},{"deltaTime":0,"channel":1,"type":"noteOff","noteNumber":52,"velocity":0},{"deltaTime":2,"channel":0,"type":"noteOn","noteNumber":92,"velocity":89},{"deltaTime":226,"channel":0,"type":"noteOff","noteNumber":92,"velocity":0},{"deltaTime":14,"channel":0,"type":"noteOn","noteNumber":81,"velocity":80},{"deltaTime":0,"channel":1,"type":"noteOn","noteNumber":68,"velocity":89},{"deltaTime":0,"channel":1,"type":"noteOn","noteNumber":54,"velocity":89},{"deltaTime":166,"channel":0,"type":"noteOff","noteNumber":81,"velocity":0},{"deltaTime":2,"channel":0,"type":"noteOn","noteNumber":83,"velocity":89},{"deltaTime":286,"channel":1,"type":"noteOff","noteNumber":68,"velocity":0},{"deltaTime":6,"channel":0,"type":"noteOff","noteNumber":83,"velocity":0},{"deltaTime":18,"channel":1,"type":"noteOff","noteNumber":54,"velocity":0},{"deltaTime":2,"channel":0,"type":"noteOn","noteNumber":87,"velocity":101},{"deltaTime":0,"channel":0,"type":"noteOn","noteNumber":96,"velocity":79},{"deltaTime":0,"channel":0,"type":"noteOn","noteNumber":72,"velocity":71},{"deltaTime":0,"channel":0,"type":"noteOn","noteNumber":78,"velocity":88},{"deltaTime":0,"channel":1,"type":"noteOn","noteNumber":44,"velocity":90},{"deltaTime":0,"channel":1,"type":"noteOn","noteNumber":56,"velocity":90},{"deltaTime":4,"channel":0,"type":"controller","controllerType":64,"value":127},{"deltaTime":0,"channel":1,"type":"controller","controllerType":64,"value":127},{"deltaTime":450,"channel":0,"type":"noteOff","noteNumber":87,"velocity":0},{"deltaTime":0,"channel":0,"type":"noteOff","noteNumber":96,"velocity":0},{"deltaTime":0,"channel":0,"type":"noteOff","noteNumber":72,"velocity":0},{"deltaTime":0,"channel":0,"type":"noteOff","noteNumber":78,"velocity":0},{"deltaTime":26,"channel":0,"type":"noteOn","noteNumber":80,"velocity":91},{"deltaTime":238,"channel":0,"type":"noteOff","noteNumber":80,"velocity":0},{"deltaTime":2,"channel":0,"type":"noteOn","noteNumber":75,"velocity":76},{"deltaTime":238,"channel":0,"type":"noteOff","noteNumber":75,"velocity":0},{"deltaTime":0,"channel":1,"type":"noteOff","noteNumber":44,"velocity":0},{"deltaTime":0,"channel":1,"type":"noteOff","noteNumber":56,"velocity":0},{"deltaTime":2,"channel":0,"type":"noteOn","noteNumber":78,"velocity":93},{"deltaTime":0,"channel":0,"type":"noteOn","noteNumber":70,"velocity":80},{"deltaTime":0,"channel":1,"type":"noteOn","noteNumber":54,"velocity":81},{"deltaTime":0,"channel":1,"type":"noteOn","noteNumber":60,"velocity":84},{"deltaTime":0,"channel":1,"type":"noteOn","noteNumber":63,"velocity":81},{"deltaTime":0,"channel":1,"type":"noteOn","noteNumber":42,"velocity":81},{"deltaTime":2,"channel":0,"type":"controller","controllerType":64,"value":0},{"deltaTime":0,"channel":1,"type":"controller","controllerType":64,"value":0},{"deltaTime":2,"channel":0,"type":"controller","controllerType":64,"value":127},{"deltaTime":0,"channel":1,"type":"controller","controllerType":64,"value":127},{"deltaTime":450,"channel":0,"type":"noteOff","noteNumber":78,"velocity":0},{"deltaTime":0,"channel":0,"type":"noteOff","noteNumber":70,"velocity":0},{"deltaTime":26,"channel":0,"type":"noteOn","noteNumber":77,"velocity":95},{"deltaTime":238,"channel":0,"type":"noteOff","noteNumber":77,"velocity":0},{"deltaTime":2,"channel":0,"type":"noteOn","noteNumber":78,"velocity":92},{"deltaTime":190,"channel":1,"type":"noteOff","noteNumber":54,"velocity":0},{"deltaTime":0,"channel":1,"type":"noteOff","noteNumber":60,"velocity":0},{"deltaTime":0,"channel":1,"type":"noteOff","noteNumber":63,"velocity":0},{"deltaTime":0,"channel":1,"type":"noteOff","noteNumber":42,"velocity":0},{"deltaTime":48,"channel":0,"type":"noteOff","noteNumber":78,"velocity":0},{"deltaTime":2,"meta":true,"type":"keySignature","key":-5,"scale":0},{"deltaTime":0,"channel":0,"type":"noteOn","noteNumber":92,"velocity":105},{"deltaTime":0,"meta":true,"type":"keySignature","key":-5,"scale":0},{"deltaTime":0,"channel":0,"type":"noteOn","noteNumber":80,"velocity":109},{"deltaTime":0,"meta":true,"type":"keySignature","key":-5,"scale":0},{"deltaTime":0,"channel":1,"type":"noteOn","noteNumber":72,"velocity":91},{"deltaTime":0,"meta":true,"type":"keySignature","key":-5,"scale":0},{"deltaTime":0,"channel":1,"type":"noteOn","noteNumber":53,"velocity":88},{"deltaTime":2,"channel":0,"type":"controller","controllerType":64,"value":0},{"deltaTime":0,"channel":1,"type":"controller","controllerType":64,"value":0},{"deltaTime":2,"channel":0,"type":"controller","controllerType":64,"value":127},{"deltaTime":0,"channel":1,"type":"controller","controllerType":64,"value":127},{"deltaTime":314,"channel":1,"type":"noteOff","noteNumber":72,"velocity":0},{"deltaTime":2,"channel":1,"type":"noteOn","noteNumber":75,"velocity":58},{"deltaTime":318,"channel":1,"type":"noteOff","noteNumber":75,"velocity":0},{"deltaTime":2,"channel":1,"type":"noteOn","noteNumber":73,"velocity":70},{"deltaTime":270,"channel":0,"type":"noteOff","noteNumber":92,"velocity":0},{"deltaTime":0,"channel":0,"type":"noteOff","noteNumber":80,"velocity":0},{"deltaTime":48,"channel":1,"type":"noteOff","noteNumber":73,"velocity":0},{"deltaTime":0,"channel":1,"type":"noteOff","noteNumber":53,"velocity":0},{"deltaTime":2,"channel":0,"type":"noteOn","noteNumber":84,"velocity":99},{"deltaTime":0,"channel":0,"type":"noteOn","noteNumber":72,"velocity":99},{"deltaTime":0,"channel":1,"type":"noteOn","noteNumber":68,"velocity":68},{"deltaTime":0,"channel":1,"type":"noteOn","noteNumber":63,"velocity":63},{"deltaTime":318,"channel":1,"type":"noteOff","noteNumber":68,"velocity":0},{"deltaTime":2,"channel":1,"type":"noteOn","noteNumber":65,"velocity":63},{"deltaTime":318,"channel":1,"type":"noteOff","noteNumber":65,"velocity":0},{"deltaTime":2,"channel":1,"type":"noteOn","noteNumber":70,"velocity":72},{"deltaTime":270,"channel":0,"type":"noteOff","noteNumber":84,"velocity":0},{"deltaTime":0,"channel":0,"type":"noteOff","noteNumber":72,"velocity":0},{"deltaTime":0,"channel":1,"type":"noteOff","noteNumber":63,"velocity":0},{"deltaTime":48,"channel":1,"type":"noteOff","noteNumber":70,"velocity":0},{"deltaTime":2,"channel":0,"type":"noteOn","noteNumber":90,"velocity":94},{"deltaTime":0,"channel":0,"type":"noteOn","noteNumber":78,"velocity":102},{"deltaTime":0,"channel":1,"type":"noteOn","noteNumber":72,"velocity":52},{"deltaTime":0,"channel":1,"type":"noteOn","noteNumber":51,"velocity":61},{"deltaTime":2,"channel":0,"type":"controller","controllerType":64,"value":0},{"deltaTime":0,"channel":1,"type":"controller","controllerType":64,"value":0},{"deltaTime":2,"channel":0,"type":"controller","controllerType":64,"value":127},{"deltaTime":0,"channel":1,"type":"controller","controllerType":64,"value":127},{"deltaTime":314,"channel":1,"type":"noteOff","noteNumber":72,"velocity":0},{"deltaTime":2,"channel":1,"type":"noteOn","noteNumber":73,"velocity":65},{"deltaTime":158,"channel":1,"type":"noteOff","noteNumber":51,"velocity":0},{"deltaTime":2,"channel":1,"type":"noteOn","noteNumber":58,"velocity":60},{"deltaTime":158,"channel":1,"type":"noteOff","noteNumber":73,"velocity":0},{"deltaTime":2,"channel":1,"type":"noteOn","noteNumber":72,"velocity":63},{"deltaTime":270,"channel":0,"type":"noteOff","noteNumber":90,"velocity":0},{"deltaTime":0,"channel":0,"type":"noteOff","noteNumber":78,"velocity":0},{"deltaTime":48,"channel":1,"type":"noteOff","noteNumber":72,"velocity":0},{"deltaTime":0,"channel":1,"type":"noteOff","noteNumber":58,"velocity":0},{"deltaTime":2,"channel":0,"type":"noteOn","noteNumber":82,"velocity":97},{"deltaTime":0,"channel":1,"type":"noteOn","noteNumber":70,"velocity":80},{"deltaTime":0,"channel":1,"type":"noteOn","noteNumber":66,"velocity":65},{"deltaTime":318,"channel":1,"type":"noteOff","noteNumber":70,"velocity":0},{"deltaTime":2,"channel":1,"type":"noteOn","noteNumber":73,"velocity":50},{"deltaTime":318,"channel":1,"type":"noteOff","noteNumber":73,"velocity":0},{"deltaTime":2,"channel":1,"type":"noteOn","noteNumber":68,"velocity":63},{"deltaTime":270,"channel":0,"type":"noteOff","noteNumber":82,"velocity":0},{"deltaTime":0,"channel":1,"type":"noteOff","noteNumber":66,"velocity":0},{"deltaTime":48,"channel":1,"type":"noteOff","noteNumber":68,"velocity":0},{"deltaTime":2,"channel":0,"type":"noteOn","noteNumber":89,"velocity":89},{"deltaTime":0,"channel":0,"type":"noteOn","noteNumber":77,"velocity":89},{"deltaTime":0,"channel":1,"type":"noteOn","noteNumber":70,"velocity":63},{"deltaTime":0,"channel":1,"type":"noteOn","noteNumber":48,"velocity":59},{"deltaTime":2,"channel":0,"type":"controller","controllerType":64,"value":0},{"deltaTime":0,"channel":1,"type":"controller","controllerType":64,"value":0},{"deltaTime":2,"channel":0,"type":"controller","controllerType":64,"value":127},{"deltaTime":0,"channel":1,"type":"controller","controllerType":64,"value":127},{"deltaTime":314,"channel":1,"type":"noteOff","noteNumber":70,"velocity":0},{"deltaTime":2,"channel":1,"type":"noteOn","noteNumber":72,"velocity":47},{"deltaTime":158,"channel":0,"type":"noteOff","noteNumber":89,"velocity":0},{"deltaTime":0,"channel":0,"type":"noteOff","noteNumber":77,"velocity":0},{"deltaTime":0,"channel":1,"type":"noteOff","noteNumber":48,"velocity":0},{"deltaTime":2,"channel":0,"type":"noteOn","noteNumber":87,"velocity":91},{"deltaTime":0,"channel":0,"type":"noteOn","noteNumber":75,"velocity":91},{"deltaTime":0,"channel":1,"type":"noteOn","noteNumber":54,"velocity":52},{"deltaTime":158,"channel":1,"type":"noteOff","noteNumber":72,"velocity":0},{"deltaTime":2,"channel":1,"type":"noteOn","noteNumber":68,"velocity":52},{"deltaTime":318,"channel":0,"type":"noteOff","noteNumber":87,"velocity":0},{"deltaTime":0,"channel":0,"type":"noteOff","noteNumber":75,"velocity":0},{"deltaTime":0,"channel":1,"type":"noteOff","noteNumber":68,"velocity":0},{"deltaTime":0,"channel":1,"type":"noteOff","noteNumber":54,"velocity":0},{"deltaTime":2,"channel":0,"type":"noteOn","noteNumber":85,"velocity":83},{"deltaTime":0,"channel":0,"type":"noteOn","noteNumber":73,"velocity":83},{"deltaTime":0,"channel":1,"type":"noteOn","noteNumber":70,"velocity":80},{"deltaTime":0,"channel":1,"type":"noteOn","noteNumber":56,"velocity":54},{"deltaTime":318,"channel":1,"type":"noteOff","noteNumber":70,"velocity":0},{"deltaTime":2,"channel":1,"type":"noteOn","noteNumber":68,"velocity":68},{"deltaTime":158,"channel":0,"type":"noteOff","noteNumber":85,"velocity":0},{"deltaTime":0,"channel":0,"type":"noteOff","noteNumber":73,"velocity":0},{"deltaTime":2,"channel":0,"type":"noteOn","noteNumber":84,"velocity":86},{"deltaTime":0,"channel":0,"type":"noteOn","noteNumber":72,"velocity":86},{"deltaTime":158,"channel":1,"type":"noteOff","noteNumber":68,"velocity":0},{"deltaTime":2,"channel":1,"type":"noteOn","noteNumber":66,"velocity":62},{"deltaTime":270,"channel":1,"type":"noteOff","noteNumber":56,"velocity":0},{"deltaTime":48,"channel":0,"type":"noteOff","noteNumber":84,"velocity":0},{"deltaTime":0,"channel":0,"type":"noteOff","noteNumber":72,"velocity":0},{"deltaTime":0,"channel":1,"type":"noteOff","noteNumber":66,"velocity":0},{"deltaTime":2,"channel":0,"type":"noteOn","noteNumber":85,"velocity":95},{"deltaTime":0,"channel":0,"type":"noteOn","noteNumber":73,"velocity":95},{"deltaTime":0,"channel":1,"type":"noteOn","noteNumber":68,"velocity":78},{"deltaTime":0,"channel":1,"type":"noteOn","noteNumber":49,"velocity":64},{"deltaTime":2,"channel":0,"type":"controller","controllerType":64,"value":0},{"deltaTime":0,"channel":1,"type":"controller","controllerType":64,"value":0},{"deltaTime":2,"channel":0,"type":"controller","controllerType":64,"value":127},{"deltaTime":0,"channel":1,"type":"controller","controllerType":64,"value":127},{"deltaTime":314,"channel":1,"type":"noteOff","noteNumber":68,"velocity":0},{"deltaTime":2,"channel":1,"type":"noteOn","noteNumber":66,"velocity":46},{"deltaTime":158,"channel":0,"type":"noteOff","noteNumber":73,"velocity":0},{"deltaTime":2,"channel":0,"type":"noteOn","noteNumber":80,"velocity":98},{"deltaTime":158,"channel":1,"type":"noteOff","noteNumber":66,"velocity":0},{"deltaTime":2,"channel":1,"type":"noteOn","noteNumber":65,"velocity":59},{"deltaTime":318,"channel":0,"type":"noteOff","noteNumber":85,"velocity":0},{"deltaTime":0,"channel":0,"type":"noteOff","noteNumber":80,"velocity":0},{"deltaTime":0,"channel":1,"type":"noteOff","noteNumber":65,"velocity":0},{"deltaTime":0,"channel":1,"type":"noteOff","noteNumber":49,"velocity":0},{"deltaTime":2,"channel":0,"type":"noteOn","noteNumber":94,"velocity":76},{"deltaTime":0,"channel":0,"type":"noteOn","noteNumber":82,"velocity":76},{"deltaTime":0,"channel":1,"type":"noteOn","noteNumber":66,"velocity":78},{"deltaTime":0,"channel":1,"type":"noteOn","noteNumber":58,"velocity":55},{"deltaTime":318,"channel":1,"type":"noteOff","noteNumber":66,"velocity":0},{"deltaTime":2,"channel":1,"type":"noteOn","noteNumber":65,"velocity":79},{"deltaTime":318,"channel":1,"type":"noteOff","noteNumber":65,"velocity":0},{"deltaTime":2,"channel":1,"type":"noteOn","noteNumber":63,"velocity":98},{"deltaTime":270,"channel":0,"type":"noteOff","noteNumber":94,"velocity":0},{"deltaTime":0,"channel":0,"type":"noteOff","noteNumber":82,"velocity":0},{"deltaTime":0,"channel":1,"type":"noteOff","noteNumber":58,"velocity":0},{"deltaTime":32,"channel":1,"type":"noteOff","noteNumber":63,"velocity":0},{"deltaTime":18,"channel":0,"type":"noteOn","noteNumber":84,"velocity":86},{"deltaTime":0,"channel":1,"type":"noteOn","noteNumber":61,"velocity":64},{"deltaTime":0,"channel":1,"type":"noteOn","noteNumber":68,"velocity":98},{"deltaTime":0,"channel":1,"type":"noteOn","noteNumber":56,"velocity":104},{"deltaTime":2,"channel":0,"type":"controller","controllerType":64,"value":0},{"deltaTime":0,"channel":1,"type":"controller","controllerType":64,"value":0},{"deltaTime":2,"channel":0,"type":"controller","controllerType":64,"value":127},{"deltaTime":0,"channel":1,"type":"controller","controllerType":64,"value":127},{"deltaTime":314,"channel":0,"type":"noteOff","noteNumber":84,"velocity":0},{"deltaTime":2,"channel":0,"type":"noteOn","noteNumber":87,"velocity":75},{"deltaTime":318,"channel":0,"type":"noteOff","noteNumber":87,"velocity":0},{"deltaTime":2,"channel":0,"type":"noteOn","noteNumber":85,"velocity":76},{"deltaTime":270,"channel":1,"type":"noteOff","noteNumber":61,"velocity":0},{"deltaTime":0,"channel":1,"type":"noteOff","noteNumber":68,"velocity":0},{"deltaTime":0,"channel":1,"type":"noteOff","noteNumber":56,"velocity":0},{"deltaTime":48,"channel":0,"type":"noteOff","noteNumber":85,"velocity":0},{"deltaTime":2,"channel":0,"type":"noteOn","noteNumber":89,"velocity":91},{"deltaTime":0,"channel":0,"type":"noteOn","noteNumber":80,"velocity":64},{"deltaTime":0,"channel":1,"type":"noteOn","noteNumber":61,"velocity":92},{"deltaTime":0,"channel":1,"type":"noteOn","noteNumber":49,"velocity":92},{"deltaTime":2,"channel":0,"type":"controller","controllerType":64,"value":0},{"deltaTime":0,"channel":1,"type":"controller","controllerType":64,"value":0},{"deltaTime":2,"channel":0,"type":"controller","controllerType":64,"value":127},{"deltaTime":0,"channel":1,"type":"controller","controllerType":64,"value":127},{"deltaTime":314,"channel":0,"type":"noteOff","noteNumber":89,"velocity":0},{"deltaTime":2,"channel":0,"type":"noteOn","noteNumber":85,"velocity":79},{"deltaTime":318,"channel":0,"type":"noteOff","noteNumber":85,"velocity":0},{"deltaTime":2,"channel":0,"type":"noteOn","noteNumber":80,"velocity":71},{"deltaTime":0,"channel":0,"type":"noteOff","noteNumber":80,"velocity":0},{"deltaTime":270,"channel":1,"type":"noteOff","noteNumber":61,"velocity":0},{"deltaTime":0,"channel":1,"type":"noteOff","noteNumber":49,"velocity":0},{"deltaTime":48,"channel":0,"type":"noteOff","noteNumber":80,"velocity":0},{"deltaTime":2,"channel":0,"type":"noteOn","noteNumber":78,"velocity":63},{"deltaTime":0,"channel":1,"type":"noteOn","noteNumber":66,"velocity":99},{"deltaTime":0,"channel":1,"type":"noteOn","noteNumber":54,"velocity":99},{"deltaTime":2,"channel":0,"type":"controller","controllerType":64,"value":0},{"deltaTime":0,"channel":1,"type":"controller","controllerType":64,"value":0},{"deltaTime":2,"channel":0,"type":"controller","controllerType":64,"value":127},{"deltaTime":0,"channel":1,"type":"controller","controllerType":64,"value":127},{"deltaTime":314,"channel":0,"type":"noteOff","noteNumber":78,"velocity":0},{"deltaTime":2,"channel":0,"type":"noteOn","noteNumber":82,"velocity":76},{"deltaTime":318,"channel":0,"type":"noteOff","noteNumber":82,"velocity":0},{"deltaTime":2,"channel":0,"type":"noteOn","noteNumber":80,"velocity":79},{"deltaTime":270,"channel":1,"type":"noteOff","noteNumber":66,"velocity":0},{"deltaTime":0,"channel":1,"type":"noteOff","noteNumber":54,"velocity":0},{"deltaTime":48,"channel":0,"type":"noteOff","noteNumber":80,"velocity":0},{"deltaTime":2,"channel":0,"type":"noteOn","noteNumber":78,"velocity":88},{"deltaTime":0,"channel":0,"type":"noteOn","noteNumber":73,"velocity":64},{"deltaTime":0,"channel":1,"type":"noteOn","noteNumber":58,"velocity":100},{"deltaTime":0,"channel":1,"type":"noteOn","noteNumber":46,"velocity":99},{"deltaTime":2,"channel":0,"type":"controller","controllerType":64,"value":0},{"deltaTime":0,"channel":1,"type":"controller","controllerType":64,"value":0},{"deltaTime":2,"channel":0,"type":"controller","controllerType":64,"value":127},{"deltaTime":0,"channel":1,"type":"controller","controllerType":64,"value":127},{"deltaTime":314,"channel":0,"type":"noteOff","noteNumber":78,"velocity":0},{"deltaTime":2,"channel":0,"type":"noteOn","noteNumber":77,"velocity":79},{"deltaTime":318,"channel":0,"type":"noteOff","noteNumber":77,"velocity":0},{"deltaTime":2,"channel":0,"type":"noteOn","noteNumber":75,"velocity":96},{"deltaTime":270,"channel":0,"type":"noteOff","noteNumber":73,"velocity":0},{"deltaTime":0,"channel":1,"type":"noteOff","noteNumber":58,"velocity":0},{"deltaTime":0,"channel":1,"type":"noteOff","noteNumber":46,"velocity":0},{"deltaTime":48,"channel":0,"type":"noteOff","noteNumber":75,"velocity":0},{"deltaTime":2,"channel":0,"type":"noteOn","noteNumber":72,"velocity":64},{"deltaTime":0,"channel":1,"type":"noteOn","noteNumber":63,"velocity":64},{"deltaTime":0,"channel":1,"type":"noteOn","noteNumber":48,"velocity":109},{"deltaTime":2,"channel":0,"type":"controller","controllerType":64,"value":0},{"deltaTime":0,"channel":1,"type":"controller","controllerType":64,"value":0},{"deltaTime":2,"channel":0,"type":"controller","controllerType":64,"value":127},{"deltaTime":0,"channel":1,"type":"controller","controllerType":64,"value":127},{"deltaTime":298,"channel":0,"type":"noteOff","noteNumber":72,"velocity":0},{"deltaTime":18,"channel":0,"type":"noteOn","noteNumber":70,"velocity":64},{"deltaTime":134,"channel":1,"type":"noteOff","noteNumber":48,"velocity":0},{"deltaTime":26,"channel":1,"type":"noteOn","noteNumber":58,"velocity":66},{"deltaTime":142,"channel":0,"type":"noteOff","noteNumber":70,"velocity":0},{"deltaTime":18,"channel":0,"type":"noteOn","noteNumber":68,"velocity":64},{"deltaTime":302,"channel":0,"type":"noteOff","noteNumber":68,"velocity":0},{"deltaTime":18,"channel":0,"type":"noteOn","noteNumber":78,"velocity":84},{"deltaTime":0,"channel":0,"type":"noteOn","noteNumber":66,"velocity":77},{"deltaTime":302,"channel":0,"type":"noteOff","noteNumber":66,"velocity":0},{"deltaTime":16,"channel":0,"type":"noteOff","noteNumber":78,"velocity":0},{"deltaTime":2,"channel":0,"type":"noteOn","noteNumber":84,"velocity":78},{"deltaTime":0,"channel":0,"type":"noteOn","noteNumber":68,"velocity":68},{"deltaTime":302,"channel":0,"type":"noteOff","noteNumber":68,"velocity":0},{"deltaTime":16,"channel":0,"type":"noteOff","noteNumber":84,"velocity":0},{"deltaTime":2,"channel":0,"type":"noteOn","noteNumber":82,"velocity":92},{"deltaTime":0,"channel":0,"type":"noteOn","noteNumber":72,"velocity":68},{"deltaTime":222,"channel":1,"type":"noteOff","noteNumber":63,"velocity":0},{"deltaTime":24,"channel":1,"type":"noteOff","noteNumber":58,"velocity":0},{"deltaTime":56,"channel":0,"type":"noteOff","noteNumber":72,"velocity":0},{"deltaTime":16,"channel":0,"type":"noteOff","noteNumber":82,"velocity":0},{"deltaTime":2,"channel":0,"type":"noteOn","noteNumber":79,"velocity":83},{"deltaTime":0,"channel":1,"type":"noteOn","noteNumber":49,"velocity":64},{"deltaTime":2,"channel":0,"type":"controller","controllerType":64,"value":0},{"deltaTime":0,"channel":1,"type":"controller","controllerType":64,"value":0},{"deltaTime":2,"channel":0,"type":"controller","controllerType":64,"value":127},{"deltaTime":0,"channel":1,"type":"controller","controllerType":64,"value":127},{"deltaTime":474,"channel":0,"type":"noteOff","noteNumber":79,"velocity":0},{"deltaTime":2,"channel":0,"type":"noteOn","noteNumber":80,"velocity":57},{"deltaTime":0,"channel":1,"type":"noteOn","noteNumber":63,"velocity":75},{"deltaTime":454,"channel":1,"type":"noteOff","noteNumber":63,"velocity":0},{"deltaTime":24,"channel":0,"type":"noteOff","noteNumber":80,"velocity":0},{"deltaTime":2,"channel":0,"type":"noteOn","noteNumber":82,"velocity":73},{"deltaTime":0,"channel":0,"type":"noteOn","noteNumber":70,"velocity":63},{"deltaTime":0,"channel":1,"type":"noteOn","noteNumber":65,"velocity":67},{"deltaTime":454,"channel":0,"type":"noteOff","noteNumber":70,"velocity":0},{"deltaTime":0,"channel":1,"type":"noteOff","noteNumber":65,"velocity":0},{"deltaTime":24,"channel":0,"type":"noteOff","noteNumber":82,"velocity":0},{"deltaTime":2,"channel":0,"type":"noteOn","noteNumber":84,"velocity":97},{"deltaTime":0,"channel":0,"type":"noteOn","noteNumber":72,"velocity":96},{"deltaTime":0,"channel":1,"type":"noteOn","noteNumber":68,"velocity":79},{"deltaTime":454,"channel":0,"type":"noteOff","noteNumber":72,"velocity":0},{"deltaTime":0,"channel":1,"type":"noteOff","noteNumber":68,"velocity":0},{"deltaTime":24,"channel":0,"type":"noteOff","noteNumber":84,"velocity":0},{"deltaTime":0,"channel":1,"type":"noteOff","noteNumber":49,"velocity":0},{"deltaTime":2,"channel":0,"type":"noteOn","noteNumber":89,"velocity":64},{"deltaTime":0,"channel":0,"type":"noteOn","noteNumber":77,"velocity":64},{"deltaTime":0,"channel":0,"type":"noteOn","noteNumber":80,"velocity":64},{"deltaTime":0,"channel":1,"type":"noteOn","noteNumber":56,"velocity":84},{"deltaTime":2,"channel":0,"type":"controller","controllerType":64,"value":0},{"deltaTime":0,"channel":1,"type":"controller","controllerType":64,"value":0},{"deltaTime":2,"channel":0,"type":"controller","controllerType":64,"value":127},{"deltaTime":0,"channel":1,"type":"controller","controllerType":64,"value":127},{"deltaTime":316,"channel":1,"type":"noteOn","noteNumber":65,"velocity":59},{"deltaTime":318,"channel":1,"type":"noteOff","noteNumber":65,"velocity":0},{"deltaTime":2,"channel":1,"type":"noteOn","noteNumber":75,"velocity":60},{"deltaTime":318,"channel":1,"type":"noteOff","noteNumber":75,"velocity":0},{"deltaTime":0,"channel":1,"type":"noteOff","noteNumber":56,"velocity":0},{"deltaTime":2,"channel":1,"type":"noteOn","noteNumber":68,"velocity":84},{"deltaTime":0,"channel":1,"type":"noteOn","noteNumber":73,"velocity":90},{"deltaTime":318,"channel":1,"type":"noteOff","noteNumber":68,"velocity":0},{"deltaTime":0,"channel":1,"type":"noteOff","noteNumber":73,"velocity":0},{"deltaTime":2,"channel":1,"type":"noteOn","noteNumber":65,"velocity":66},{"deltaTime":318,"channel":1,"type":"noteOff","noteNumber":65,"velocity":0},{"deltaTime":2,"channel":1,"type":"noteOn","noteNumber":70,"velocity":68},{"deltaTime":222,"channel":0,"type":"noteOff","noteNumber":89,"velocity":0},{"deltaTime":0,"channel":0,"type":"noteOff","noteNumber":77,"velocity":0},{"deltaTime":0,"channel":0,"type":"noteOff","noteNumber":80,"velocity":0},{"deltaTime":96,"channel":1,"type":"noteOff","noteNumber":70,"velocity":0},{"deltaTime":2,"channel":0,"type":"noteOn","noteNumber":80,"velocity":64},{"deltaTime":0,"channel":1,"type":"noteOn","noteNumber":68,"velocity":64},{"deltaTime":0,"channel":1,"type":"noteOn","noteNumber":72,"velocity":64},{"deltaTime":0,"channel":1,"type":"noteOn","noteNumber":51,"velocity":66},{"deltaTime":2,"channel":0,"type":"controller","controllerType":64,"value":0},{"deltaTime":0,"channel":1,"type":"controller","controllerType":64,"value":0},{"deltaTime":2,"channel":0,"type":"controller","controllerType":64,"value":127},{"deltaTime":0,"channel":1,"type":"controller","controllerType":64,"value":127},{"deltaTime":314,"channel":1,"type":"noteOff","noteNumber":68,"velocity":0},{"deltaTime":0,"channel":1,"type":"noteOff","noteNumber":72,"velocity":0},{"deltaTime":2,"channel":1,"type":"noteOn","noteNumber":73,"velocity":64},{"deltaTime":158,"channel":1,"type":"noteOff","noteNumber":51,"velocity":0},{"deltaTime":2,"channel":1,"type":"noteOn","noteNumber":58,"velocity":71},{"deltaTime":158,"channel":1,"type":"noteOff","noteNumber":73,"velocity":0},{"deltaTime":2,"channel":1,"type":"noteOn","noteNumber":72,"velocity":64},{"deltaTime":318,"channel":0,"type":"noteOff","noteNumber":80,"velocity":0},{"deltaTime":0,"channel":1,"type":"noteOff","noteNumber":72,"velocity":0},{"deltaTime":0,"channel":1,"type":"noteOff","noteNumber":58,"velocity":0},{"deltaTime":2,"channel":0,"type":"noteOn","noteNumber":78,"velocity":64},{"deltaTime":0,"channel":1,"type":"noteOn","noteNumber":66,"velocity":64},{"deltaTime":0,"channel":1,"type":"noteOff","noteNumber":66,"velocity":0},{"deltaTime":0,"channel":1,"type":"noteOn","noteNumber":66,"velocity":84},{"deltaTime":320,"channel":1,"type":"noteOn","noteNumber":73,"velocity":64},{"deltaTime":318,"channel":1,"type":"noteOff","noteNumber":73,"velocity":0},{"deltaTime":2,"channel":1,"type":"noteOn","noteNumber":68,"velocity":64},{"deltaTime":270,"channel":0,"type":"noteOff","noteNumber":78,"velocity":0},{"deltaTime":0,"channel":1,"type":"noteOff","noteNumber":66,"velocity":0},{"deltaTime":32,"channel":1,"type":"noteOff","noteNumber":68,"velocity":0},{"deltaTime":18,"channel":0,"type":"noteOn","noteNumber":94,"velocity":72},{"deltaTime":0,"channel":0,"type":"noteOn","noteNumber":82,"velocity":91},{"deltaTime":0,"channel":1,"type":"noteOn","noteNumber":70,"velocity":84},{"deltaTime":0,"channel":1,"type":"noteOn","noteNumber":48,"velocity":70},{"deltaTime":2,"channel":0,"type":"controller","controllerType":64,"value":0},{"deltaTime":0,"channel":1,"type":"controller","controllerType":64,"value":0},{"deltaTime":2,"channel":0,"type":"controller","controllerType":64,"value":127},{"deltaTime":0,"channel":1,"type":"controller","controllerType":64,"value":127},{"deltaTime":314,"channel":1,"type":"noteOff","noteNumber":70,"velocity":0},{"deltaTime":2,"channel":1,"type":"noteOn","noteNumber":72,"velocity":66},{"deltaTime":0,"channel":1,"type":"noteOn","noteNumber":75,"velocity":74},{"deltaTime":158,"channel":1,"type":"noteOff","noteNumber":48,"velocity":0},{"deltaTime":2,"channel":1,"type":"noteOn","noteNumber":54,"velocity":54},{"deltaTime":158,"channel":1,"type":"noteOff","noteNumber":72,"velocity":0},{"deltaTime":0,"channel":1,"type":"noteOff","noteNumber":75,"velocity":0},{"deltaTime":2,"channel":1,"type":"noteOn","noteNumber":68,"velocity":75},{"deltaTime":0,"channel":1,"type":"noteOn","noteNumber":73,"velocity":68},{"deltaTime":318,"channel":0,"type":"noteOff","noteNumber":94,"velocity":0},{"deltaTime":0,"channel":0,"type":"noteOff","noteNumber":82,"velocity":0},{"deltaTime":0,"channel":1,"type":"noteOff","noteNumber":68,"velocity":0},{"deltaTime":0,"channel":1,"type":"noteOff","noteNumber":73,"velocity":0},{"deltaTime":0,"channel":1,"type":"noteOff","noteNumber":54,"velocity":0},{"deltaTime":2,"channel":0,"type":"noteOn","noteNumber":84,"velocity":99},{"deltaTime":0,"channel":0,"type":"noteOn","noteNumber":78,"velocity":69},{"deltaTime":0,"channel":1,"type":"noteOn","noteNumber":72,"velocity":101},{"deltaTime":0,"channel":1,"type":"noteOn","noteNumber":56,"velocity":57},{"deltaTime":0,"channel":1,"type":"noteOn","noteNumber":63,"velocity":68},{"deltaTime":318,"channel":1,"type":"noteOff","noteNumber":72,"velocity":0},{"deltaTime":2,"channel":1,"type":"noteOn","noteNumber":68,"velocity":92},{"deltaTime":318,"channel":1,"type":"noteOff","noteNumber":68,"velocity":0},{"deltaTime":2,"channel":1,"type":"noteOn","noteNumber":66,"velocity":93},{"deltaTime":270,"channel":1,"type":"noteOff","noteNumber":56,"velocity":0},{"deltaTime":0,"channel":1,"type":"noteOff","noteNumber":63,"velocity":0},{"deltaTime":48,"channel":0,"type":"noteOff","noteNumber":84,"velocity":0},{"deltaTime":0,"channel":0,"type":"noteOff","noteNumber":78,"velocity":0},{"deltaTime":0,"channel":1,"type":"noteOff","noteNumber":66,"velocity":0},{"deltaTime":2,"channel":0,"type":"noteOn","noteNumber":87,"velocity":105},{"deltaTime":0,"channel":0,"type":"noteOn","noteNumber":75,"velocity":105},{"deltaTime":0,"channel":1,"type":"noteOn","noteNumber":68,"velocity":95},{"deltaTime":0,"channel":1,"type":"noteOn","noteNumber":49,"velocity":104},{"deltaTime":2,"channel":0,"type":"controller","controllerType":64,"value":0},{"deltaTime":0,"channel":1,"type":"controller","controllerType":64,"value":0},{"deltaTime":2,"channel":0,"type":"controller","controllerType":64,"value":127},{"deltaTime":0,"channel":1,"type":"controller","controllerType":64,"value":127},{"deltaTime":314,"channel":1,"type":"noteOff","noteNumber":68,"velocity":0},{"deltaTime":2,"channel":1,"type":"noteOn","noteNumber":70,"velocity":76},{"deltaTime":158,"channel":1,"type":"noteOff","noteNumber":49,"velocity":0},{"deltaTime":2,"channel":1,"type":"noteOn","noteNumber":56,"velocity":76},{"deltaTime":158,"channel":1,"type":"noteOff","noteNumber":70,"velocity":0},{"deltaTime":2,"channel":1,"type":"noteOn","noteNumber":72,"velocity":74},{"deltaTime":270,"channel":0,"type":"noteOff","noteNumber":75,"velocity":0},{"deltaTime":48,"channel":0,"type":"noteOff","noteNumber":87,"velocity":0},{"deltaTime":0,"channel":1,"type":"noteOff","noteNumber":72,"velocity":0},{"deltaTime":0,"channel":1,"type":"noteOff","noteNumber":56,"velocity":0},{"deltaTime":2,"channel":0,"type":"noteOn","noteNumber":85,"velocity":95},{"deltaTime":0,"channel":1,"type":"noteOn","noteNumber":73,"velocity":98},{"deltaTime":0,"channel":1,"type":"noteOn","noteNumber":65,"velocity":68},{"deltaTime":318,"channel":1,"type":"noteOff","noteNumber":73,"velocity":0},{"deltaTime":2,"channel":1,"type":"noteOn","noteNumber":68,"velocity":71},{"deltaTime":318,"channel":1,"type":"noteOff","noteNumber":68,"velocity":0},{"deltaTime":2,"channel":1,"type":"noteOn","noteNumber":65,"velocity":56},{"deltaTime":0,"channel":1,"type":"noteOff","noteNumber":65,"velocity":0},{"deltaTime":270,"channel":0,"type":"noteOff","noteNumber":85,"velocity":0},{"deltaTime":32,"channel":1,"type":"noteOff","noteNumber":65,"velocity":0},{"deltaTime":18,"channel":0,"type":"noteOn","noteNumber":94,"velocity":67},{"deltaTime":0,"channel":0,"type":"noteOn","noteNumber":82,"velocity":91},{"deltaTime":0,"channel":1,"type":"noteOn","noteNumber":70,"velocity":84},{"deltaTime":0,"channel":1,"type":"noteOn","noteNumber":48,"velocity":70},{"deltaTime":2,"channel":0,"type":"controller","controllerType":64,"value":0},{"deltaTime":0,"channel":1,"type":"controller","controllerType":64,"value":0},{"deltaTime":2,"channel":0,"type":"controller","controllerType":64,"value":127},{"deltaTime":0,"channel":1,"type":"controller","controllerType":64,"value":127},{"deltaTime":314,"channel":1,"type":"noteOff","noteNumber":70,"velocity":0},{"deltaTime":2,"channel":1,"type":"noteOn","noteNumber":72,"velocity":66},{"deltaTime":0,"channel":1,"type":"noteOn","noteNumber":75,"velocity":74},{"deltaTime":158,"channel":1,"type":"noteOff","noteNumber":48,"velocity":0},{"deltaTime":2,"channel":1,"type":"noteOn","noteNumber":54,"velocity":54},{"deltaTime":158,"channel":1,"type":"noteOff","noteNumber":72,"velocity":0},{"deltaTime":0,"channel":1,"type":"noteOff","noteNumber":75,"velocity":0},{"deltaTime":2,"channel":1,"type":"noteOn","noteNumber":68,"velocity":75},{"deltaTime":0,"channel":1,"type":"noteOn","noteNumber":73,"velocity":68},{"deltaTime":318,"channel":0,"type":"noteOff","noteNumber":94,"velocity":0},{"deltaTime":0,"channel":0,"type":"noteOff","noteNumber":82,"velocity":0},{"deltaTime":0,"channel":1,"type":"noteOff","noteNumber":68,"velocity":0},{"deltaTime":0,"channel":1,"type":"noteOff","noteNumber":73,"velocity":0},{"deltaTime":0,"channel":1,"type":"noteOff","noteNumber":54,"velocity":0},{"deltaTime":2,"channel":0,"type":"noteOn","noteNumber":84,"velocity":99},{"deltaTime":0,"channel":0,"type":"noteOn","noteNumber":72,"velocity":106},{"deltaTime":0,"channel":0,"type":"noteOn","noteNumber":78,"velocity":88},{"deltaTime":0,"channel":1,"type":"noteOn","noteNumber":72,"velocity":101},{"deltaTime":0,"channel":1,"type":"noteOn","noteNumber":56,"velocity":57},{"deltaTime":0,"channel":1,"type":"noteOn","noteNumber":63,"velocity":68},{"deltaTime":318,"channel":1,"type":"noteOff","noteNumber":72,"velocity":0},{"deltaTime":2,"channel":1,"type":"noteOn","noteNumber":68,"velocity":92},{"deltaTime":318,"channel":1,"type":"noteOff","noteNumber":68,"velocity":0},{"deltaTime":2,"channel":1,"type":"noteOn","noteNumber":66,"velocity":93},{"deltaTime":270,"channel":1,"type":"noteOff","noteNumber":56,"velocity":0},{"deltaTime":0,"channel":1,"type":"noteOff","noteNumber":63,"velocity":0},{"deltaTime":48,"channel":0,"type":"noteOff","noteNumber":84,"velocity":0},{"deltaTime":0,"channel":0,"type":"noteOff","noteNumber":72,"velocity":0},{"deltaTime":0,"channel":0,"type":"noteOff","noteNumber":78,"velocity":0},{"deltaTime":0,"channel":1,"type":"noteOff","noteNumber":66,"velocity":0},{"deltaTime":2,"channel":0,"type":"noteOn","noteNumber":87,"velocity":102},{"deltaTime":0,"channel":0,"type":"noteOn","noteNumber":75,"velocity":94},{"deltaTime":0,"channel":0,"type":"noteOn","noteNumber":81,"velocity":94},{"deltaTime":0,"channel":1,"type":"noteOn","noteNumber":65,"velocity":64},{"deltaTime":0,"channel":1,"type":"noteOn","noteNumber":69,"velocity":95},{"deltaTime":0,"channel":1,"type":"noteOn","noteNumber":49,"velocity":104},{"deltaTime":2,"channel":0,"type":"controller","controllerType":64,"value":0},{"deltaTime":0,"channel":1,"type":"controller","controllerType":64,"value":0},{"deltaTime":2,"channel":0,"type":"controller","controllerType":64,"value":127},{"deltaTime":0,"channel":1,"type":"controller","controllerType":64,"value":127},{"deltaTime":314,"channel":1,"type":"noteOff","noteNumber":65,"velocity":0},{"deltaTime":0,"channel":1,"type":"noteOff","noteNumber":69,"velocity":0},{"deltaTime":2,"channel":1,"type":"noteOn","noteNumber":72,"velocity":76},{"deltaTime":158,"channel":1,"type":"noteOff","noteNumber":49,"velocity":0},{"deltaTime":2,"channel":1,"type":"noteOn","noteNumber":57,"velocity":76},{"deltaTime":158,"channel":1,"type":"noteOff","noteNumber":72,"velocity":0},{"deltaTime":2,"channel":1,"type":"noteOn","noteNumber":75,"velocity":74},{"deltaTime":318,"channel":0,"type":"noteOff","noteNumber":87,"velocity":0},{"deltaTime":0,"channel":0,"type":"noteOff","noteNumber":75,"velocity":0},{"deltaTime":0,"channel":0,"type":"noteOff","noteNumber":81,"velocity":0},{"deltaTime":0,"channel":1,"type":"noteOff","noteNumber":75,"velocity":0},{"deltaTime":0,"channel":1,"type":"noteOff","noteNumber":57,"velocity":0},{"deltaTime":2,"channel":0,"type":"noteOn","noteNumber":85,"velocity":98},{"deltaTime":0,"channel":0,"type":"noteOn","noteNumber":82,"velocity":104},{"deltaTime":0,"channel":1,"type":"noteOn","noteNumber":70,"velocity":64},{"deltaTime":0,"channel":1,"type":"noteOn","noteNumber":73,"velocity":98},{"deltaTime":0,"channel":1,"type":"noteOn","noteNumber":58,"velocity":64},{"deltaTime":0,"channel":1,"type":"noteOn","noteNumber":65,"velocity":68},{"deltaTime":318,"channel":1,"type":"noteOff","noteNumber":70,"velocity":0},{"deltaTime":0,"channel":1,"type":"noteOff","noteNumber":73,"velocity":0},{"deltaTime":2,"channel":1,"type":"noteOn","noteNumber":68,"velocity":71},{"deltaTime":318,"channel":1,"type":"noteOff","noteNumber":68,"velocity":0},{"deltaTime":2,"channel":1,"type":"noteOn","noteNumber":65,"velocity":56},{"deltaTime":0,"channel":1,"type":"noteOff","noteNumber":65,"velocity":0},{"deltaTime":270,"channel":0,"type":"noteOff","noteNumber":85,"velocity":0},{"deltaTime":0,"channel":0,"type":"noteOff","noteNumber":82,"velocity":0},{"deltaTime":0,"channel":1,"type":"noteOff","noteNumber":58,"velocity":0},{"deltaTime":32,"channel":1,"type":"noteOff","noteNumber":65,"velocity":0},{"deltaTime":18,"channel":0,"type":"noteOn","noteNumber":80,"velocity":101},{"deltaTime":0,"channel":1,"type":"noteOn","noteNumber":63,"velocity":101},{"deltaTime":0,"channel":1,"type":"noteOn","noteNumber":70,"velocity":101},{"deltaTime":0,"channel":1,"type":"noteOn","noteNumber":39,"velocity":101},{"deltaTime":0,"channel":1,"type":"noteOn","noteNumber":51,"velocity":101},{"deltaTime":2,"channel":0,"type":"controller","controllerType":64,"value":0},{"deltaTime":0,"channel":1,"type":"controller","controllerType":64,"value":0},{"deltaTime":2,"channel":0,"type":"controller","controllerType":64,"value":127},{"deltaTime":0,"channel":1,"type":"controller","controllerType":64,"value":127},{"deltaTime":314,"channel":1,"type":"noteOff","noteNumber":63,"velocity":0},{"deltaTime":0,"channel":1,"type":"noteOff","noteNumber":70,"velocity":0},{"deltaTime":2,"channel":1,"type":"noteOn","noteNumber":72,"velocity":76},{"deltaTime":0,"channel":1,"type":"noteOn","noteNumber":75,"velocity":84},{"deltaTime":318,"channel":1,"type":"noteOff","noteNumber":72,"velocity":0},{"deltaTime":0,"channel":1,"type":"noteOff","noteNumber":75,"velocity":0},{"deltaTime":2,"channel":1,"type":"noteOn","noteNumber":68,"velocity":82},{"deltaTime":0,"channel":1,"type":"noteOn","noteNumber":73,"velocity":75},{"deltaTime":318,"channel":0,"type":"noteOff","noteNumber":80,"velocity":0},{"deltaTime":0,"channel":1,"type":"noteOff","noteNumber":68,"velocity":0},{"deltaTime":0,"channel":1,"type":"noteOff","noteNumber":73,"velocity":0},{"deltaTime":0,"channel":1,"type":"noteOff","noteNumber":39,"velocity":0},{"deltaTime":0,"channel":1,"type":"noteOff","noteNumber":51,"velocity":0},{"deltaTime":2,"channel":0,"type":"noteOn","noteNumber":84,"velocity":103},{"deltaTime":0,"channel":0,"type":"noteOn","noteNumber":80,"velocity":103},{"deltaTime":0,"channel":1,"type":"noteOn","noteNumber":66,"velocity":103},{"deltaTime":0,"channel":1,"type":"noteOn","noteNumber":72,"velocity":103},{"deltaTime":0,"channel":1,"type":"noteOn","noteNumber":60,"velocity":103},{"deltaTime":318,"channel":1,"type":"noteOff","noteNumber":66,"velocity":0},{"deltaTime":0,"channel":1,"type":"noteOff","noteNumber":72,"velocity":0},{"deltaTime":2,"channel":1,"type":"noteOn","noteNumber":68,"velocity":90},{"deltaTime":318,"channel":1,"type":"noteOff","noteNumber":68,"velocity":0},{"deltaTime":2,"channel":1,"type":"noteOn","noteNumber":66,"velocity":88},{"deltaTime":270,"channel":0,"type":"noteOff","noteNumber":84,"velocity":0},{"deltaTime":0,"channel":0,"type":"noteOff","noteNumber":80,"velocity":0},{"deltaTime":0,"channel":1,"type":"noteOff","noteNumber":60,"velocity":0},{"deltaTime":48,"channel":1,"type":"noteOff","noteNumber":66,"velocity":0},{"deltaTime":2,"channel":0,"type":"noteOn","noteNumber":88,"velocity":97},{"deltaTime":0,"channel":0,"type":"noteOn","noteNumber":76,"velocity":108},{"deltaTime":0,"channel":1,"type":"noteOn","noteNumber":61,"velocity":106},{"deltaTime":0,"channel":1,"type":"noteOn","noteNumber":68,"velocity":110},{"deltaTime":0,"channel":1,"type":"noteOn","noteNumber":40,"velocity":106},{"deltaTime":0,"channel":1,"type":"noteOn","noteNumber":52,"velocity":106},{"deltaTime":2,"channel":0,"type":"controller","controllerType":64,"value":0},{"deltaTime":0,"channel":1,"type":"controller","controllerType":64,"value":0},{"deltaTime":2,"channel":0,"type":"controller","controllerType":64,"value":127},{"deltaTime":0,"channel":1,"type":"controller","controllerType":64,"value":127},{"deltaTime":314,"channel":1,"type":"noteOff","noteNumber":61,"velocity":0},{"deltaTime":0,"channel":1,"type":"noteOff","noteNumber":68,"velocity":0},{"deltaTime":2,"channel":1,"type":"noteOn","noteNumber":70,"velocity":96},{"deltaTime":286,"channel":0,"type":"noteOff","noteNumber":88,"velocity":0},{"deltaTime":0,"channel":0,"type":"noteOff","noteNumber":76,"velocity":0},{"deltaTime":32,"channel":1,"type":"noteOff","noteNumber":70,"velocity":0},{"deltaTime":2,"channel":0,"type":"noteOn","noteNumber":88,"velocity":118},{"deltaTime":0,"channel":0,"type":"noteOn","noteNumber":76,"velocity":118},{"deltaTime":0,"channel":1,"type":"noteOn","noteNumber":72,"velocity":118},{"deltaTime":302,"channel":0,"type":"noteOff","noteNumber":88,"velocity":0},{"deltaTime":0,"channel":0,"type":"noteOff","noteNumber":76,"velocity":0},{"deltaTime":16,"channel":1,"type":"noteOff","noteNumber":72,"velocity":0},{"deltaTime":0,"channel":1,"type":"noteOff","noteNumber":40,"velocity":0},{"deltaTime":0,"channel":1,"type":"noteOff","noteNumber":52,"velocity":0},{"deltaTime":2,"channel":0,"type":"noteOn","noteNumber":85,"velocity":105},{"deltaTime":0,"channel":0,"type":"noteOn","noteNumber":75,"velocity":105},{"deltaTime":0,"channel":0,"type":"noteOn","noteNumber":79,"velocity":105},{"deltaTime":0,"channel":1,"type":"noteOn","noteNumber":73,"velocity":105},{"deltaTime":0,"channel":1,"type":"noteOn","noteNumber":58,"velocity":105},{"deltaTime":318,"channel":1,"type":"noteOff","noteNumber":73,"velocity":0},{"deltaTime":2,"channel":1,"type":"noteOn","noteNumber":70,"velocity":107},{"deltaTime":318,"channel":1,"type":"noteOff","noteNumber":70,"velocity":0},{"deltaTime":2,"channel":1,"type":"noteOn","noteNumber":67,"velocity":122},{"deltaTime":270,"channel":0,"type":"noteOff","noteNumber":85,"velocity":0},{"deltaTime":0,"channel":0,"type":"noteOff","noteNumber":75,"velocity":0},{"deltaTime":0,"channel":0,"type":"noteOff","noteNumber":79,"velocity":0},{"deltaTime":0,"channel":1,"type":"noteOff","noteNumber":58,"velocity":0},{"deltaTime":32,"channel":1,"type":"noteOff","noteNumber":67,"velocity":0},{"deltaTime":18,"channel":0,"type":"noteOn","noteNumber":72,"velocity":116},{"deltaTime":0,"channel":0,"type":"noteOn","noteNumber":68,"velocity":88},{"deltaTime":0,"channel":1,"type":"noteOn","noteNumber":56,"velocity":99},{"deltaTime":0,"channel":1,"type":"noteOn","noteNumber":64,"velocity":116},{"deltaTime":0,"channel":1,"type":"noteOn","noteNumber":32,"velocity":111},{"deltaTime":0,"channel":1,"type":"noteOn","noteNumber":44,"velocity":111},{"deltaTime":2,"channel":0,"type":"controller","controllerType":64,"value":0},{"deltaTime":0,"channel":1,"type":"controller","controllerType":64,"value":0},{"deltaTime":2,"channel":0,"type":"controller","controllerType":64,"value":127},{"deltaTime":0,"channel":1,"type":"controller","controllerType":64,"value":127},{"deltaTime":314,"channel":0,"type":"noteOff","noteNumber":72,"velocity":0},{"deltaTime":0,"channel":1,"type":"noteOff","noteNumber":56,"velocity":0},{"deltaTime":0,"channel":1,"type":"noteOff","noteNumber":64,"velocity":0},{"deltaTime":2,"channel":0,"type":"noteOn","noteNumber":76,"velocity":85},{"deltaTime":0,"channel":1,"type":"noteOn","noteNumber":60,"velocity":59},{"deltaTime":318,"channel":0,"type":"noteOff","noteNumber":76,"velocity":0},{"deltaTime":0,"channel":1,"type":"noteOff","noteNumber":60,"velocity":0},{"deltaTime":2,"channel":0,"type":"noteOn","noteNumber":75,"velocity":82},{"deltaTime":0,"channel":1,"type":"noteOn","noteNumber":56,"velocity":70},{"deltaTime":270,"channel":0,"type":"noteOff","noteNumber":68,"velocity":0},{"deltaTime":48,"channel":0,"type":"noteOff","noteNumber":75,"velocity":0},{"deltaTime":0,"channel":1,"type":"noteOff","noteNumber":56,"velocity":0},{"deltaTime":0,"channel":1,"type":"noteOff","noteNumber":32,"velocity":0},{"deltaTime":0,"channel":1,"type":"noteOff","noteNumber":44,"velocity":0},{"deltaTime":2,"channel":0,"type":"noteOn","noteNumber":73,"velocity":111},{"deltaTime":0,"channel":0,"type":"noteOn","noteNumber":64,"velocity":94},{"deltaTime":0,"channel":0,"type":"noteOn","noteNumber":68,"velocity":94},{"deltaTime":0,"channel":1,"type":"noteOn","noteNumber":58,"velocity":100},{"deltaTime":0,"channel":1,"type":"noteOn","noteNumber":49,"velocity":92},{"deltaTime":318,"channel":0,"type":"noteOff","noteNumber":73,"velocity":0},{"deltaTime":0,"channel":1,"type":"noteOff","noteNumber":58,"velocity":0},{"deltaTime":2,"channel":0,"type":"noteOn","noteNumber":72,"velocity":68},{"deltaTime":0,"channel":1,"type":"noteOn","noteNumber":56,"velocity":87},{"deltaTime":318,"channel":0,"type":"noteOff","noteNumber":72,"velocity":0},{"deltaTime":0,"channel":1,"type":"noteOff","noteNumber":56,"velocity":0},{"deltaTime":2,"channel":0,"type":"noteOn","noteNumber":75,"velocity":75},{"deltaTime":0,"channel":1,"type":"noteOn","noteNumber":54,"velocity":99},{"deltaTime":270,"channel":0,"type":"noteOff","noteNumber":64,"velocity":0},{"deltaTime":0,"channel":0,"type":"noteOff","noteNumber":68,"velocity":0},{"deltaTime":0,"channel":1,"type":"noteOff","noteNumber":49,"velocity":0},{"deltaTime":48,"channel":0,"type":"noteOff","noteNumber":75,"velocity":0},{"deltaTime":0,"channel":1,"type":"noteOff","noteNumber":54,"velocity":0},{"deltaTime":2,"channel":0,"type":"noteOn","noteNumber":76,"velocity":111},{"deltaTime":0,"channel":0,"type":"noteOn","noteNumber":68,"velocity":100},{"deltaTime":0,"channel":0,"type":"noteOn","noteNumber":73,"velocity":100},{"deltaTime":0,"channel":1,"type":"noteOn","noteNumber":56,"velocity":107},{"deltaTime":2,"channel":0,"type":"controller","controllerType":64,"value":0},{"deltaTime":0,"channel":1,"type":"controller","controllerType":64,"value":0},{"deltaTime":2,"channel":0,"type":"controller","controllerType":64,"value":127},{"deltaTime":0,"channel":1,"type":"controller","controllerType":64,"value":127},{"deltaTime":314,"channel":0,"type":"noteOff","noteNumber":76,"velocity":0},{"deltaTime":0,"channel":1,"type":"noteOff","noteNumber":56,"velocity":0},{"deltaTime":2,"channel":0,"type":"noteOn","noteNumber":78,"velocity":73},{"deltaTime":0,"channel":1,"type":"noteOn","noteNumber":54,"velocity":96},{"deltaTime":318,"channel":0,"type":"noteOff","noteNumber":78,"velocity":0},{"deltaTime":0,"channel":1,"type":"noteOff","noteNumber":54,"velocity":0},{"deltaTime":2,"channel":0,"type":"noteOn","noteNumber":79,"velocity":85},{"deltaTime":0,"channel":1,"type":"noteOn","noteNumber":52,"velocity":116},{"deltaTime":270,"channel":0,"type":"noteOff","noteNumber":68,"velocity":0},{"deltaTime":0,"channel":0,"type":"noteOff","noteNumber":73,"velocity":0},{"deltaTime":32,"channel":1,"type":"noteOff","noteNumber":52,"velocity":0},{"deltaTime":16,"channel":0,"type":"noteOff","noteNumber":79,"velocity":0},{"deltaTime":2,"channel":0,"type":"noteOn","noteNumber":80,"velocity":116},{"deltaTime":0,"channel":0,"type":"noteOn","noteNumber":73,"velocity":116},{"deltaTime":0,"channel":0,"type":"noteOn","noteNumber":76,"velocity":114},{"deltaTime":0,"channel":1,"type":"noteOn","noteNumber":64,"velocity":119},{"deltaTime":0,"channel":1,"type":"noteOn","noteNumber":32,"velocity":104},{"deltaTime":0,"channel":1,"type":"noteOn","noteNumber":44,"velocity":104},{"deltaTime":238,"channel":0,"type":"noteOff","noteNumber":80,"velocity":0},{"deltaTime":0,"channel":1,"type":"noteOff","noteNumber":64,"velocity":0},{"deltaTime":2,"channel":0,"type":"noteOn","noteNumber":81,"velocity":73},{"deltaTime":0,"channel":1,"type":"noteOn","noteNumber":63,"velocity":76},{"deltaTime":238,"channel":0,"type":"noteOff","noteNumber":81,"velocity":0},{"deltaTime":0,"channel":1,"type":"noteOff","noteNumber":63,"velocity":0},{"deltaTime":2,"channel":0,"type":"noteOn","noteNumber":82,"velocity":87},{"deltaTime":0,"channel":1,"type":"noteOn","noteNumber":62,"velocity":62},{"deltaTime":238,"channel":0,"type":"noteOff","noteNumber":82,"velocity":0},{"deltaTime":0,"channel":1,"type":"noteOff","noteNumber":62,"velocity":0},{"deltaTime":2,"channel":0,"type":"noteOn","noteNumber":83,"velocity":90},{"deltaTime":0,"channel":1,"type":"noteOn","noteNumber":61,"velocity":81},{"deltaTime":190,"channel":0,"type":"noteOff","noteNumber":73,"velocity":0},{"deltaTime":0,"channel":0,"type":"noteOff","noteNumber":76,"velocity":0},{"deltaTime":0,"channel":1,"type":"noteOff","noteNumber":32,"velocity":0},{"deltaTime":0,"channel":1,"type":"noteOff","noteNumber":44,"velocity":0},{"deltaTime":36,"channel":0,"type":"noteOff","noteNumber":83,"velocity":0},{"deltaTime":12,"channel":1,"type":"noteOff","noteNumber":61,"velocity":0},{"deltaTime":2,"channel":0,"type":"noteOn","noteNumber":104,"velocity":71},{"deltaTime":0,"channel":0,"type":"noteOn","noteNumber":77,"velocity":119},{"deltaTime":0,"channel":0,"type":"noteOn","noteNumber":81,"velocity":106},{"deltaTime":0,"channel":0,"type":"noteOn","noteNumber":84,"velocity":119},{"deltaTime":0,"channel":1,"type":"noteOn","noteNumber":60,"velocity":108},{"deltaTime":0,"channel":1,"type":"noteOn","noteNumber":72,"velocity":113},{"deltaTime":0,"channel":1,"type":"noteOn","noteNumber":36,"velocity":110},{"deltaTime":0,"channel":1,"type":"noteOn","noteNumber":48,"velocity":112},{"deltaTime":2,"channel":0,"type":"controller","controllerType":64,"value":0},{"deltaTime":0,"channel":1,"type":"controller","controllerType":64,"value":0},{"deltaTime":2,"channel":0,"type":"controller","controllerType":64,"value":127},{"deltaTime":0,"channel":1,"type":"controller","controllerType":64,"value":127},{"deltaTime":234,"channel":0,"type":"noteOff","noteNumber":104,"velocity":0},{"deltaTime":2,"channel":0,"type":"noteOn","noteNumber":103,"velocity":65},{"deltaTime":238,"channel":0,"type":"noteOff","noteNumber":103,"velocity":0},{"deltaTime":2,"channel":0,"type":"noteOn","noteNumber":102,"velocity":75},{"deltaTime":238,"channel":0,"type":"noteOff","noteNumber":102,"velocity":0},{"deltaTime":2,"channel":0,"type":"noteOn","noteNumber":101,"velocity":65},{"deltaTime":238,"channel":0,"type":"noteOff","noteNumber":101,"velocity":0},{"deltaTime":0,"channel":0,"type":"noteOff","noteNumber":77,"velocity":0},{"deltaTime":0,"channel":0,"type":"noteOff","noteNumber":81,"velocity":0},{"deltaTime":0,"channel":0,"type":"noteOff","noteNumber":84,"velocity":0},{"deltaTime":2,"channel":0,"type":"noteOn","noteNumber":100,"velocity":96},{"deltaTime":0,"channel":0,"type":"noteOn","noteNumber":84,"velocity":105},{"deltaTime":0,"channel":0,"type":"noteOn","noteNumber":89,"velocity":105},{"deltaTime":0,"channel":0,"type":"noteOn","noteNumber":93,"velocity":96},{"deltaTime":238,"channel":0,"type":"noteOff","noteNumber":100,"velocity":0},{"deltaTime":2,"channel":0,"type":"noteOn","noteNumber":99,"velocity":63},{"deltaTime":238,"channel":0,"type":"noteOff","noteNumber":99,"velocity":0},{"deltaTime":2,"channel":0,"type":"noteOn","noteNumber":98,"velocity":73},{"deltaTime":238,"channel":0,"type":"noteOff","noteNumber":98,"velocity":0},{"deltaTime":2,"channel":0,"type":"noteOn","noteNumber":97,"velocity":84},{"deltaTime":238,"channel":0,"type":"noteOff","noteNumber":97,"velocity":0},{"deltaTime":0,"channel":0,"type":"noteOff","noteNumber":84,"velocity":0},{"deltaTime":0,"channel":0,"type":"noteOff","noteNumber":89,"velocity":0},{"deltaTime":0,"channel":0,"type":"noteOff","noteNumber":93,"velocity":0},{"deltaTime":0,"channel":1,"type":"noteOff","noteNumber":60,"velocity":0},{"deltaTime":0,"channel":1,"type":"noteOff","noteNumber":72,"velocity":0},{"deltaTime":0,"channel":1,"type":"noteOff","noteNumber":36,"velocity":0},{"deltaTime":0,"channel":1,"type":"noteOff","noteNumber":48,"velocity":0},{"deltaTime":2,"channel":0,"type":"noteOn","noteNumber":96,"velocity":100},{"deltaTime":0,"channel":0,"type":"noteOn","noteNumber":81,"velocity":109},{"deltaTime":0,"channel":0,"type":"noteOn","noteNumber":84,"velocity":115},{"deltaTime":0,"channel":0,"type":"noteOn","noteNumber":89,"velocity":115},{"deltaTime":0,"channel":1,"type":"noteOn","noteNumber":53,"velocity":55},{"deltaTime":238,"channel":0,"type":"noteOff","noteNumber":96,"velocity":0},{"deltaTime":2,"channel":0,"type":"noteOn","noteNumber":95,"velocity":78},{"deltaTime":238,"channel":0,"type":"noteOff","noteNumber":95,"velocity":0},{"deltaTime":2,"channel":0,"type":"noteOn","noteNumber":94,"velocity":77},{"deltaTime":238,"channel":0,"type":"noteOff","noteNumber":94,"velocity":0},{"deltaTime":2,"channel":0,"type":"noteOn","noteNumber":93,"velocity":71},{"deltaTime":190,"channel":1,"type":"noteOff","noteNumber":53,"velocity":0},{"deltaTime":48,"channel":0,"type":"noteOff","noteNumber":93,"velocity":0},{"deltaTime":0,"channel":0,"type":"noteOff","noteNumber":81,"velocity":0},{"deltaTime":0,"channel":0,"type":"noteOff","noteNumber":84,"velocity":0},{"deltaTime":0,"channel":0,"type":"noteOff","noteNumber":89,"velocity":0},{"deltaTime":2,"channel":0,"type":"noteOn","noteNumber":92,"velocity":74},{"deltaTime":0,"channel":0,"type":"noteOn","noteNumber":77,"velocity":100},{"deltaTime":0,"channel":0,"type":"noteOn","noteNumber":81,"velocity":89},{"deltaTime":0,"channel":0,"type":"noteOn","noteNumber":85,"velocity":94},{"deltaTime":0,"channel":1,"type":"noteOn","noteNumber":57,"velocity":66},{"deltaTime":238,"channel":0,"type":"noteOff","noteNumber":92,"velocity":0},{"deltaTime":2,"channel":0,"type":"noteOn","noteNumber":91,"velocity":91},{"deltaTime":238,"channel":0,"type":"noteOff","noteNumber":91,"velocity":0},{"deltaTime":2,"channel":0,"type":"noteOn","noteNumber":90,"velocity":93},{"deltaTime":238,"channel":0,"type":"noteOff","noteNumber":90,"velocity":0},{"deltaTime":2,"channel":0,"type":"noteOn","noteNumber":89,"velocity":78},{"deltaTime":190,"channel":1,"type":"noteOff","noteNumber":57,"velocity":0},{"deltaTime":48,"channel":0,"type":"noteOff","noteNumber":89,"velocity":0},{"deltaTime":0,"channel":0,"type":"noteOff","noteNumber":77,"velocity":0},{"deltaTime":0,"channel":0,"type":"noteOff","noteNumber":81,"velocity":0},{"deltaTime":0,"channel":0,"type":"noteOff","noteNumber":85,"velocity":0},{"deltaTime":2,"channel":0,"type":"noteOn","noteNumber":88,"velocity":103},{"deltaTime":0,"channel":0,"type":"noteOn","noteNumber":76,"velocity":104},{"deltaTime":0,"channel":0,"type":"noteOn","noteNumber":80,"velocity":104},{"deltaTime":0,"channel":0,"type":"noteOn","noteNumber":84,"velocity":104},{"deltaTime":0,"channel":1,"type":"noteOn","noteNumber":60,"velocity":55},{"deltaTime":2,"channel":0,"type":"controller","controllerType":64,"value":0},{"deltaTime":0,"channel":1,"type":"controller","controllerType":64,"value":0},{"deltaTime":2,"channel":0,"type":"controller","controllerType":64,"value":127},{"deltaTime":0,"channel":1,"type":"controller","controllerType":64,"value":127},{"deltaTime":234,"channel":0,"type":"noteOff","noteNumber":88,"velocity":0},{"deltaTime":2,"channel":0,"type":"noteOn","noteNumber":87,"velocity":93},{"deltaTime":238,"channel":0,"type":"noteOff","noteNumber":87,"velocity":0},{"deltaTime":2,"channel":0,"type":"noteOn","noteNumber":86,"velocity":88},{"deltaTime":238,"channel":0,"type":"noteOff","noteNumber":86,"velocity":0},{"deltaTime":2,"channel":0,"type":"noteOn","noteNumber":85,"velocity":86},{"deltaTime":190,"channel":0,"type":"noteOff","noteNumber":76,"velocity":0},{"deltaTime":0,"channel":0,"type":"noteOff","noteNumber":80,"velocity":0},{"deltaTime":0,"channel":0,"type":"noteOff","noteNumber":84,"velocity":0},{"deltaTime":48,"channel":0,"type":"noteOff","noteNumber":85,"velocity":0},{"deltaTime":2,"channel":0,"type":"noteOn","noteNumber":84,"velocity":80},{"deltaTime":0,"channel":0,"type":"noteOn","noteNumber":73,"velocity":94},{"deltaTime":0,"channel":0,"type":"noteOn","noteNumber":76,"velocity":94},{"deltaTime":0,"channel":0,"type":"noteOn","noteNumber":80,"velocity":94},{"deltaTime":238,"channel":0,"type":"noteOff","noteNumber":84,"velocity":0},{"deltaTime":2,"channel":0,"type":"noteOn","noteNumber":83,"velocity":88},{"deltaTime":238,"channel":0,"type":"noteOff","noteNumber":83,"velocity":0},{"deltaTime":2,"channel":0,"type":"noteOn","noteNumber":82,"velocity":79},{"deltaTime":238,"channel":0,"type":"noteOff","noteNumber":82,"velocity":0},{"deltaTime":2,"channel":0,"type":"noteOn","noteNumber":81,"velocity":67},{"deltaTime":190,"channel":0,"type":"noteOff","noteNumber":73,"velocity":0},{"deltaTime":0,"channel":0,"type":"noteOff","noteNumber":76,"velocity":0},{"deltaTime":0,"channel":0,"type":"noteOff","noteNumber":80,"velocity":0},{"deltaTime":48,"channel":0,"type":"noteOff","noteNumber":81,"velocity":0},{"deltaTime":2,"channel":0,"type":"noteOn","noteNumber":80,"velocity":62},{"deltaTime":0,"channel":0,"type":"noteOn","noteNumber":68,"velocity":67},{"deltaTime":0,"channel":0,"type":"noteOn","noteNumber":73,"velocity":74},{"deltaTime":0,"channel":0,"type":"noteOn","noteNumber":76,"velocity":74},{"deltaTime":238,"channel":0,"type":"noteOff","noteNumber":80,"velocity":0},{"deltaTime":2,"channel":0,"type":"noteOn","noteNumber":79,"velocity":65},{"deltaTime":238,"channel":0,"type":"noteOff","noteNumber":79,"velocity":0},{"deltaTime":2,"channel":0,"type":"noteOn","noteNumber":78,"velocity":67},{"deltaTime":238,"channel":0,"type":"noteOff","noteNumber":78,"velocity":0},{"deltaTime":2,"channel":0,"type":"noteOn","noteNumber":77,"velocity":50},{"deltaTime":190,"channel":0,"type":"noteOff","noteNumber":68,"velocity":0},{"deltaTime":0,"channel":0,"type":"noteOff","noteNumber":73,"velocity":0},{"deltaTime":0,"channel":0,"type":"noteOff","noteNumber":76,"velocity":0},{"deltaTime":48,"channel":0,"type":"noteOff","noteNumber":77,"velocity":0},{"deltaTime":2,"channel":0,"type":"noteOn","noteNumber":76,"velocity":67},{"deltaTime":0,"channel":0,"type":"noteOn","noteNumber":64,"velocity":70},{"deltaTime":0,"channel":0,"type":"noteOn","noteNumber":68,"velocity":79},{"deltaTime":0,"channel":0,"type":"noteOn","noteNumber":73,"velocity":74},{"deltaTime":238,"channel":0,"type":"noteOff","noteNumber":76,"velocity":0},{"deltaTime":2,"channel":0,"type":"noteOn","noteNumber":75,"velocity":55},{"deltaTime":238,"channel":0,"type":"noteOff","noteNumber":75,"velocity":0},{"deltaTime":2,"channel":0,"type":"noteOn","noteNumber":76,"velocity":64},{"deltaTime":238,"channel":0,"type":"noteOff","noteNumber":76,"velocity":0},{"deltaTime":2,"channel":0,"type":"noteOn","noteNumber":78,"velocity":85},{"deltaTime":46,"channel":1,"type":"noteOff","noteNumber":60,"velocity":0},{"deltaTime":144,"channel":0,"type":"noteOff","noteNumber":64,"velocity":0},{"deltaTime":0,"channel":0,"type":"noteOff","noteNumber":68,"velocity":0},{"deltaTime":0,"channel":0,"type":"noteOff","noteNumber":73,"velocity":0},{"deltaTime":48,"channel":0,"type":"noteOff","noteNumber":78,"velocity":0},{"deltaTime":2,"meta":true,"type":"keySignature","key":4,"scale":0},{"deltaTime":0,"channel":0,"type":"noteOn","noteNumber":75,"velocity":79},{"deltaTime":0,"channel":0,"type":"noteOn","noteNumber":80,"velocity":70},{"deltaTime":0,"channel":0,"type":"noteOn","noteNumber":84,"velocity":61},{"deltaTime":0,"meta":true,"type":"keySignature","key":4,"scale":0},{"deltaTime":0,"channel":0,"type":"noteOn","noteNumber":63,"velocity":70},{"deltaTime":0,"channel":0,"type":"noteOn","noteNumber":68,"velocity":67},{"deltaTime":0,"channel":0,"type":"noteOn","noteNumber":72,"velocity":61},{"deltaTime":0,"meta":true,"type":"keySignature","key":4,"scale":0},{"deltaTime":0,"meta":true,"type":"keySignature","key":4,"scale":0},{"deltaTime":2,"channel":0,"type":"controller","controllerType":64,"value":0},{"deltaTime":0,"channel":1,"type":"controller","controllerType":64,"value":0},{"deltaTime":2,"channel":0,"type":"controller","controllerType":64,"value":127},{"deltaTime":0,"channel":1,"type":"controller","controllerType":64,"value":127},{"deltaTime":450,"channel":0,"type":"noteOff","noteNumber":75,"velocity":0},{"deltaTime":0,"channel":0,"type":"noteOff","noteNumber":80,"velocity":0},{"deltaTime":0,"channel":0,"type":"noteOff","noteNumber":84,"velocity":0},{"deltaTime":26,"channel":0,"type":"noteOn","noteNumber":79,"velocity":66},{"deltaTime":454,"channel":0,"type":"noteOff","noteNumber":79,"velocity":0},{"deltaTime":26,"channel":0,"type":"noteOn","noteNumber":80,"velocity":47},{"deltaTime":454,"channel":0,"type":"noteOff","noteNumber":80,"velocity":0},{"deltaTime":26,"channel":0,"type":"noteOn","noteNumber":79,"velocity":45},{"deltaTime":382,"channel":0,"type":"noteOff","noteNumber":63,"velocity":0},{"deltaTime":0,"channel":0,"type":"noteOff","noteNumber":68,"velocity":0},{"deltaTime":0,"channel":0,"type":"noteOff","noteNumber":72,"velocity":0},{"deltaTime":72,"channel":0,"type":"noteOff","noteNumber":79,"velocity":0},{"deltaTime":26,"channel":0,"type":"noteOn","noteNumber":80,"velocity":61},{"deltaTime":0,"channel":0,"type":"noteOn","noteNumber":92,"velocity":61},{"deltaTime":454,"channel":0,"type":"noteOff","noteNumber":80,"velocity":0},{"deltaTime":0,"channel":0,"type":"noteOff","noteNumber":92,"velocity":0},{"deltaTime":26,"channel":0,"type":"noteOn","noteNumber":91,"velocity":59},{"deltaTime":226,"channel":0,"type":"noteOff","noteNumber":91,"velocity":0},{"deltaTime":14,"channel":0,"type":"noteOn","noteNumber":92,"velocity":44},{"deltaTime":0,"channel":0,"type":"noteOn","noteNumber":80,"velocity":44},{"deltaTime":226,"channel":0,"type":"noteOff","noteNumber":92,"velocity":0},{"deltaTime":0,"channel":0,"type":"noteOff","noteNumber":80,"velocity":0},{"deltaTime":14,"channel":0,"type":"noteOn","noteNumber":90,"velocity":50},{"deltaTime":0,"channel":0,"type":"noteOn","noteNumber":87,"velocity":50},{"deltaTime":226,"channel":0,"type":"noteOff","noteNumber":90,"velocity":0},{"deltaTime":0,"channel":0,"type":"noteOff","noteNumber":87,"velocity":0},{"deltaTime":14,"channel":0,"type":"noteOn","noteNumber":92,"velocity":53},{"deltaTime":0,"channel":0,"type":"noteOn","noteNumber":80,"velocity":53},{"deltaTime":226,"channel":0,"type":"noteOff","noteNumber":92,"velocity":0},{"deltaTime":0,"channel":0,"type":"noteOff","noteNumber":80,"velocity":0},{"deltaTime":14,"channel":0,"type":"noteOn","noteNumber":88,"velocity":65},{"deltaTime":0,"channel":0,"type":"noteOn","noteNumber":85,"velocity":65},{"deltaTime":226,"channel":0,"type":"noteOff","noteNumber":88,"velocity":0},{"deltaTime":0,"channel":0,"type":"noteOff","noteNumber":85,"velocity":0},{"deltaTime":14,"channel":0,"type":"noteOn","noteNumber":92,"velocity":80},{"deltaTime":0,"channel":0,"type":"noteOn","noteNumber":80,"velocity":80},{"deltaTime":226,"channel":0,"type":"noteOff","noteNumber":92,"velocity":0},{"deltaTime":0,"channel":0,"type":"noteOff","noteNumber":80,"velocity":0},{"deltaTime":14,"channel":0,"type":"noteOn","noteNumber":87,"velocity":75},{"deltaTime":0,"channel":0,"type":"noteOn","noteNumber":84,"velocity":75},{"deltaTime":454,"channel":0,"type":"noteOff","noteNumber":87,"velocity":0},{"deltaTime":0,"channel":0,"type":"noteOff","noteNumber":84,"velocity":0},{"deltaTime":26,"channel":0,"type":"noteOn","noteNumber":97,"velocity":103},{"deltaTime":0,"channel":0,"type":"noteOn","noteNumber":85,"velocity":113},{"deltaTime":454,"channel":0,"type":"noteOff","noteNumber":97,"velocity":0},{"deltaTime":0,"channel":0,"type":"noteOff","noteNumber":85,"velocity":0},{"deltaTime":26,"channel":0,"type":"noteOn","noteNumber":92,"velocity":91},{"deltaTime":0,"channel":0,"type":"noteOn","noteNumber":80,"velocity":91},{"deltaTime":2,"channel":0,"type":"controller","controllerType":64,"value":0},{"deltaTime":452,"channel":0,"type":"noteOff","noteNumber":92,"velocity":0},{"deltaTime":24,"channel":0,"type":"noteOff","noteNumber":80,"velocity":0},{"deltaTime":2,"channel":0,"type":"noteOn","noteNumber":81,"velocity":79},{"deltaTime":238,"channel":0,"type":"noteOff","noteNumber":81,"velocity":0},{"deltaTime":242,"channel":0,"type":"noteOn","noteNumber":92,"velocity":114},{"deltaTime":0,"channel":0,"type":"noteOn","noteNumber":78,"velocity":80},{"deltaTime":166,"channel":0,"type":"noteOff","noteNumber":78,"velocity":0},{"deltaTime":2,"channel":0,"type":"noteOn","noteNumber":80,"velocity":112},{"deltaTime":70,"channel":0,"type":"noteOff","noteNumber":92,"velocity":0},{"deltaTime":82,"channel":0,"type":"noteOff","noteNumber":80,"velocity":0},{"deltaTime":160,"channel":0,"type":"noteOn","noteNumber":78,"velocity":72},{"deltaTime":238,"channel":0,"type":"noteOff","noteNumber":78,"velocity":0},{"deltaTime":242,"channel":0,"type":"noteOn","noteNumber":76,"velocity":113},{"deltaTime":238,"channel":0,"type":"noteOff","noteNumber":76,"velocity":0},{"deltaTime":242,"channel":0,"type":"noteOn","noteNumber":72,"velocity":99},{"deltaTime":238,"channel":0,"type":"noteOff","noteNumber":72,"velocity":0},{"deltaTime":242,"channel":0,"type":"noteOn","noteNumber":78,"velocity":81},{"deltaTime":0,"channel":0,"type":"noteOn","noteNumber":72,"velocity":81},{"deltaTime":0,"channel":1,"type":"noteOn","noteNumber":49,"velocity":103},{"deltaTime":2,"channel":1,"type":"controller","controllerType":64,"value":0},{"deltaTime":164,"channel":0,"type":"noteOff","noteNumber":78,"velocity":0},{"deltaTime":0,"channel":0,"type":"noteOff","noteNumber":72,"velocity":0},{"deltaTime":2,"channel":0,"type":"noteOn","noteNumber":79,"velocity":112},{"deltaTime":0,"channel":0,"type":"noteOn","noteNumber":73,"velocity":112},{"deltaTime":152,"channel":0,"type":"noteOff","noteNumber":79,"velocity":0},{"deltaTime":0,"channel":0,"type":"noteOff","noteNumber":73,"velocity":0},{"deltaTime":158,"channel":1,"type":"noteOff","noteNumber":49,"velocity":0},{"deltaTime":2,"channel":0,"type":"noteOn","noteNumber":80,"velocity":97},{"deltaTime":0,"channel":1,"type":"noteOn","noteNumber":63,"velocity":59},{"deltaTime":0,"channel":1,"type":"noteOn","noteNumber":64,"velocity":59},{"deltaTime":0,"channel":1,"type":"noteOn","noteNumber":68,"velocity":90},{"deltaTime":478,"channel":0,"type":"noteOff","noteNumber":80,"velocity":0},{"deltaTime":0,"channel":1,"type":"noteOff","noteNumber":63,"velocity":0},{"deltaTime":0,"channel":1,"type":"noteOff","noteNumber":64,"velocity":0},{"deltaTime":0,"channel":1,"type":"noteOff","noteNumber":68,"velocity":0},{"deltaTime":2,"channel":0,"type":"noteOn","noteNumber":86,"velocity":79},{"deltaTime":0,"channel":0,"type":"noteOn","noteNumber":74,"velocity":47},{"deltaTime":0,"channel":1,"type":"noteOn","noteNumber":44,"velocity":95},{"deltaTime":166,"channel":0,"type":"noteOff","noteNumber":86,"velocity":0},{"deltaTime":0,"channel":0,"type":"noteOff","noteNumber":74,"velocity":0},{"deltaTime":2,"channel":0,"type":"noteOn","noteNumber":87,"velocity":115},{"deltaTime":0,"channel":0,"type":"noteOn","noteNumber":75,"velocity":82},{"deltaTime":70,"channel":1,"type":"noteOff","noteNumber":44,"velocity":0},{"deltaTime":238,"channel":0,"type":"noteOff","noteNumber":87,"velocity":0},{"deltaTime":0,"channel":0,"type":"noteOff","noteNumber":75,"velocity":0},{"deltaTime":4,"channel":0,"type":"noteOn","noteNumber":85,"velocity":86},{"deltaTime":0,"channel":0,"type":"noteOn","noteNumber":73,"velocity":86},{"deltaTime":0,"channel":1,"type":"noteOn","noteNumber":64,"velocity":62},{"deltaTime":0,"channel":1,"type":"noteOn","noteNumber":68,"velocity":62},{"deltaTime":118,"channel":1,"type":"noteOff","noteNumber":64,"velocity":0},{"deltaTime":0,"channel":1,"type":"noteOff","noteNumber":68,"velocity":0},{"deltaTime":122,"channel":1,"type":"noteOn","noteNumber":63,"velocity":62},{"deltaTime":0,"channel":1,"type":"noteOn","noteNumber":64,"velocity":62},{"deltaTime":0,"channel":1,"type":"noteOn","noteNumber":68,"velocity":62},{"deltaTime":118,"channel":1,"type":"noteOff","noteNumber":63,"velocity":0},{"deltaTime":0,"channel":1,"type":"noteOff","noteNumber":64,"velocity":0},{"deltaTime":0,"channel":1,"type":"noteOff","noteNumber":68,"velocity":0},{"deltaTime":96,"channel":0,"type":"noteOff","noteNumber":73,"velocity":0},{"deltaTime":26,"channel":1,"type":"noteOn","noteNumber":49,"velocity":103},{"deltaTime":226,"channel":0,"type":"noteOff","noteNumber":85,"velocity":0},{"deltaTime":12,"channel":1,"type":"noteOff","noteNumber":49,"velocity":0},{"deltaTime":2,"channel":0,"type":"noteOn","noteNumber":87,"velocity":99},{"deltaTime":238,"channel":0,"type":"noteOff","noteNumber":87,"velocity":0},{"deltaTime":2,"channel":0,"type":"noteOn","noteNumber":85,"velocity":86},{"deltaTime":0,"channel":1,"type":"noteOn","noteNumber":61,"velocity":69},{"deltaTime":0,"channel":1,"type":"noteOn","noteNumber":64,"velocity":69},{"deltaTime":0,"channel":1,"type":"noteOn","noteNumber":68,"velocity":69},{"deltaTime":0,"channel":1,"type":"noteOn","noteNumber":56,"velocity":59},{"deltaTime":238,"channel":0,"type":"noteOff","noteNumber":85,"velocity":0},{"deltaTime":0,"channel":1,"type":"noteOff","noteNumber":61,"velocity":0},{"deltaTime":0,"channel":1,"type":"noteOff","noteNumber":64,"velocity":0},{"deltaTime":0,"channel":1,"type":"noteOff","noteNumber":68,"velocity":0},{"deltaTime":0,"channel":1,"type":"noteOff","noteNumber":56,"velocity":0},{"deltaTime":2,"channel":0,"type":"noteOn","noteNumber":84,"velocity":76},{"deltaTime":238,"channel":0,"type":"noteOff","noteNumber":84,"velocity":0},{"deltaTime":2,"channel":0,"type":"noteOn","noteNumber":85,"velocity":103},{"deltaTime":0,"channel":1,"type":"noteOn","noteNumber":52,"velocity":64},{"deltaTime":478,"channel":0,"type":"noteOff","noteNumber":85,"velocity":0},{"deltaTime":0,"channel":1,"type":"noteOff","noteNumber":52,"velocity":0},{"deltaTime":2,"channel":0,"type":"noteOn","noteNumber":80,"velocity":103},{"deltaTime":0,"channel":1,"type":"noteOn","noteNumber":61,"velocity":84},{"deltaTime":0,"channel":1,"type":"noteOn","noteNumber":64,"velocity":84},{"deltaTime":0,"channel":1,"type":"noteOn","noteNumber":68,"velocity":84},{"deltaTime":0,"channel":1,"type":"noteOn","noteNumber":51,"velocity":64},{"deltaTime":238,"channel":0,"type":"noteOff","noteNumber":80,"velocity":0},{"deltaTime":0,"channel":1,"type":"noteOff","noteNumber":61,"velocity":0},{"deltaTime":0,"channel":1,"type":"noteOff","noteNumber":64,"velocity":0},{"deltaTime":0,"channel":1,"type":"noteOff","noteNumber":68,"velocity":0},{"deltaTime":240,"channel":1,"type":"noteOff","noteNumber":51,"velocity":0},{"deltaTime":2,"channel":0,"type":"noteOn","noteNumber":95,"velocity":87},{"deltaTime":0,"channel":0,"type":"noteOn","noteNumber":83,"velocity":102},{"deltaTime":0,"channel":1,"type":"noteOn","noteNumber":44,"velocity":84},{"deltaTime":478,"channel":0,"type":"noteOff","noteNumber":95,"velocity":0},{"deltaTime":0,"channel":0,"type":"noteOff","noteNumber":83,"velocity":0},{"deltaTime":0,"channel":1,"type":"noteOff","noteNumber":44,"velocity":0},{"deltaTime":2,"channel":0,"type":"noteOn","noteNumber":93,"velocity":77},{"deltaTime":0,"channel":0,"type":"noteOn","noteNumber":81,"velocity":77},{"deltaTime":0,"channel":1,"type":"noteOn","noteNumber":57,"velocity":59},{"deltaTime":0,"channel":1,"type":"noteOn","noteNumber":60,"velocity":59},{"deltaTime":0,"channel":1,"type":"noteOn","noteNumber":63,"velocity":59},{"deltaTime":0,"channel":1,"type":"noteOn","noteNumber":67,"velocity":83},{"deltaTime":478,"channel":0,"type":"noteOff","noteNumber":93,"velocity":0},{"deltaTime":0,"channel":0,"type":"noteOff","noteNumber":81,"velocity":0},{"deltaTime":0,"channel":1,"type":"noteOff","noteNumber":57,"velocity":0},{"deltaTime":0,"channel":1,"type":"noteOff","noteNumber":60,"velocity":0},{"deltaTime":0,"channel":1,"type":"noteOff","noteNumber":63,"velocity":0},{"deltaTime":0,"channel":1,"type":"noteOff","noteNumber":67,"velocity":0},{"deltaTime":2,"channel":0,"type":"noteOn","noteNumber":91,"velocity":116},{"deltaTime":0,"channel":0,"type":"noteOn","noteNumber":79,"velocity":116},{"deltaTime":0,"channel":1,"type":"noteOn","noteNumber":51,"velocity":94},{"deltaTime":238,"channel":0,"type":"noteOff","noteNumber":91,"velocity":0},{"deltaTime":0,"channel":0,"type":"noteOff","noteNumber":79,"velocity":0},{"deltaTime":0,"channel":1,"type":"noteOff","noteNumber":51,"velocity":0},{"deltaTime":242,"channel":0,"type":"noteOn","noteNumber":92,"velocity":98},{"deltaTime":0,"channel":0,"type":"noteOn","noteNumber":80,"velocity":109},{"deltaTime":0,"channel":1,"type":"noteOn","noteNumber":63,"velocity":46},{"deltaTime":0,"channel":1,"type":"noteOn","noteNumber":66,"velocity":46},{"deltaTime":118,"channel":1,"type":"noteOff","noteNumber":63,"velocity":0},{"deltaTime":0,"channel":1,"type":"noteOff","noteNumber":66,"velocity":0},{"deltaTime":122,"channel":1,"type":"noteOn","noteNumber":57,"velocity":66},{"deltaTime":0,"channel":1,"type":"noteOn","noteNumber":63,"velocity":66},{"deltaTime":0,"channel":1,"type":"noteOn","noteNumber":66,"velocity":66},{"deltaTime":118,"channel":1,"type":"noteOff","noteNumber":57,"velocity":0},{"deltaTime":0,"channel":1,"type":"noteOff","noteNumber":63,"velocity":0},{"deltaTime":0,"channel":1,"type":"noteOff","noteNumber":66,"velocity":0},{"deltaTime":120,"channel":0,"type":"noteOff","noteNumber":92,"velocity":0},{"deltaTime":0,"channel":0,"type":"noteOff","noteNumber":80,"velocity":0},{"deltaTime":2,"channel":1,"type":"noteOn","noteNumber":48,"velocity":91},{"deltaTime":238,"channel":1,"type":"noteOff","noteNumber":48,"velocity":0},{"deltaTime":242,"channel":0,"type":"noteOn","noteNumber":78,"velocity":92},{"deltaTime":0,"channel":1,"type":"noteOn","noteNumber":60,"velocity":69},{"deltaTime":0,"channel":1,"type":"noteOn","noteNumber":66,"velocity":69},{"deltaTime":238,"channel":0,"type":"noteOff","noteNumber":78,"velocity":0},{"deltaTime":0,"channel":1,"type":"noteOff","noteNumber":60,"velocity":0},{"deltaTime":0,"channel":1,"type":"noteOff","noteNumber":66,"velocity":0},{"deltaTime":242,"channel":0,"type":"noteOn","noteNumber":81,"velocity":79},{"deltaTime":0,"channel":1,"type":"noteOn","noteNumber":44,"velocity":93},{"deltaTime":478,"channel":0,"type":"noteOff","noteNumber":81,"velocity":0},{"deltaTime":0,"channel":1,"type":"noteOff","noteNumber":44,"velocity":0},{"deltaTime":2,"channel":0,"type":"noteOn","noteNumber":79,"velocity":104},{"deltaTime":0,"channel":1,"type":"noteOn","noteNumber":60,"velocity":80},{"deltaTime":0,"channel":1,"type":"noteOn","noteNumber":66,"velocity":80},{"deltaTime":0,"channel":1,"type":"noteOn","noteNumber":68,"velocity":80},{"deltaTime":238,"channel":0,"type":"noteOff","noteNumber":79,"velocity":0},{"deltaTime":0,"channel":1,"type":"noteOff","noteNumber":60,"velocity":0},{"deltaTime":0,"channel":1,"type":"noteOff","noteNumber":66,"velocity":0},{"deltaTime":0,"channel":1,"type":"noteOff","noteNumber":68,"velocity":0},{"deltaTime":242,"channel":0,"type":"noteOn","noteNumber":80,"velocity":115},{"deltaTime":0,"channel":1,"type":"noteOn","noteNumber":49,"velocity":98},{"deltaTime":478,"channel":0,"type":"noteOff","noteNumber":80,"velocity":0},{"deltaTime":0,"channel":1,"type":"noteOff","noteNumber":49,"velocity":0},{"deltaTime":2,"channel":0,"type":"noteOn","noteNumber":86,"velocity":80},{"deltaTime":0,"channel":1,"type":"noteOn","noteNumber":63,"velocity":59},{"deltaTime":0,"channel":1,"type":"noteOn","noteNumber":64,"velocity":59},{"deltaTime":0,"channel":1,"type":"noteOn","noteNumber":68,"velocity":59},{"deltaTime":166,"channel":0,"type":"noteOff","noteNumber":86,"velocity":0},{"deltaTime":2,"channel":0,"type":"noteOn","noteNumber":87,"velocity":79},{"deltaTime":308,"channel":0,"type":"noteOff","noteNumber":87,"velocity":0},{"deltaTime":2,"channel":1,"type":"noteOff","noteNumber":63,"velocity":0},{"deltaTime":0,"channel":1,"type":"noteOff","noteNumber":64,"velocity":0},{"deltaTime":0,"channel":1,"type":"noteOff","noteNumber":68,"velocity":0},{"deltaTime":2,"channel":0,"type":"noteOn","noteNumber":80,"velocity":91},{"deltaTime":0,"channel":0,"type":"noteOn","noteNumber":85,"velocity":84},{"deltaTime":0,"channel":1,"type":"noteOn","noteNumber":44,"velocity":66},{"deltaTime":238,"channel":0,"type":"noteOff","noteNumber":80,"velocity":0},{"deltaTime":0,"channel":0,"type":"noteOff","noteNumber":85,"velocity":0},{"deltaTime":0,"channel":1,"type":"noteOff","noteNumber":44,"velocity":0},{"deltaTime":242,"channel":0,"type":"noteOn","noteNumber":78,"velocity":92},{"deltaTime":0,"channel":1,"type":"noteOn","noteNumber":64,"velocity":55},{"deltaTime":0,"channel":1,"type":"noteOn","noteNumber":68,"velocity":55},{"deltaTime":118,"channel":1,"type":"noteOff","noteNumber":64,"velocity":0},{"deltaTime":0,"channel":1,"type":"noteOff","noteNumber":68,"velocity":0},{"deltaTime":120,"channel":0,"type":"noteOff","noteNumber":78,"velocity":0},{"deltaTime":2,"channel":0,"type":"noteOn","noteNumber":79,"velocity":94},{"deltaTime":0,"channel":1,"type":"noteOn","noteNumber":63,"velocity":86},{"deltaTime":0,"channel":1,"type":"noteOn","noteNumber":64,"velocity":86},{"deltaTime":0,"channel":1,"type":"noteOn","noteNumber":68,"velocity":86},{"deltaTime":118,"channel":1,"type":"noteOff","noteNumber":63,"velocity":0},{"deltaTime":0,"channel":1,"type":"noteOff","noteNumber":64,"velocity":0},{"deltaTime":0,"channel":1,"type":"noteOff","noteNumber":68,"velocity":0},{"deltaTime":120,"channel":0,"type":"noteOff","noteNumber":79,"velocity":0},{"deltaTime":2,"channel":0,"type":"noteOn","noteNumber":80,"velocity":97},{"deltaTime":0,"channel":0,"type":"noteOn","noteNumber":73,"velocity":97},{"deltaTime":0,"channel":1,"type":"noteOn","noteNumber":49,"velocity":74},{"deltaTime":454,"channel":0,"type":"noteOff","noteNumber":80,"velocity":0},{"deltaTime":0,"channel":0,"type":"noteOff","noteNumber":73,"velocity":0},{"deltaTime":24,"channel":1,"type":"noteOff","noteNumber":49,"velocity":0},{"deltaTime":2,"channel":0,"type":"noteOn","noteNumber":81,"velocity":91},{"deltaTime":0,"channel":1,"type":"noteOn","noteNumber":61,"velocity":69},{"deltaTime":0,"channel":1,"type":"noteOn","noteNumber":64,"velocity":69},{"deltaTime":0,"channel":1,"type":"noteOn","noteNumber":68,"velocity":69},{"deltaTime":0,"channel":1,"type":"noteOn","noteNumber":56,"velocity":59},{"deltaTime":238,"channel":0,"type":"noteOff","noteNumber":81,"velocity":0},{"deltaTime":0,"channel":1,"type":"noteOff","noteNumber":61,"velocity":0},{"deltaTime":0,"channel":1,"type":"noteOff","noteNumber":64,"velocity":0},{"deltaTime":0,"channel":1,"type":"noteOff","noteNumber":68,"velocity":0},{"deltaTime":0,"channel":1,"type":"noteOff","noteNumber":56,"velocity":0},{"deltaTime":2,"channel":0,"type":"noteOn","noteNumber":79,"velocity":99},{"deltaTime":238,"channel":0,"type":"noteOff","noteNumber":79,"velocity":0},{"deltaTime":2,"channel":0,"type":"noteOn","noteNumber":80,"velocity":94},{"deltaTime":0,"channel":1,"type":"noteOn","noteNumber":52,"velocity":64},{"deltaTime":238,"channel":0,"type":"noteOff","noteNumber":80,"velocity":0},{"deltaTime":2,"channel":0,"type":"noteOn","noteNumber":76,"velocity":92},{"deltaTime":238,"channel":0,"type":"noteOff","noteNumber":76,"velocity":0},{"deltaTime":0,"channel":1,"type":"noteOff","noteNumber":52,"velocity":0},{"deltaTime":2,"channel":0,"type":"noteOn","noteNumber":73,"velocity":84},{"deltaTime":0,"channel":1,"type":"noteOn","noteNumber":61,"velocity":89},{"deltaTime":0,"channel":1,"type":"noteOn","noteNumber":44,"velocity":68},{"deltaTime":226,"channel":0,"type":"noteOff","noteNumber":73,"velocity":0},{"deltaTime":12,"channel":1,"type":"noteOff","noteNumber":61,"velocity":0},{"deltaTime":0,"channel":1,"type":"noteOff","noteNumber":44,"velocity":0},{"deltaTime":2,"channel":0,"type":"noteOn","noteNumber":68,"velocity":92},{"deltaTime":226,"channel":0,"type":"noteOff","noteNumber":68,"velocity":0},{"deltaTime":14,"channel":0,"type":"noteOn","noteNumber":66,"velocity":97},{"deltaTime":0,"channel":0,"type":"noteOn","noteNumber":72,"velocity":80},{"deltaTime":0,"channel":0,"type":"noteOn","noteNumber":76,"velocity":97},{"deltaTime":0,"channel":1,"type":"noteOn","noteNumber":44,"velocity":84},{"deltaTime":240,"channel":0,"type":"noteOn","noteNumber":88,"velocity":106},{"deltaTime":226,"channel":0,"type":"noteOff","noteNumber":88,"velocity":0},{"deltaTime":12,"channel":0,"type":"noteOff","noteNumber":66,"velocity":0},{"deltaTime":0,"channel":0,"type":"noteOff","noteNumber":72,"velocity":0},{"deltaTime":0,"channel":0,"type":"noteOff","noteNumber":76,"velocity":0},{"deltaTime":0,"channel":1,"type":"noteOff","noteNumber":44,"velocity":0},{"deltaTime":2,"channel":0,"type":"noteOn","noteNumber":72,"velocity":71},{"deltaTime":0,"channel":0,"type":"noteOn","noteNumber":80,"velocity":75},{"deltaTime":0,"channel":0,"type":"noteOn","noteNumber":84,"velocity":71},{"deltaTime":0,"channel":1,"type":"noteOn","noteNumber":56,"velocity":59},{"deltaTime":0,"channel":1,"type":"noteOn","noteNumber":60,"velocity":59},{"deltaTime":238,"channel":0,"type":"noteOff","noteNumber":72,"velocity":0},{"deltaTime":0,"channel":0,"type":"noteOff","noteNumber":80,"velocity":0},{"deltaTime":0,"channel":0,"type":"noteOff","noteNumber":84,"velocity":0},{"deltaTime":0,"channel":1,"type":"noteOff","noteNumber":56,"velocity":0},{"deltaTime":0,"channel":1,"type":"noteOff","noteNumber":60,"velocity":0},{"deltaTime":2,"channel":0,"type":"noteOn","noteNumber":87,"velocity":107},{"deltaTime":226,"channel":0,"type":"noteOff","noteNumber":87,"velocity":0},{"deltaTime":14,"channel":0,"type":"noteOn","noteNumber":68,"velocity":97},{"deltaTime":0,"channel":0,"type":"noteOn","noteNumber":78,"velocity":95},{"deltaTime":0,"channel":0,"type":"noteOn","noteNumber":80,"velocity":97},{"deltaTime":0,"channel":1,"type":"noteOn","noteNumber":54,"velocity":102},{"deltaTime":238,"channel":0,"type":"noteOff","noteNumber":68,"velocity":0},{"deltaTime":0,"channel":0,"type":"noteOff","noteNumber":78,"velocity":0},{"deltaTime":0,"channel":0,"type":"noteOff","noteNumber":80,"velocity":0},{"deltaTime":0,"channel":1,"type":"noteOff","noteNumber":54,"velocity":0},{"deltaTime":2,"channel":0,"type":"noteOn","noteNumber":85,"velocity":100},{"deltaTime":0,"channel":1,"type":"noteOn","noteNumber":55,"velocity":83},{"deltaTime":226,"channel":0,"type":"noteOff","noteNumber":85,"velocity":0},{"deltaTime":12,"channel":1,"type":"noteOff","noteNumber":55,"velocity":0},{"deltaTime":2,"channel":0,"type":"noteOn","noteNumber":84,"velocity":105},{"deltaTime":0,"channel":0,"type":"noteOn","noteNumber":66,"velocity":112},{"deltaTime":0,"channel":0,"type":"noteOn","noteNumber":75,"velocity":105},{"deltaTime":0,"channel":0,"type":"noteOn","noteNumber":78,"velocity":112},{"deltaTime":0,"channel":1,"type":"noteOn","noteNumber":60,"velocity":125},{"deltaTime":0,"channel":1,"type":"noteOn","noteNumber":44,"velocity":104},{"deltaTime":454,"channel":0,"type":"noteOff","noteNumber":84,"velocity":0},{"deltaTime":0,"channel":1,"type":"noteOff","noteNumber":60,"velocity":0},{"deltaTime":0,"channel":1,"type":"noteOff","noteNumber":44,"velocity":0},{"deltaTime":26,"channel":0,"type":"noteOn","noteNumber":85,"velocity":59},{"deltaTime":0,"channel":1,"type":"noteOn","noteNumber":48,"velocity":57},{"deltaTime":4,"channel":0,"type":"controller","controllerType":64,"value":127},{"deltaTime":234,"channel":0,"type":"noteOff","noteNumber":85,"velocity":0},{"deltaTime":0,"channel":1,"type":"noteOff","noteNumber":48,"velocity":0},{"deltaTime":2,"channel":0,"type":"noteOn","noteNumber":84,"velocity":55},{"deltaTime":190,"channel":0,"type":"noteOff","noteNumber":66,"velocity":0},{"deltaTime":0,"channel":0,"type":"noteOff","noteNumber":75,"velocity":0},{"deltaTime":0,"channel":0,"type":"noteOff","noteNumber":78,"velocity":0},{"deltaTime":48,"channel":0,"type":"noteOff","noteNumber":84,"velocity":0},{"deltaTime":2,"channel":0,"type":"noteOn","noteNumber":85,"velocity":77},{"deltaTime":0,"channel":0,"type":"noteOn","noteNumber":72,"velocity":82},{"deltaTime":0,"channel":1,"type":"noteOn","noteNumber":54,"velocity":69},{"deltaTime":0,"channel":1,"type":"noteOn","noteNumber":60,"velocity":69},{"deltaTime":238,"channel":0,"type":"noteOff","noteNumber":85,"velocity":0},{"deltaTime":0,"channel":1,"type":"noteOff","noteNumber":54,"velocity":0},{"deltaTime":0,"channel":1,"type":"noteOff","noteNumber":60,"velocity":0},{"deltaTime":2,"channel":0,"type":"noteOn","noteNumber":84,"velocity":67},{"deltaTime":238,"channel":0,"type":"noteOff","noteNumber":84,"velocity":0},{"deltaTime":0,"channel":0,"type":"noteOff","noteNumber":72,"velocity":0},{"deltaTime":2,"channel":0,"type":"noteOn","noteNumber":85,"velocity":89},{"deltaTime":0,"channel":0,"type":"noteOn","noteNumber":73,"velocity":72},{"deltaTime":0,"channel":1,"type":"noteOn","noteNumber":44,"velocity":93},{"deltaTime":238,"channel":0,"type":"noteOff","noteNumber":85,"velocity":0},{"deltaTime":0,"channel":1,"type":"noteOff","noteNumber":44,"velocity":0},{"deltaTime":2,"channel":0,"type":"noteOn","noteNumber":84,"velocity":83},{"deltaTime":226,"channel":0,"type":"noteOff","noteNumber":84,"velocity":0},{"deltaTime":12,"channel":0,"type":"noteOff","noteNumber":73,"velocity":0},{"deltaTime":2,"channel":0,"type":"noteOn","noteNumber":75,"velocity":84},{"deltaTime":0,"channel":1,"type":"noteOn","noteNumber":54,"velocity":69},{"deltaTime":0,"channel":1,"type":"noteOn","noteNumber":60,"velocity":80},{"deltaTime":238,"channel":1,"type":"noteOff","noteNumber":54,"velocity":0},{"deltaTime":0,"channel":1,"type":"noteOff","noteNumber":60,"velocity":0},{"deltaTime":216,"channel":0,"type":"noteOff","noteNumber":75,"velocity":0},{"deltaTime":26,"channel":0,"type":"noteOn","noteNumber":76,"velocity":98},{"deltaTime":0,"channel":0,"type":"noteOn","noteNumber":64,"velocity":98},{"deltaTime":0,"channel":1,"type":"noteOn","noteNumber":45,"velocity":98},{"deltaTime":2,"channel":0,"type":"controller","controllerType":64,"value":0},{"deltaTime":2,"channel":0,"type":"controller","controllerType":64,"value":127},{"deltaTime":0,"channel":1,"type":"controller","controllerType":64,"value":127},{"deltaTime":474,"channel":0,"type":"noteOff","noteNumber":76,"velocity":0},{"deltaTime":0,"channel":0,"type":"noteOff","noteNumber":64,"velocity":0},{"deltaTime":0,"channel":1,"type":"noteOff","noteNumber":45,"velocity":0},{"deltaTime":2,"channel":0,"type":"noteOn","noteNumber":73,"velocity":97},{"deltaTime":0,"channel":0,"type":"noteOn","noteNumber":61,"velocity":77},{"deltaTime":0,"channel":1,"type":"noteOn","noteNumber":59,"velocity":77},{"deltaTime":454,"channel":0,"type":"noteOff","noteNumber":73,"velocity":0},{"deltaTime":0,"channel":0,"type":"noteOff","noteNumber":61,"velocity":0},{"deltaTime":0,"channel":1,"type":"noteOff","noteNumber":59,"velocity":0},{"deltaTime":26,"channel":0,"type":"noteOn","noteNumber":81,"velocity":84},{"deltaTime":0,"channel":0,"type":"noteOn","noteNumber":69,"velocity":87},{"deltaTime":0,"channel":1,"type":"noteOn","noteNumber":40,"velocity":97},{"deltaTime":2,"channel":0,"type":"controller","controllerType":64,"value":0},{"deltaTime":0,"channel":1,"type":"controller","controllerType":64,"value":0},{"deltaTime":476,"channel":0,"type":"noteOff","noteNumber":81,"velocity":0},{"deltaTime":0,"channel":0,"type":"noteOff","noteNumber":69,"velocity":0},{"deltaTime":0,"channel":1,"type":"noteOff","noteNumber":40,"velocity":0},{"deltaTime":2,"channel":0,"type":"noteOn","noteNumber":93,"velocity":85},{"deltaTime":0,"channel":1,"type":"noteOn","noteNumber":57,"velocity":74},{"deltaTime":118,"channel":1,"type":"noteOff","noteNumber":57,"velocity":0},{"deltaTime":122,"channel":1,"type":"noteOn","noteNumber":56,"velocity":74},{"deltaTime":0,"channel":1,"type":"noteOn","noteNumber":60,"velocity":74},{"deltaTime":0,"channel":1,"type":"noteOn","noteNumber":63,"velocity":74},{"deltaTime":118,"channel":1,"type":"noteOff","noteNumber":56,"velocity":0},{"deltaTime":0,"channel":1,"type":"noteOff","noteNumber":60,"velocity":0},{"deltaTime":0,"channel":1,"type":"noteOff","noteNumber":63,"velocity":0},{"deltaTime":96,"channel":0,"type":"noteOff","noteNumber":93,"velocity":0},{"deltaTime":26,"channel":0,"type":"noteOn","noteNumber":80,"velocity":108},{"deltaTime":0,"channel":0,"type":"noteOn","noteNumber":68,"velocity":108},{"deltaTime":0,"channel":1,"type":"noteOn","noteNumber":44,"velocity":74},{"deltaTime":4,"channel":0,"type":"controller","controllerType":64,"value":127},{"deltaTime":0,"channel":1,"type":"controller","controllerType":64,"value":127},{"deltaTime":474,"channel":0,"type":"noteOff","noteNumber":80,"velocity":0},{"deltaTime":0,"channel":0,"type":"noteOff","noteNumber":68,"velocity":0},{"deltaTime":0,"channel":1,"type":"noteOff","noteNumber":44,"velocity":0},{"deltaTime":2,"channel":0,"type":"noteOn","noteNumber":84,"velocity":73},{"deltaTime":0,"channel":0,"type":"noteOn","noteNumber":72,"velocity":79},{"deltaTime":0,"channel":1,"type":"noteOn","noteNumber":54,"velocity":79},{"deltaTime":0,"channel":1,"type":"noteOn","noteNumber":60,"velocity":79},{"deltaTime":0,"channel":1,"type":"noteOn","noteNumber":63,"velocity":79},{"deltaTime":454,"channel":1,"type":"noteOff","noteNumber":54,"velocity":0},{"deltaTime":0,"channel":1,"type":"noteOff","noteNumber":60,"velocity":0},{"deltaTime":0,"channel":1,"type":"noteOff","noteNumber":63,"velocity":0},{"deltaTime":24,"channel":0,"type":"noteOff","noteNumber":84,"velocity":0},{"deltaTime":0,"channel":0,"type":"noteOff","noteNumber":72,"velocity":0},{"deltaTime":2,"channel":0,"type":"noteOn","noteNumber":87,"velocity":105},{"deltaTime":0,"channel":0,"type":"noteOn","noteNumber":75,"velocity":107},{"deltaTime":0,"channel":1,"type":"noteOn","noteNumber":48,"velocity":64},{"deltaTime":2,"channel":0,"type":"controller","controllerType":64,"value":0},{"deltaTime":0,"channel":1,"type":"controller","controllerType":64,"value":0},{"deltaTime":452,"channel":0,"type":"noteOff","noteNumber":87,"velocity":0},{"deltaTime":0,"channel":0,"type":"noteOff","noteNumber":75,"velocity":0},{"deltaTime":24,"channel":1,"type":"noteOff","noteNumber":48,"velocity":0},{"deltaTime":2,"channel":0,"type":"noteOn","noteNumber":84,"velocity":86},{"deltaTime":0,"channel":1,"type":"noteOn","noteNumber":51,"velocity":68},{"deltaTime":0,"channel":1,"type":"noteOn","noteNumber":56,"velocity":89},{"deltaTime":238,"channel":0,"type":"noteOff","noteNumber":84,"velocity":0},{"deltaTime":0,"channel":1,"type":"noteOff","noteNumber":51,"velocity":0},{"deltaTime":0,"channel":1,"type":"noteOff","noteNumber":56,"velocity":0},{"deltaTime":2,"channel":0,"type":"noteOn","noteNumber":80,"velocity":92},{"deltaTime":238,"channel":0,"type":"noteOff","noteNumber":80,"velocity":0},{"deltaTime":2,"channel":0,"type":"noteOn","noteNumber":76,"velocity":87},{"deltaTime":0,"channel":1,"type":"noteOn","noteNumber":49,"velocity":98},{"deltaTime":454,"channel":0,"type":"noteOff","noteNumber":76,"velocity":0},{"deltaTime":24,"channel":1,"type":"noteOff","noteNumber":49,"velocity":0},{"deltaTime":2,"channel":0,"type":"noteOn","noteNumber":78,"velocity":80},{"deltaTime":0,"channel":1,"type":"noteOn","noteNumber":63,"velocity":51},{"deltaTime":0,"channel":1,"type":"noteOn","noteNumber":64,"velocity":51},{"deltaTime":0,"channel":1,"type":"noteOn","noteNumber":68,"velocity":51},{"deltaTime":158,"channel":0,"type":"noteOff","noteNumber":78,"velocity":0},{"deltaTime":2,"channel":0,"type":"noteOn","noteNumber":76,"velocity":80},{"deltaTime":158,"channel":0,"type":"noteOff","noteNumber":76,"velocity":0},{"deltaTime":2,"channel":0,"type":"noteOn","noteNumber":75,"velocity":80},{"deltaTime":150,"channel":0,"type":"noteOff","noteNumber":75,"velocity":0},{"deltaTime":8,"channel":1,"type":"noteOff","noteNumber":63,"velocity":0},{"deltaTime":0,"channel":1,"type":"noteOff","noteNumber":64,"velocity":0},{"deltaTime":0,"channel":1,"type":"noteOff","noteNumber":68,"velocity":0},{"deltaTime":2,"channel":0,"type":"noteOn","noteNumber":76,"velocity":97},{"deltaTime":0,"channel":1,"type":"noteOn","noteNumber":44,"velocity":96},{"deltaTime":478,"channel":0,"type":"noteOff","noteNumber":76,"velocity":0},{"deltaTime":0,"channel":1,"type":"noteOff","noteNumber":44,"velocity":0},{"deltaTime":2,"channel":0,"type":"noteOn","noteNumber":78,"velocity":84},{"deltaTime":0,"channel":1,"type":"noteOn","noteNumber":61,"velocity":40},{"deltaTime":0,"channel":1,"type":"noteOn","noteNumber":68,"velocity":40},{"deltaTime":118,"channel":1,"type":"noteOff","noteNumber":61,"velocity":0},{"deltaTime":0,"channel":1,"type":"noteOff","noteNumber":68,"velocity":0},{"deltaTime":120,"channel":0,"type":"noteOff","noteNumber":78,"velocity":0},{"deltaTime":2,"channel":1,"type":"noteOn","noteNumber":63,"velocity":62},{"deltaTime":0,"channel":1,"type":"noteOn","noteNumber":64,"velocity":62},{"deltaTime":0,"channel":1,"type":"noteOn","noteNumber":68,"velocity":62},{"deltaTime":118,"channel":1,"type":"noteOff","noteNumber":63,"velocity":0},{"deltaTime":0,"channel":1,"type":"noteOff","noteNumber":64,"velocity":0},{"deltaTime":0,"channel":1,"type":"noteOff","noteNumber":68,"velocity":0},{"deltaTime":122,"channel":0,"type":"noteOn","noteNumber":80,"velocity":70},{"deltaTime":0,"channel":1,"type":"noteOn","noteNumber":50,"velocity":85},{"deltaTime":238,"channel":0,"type":"noteOff","noteNumber":80,"velocity":0},{"deltaTime":0,"channel":1,"type":"noteOff","noteNumber":50,"velocity":0},{"deltaTime":242,"channel":0,"type":"noteOn","noteNumber":81,"velocity":100},{"deltaTime":0,"channel":1,"type":"noteOn","noteNumber":61,"velocity":86},{"deltaTime":0,"channel":1,"type":"noteOn","noteNumber":66,"velocity":94},{"deltaTime":0,"channel":1,"type":"noteOn","noteNumber":69,"velocity":94},{"deltaTime":238,"channel":0,"type":"noteOff","noteNumber":81,"velocity":0},{"deltaTime":0,"channel":1,"type":"noteOff","noteNumber":61,"velocity":0},{"deltaTime":0,"channel":1,"type":"noteOff","noteNumber":66,"velocity":0},{"deltaTime":0,"channel":1,"type":"noteOff","noteNumber":69,"velocity":0},{"deltaTime":242,"channel":0,"type":"noteOn","noteNumber":83,"velocity":102},{"deltaTime":0,"channel":1,"type":"noteOn","noteNumber":61,"velocity":96},{"deltaTime":0,"channel":1,"type":"noteOn","noteNumber":66,"velocity":106},{"deltaTime":0,"channel":1,"type":"noteOn","noteNumber":71,"velocity":96},{"deltaTime":0,"channel":1,"type":"noteOn","noteNumber":52,"velocity":101},{"deltaTime":238,"channel":0,"type":"noteOff","noteNumber":83,"velocity":0},{"deltaTime":240,"channel":1,"type":"noteOff","noteNumber":61,"velocity":0},{"deltaTime":0,"channel":1,"type":"noteOff","noteNumber":66,"velocity":0},{"deltaTime":0,"channel":1,"type":"noteOff","noteNumber":71,"velocity":0},{"deltaTime":0,"channel":1,"type":"noteOff","noteNumber":52,"velocity":0},{"deltaTime":2,"channel":0,"type":"noteOn","noteNumber":85,"velocity":110},{"deltaTime":0,"channel":1,"type":"noteOn","noteNumber":69,"velocity":101},{"deltaTime":0,"channel":1,"type":"noteOn","noteNumber":73,"velocity":106},{"deltaTime":0,"channel":1,"type":"noteOn","noteNumber":76,"velocity":79},{"deltaTime":0,"channel":1,"type":"noteOn","noteNumber":54,"velocity":101},{"deltaTime":238,"channel":0,"type":"noteOff","noteNumber":85,"velocity":0},{"deltaTime":0,"channel":1,"type":"noteOff","noteNumber":69,"velocity":0},{"deltaTime":0,"channel":1,"type":"noteOff","noteNumber":73,"velocity":0},{"deltaTime":0,"channel":1,"type":"noteOff","noteNumber":76,"velocity":0},{"deltaTime":0,"channel":1,"type":"noteOff","noteNumber":54,"velocity":0},{"deltaTime":242,"channel":0,"type":"noteOn","noteNumber":87,"velocity":80},{"deltaTime":0,"channel":0,"type":"noteOn","noteNumber":76,"velocity":99},{"deltaTime":0,"channel":1,"type":"noteOn","noteNumber":44,"velocity":92},{"deltaTime":0,"channel":1,"type":"noteOn","noteNumber":56,"velocity":92},{"deltaTime":166,"channel":0,"type":"noteOff","noteNumber":87,"velocity":0},{"deltaTime":2,"channel":0,"type":"noteOn","noteNumber":88,"velocity":99},{"deltaTime":312,"channel":1,"type":"noteOn","noteNumber":64,"velocity":69},{"deltaTime":0,"channel":1,"type":"noteOn","noteNumber":68,"velocity":69},{"deltaTime":0,"channel":1,"type":"noteOn","noteNumber":73,"velocity":69},{"deltaTime":430,"channel":0,"type":"noteOff","noteNumber":76,"velocity":0},{"deltaTime":6,"channel":0,"type":"noteOff","noteNumber":88,"velocity":0},{"deltaTime":42,"channel":1,"type":"noteOff","noteNumber":64,"velocity":0},{"deltaTime":0,"channel":1,"type":"noteOff","noteNumber":68,"velocity":0},{"deltaTime":0,"channel":1,"type":"noteOff","noteNumber":73,"velocity":0},{"deltaTime":0,"channel":1,"type":"noteOff","noteNumber":44,"velocity":0},{"deltaTime":0,"channel":1,"type":"noteOff","noteNumber":56,"velocity":0},{"deltaTime":2,"channel":0,"type":"noteOn","noteNumber":87,"velocity":80},{"deltaTime":0,"channel":0,"type":"noteOn","noteNumber":76,"velocity":106},{"deltaTime":0,"channel":1,"type":"noteOn","noteNumber":49,"velocity":69},{"deltaTime":166,"channel":0,"type":"noteOff","noteNumber":87,"velocity":0},{"deltaTime":2,"channel":0,"type":"noteOn","noteNumber":88,"velocity":106},{"deltaTime":70,"channel":1,"type":"noteOff","noteNumber":49,"velocity":0},{"deltaTime":216,"channel":0,"type":"noteOff","noteNumber":76,"velocity":0},{"deltaTime":22,"channel":0,"type":"noteOff","noteNumber":88,"velocity":0},{"deltaTime":4,"channel":0,"type":"noteOn","noteNumber":92,"velocity":118},{"deltaTime":0,"channel":1,"type":"noteOn","noteNumber":63,"velocity":78},{"deltaTime":0,"channel":1,"type":"noteOn","noteNumber":68,"velocity":78},{"deltaTime":118,"channel":1,"type":"noteOff","noteNumber":63,"velocity":0},{"deltaTime":0,"channel":1,"type":"noteOff","noteNumber":68,"velocity":0},{"deltaTime":122,"channel":1,"type":"noteOn","noteNumber":61,"velocity":93},{"deltaTime":0,"channel":1,"type":"noteOn","noteNumber":68,"velocity":93},{"deltaTime":118,"channel":1,"type":"noteOff","noteNumber":61,"velocity":0},{"deltaTime":0,"channel":1,"type":"noteOff","noteNumber":68,"velocity":0},{"deltaTime":120,"channel":0,"type":"noteOff","noteNumber":92,"velocity":0},{"deltaTime":2,"channel":0,"type":"noteOn","noteNumber":90,"velocity":87},{"deltaTime":0,"channel":0,"type":"noteOn","noteNumber":78,"velocity":104},{"deltaTime":0,"channel":1,"type":"noteOn","noteNumber":39,"velocity":87},{"deltaTime":0,"channel":1,"type":"noteOn","noteNumber":51,"velocity":87},{"deltaTime":478,"channel":0,"type":"noteOff","noteNumber":90,"velocity":0},{"deltaTime":0,"channel":0,"type":"noteOff","noteNumber":78,"velocity":0},{"deltaTime":0,"channel":1,"type":"noteOff","noteNumber":39,"velocity":0},{"deltaTime":0,"channel":1,"type":"noteOff","noteNumber":51,"velocity":0},{"deltaTime":2,"channel":0,"type":"noteOn","noteNumber":88,"velocity":101},{"deltaTime":0,"channel":0,"type":"noteOn","noteNumber":76,"velocity":105},{"deltaTime":0,"channel":1,"type":"noteOn","noteNumber":63,"velocity":66},{"deltaTime":0,"channel":1,"type":"noteOn","noteNumber":68,"velocity":66},{"deltaTime":0,"channel":1,"type":"noteOn","noteNumber":72,"velocity":66},{"deltaTime":478,"channel":0,"type":"noteOff","noteNumber":88,"velocity":0},{"deltaTime":0,"channel":0,"type":"noteOff","noteNumber":76,"velocity":0},{"deltaTime":2,"channel":0,"type":"noteOn","noteNumber":87,"velocity":116},{"deltaTime":0,"channel":0,"type":"noteOn","noteNumber":75,"velocity":101},{"deltaTime":0,"channel":1,"type":"noteOn","noteNumber":44,"velocity":86},{"deltaTime":454,"channel":0,"type":"noteOff","noteNumber":87,"velocity":0},{"deltaTime":24,"channel":0,"type":"noteOff","noteNumber":75,"velocity":0},{"deltaTime":0,"channel":1,"type":"noteOff","noteNumber":63,"velocity":0},{"deltaTime":0,"channel":1,"type":"noteOff","noteNumber":68,"velocity":0},{"deltaTime":0,"channel":1,"type":"noteOff","noteNumber":72,"velocity":0},{"deltaTime":0,"channel":1,"type":"noteOff","noteNumber":44,"velocity":0},{"deltaTime":2,"channel":0,"type":"noteOn","noteNumber":78,"velocity":84},{"deltaTime":0,"channel":0,"type":"noteOn","noteNumber":72,"velocity":81},{"deltaTime":0,"channel":1,"type":"noteOn","noteNumber":57,"velocity":66},{"deltaTime":0,"channel":1,"type":"noteOn","noteNumber":63,"velocity":66},{"deltaTime":238,"channel":0,"type":"noteOff","noteNumber":78,"velocity":0},{"deltaTime":0,"channel":1,"type":"noteOff","noteNumber":57,"velocity":0},{"deltaTime":0,"channel":1,"type":"noteOff","noteNumber":63,"velocity":0},{"deltaTime":2,"channel":0,"type":"noteOn","noteNumber":85,"velocity":80},{"deltaTime":214,"channel":0,"type":"noteOff","noteNumber":72,"velocity":0},{"deltaTime":24,"channel":0,"type":"noteOff","noteNumber":85,"velocity":0},{"deltaTime":2,"channel":0,"type":"noteOn","noteNumber":86,"velocity":80},{"deltaTime":0,"channel":1,"type":"noteOn","noteNumber":56,"velocity":94},{"deltaTime":166,"channel":0,"type":"noteOff","noteNumber":86,"velocity":0},{"deltaTime":2,"channel":0,"type":"noteOn","noteNumber":87,"velocity":99},{"deltaTime":292,"channel":0,"type":"noteOff","noteNumber":87,"velocity":0},{"deltaTime":18,"channel":1,"type":"noteOff","noteNumber":56,"velocity":0},{"deltaTime":2,"channel":0,"type":"noteOn","noteNumber":80,"velocity":72},{"deltaTime":0,"channel":1,"type":"noteOn","noteNumber":63,"velocity":69},{"deltaTime":0,"channel":1,"type":"noteOn","noteNumber":68,"velocity":69},{"deltaTime":0,"channel":1,"type":"noteOn","noteNumber":72,"velocity":69},{"deltaTime":226,"channel":0,"type":"noteOff","noteNumber":80,"velocity":0},{"deltaTime":14,"channel":0,"type":"noteOn","noteNumber":92,"velocity":72},{"deltaTime":226,"channel":0,"type":"noteOff","noteNumber":92,"velocity":0},{"deltaTime":14,"channel":0,"type":"noteOn","noteNumber":80,"velocity":72},{"deltaTime":0,"channel":1,"type":"noteOn","noteNumber":48,"velocity":69},{"deltaTime":226,"channel":0,"type":"noteOff","noteNumber":80,"velocity":0},{"deltaTime":14,"channel":0,"type":"noteOn","noteNumber":92,"velocity":72},{"deltaTime":226,"channel":0,"type":"noteOff","noteNumber":92,"velocity":0},{"deltaTime":12,"channel":1,"type":"noteOff","noteNumber":63,"velocity":0},{"deltaTime":0,"channel":1,"type":"noteOff","noteNumber":68,"velocity":0},{"deltaTime":0,"channel":1,"type":"noteOff","noteNumber":72,"velocity":0},{"deltaTime":0,"channel":1,"type":"noteOff","noteNumber":48,"velocity":0},{"deltaTime":2,"channel":0,"type":"noteOn","noteNumber":87,"velocity":120},{"deltaTime":0,"channel":0,"type":"noteOn","noteNumber":92,"velocity":113},{"deltaTime":0,"channel":0,"type":"noteOn","noteNumber":75,"velocity":80},{"deltaTime":0,"channel":1,"type":"noteOn","noteNumber":63,"velocity":90},{"deltaTime":0,"channel":1,"type":"noteOn","noteNumber":68,"velocity":90},{"deltaTime":118,"channel":1,"type":"noteOff","noteNumber":63,"velocity":0},{"deltaTime":0,"channel":1,"type":"noteOff","noteNumber":68,"velocity":0},{"deltaTime":122,"channel":1,"type":"noteOn","noteNumber":60,"velocity":92},{"deltaTime":0,"channel":1,"type":"noteOn","noteNumber":68,"velocity":92},{"deltaTime":118,"channel":1,"type":"noteOff","noteNumber":60,"velocity":0},{"deltaTime":0,"channel":1,"type":"noteOff","noteNumber":68,"velocity":0},{"deltaTime":120,"channel":0,"type":"noteOff","noteNumber":87,"velocity":0},{"deltaTime":0,"channel":0,"type":"noteOff","noteNumber":92,"velocity":0},{"deltaTime":0,"channel":0,"type":"noteOff","noteNumber":75,"velocity":0},{"deltaTime":2,"channel":0,"type":"noteOn","noteNumber":85,"velocity":90},{"deltaTime":0,"channel":0,"type":"noteOn","noteNumber":73,"velocity":90},{"deltaTime":0,"channel":1,"type":"noteOn","noteNumber":51,"velocity":87},{"deltaTime":238,"channel":0,"type":"noteOff","noteNumber":85,"velocity":0},{"deltaTime":0,"channel":0,"type":"noteOff","noteNumber":73,"velocity":0},{"deltaTime":240,"channel":1,"type":"noteOff","noteNumber":51,"velocity":0},{"deltaTime":2,"channel":0,"type":"noteOn","noteNumber":85,"velocity":80},{"deltaTime":0,"channel":1,"type":"noteOn","noteNumber":60,"velocity":79},{"deltaTime":0,"channel":1,"type":"noteOn","noteNumber":63,"velocity":79},{"deltaTime":0,"channel":1,"type":"noteOn","noteNumber":68,"velocity":79},{"deltaTime":238,"channel":0,"type":"noteOff","noteNumber":85,"velocity":0},{"deltaTime":0,"channel":1,"type":"noteOff","noteNumber":60,"velocity":0},{"deltaTime":0,"channel":1,"type":"noteOff","noteNumber":63,"velocity":0},{"deltaTime":0,"channel":1,"type":"noteOff","noteNumber":68,"velocity":0},{"deltaTime":2,"channel":0,"type":"noteOn","noteNumber":87,"velocity":84},{"deltaTime":238,"channel":0,"type":"noteOff","noteNumber":87,"velocity":0},{"deltaTime":2,"channel":0,"type":"noteOn","noteNumber":84,"velocity":102},{"deltaTime":0,"channel":0,"type":"noteOn","noteNumber":66,"velocity":112},{"deltaTime":0,"channel":0,"type":"noteOn","noteNumber":76,"velocity":112},{"deltaTime":0,"channel":1,"type":"noteOn","noteNumber":51,"velocity":112},{"deltaTime":0,"channel":1,"type":"noteOn","noteNumber":60,"velocity":102},{"deltaTime":0,"channel":1,"type":"noteOn","noteNumber":32,"velocity":114},{"deltaTime":238,"channel":0,"type":"noteOff","noteNumber":84,"velocity":0},{"deltaTime":0,"channel":0,"type":"noteOff","noteNumber":66,"velocity":0},{"deltaTime":0,"channel":0,"type":"noteOff","noteNumber":76,"velocity":0},{"deltaTime":2,"channel":0,"type":"noteOn","noteNumber":80,"velocity":84},{"deltaTime":238,"channel":0,"type":"noteOff","noteNumber":80,"velocity":0},{"deltaTime":2,"channel":0,"type":"noteOn","noteNumber":78,"velocity":99},{"deltaTime":0,"channel":0,"type":"noteOn","noteNumber":63,"velocity":77},{"deltaTime":0,"channel":0,"type":"noteOn","noteNumber":68,"velocity":77},{"deltaTime":226,"channel":0,"type":"noteOff","noteNumber":63,"velocity":0},{"deltaTime":0,"channel":0,"type":"noteOff","noteNumber":68,"velocity":0},{"deltaTime":14,"channel":0,"type":"noteOn","noteNumber":72,"velocity":90},{"deltaTime":226,"channel":0,"type":"noteOff","noteNumber":72,"velocity":0},{"deltaTime":12,"channel":0,"type":"noteOff","noteNumber":78,"velocity":0},{"deltaTime":0,"channel":1,"type":"noteOff","noteNumber":51,"velocity":0},{"deltaTime":0,"channel":1,"type":"noteOff","noteNumber":60,"velocity":0},{"deltaTime":0,"channel":1,"type":"noteOff","noteNumber":32,"velocity":0},{"deltaTime":2,"channel":0,"type":"noteOn","noteNumber":85,"velocity":45},{"deltaTime":0,"channel":0,"type":"noteOn","noteNumber":68,"velocity":85},{"deltaTime":0,"channel":0,"type":"noteOn","noteNumber":76,"velocity":61},{"deltaTime":0,"channel":1,"type":"noteOn","noteNumber":61,"velocity":49},{"deltaTime":0,"channel":1,"type":"noteOn","noteNumber":49,"velocity":61},{"deltaTime":238,"channel":0,"type":"noteOff","noteNumber":85,"velocity":0},{"deltaTime":2,"channel":0,"type":"noteOn","noteNumber":84,"velocity":53},{"deltaTime":214,"channel":0,"type":"noteOff","noteNumber":68,"velocity":0},{"deltaTime":0,"channel":0,"type":"noteOff","noteNumber":76,"velocity":0},{"deltaTime":24,"channel":0,"type":"noteOff","noteNumber":84,"velocity":0},{"deltaTime":2,"channel":0,"type":"noteOn","noteNumber":85,"velocity":72},{"deltaTime":238,"channel":0,"type":"noteOff","noteNumber":85,"velocity":0},{"deltaTime":2,"channel":0,"type":"noteOn","noteNumber":87,"velocity":78},{"deltaTime":190,"channel":1,"type":"noteOff","noteNumber":61,"velocity":0},{"deltaTime":0,"channel":1,"type":"noteOff","noteNumber":49,"velocity":0},{"deltaTime":48,"channel":0,"type":"noteOff","noteNumber":87,"velocity":0},{"deltaTime":2,"channel":0,"type":"noteOn","noteNumber":88,"velocity":91},{"deltaTime":0,"channel":1,"type":"noteOn","noteNumber":71,"velocity":23},{"deltaTime":238,"channel":0,"type":"noteOff","noteNumber":88,"velocity":0},{"deltaTime":0,"channel":1,"type":"noteOff","noteNumber":71,"velocity":0},{"deltaTime":2,"channel":0,"type":"noteOn","noteNumber":87,"velocity":88},{"deltaTime":0,"channel":1,"type":"noteOn","noteNumber":68,"velocity":46},{"deltaTime":238,"channel":0,"type":"noteOff","noteNumber":87,"velocity":0},{"deltaTime":0,"channel":1,"type":"noteOff","noteNumber":68,"velocity":0},{"deltaTime":2,"channel":0,"type":"noteOn","noteNumber":88,"velocity":102},{"deltaTime":0,"channel":1,"type":"noteOn","noteNumber":69,"velocity":69},{"deltaTime":238,"channel":0,"type":"noteOff","noteNumber":88,"velocity":0},{"deltaTime":0,"channel":1,"type":"noteOff","noteNumber":69,"velocity":0},{"deltaTime":2,"channel":0,"type":"noteOn","noteNumber":90,"velocity":107},{"deltaTime":0,"channel":1,"type":"noteOn","noteNumber":66,"velocity":79},{"deltaTime":238,"channel":0,"type":"noteOff","noteNumber":90,"velocity":0},{"deltaTime":0,"channel":1,"type":"noteOff","noteNumber":66,"velocity":0},{"deltaTime":2,"channel":0,"type":"noteOn","noteNumber":92,"velocity":83},{"deltaTime":0,"channel":0,"type":"noteOn","noteNumber":80,"velocity":104},{"deltaTime":0,"channel":1,"type":"noteOn","noteNumber":61,"velocity":101},{"deltaTime":0,"channel":1,"type":"noteOn","noteNumber":68,"velocity":101},{"deltaTime":238,"channel":0,"type":"noteOff","noteNumber":92,"velocity":0},{"deltaTime":2,"channel":0,"type":"noteOn","noteNumber":88,"velocity":105},{"deltaTime":214,"channel":0,"type":"noteOff","noteNumber":80,"velocity":0},{"deltaTime":24,"channel":0,"type":"noteOff","noteNumber":88,"velocity":0},{"deltaTime":0,"channel":1,"type":"noteOff","noteNumber":61,"velocity":0},{"deltaTime":0,"channel":1,"type":"noteOff","noteNumber":68,"velocity":0},{"deltaTime":2,"channel":0,"type":"noteOn","noteNumber":85,"velocity":105},{"deltaTime":0,"channel":1,"type":"noteOn","noteNumber":64,"velocity":77},{"deltaTime":238,"channel":0,"type":"noteOff","noteNumber":85,"velocity":0},{"deltaTime":0,"channel":1,"type":"noteOff","noteNumber":64,"velocity":0},{"deltaTime":2,"channel":0,"type":"noteOn","noteNumber":80,"velocity":96},{"deltaTime":226,"channel":0,"type":"noteOff","noteNumber":80,"velocity":0},{"deltaTime":14,"channel":0,"type":"noteOn","noteNumber":93,"velocity":111},{"deltaTime":0,"channel":0,"type":"noteOn","noteNumber":81,"velocity":118},{"deltaTime":0,"channel":1,"type":"noteOn","noteNumber":60,"velocity":107},{"deltaTime":0,"channel":1,"type":"noteOn","noteNumber":69,"velocity":107},{"deltaTime":0,"channel":1,"type":"noteOn","noteNumber":51,"velocity":96},{"deltaTime":238,"channel":0,"type":"noteOff","noteNumber":93,"velocity":0},{"deltaTime":0,"channel":0,"type":"noteOff","noteNumber":81,"velocity":0},{"deltaTime":2,"channel":0,"type":"noteOn","noteNumber":91,"velocity":109},{"deltaTime":0,"channel":0,"type":"noteOn","noteNumber":79,"velocity":89},{"deltaTime":214,"channel":1,"type":"noteOff","noteNumber":60,"velocity":0},{"deltaTime":0,"channel":1,"type":"noteOff","noteNumber":69,"velocity":0},{"deltaTime":0,"channel":1,"type":"noteOff","noteNumber":51,"velocity":0},{"deltaTime":24,"channel":0,"type":"noteOff","noteNumber":91,"velocity":0},{"deltaTime":0,"channel":0,"type":"noteOff","noteNumber":79,"velocity":0},{"deltaTime":2,"channel":0,"type":"noteOn","noteNumber":87,"velocity":112},{"deltaTime":0,"channel":0,"type":"noteOn","noteNumber":75,"velocity":112},{"deltaTime":0,"channel":1,"type":"noteOn","noteNumber":67,"velocity":101},{"deltaTime":0,"channel":1,"type":"noteOn","noteNumber":55,"velocity":96},{"deltaTime":238,"channel":0,"type":"noteOff","noteNumber":87,"velocity":0},{"deltaTime":0,"channel":0,"type":"noteOff","noteNumber":75,"velocity":0},{"deltaTime":2,"channel":0,"type":"noteOn","noteNumber":81,"velocity":98},{"deltaTime":0,"channel":0,"type":"noteOn","noteNumber":69,"velocity":98},{"deltaTime":214,"channel":1,"type":"noteOff","noteNumber":67,"velocity":0},{"deltaTime":0,"channel":1,"type":"noteOff","noteNumber":55,"velocity":0},{"deltaTime":24,"channel":0,"type":"noteOff","noteNumber":81,"velocity":0},{"deltaTime":0,"channel":0,"type":"noteOff","noteNumber":69,"velocity":0},{"deltaTime":2,"channel":0,"type":"noteOn","noteNumber":91,"velocity":125},{"deltaTime":0,"channel":0,"type":"noteOn","noteNumber":79,"velocity":93},{"deltaTime":0,"channel":1,"type":"noteOn","noteNumber":37,"velocity":103},{"deltaTime":0,"channel":1,"type":"noteOn","noteNumber":49,"velocity":103},{"deltaTime":454,"channel":0,"type":"noteOff","noteNumber":91,"velocity":0},{"deltaTime":0,"channel":0,"type":"noteOff","noteNumber":79,"velocity":0},{"deltaTime":24,"channel":1,"type":"noteOff","noteNumber":37,"velocity":0},{"deltaTime":0,"channel":1,"type":"noteOff","noteNumber":49,"velocity":0},{"deltaTime":2,"channel":0,"type":"noteOn","noteNumber":80,"velocity":108},{"deltaTime":0,"channel":1,"type":"noteOn","noteNumber":63,"velocity":64},{"deltaTime":0,"channel":1,"type":"noteOn","noteNumber":64,"velocity":64},{"deltaTime":0,"channel":1,"type":"noteOn","noteNumber":68,"velocity":108},{"deltaTime":454,"channel":0,"type":"noteOff","noteNumber":80,"velocity":0},{"deltaTime":0,"channel":1,"type":"noteOff","noteNumber":63,"velocity":0},{"deltaTime":0,"channel":1,"type":"noteOff","noteNumber":64,"velocity":0},{"deltaTime":0,"channel":1,"type":"noteOff","noteNumber":68,"velocity":0},{"deltaTime":26,"channel":0,"type":"noteOn","noteNumber":91,"velocity":96},{"deltaTime":0,"channel":1,"type":"noteOn","noteNumber":44,"velocity":107},{"deltaTime":166,"channel":0,"type":"noteOff","noteNumber":91,"velocity":0},{"deltaTime":2,"channel":0,"type":"noteOn","noteNumber":92,"velocity":101},{"deltaTime":70,"channel":1,"type":"noteOff","noteNumber":44,"velocity":0},{"deltaTime":222,"channel":0,"type":"noteOff","noteNumber":92,"velocity":0},{"deltaTime":20,"channel":0,"type":"noteOn","noteNumber":91,"velocity":96},{"deltaTime":0,"channel":0,"type":"noteOn","noteNumber":79,"velocity":96},{"deltaTime":0,"channel":1,"type":"noteOn","noteNumber":64,"velocity":49},{"deltaTime":0,"channel":1,"type":"noteOn","noteNumber":68,"velocity":49},{"deltaTime":118,"channel":1,"type":"noteOff","noteNumber":64,"velocity":0},{"deltaTime":0,"channel":1,"type":"noteOff","noteNumber":68,"velocity":0},{"deltaTime":48,"channel":0,"type":"noteOff","noteNumber":91,"velocity":0},{"deltaTime":0,"channel":0,"type":"noteOff","noteNumber":79,"velocity":0},{"deltaTime":2,"channel":0,"type":"noteOn","noteNumber":92,"velocity":116},{"deltaTime":0,"channel":0,"type":"noteOn","noteNumber":80,"velocity":119},{"deltaTime":72,"channel":1,"type":"noteOn","noteNumber":63,"velocity":59},{"deltaTime":0,"channel":1,"type":"noteOn","noteNumber":64,"velocity":59},{"deltaTime":0,"channel":1,"type":"noteOn","noteNumber":68,"velocity":59},{"deltaTime":118,"channel":1,"type":"noteOff","noteNumber":63,"velocity":0},{"deltaTime":0,"channel":1,"type":"noteOff","noteNumber":64,"velocity":0},{"deltaTime":0,"channel":1,"type":"noteOff","noteNumber":68,"velocity":0},{"deltaTime":102,"channel":0,"type":"noteOff","noteNumber":92,"velocity":0},{"deltaTime":0,"channel":0,"type":"noteOff","noteNumber":80,"velocity":0},{"deltaTime":20,"channel":1,"type":"noteOn","noteNumber":49,"velocity":84},{"deltaTime":238,"channel":1,"type":"noteOff","noteNumber":49,"velocity":0},{"deltaTime":2,"channel":0,"type":"noteOn","noteNumber":87,"velocity":97},{"deltaTime":238,"channel":0,"type":"noteOff","noteNumber":87,"velocity":0},{"deltaTime":2,"channel":0,"type":"noteOn","noteNumber":85,"velocity":83},{"deltaTime":0,"channel":1,"type":"noteOn","noteNumber":61,"velocity":79},{"deltaTime":0,"channel":1,"type":"noteOn","noteNumber":64,"velocity":79},{"deltaTime":0,"channel":1,"type":"noteOn","noteNumber":68,"velocity":79},{"deltaTime":0,"channel":1,"type":"noteOn","noteNumber":56,"velocity":69},{"deltaTime":238,"channel":0,"type":"noteOff","noteNumber":85,"velocity":0},{"deltaTime":0,"channel":1,"type":"noteOff","noteNumber":61,"velocity":0},{"deltaTime":0,"channel":1,"type":"noteOff","noteNumber":64,"velocity":0},{"deltaTime":0,"channel":1,"type":"noteOff","noteNumber":68,"velocity":0},{"deltaTime":0,"channel":1,"type":"noteOff","noteNumber":56,"velocity":0},{"deltaTime":2,"channel":0,"type":"noteOn","noteNumber":84,"velocity":73},{"deltaTime":226,"channel":0,"type":"noteOff","noteNumber":84,"velocity":0},{"deltaTime":14,"channel":0,"type":"noteOn","noteNumber":91,"velocity":96},{"deltaTime":0,"channel":0,"type":"noteOn","noteNumber":79,"velocity":96},{"deltaTime":0,"channel":1,"type":"noteOn","noteNumber":52,"velocity":74},{"deltaTime":166,"channel":0,"type":"noteOff","noteNumber":91,"velocity":0},{"deltaTime":0,"channel":0,"type":"noteOff","noteNumber":79,"velocity":0},{"deltaTime":2,"channel":0,"type":"noteOn","noteNumber":85,"velocity":113},{"deltaTime":0,"channel":0,"type":"noteOn","noteNumber":92,"velocity":108},{"deltaTime":0,"channel":0,"type":"noteOn","noteNumber":80,"velocity":87},{"deltaTime":292,"channel":0,"type":"noteOff","noteNumber":80,"velocity":0},{"deltaTime":18,"channel":1,"type":"noteOff","noteNumber":52,"velocity":0},{"deltaTime":2,"channel":0,"type":"noteOn","noteNumber":80,"velocity":99},{"deltaTime":0,"channel":1,"type":"noteOn","noteNumber":61,"velocity":94},{"deltaTime":0,"channel":1,"type":"noteOn","noteNumber":64,"velocity":94},{"deltaTime":0,"channel":1,"type":"noteOn","noteNumber":68,"velocity":94},{"deltaTime":0,"channel":1,"type":"noteOn","noteNumber":51,"velocity":74},{"deltaTime":238,"channel":1,"type":"noteOff","noteNumber":61,"velocity":0},{"deltaTime":0,"channel":1,"type":"noteOff","noteNumber":64,"velocity":0},{"deltaTime":0,"channel":1,"type":"noteOff","noteNumber":68,"velocity":0},{"deltaTime":198,"channel":0,"type":"noteOff","noteNumber":85,"velocity":0},{"deltaTime":0,"channel":0,"type":"noteOff","noteNumber":92,"velocity":0},{"deltaTime":18,"channel":0,"type":"noteOff","noteNumber":80,"velocity":0},{"deltaTime":24,"channel":1,"type":"noteOff","noteNumber":51,"velocity":0},{"deltaTime":2,"channel":0,"type":"noteOn","noteNumber":83,"velocity":96},{"deltaTime":0,"channel":1,"type":"noteOn","noteNumber":32,"velocity":94},{"deltaTime":0,"channel":1,"type":"noteOn","noteNumber":44,"velocity":94},{"deltaTime":226,"channel":0,"type":"noteOff","noteNumber":83,"velocity":0},{"deltaTime":14,"channel":0,"type":"noteOn","noteNumber":95,"velocity":81},{"deltaTime":226,"channel":0,"type":"noteOff","noteNumber":95,"velocity":0},{"deltaTime":12,"channel":1,"type":"noteOff","noteNumber":32,"velocity":0},{"deltaTime":0,"channel":1,"type":"noteOff","noteNumber":44,"velocity":0},{"deltaTime":2,"channel":0,"type":"noteOn","noteNumber":81,"velocity":96},{"deltaTime":0,"channel":1,"type":"noteOn","noteNumber":60,"velocity":69},{"deltaTime":0,"channel":1,"type":"noteOn","noteNumber":63,"velocity":69},{"deltaTime":0,"channel":1,"type":"noteOn","noteNumber":67,"velocity":93},{"deltaTime":118,"channel":1,"type":"noteOff","noteNumber":60,"velocity":0},{"deltaTime":0,"channel":1,"type":"noteOff","noteNumber":63,"velocity":0},{"deltaTime":0,"channel":1,"type":"noteOff","noteNumber":67,"velocity":0},{"deltaTime":108,"channel":0,"type":"noteOff","noteNumber":81,"velocity":0},{"deltaTime":14,"channel":0,"type":"noteOn","noteNumber":93,"velocity":105},{"deltaTime":0,"channel":1,"type":"noteOn","noteNumber":57,"velocity":84},{"deltaTime":0,"channel":1,"type":"noteOn","noteNumber":63,"velocity":84},{"deltaTime":0,"channel":1,"type":"noteOn","noteNumber":67,"velocity":93},{"deltaTime":118,"channel":1,"type":"noteOff","noteNumber":57,"velocity":0},{"deltaTime":0,"channel":1,"type":"noteOff","noteNumber":63,"velocity":0},{"deltaTime":0,"channel":1,"type":"noteOff","noteNumber":67,"velocity":0},{"deltaTime":108,"channel":0,"type":"noteOff","noteNumber":93,"velocity":0},{"deltaTime":14,"channel":0,"type":"noteOn","noteNumber":91,"velocity":108},{"deltaTime":0,"channel":0,"type":"noteOn","noteNumber":79,"velocity":108},{"deltaTime":0,"channel":1,"type":"noteOn","noteNumber":51,"velocity":90},{"deltaTime":238,"channel":0,"type":"noteOff","noteNumber":91,"velocity":0},{"deltaTime":0,"channel":0,"type":"noteOff","noteNumber":79,"velocity":0},{"deltaTime":0,"channel":1,"type":"noteOff","noteNumber":51,"velocity":0},{"deltaTime":242,"channel":0,"type":"noteOn","noteNumber":92,"velocity":119},{"deltaTime":0,"channel":0,"type":"noteOn","noteNumber":72,"velocity":96},{"deltaTime":0,"channel":0,"type":"noteOn","noteNumber":80,"velocity":119},{"deltaTime":0,"channel":1,"type":"noteOn","noteNumber":57,"velocity":113},{"deltaTime":0,"channel":1,"type":"noteOn","noteNumber":63,"velocity":106},{"deltaTime":0,"channel":1,"type":"noteOn","noteNumber":66,"velocity":106},{"deltaTime":238,"channel":0,"type":"noteOff","noteNumber":72,"velocity":0},{"deltaTime":0,"channel":0,"type":"noteOff","noteNumber":80,"velocity":0},{"deltaTime":2,"channel":0,"type":"noteOn","noteNumber":84,"velocity":49},{"deltaTime":214,"channel":0,"type":"noteOff","noteNumber":92,"velocity":0},{"deltaTime":0,"channel":1,"type":"noteOff","noteNumber":57,"velocity":0},{"deltaTime":0,"channel":1,"type":"noteOff","noteNumber":63,"velocity":0},{"deltaTime":0,"channel":1,"type":"noteOff","noteNumber":66,"velocity":0},{"deltaTime":24,"channel":0,"type":"noteOff","noteNumber":84,"velocity":0},{"deltaTime":2,"channel":0,"type":"noteOn","noteNumber":78,"velocity":96},{"deltaTime":0,"channel":1,"type":"noteOn","noteNumber":36,"velocity":90},{"deltaTime":0,"channel":1,"type":"noteOn","noteNumber":48,"velocity":90},{"deltaTime":240,"channel":0,"type":"noteOn","noteNumber":92,"velocity":91},{"deltaTime":238,"channel":0,"type":"noteOff","noteNumber":92,"velocity":0},{"deltaTime":0,"channel":1,"type":"noteOff","noteNumber":36,"velocity":0},{"deltaTime":0,"channel":1,"type":"noteOff","noteNumber":48,"velocity":0},{"deltaTime":2,"channel":0,"type":"noteOn","noteNumber":90,"velocity":78},{"deltaTime":0,"channel":1,"type":"noteOn","noteNumber":60,"velocity":74},{"deltaTime":0,"channel":1,"type":"noteOn","noteNumber":66,"velocity":74},{"deltaTime":238,"channel":0,"type":"noteOff","noteNumber":90,"velocity":0},{"deltaTime":0,"channel":1,"type":"noteOff","noteNumber":60,"velocity":0},{"deltaTime":0,"channel":1,"type":"noteOff","noteNumber":66,"velocity":0},{"deltaTime":2,"channel":0,"type":"noteOn","noteNumber":87,"velocity":88},{"deltaTime":190,"channel":0,"type":"noteOff","noteNumber":78,"velocity":0},{"deltaTime":48,"channel":0,"type":"noteOff","noteNumber":87,"velocity":0},{"deltaTime":2,"channel":0,"type":"noteOn","noteNumber":84,"velocity":111},{"deltaTime":0,"channel":1,"type":"noteOn","noteNumber":44,"velocity":98},{"deltaTime":238,"channel":0,"type":"noteOff","noteNumber":84,"velocity":0},{"deltaTime":0,"channel":1,"type":"noteOff","noteNumber":44,"velocity":0},{"deltaTime":2,"channel":0,"type":"noteOn","noteNumber":80,"velocity":84},{"deltaTime":238,"channel":0,"type":"noteOff","noteNumber":80,"velocity":0},{"deltaTime":2,"channel":0,"type":"noteOn","noteNumber":81,"velocity":113},{"deltaTime":0,"channel":1,"type":"noteOn","noteNumber":60,"velocity":85},{"deltaTime":0,"channel":1,"type":"noteOn","noteNumber":66,"velocity":85},{"deltaTime":0,"channel":1,"type":"noteOn","noteNumber":68,"velocity":85},{"deltaTime":238,"channel":0,"type":"noteOff","noteNumber":81,"velocity":0},{"deltaTime":0,"channel":1,"type":"noteOff","noteNumber":60,"velocity":0},{"deltaTime":0,"channel":1,"type":"noteOff","noteNumber":66,"velocity":0},{"deltaTime":0,"channel":1,"type":"noteOff","noteNumber":68,"velocity":0},{"deltaTime":2,"channel":0,"type":"noteOn","noteNumber":75,"velocity":91},{"deltaTime":238,"channel":0,"type":"noteOff","noteNumber":75,"velocity":0},{"deltaTime":2,"channel":0,"type":"noteOn","noteNumber":79,"velocity":96},{"deltaTime":0,"channel":1,"type":"noteOn","noteNumber":37,"velocity":98},{"deltaTime":0,"channel":1,"type":"noteOn","noteNumber":49,"velocity":98},{"deltaTime":166,"channel":0,"type":"noteOff","noteNumber":79,"velocity":0},{"deltaTime":2,"channel":0,"type":"noteOn","noteNumber":80,"velocity":109},{"deltaTime":292,"channel":0,"type":"noteOff","noteNumber":80,"velocity":0},{"deltaTime":18,"channel":1,"type":"noteOff","noteNumber":37,"velocity":0},{"deltaTime":0,"channel":1,"type":"noteOff","noteNumber":49,"velocity":0},{"deltaTime":2,"channel":1,"type":"noteOn","noteNumber":61,"velocity":59},{"deltaTime":0,"channel":1,"type":"noteOn","noteNumber":63,"velocity":59},{"deltaTime":0,"channel":1,"type":"noteOn","noteNumber":64,"velocity":59},{"deltaTime":480,"channel":0,"type":"noteOn","noteNumber":79,"velocity":96},{"deltaTime":0,"channel":0,"type":"noteOn","noteNumber":67,"velocity":96},{"deltaTime":0,"channel":1,"type":"noteOn","noteNumber":44,"velocity":66},{"deltaTime":166,"channel":0,"type":"noteOff","noteNumber":79,"velocity":0},{"deltaTime":0,"channel":0,"type":"noteOff","noteNumber":67,"velocity":0},{"deltaTime":2,"channel":0,"type":"noteOn","noteNumber":80,"velocity":113},{"deltaTime":0,"channel":0,"type":"noteOn","noteNumber":68,"velocity":114},{"deltaTime":190,"channel":1,"type":"noteOff","noteNumber":44,"velocity":0},{"deltaTime":102,"channel":0,"type":"noteOff","noteNumber":80,"velocity":0},{"deltaTime":0,"channel":0,"type":"noteOff","noteNumber":68,"velocity":0},{"deltaTime":18,"channel":1,"type":"noteOff","noteNumber":61,"velocity":0},{"deltaTime":0,"channel":1,"type":"noteOff","noteNumber":63,"velocity":0},{"deltaTime":0,"channel":1,"type":"noteOff","noteNumber":64,"velocity":0},{"deltaTime":2,"channel":0,"type":"noteOn","noteNumber":84,"velocity":96},{"deltaTime":0,"channel":0,"type":"noteOn","noteNumber":73,"velocity":109},{"deltaTime":0,"channel":1,"type":"noteOn","noteNumber":63,"velocity":113},{"deltaTime":0,"channel":1,"type":"noteOn","noteNumber":68,"velocity":113},{"deltaTime":118,"channel":0,"type":"noteOff","noteNumber":84,"velocity":0},{"deltaTime":0,"channel":1,"type":"noteOff","noteNumber":63,"velocity":0},{"deltaTime":0,"channel":1,"type":"noteOff","noteNumber":68,"velocity":0},{"deltaTime":2,"channel":0,"type":"noteOn","noteNumber":85,"velocity":109},{"deltaTime":118,"channel":0,"type":"noteOff","noteNumber":85,"velocity":0},{"deltaTime":2,"channel":0,"type":"noteOn","noteNumber":84,"velocity":96},{"deltaTime":0,"channel":1,"type":"noteOn","noteNumber":64,"velocity":103},{"deltaTime":0,"channel":1,"type":"noteOn","noteNumber":49,"velocity":102},{"deltaTime":78,"channel":0,"type":"noteOff","noteNumber":84,"velocity":0},{"deltaTime":2,"channel":0,"type":"noteOn","noteNumber":82,"velocity":96},{"deltaTime":78,"channel":0,"type":"noteOff","noteNumber":82,"velocity":0},{"deltaTime":2,"channel":0,"type":"noteOn","noteNumber":80,"velocity":96},{"deltaTime":54,"channel":0,"type":"noteOff","noteNumber":73,"velocity":0},{"deltaTime":12,"channel":1,"type":"noteOff","noteNumber":64,"velocity":0},{"deltaTime":0,"channel":1,"type":"noteOff","noteNumber":49,"velocity":0},{"deltaTime":12,"channel":0,"type":"noteOff","noteNumber":80,"velocity":0},{"deltaTime":2,"channel":0,"type":"noteOn","noteNumber":79,"velocity":96},{"deltaTime":0,"channel":1,"type":"noteOn","noteNumber":56,"velocity":98},{"deltaTime":0,"channel":1,"type":"noteOn","noteNumber":44,"velocity":112},{"deltaTime":54,"channel":0,"type":"noteOff","noteNumber":79,"velocity":0},{"deltaTime":6,"channel":0,"type":"noteOn","noteNumber":77,"velocity":96},{"deltaTime":54,"channel":0,"type":"noteOff","noteNumber":77,"velocity":0},{"deltaTime":4,"channel":1,"type":"noteOff","noteNumber":56,"velocity":0},{"deltaTime":0,"channel":1,"type":"noteOff","noteNumber":44,"velocity":0},{"deltaTime":2,"channel":0,"type":"noteOn","noteNumber":75,"velocity":96},{"deltaTime":54,"channel":0,"type":"noteOff","noteNumber":75,"velocity":0},{"deltaTime":6,"channel":0,"type":"noteOn","noteNumber":73,"velocity":96},{"deltaTime":54,"channel":0,"type":"noteOff","noteNumber":73,"velocity":0},{"deltaTime":6,"channel":0,"type":"noteOn","noteNumber":72,"velocity":74},{"deltaTime":0,"channel":1,"type":"noteOn","noteNumber":52,"velocity":109},{"deltaTime":0,"channel":1,"type":"noteOn","noteNumber":40,"velocity":122},{"deltaTime":118,"channel":1,"type":"noteOff","noteNumber":52,"velocity":0},{"deltaTime":0,"channel":1,"type":"noteOff","noteNumber":40,"velocity":0},{"deltaTime":108,"channel":0,"type":"noteOff","noteNumber":72,"velocity":0},{"deltaTime":14,"channel":0,"type":"noteOn","noteNumber":73,"velocity":108},{"deltaTime":0,"channel":0,"type":"noteOn","noteNumber":78,"velocity":112},{"deltaTime":0,"channel":0,"type":"noteOn","noteNumber":69,"velocity":118},{"deltaTime":0,"channel":1,"type":"noteOn","noteNumber":51,"velocity":112},{"deltaTime":0,"channel":1,"type":"noteOn","noteNumber":56,"velocity":108},{"deltaTime":0,"channel":1,"type":"noteOn","noteNumber":39,"velocity":110},{"deltaTime":226,"channel":0,"type":"noteOff","noteNumber":69,"velocity":0},{"deltaTime":12,"channel":1,"type":"noteOff","noteNumber":51,"velocity":0},{"deltaTime":0,"channel":1,"type":"noteOff","noteNumber":56,"velocity":0},{"deltaTime":0,"channel":1,"type":"noteOff","noteNumber":39,"velocity":0},{"deltaTime":2,"channel":0,"type":"noteOn","noteNumber":66,"velocity":89},{"deltaTime":214,"channel":0,"type":"noteOff","noteNumber":73,"velocity":0},{"deltaTime":0,"channel":0,"type":"noteOff","noteNumber":78,"velocity":0},{"deltaTime":12,"channel":0,"type":"noteOff","noteNumber":66,"velocity":0},{"deltaTime":14,"channel":0,"type":"noteOn","noteNumber":78,"velocity":96},{"deltaTime":0,"channel":0,"type":"noteOn","noteNumber":68,"velocity":119},{"deltaTime":0,"channel":1,"type":"noteOn","noteNumber":52,"velocity":66},{"deltaTime":118,"channel":0,"type":"noteOff","noteNumber":78,"velocity":0},{"deltaTime":2,"channel":0,"type":"noteOn","noteNumber":80,"velocity":115},{"deltaTime":118,"channel":0,"type":"noteOff","noteNumber":80,"velocity":0},{"deltaTime":2,"channel":0,"type":"noteOn","noteNumber":76,"velocity":85},{"deltaTime":214,"channel":0,"type":"noteOff","noteNumber":68,"velocity":0},{"deltaTime":24,"channel":0,"type":"noteOff","noteNumber":76,"velocity":0},{"deltaTime":0,"channel":1,"type":"noteOff","noteNumber":52,"velocity":0},{"deltaTime":2,"channel":0,"type":"noteOn","noteNumber":73,"velocity":119},{"deltaTime":0,"channel":0,"type":"noteOn","noteNumber":61,"velocity":91},{"deltaTime":0,"channel":1,"type":"noteOn","noteNumber":44,"velocity":70},{"deltaTime":238,"channel":0,"type":"noteOff","noteNumber":73,"velocity":0},{"deltaTime":0,"channel":1,"type":"noteOff","noteNumber":44,"velocity":0},{"deltaTime":2,"channel":0,"type":"noteOn","noteNumber":68,"velocity":94},{"deltaTime":214,"channel":0,"type":"noteOff","noteNumber":61,"velocity":0},{"deltaTime":12,"channel":0,"type":"noteOff","noteNumber":68,"velocity":0},{"deltaTime":14,"channel":0,"type":"noteOn","noteNumber":54,"velocity":99},{"deltaTime":0,"channel":0,"type":"noteOn","noteNumber":60,"velocity":82},{"deltaTime":0,"channel":0,"type":"noteOn","noteNumber":64,"velocity":99},{"deltaTime":0,"channel":1,"type":"noteOn","noteNumber":32,"velocity":89},{"deltaTime":240,"channel":0,"type":"noteOn","noteNumber":76,"velocity":99},{"deltaTime":238,"channel":0,"type":"noteOff","noteNumber":76,"velocity":0},{"deltaTime":0,"channel":0,"type":"noteOff","noteNumber":54,"velocity":0},{"deltaTime":0,"channel":0,"type":"noteOff","noteNumber":60,"velocity":0},{"deltaTime":0,"channel":0,"type":"noteOff","noteNumber":64,"velocity":0},{"deltaTime":0,"channel":1,"type":"noteOff","noteNumber":32,"velocity":0},{"deltaTime":2,"channel":0,"type":"noteOn","noteNumber":60,"velocity":71},{"deltaTime":0,"channel":0,"type":"noteOn","noteNumber":68,"velocity":75},{"deltaTime":0,"channel":0,"type":"noteOn","noteNumber":72,"velocity":71},{"deltaTime":0,"channel":1,"type":"noteOn","noteNumber":44,"velocity":64},{"deltaTime":0,"channel":1,"type":"noteOn","noteNumber":48,"velocity":64},{"deltaTime":238,"channel":0,"type":"noteOff","noteNumber":60,"velocity":0},{"deltaTime":0,"channel":0,"type":"noteOff","noteNumber":68,"velocity":0},{"deltaTime":0,"channel":0,"type":"noteOff","noteNumber":72,"velocity":0},{"deltaTime":0,"channel":1,"type":"noteOff","noteNumber":44,"velocity":0},{"deltaTime":0,"channel":1,"type":"noteOff","noteNumber":48,"velocity":0},{"deltaTime":2,"channel":0,"type":"noteOn","noteNumber":75,"velocity":98},{"deltaTime":226,"channel":0,"type":"noteOff","noteNumber":75,"velocity":0},{"deltaTime":14,"channel":0,"type":"noteOn","noteNumber":56,"velocity":97},{"deltaTime":0,"channel":0,"type":"noteOn","noteNumber":66,"velocity":95},{"deltaTime":0,"channel":0,"type":"noteOn","noteNumber":68,"velocity":97},{"deltaTime":0,"channel":1,"type":"noteOn","noteNumber":39,"velocity":56},{"deltaTime":238,"channel":0,"type":"noteOff","noteNumber":56,"velocity":0},{"deltaTime":0,"channel":0,"type":"noteOff","noteNumber":66,"velocity":0},{"deltaTime":0,"channel":0,"type":"noteOff","noteNumber":68,"velocity":0},{"deltaTime":0,"channel":1,"type":"noteOff","noteNumber":39,"velocity":0},{"deltaTime":2,"channel":0,"type":"noteOn","noteNumber":73,"velocity":92},{"deltaTime":226,"channel":0,"type":"noteOff","noteNumber":73,"velocity":0},{"deltaTime":14,"channel":0,"type":"noteOn","noteNumber":72,"velocity":87},{"deltaTime":0,"channel":0,"type":"noteOn","noteNumber":54,"velocity":112},{"deltaTime":0,"channel":0,"type":"noteOn","noteNumber":63,"velocity":91},{"deltaTime":0,"channel":0,"type":"noteOn","noteNumber":66,"velocity":112},{"deltaTime":0,"channel":1,"type":"noteOn","noteNumber":44,"velocity":54},{"deltaTime":0,"channel":1,"type":"noteOn","noteNumber":48,"velocity":54},{"deltaTime":118,"channel":1,"type":"noteOff","noteNumber":44,"velocity":0},{"deltaTime":0,"channel":1,"type":"noteOff","noteNumber":48,"velocity":0},{"deltaTime":122,"channel":1,"type":"noteOn","noteNumber":44,"velocity":68},{"deltaTime":0,"channel":1,"type":"noteOn","noteNumber":48,"velocity":68},{"deltaTime":118,"channel":1,"type":"noteOff","noteNumber":44,"velocity":0},{"deltaTime":0,"channel":1,"type":"noteOff","noteNumber":48,"velocity":0},{"deltaTime":122,"channel":1,"type":"noteOn","noteNumber":36,"velocity":62},{"deltaTime":238,"channel":1,"type":"noteOff","noteNumber":36,"velocity":0},{"deltaTime":192,"channel":0,"type":"noteOff","noteNumber":72,"velocity":0},{"deltaTime":0,"channel":0,"type":"noteOff","noteNumber":54,"velocity":0},{"deltaTime":0,"channel":0,"type":"noteOff","noteNumber":63,"velocity":0},{"deltaTime":0,"channel":0,"type":"noteOff","noteNumber":66,"velocity":0},{"deltaTime":50,"channel":0,"type":"noteOn","noteNumber":60,"velocity":82},{"deltaTime":0,"channel":1,"type":"noteOn","noteNumber":48,"velocity":74},{"deltaTime":0,"channel":1,"type":"noteOn","noteNumber":42,"velocity":74},{"deltaTime":238,"channel":1,"type":"noteOff","noteNumber":48,"velocity":0},{"deltaTime":0,"channel":1,"type":"noteOff","noteNumber":42,"velocity":0},{"deltaTime":216,"channel":0,"type":"noteOff","noteNumber":60,"velocity":0},{"deltaTime":26,"channel":0,"type":"noteOn","noteNumber":73,"velocity":101},{"deltaTime":0,"channel":1,"type":"noteOn","noteNumber":44,"velocity":98},{"deltaTime":226,"channel":0,"type":"noteOff","noteNumber":73,"velocity":0},{"deltaTime":14,"channel":0,"type":"noteOn","noteNumber":68,"velocity":71},{"deltaTime":226,"channel":0,"type":"noteOff","noteNumber":68,"velocity":0},{"deltaTime":12,"channel":1,"type":"noteOff","noteNumber":44,"velocity":0},{"deltaTime":2,"channel":0,"type":"noteOn","noteNumber":75,"velocity":96},{"deltaTime":0,"channel":1,"type":"noteOn","noteNumber":54,"velocity":74},{"deltaTime":0,"channel":1,"type":"noteOn","noteNumber":60,"velocity":85},{"deltaTime":226,"channel":0,"type":"noteOff","noteNumber":75,"velocity":0},{"deltaTime":12,"channel":1,"type":"noteOff","noteNumber":54,"velocity":0},{"deltaTime":0,"channel":1,"type":"noteOff","noteNumber":60,"velocity":0},{"deltaTime":2,"channel":0,"type":"noteOn","noteNumber":72,"velocity":84},{"deltaTime":226,"channel":0,"type":"noteOff","noteNumber":72,"velocity":0},{"deltaTime":14,"channel":0,"type":"noteOn","noteNumber":73,"velocity":98},{"deltaTime":0,"channel":0,"type":"noteOn","noteNumber":76,"velocity":127},{"deltaTime":0,"channel":0,"type":"noteOn","noteNumber":64,"velocity":119},{"deltaTime":0,"channel":1,"type":"noteOn","noteNumber":45,"velocity":126},{"deltaTime":454,"channel":0,"type":"noteOff","noteNumber":73,"velocity":0},{"deltaTime":0,"channel":0,"type":"noteOff","noteNumber":76,"velocity":0},{"deltaTime":0,"channel":0,"type":"noteOff","noteNumber":64,"velocity":0},{"deltaTime":0,"channel":1,"type":"noteOff","noteNumber":45,"velocity":0},{"deltaTime":26,"channel":0,"type":"noteOn","noteNumber":67,"velocity":72},{"deltaTime":0,"channel":1,"type":"noteOn","noteNumber":59,"velocity":76},{"deltaTime":0,"channel":1,"type":"noteOn","noteNumber":61,"velocity":68},{"deltaTime":238,"channel":0,"type":"noteOff","noteNumber":67,"velocity":0},{"deltaTime":2,"channel":0,"type":"noteOn","noteNumber":68,"velocity":86},{"deltaTime":214,"channel":1,"type":"noteOff","noteNumber":59,"velocity":0},{"deltaTime":0,"channel":1,"type":"noteOff","noteNumber":61,"velocity":0},{"deltaTime":24,"channel":0,"type":"noteOff","noteNumber":68,"velocity":0},{"deltaTime":2,"channel":0,"type":"noteOn","noteNumber":69,"velocity":85},{"deltaTime":0,"channel":1,"type":"noteOn","noteNumber":57,"velocity":62},{"deltaTime":0,"channel":1,"type":"noteOn","noteNumber":40,"velocity":74},{"deltaTime":454,"channel":1,"type":"noteOff","noteNumber":57,"velocity":0},{"deltaTime":0,"channel":1,"type":"noteOff","noteNumber":40,"velocity":0},{"deltaTime":24,"channel":0,"type":"noteOff","noteNumber":69,"velocity":0},{"deltaTime":2,"channel":0,"type":"noteOn","noteNumber":70,"velocity":47},{"deltaTime":0,"channel":1,"type":"noteOn","noteNumber":56,"velocity":72},{"deltaTime":0,"channel":1,"type":"noteOn","noteNumber":61,"velocity":62},{"deltaTime":0,"channel":1,"type":"noteOn","noteNumber":64,"velocity":57},{"deltaTime":238,"channel":0,"type":"noteOff","noteNumber":70,"velocity":0},{"deltaTime":2,"channel":0,"type":"noteOn","noteNumber":71,"velocity":62},{"deltaTime":214,"channel":1,"type":"noteOff","noteNumber":56,"velocity":0},{"deltaTime":0,"channel":1,"type":"noteOff","noteNumber":61,"velocity":0},{"deltaTime":0,"channel":1,"type":"noteOff","noteNumber":64,"velocity":0},{"deltaTime":24,"channel":0,"type":"noteOff","noteNumber":71,"velocity":0},{"deltaTime":2,"channel":0,"type":"noteOn","noteNumber":72,"velocity":64},{"deltaTime":0,"channel":1,"type":"noteOn","noteNumber":60,"velocity":64},{"deltaTime":0,"channel":1,"type":"noteOn","noteNumber":44,"velocity":70},{"deltaTime":454,"channel":1,"type":"noteOff","noteNumber":60,"velocity":0},{"deltaTime":0,"channel":1,"type":"noteOff","noteNumber":44,"velocity":0},{"deltaTime":24,"channel":0,"type":"noteOff","noteNumber":72,"velocity":0},{"deltaTime":2,"channel":0,"type":"noteOn","noteNumber":73,"velocity":80},{"deltaTime":0,"channel":1,"type":"noteOn","noteNumber":64,"velocity":62},{"deltaTime":0,"channel":1,"type":"noteOn","noteNumber":68,"velocity":45},{"deltaTime":0,"channel":1,"type":"noteOn","noteNumber":54,"velocity":55},{"deltaTime":226,"channel":1,"type":"noteOff","noteNumber":64,"velocity":0},{"deltaTime":0,"channel":1,"type":"noteOff","noteNumber":68,"velocity":0},{"deltaTime":12,"channel":0,"type":"noteOff","noteNumber":73,"velocity":0},{"deltaTime":2,"channel":0,"type":"noteOn","noteNumber":74,"velocity":86},{"deltaTime":0,"channel":1,"type":"noteOn","noteNumber":62,"velocity":75},{"deltaTime":214,"channel":1,"type":"noteOff","noteNumber":54,"velocity":0},{"deltaTime":12,"channel":1,"type":"noteOff","noteNumber":62,"velocity":0},{"deltaTime":12,"channel":0,"type":"noteOff","noteNumber":74,"velocity":0},{"deltaTime":2,"channel":0,"type":"noteOn","noteNumber":75,"velocity":105},{"deltaTime":0,"channel":1,"type":"noteOn","noteNumber":63,"velocity":103},{"deltaTime":0,"channel":1,"type":"noteOn","noteNumber":66,"velocity":90},{"deltaTime":0,"channel":1,"type":"noteOn","noteNumber":48,"velocity":109},{"deltaTime":454,"channel":1,"type":"noteOff","noteNumber":63,"velocity":0},{"deltaTime":0,"channel":1,"type":"noteOff","noteNumber":66,"velocity":0},{"deltaTime":0,"channel":1,"type":"noteOff","noteNumber":48,"velocity":0},{"deltaTime":24,"channel":0,"type":"noteOff","noteNumber":75,"velocity":0},{"deltaTime":2,"channel":0,"type":"noteOn","noteNumber":76,"velocity":100},{"deltaTime":0,"channel":1,"type":"noteOn","noteNumber":68,"velocity":100},{"deltaTime":0,"channel":1,"type":"noteOn","noteNumber":56,"velocity":89},{"deltaTime":226,"channel":0,"type":"noteOff","noteNumber":76,"velocity":0},{"deltaTime":14,"channel":0,"type":"noteOn","noteNumber":78,"velocity":123},{"deltaTime":214,"channel":1,"type":"noteOff","noteNumber":68,"velocity":0},{"deltaTime":0,"channel":1,"type":"noteOff","noteNumber":56,"velocity":0},{"deltaTime":12,"channel":0,"type":"noteOff","noteNumber":78,"velocity":0},{"deltaTime":14,"channel":0,"type":"noteOn","noteNumber":92,"velocity":117},{"deltaTime":0,"channel":0,"type":"noteOn","noteNumber":75,"velocity":115},{"deltaTime":0,"channel":0,"type":"noteOn","noteNumber":80,"velocity":123},{"deltaTime":0,"channel":1,"type":"noteOn","noteNumber":61,"velocity":115},{"deltaTime":0,"channel":1,"type":"noteOn","noteNumber":64,"velocity":116},{"deltaTime":0,"channel":1,"type":"noteOn","noteNumber":49,"velocity":115},{"deltaTime":238,"channel":0,"type":"noteOff","noteNumber":92,"velocity":0},{"deltaTime":0,"channel":0,"type":"noteOff","noteNumber":75,"velocity":0},{"deltaTime":0,"channel":0,"type":"noteOff","noteNumber":80,"velocity":0},{"deltaTime":0,"channel":1,"type":"noteOff","noteNumber":61,"velocity":0},{"deltaTime":0,"channel":1,"type":"noteOff","noteNumber":64,"velocity":0},{"deltaTime":0,"channel":1,"type":"noteOff","noteNumber":49,"velocity":0},{"deltaTime":242,"channel":0,"type":"noteOn","noteNumber":78,"velocity":112},{"deltaTime":0,"channel":1,"type":"noteOn","noteNumber":63,"velocity":55},{"deltaTime":0,"channel":1,"type":"noteOn","noteNumber":64,"velocity":55},{"deltaTime":0,"channel":1,"type":"noteOn","noteNumber":68,"velocity":55},{"deltaTime":158,"channel":0,"type":"noteOff","noteNumber":78,"velocity":0},{"deltaTime":2,"channel":0,"type":"noteOn","noteNumber":76,"velocity":112},{"deltaTime":158,"channel":0,"type":"noteOff","noteNumber":76,"velocity":0},{"deltaTime":2,"channel":0,"type":"noteOn","noteNumber":75,"velocity":112},{"deltaTime":134,"channel":1,"type":"noteOff","noteNumber":63,"velocity":0},{"deltaTime":0,"channel":1,"type":"noteOff","noteNumber":64,"velocity":0},{"deltaTime":0,"channel":1,"type":"noteOff","noteNumber":68,"velocity":0},{"deltaTime":24,"channel":0,"type":"noteOff","noteNumber":75,"velocity":0},{"deltaTime":2,"channel":0,"type":"noteOn","noteNumber":76,"velocity":71},{"deltaTime":0,"channel":0,"type":"noteOn","noteNumber":81,"velocity":85},{"deltaTime":0,"channel":0,"type":"noteOn","noteNumber":69,"velocity":56},{"deltaTime":0,"channel":1,"type":"noteOn","noteNumber":44,"velocity":58},{"deltaTime":454,"channel":0,"type":"noteOff","noteNumber":76,"velocity":0},{"deltaTime":0,"channel":0,"type":"noteOff","noteNumber":81,"velocity":0},{"deltaTime":0,"channel":1,"type":"noteOff","noteNumber":44,"velocity":0},{"deltaTime":26,"channel":0,"type":"noteOn","noteNumber":78,"velocity":60},{"deltaTime":0,"channel":0,"type":"noteOn","noteNumber":82,"velocity":86},{"deltaTime":0,"channel":0,"type":"noteOn","noteNumber":87,"velocity":60},{"deltaTime":0,"channel":1,"type":"noteOn","noteNumber":66,"velocity":64},{"deltaTime":0,"channel":1,"type":"noteOn","noteNumber":70,"velocity":54},{"deltaTime":202,"channel":0,"type":"noteOff","noteNumber":69,"velocity":0},{"deltaTime":24,"channel":1,"type":"noteOff","noteNumber":66,"velocity":0},{"deltaTime":0,"channel":1,"type":"noteOff","noteNumber":70,"velocity":0},{"deltaTime":14,"channel":0,"type":"noteOn","noteNumber":76,"velocity":51},{"deltaTime":0,"channel":0,"type":"noteOn","noteNumber":79,"velocity":86},{"deltaTime":0,"channel":1,"type":"noteOn","noteNumber":61,"velocity":58},{"deltaTime":0,"channel":1,"type":"noteOn","noteNumber":67,"velocity":51},{"deltaTime":214,"channel":0,"type":"noteOff","noteNumber":78,"velocity":0},{"deltaTime":0,"channel":0,"type":"noteOff","noteNumber":82,"velocity":0},{"deltaTime":0,"channel":0,"type":"noteOff","noteNumber":87,"velocity":0},{"deltaTime":12,"channel":0,"type":"noteOff","noteNumber":76,"velocity":0},{"deltaTime":0,"channel":0,"type":"noteOff","noteNumber":79,"velocity":0},{"deltaTime":0,"channel":1,"type":"noteOff","noteNumber":61,"velocity":0},{"deltaTime":0,"channel":1,"type":"noteOff","noteNumber":67,"velocity":0},{"deltaTime":14,"channel":0,"type":"noteOn","noteNumber":80,"velocity":60},{"deltaTime":0,"channel":0,"type":"noteOn","noteNumber":83,"velocity":78},{"deltaTime":0,"channel":0,"type":"noteOn","noteNumber":69,"velocity":70},{"deltaTime":0,"channel":0,"type":"noteOn","noteNumber":72,"velocity":72},{"deltaTime":0,"channel":1,"type":"noteOn","noteNumber":50,"velocity":96},{"deltaTime":238,"channel":0,"type":"noteOff","noteNumber":69,"velocity":0},{"deltaTime":0,"channel":0,"type":"noteOff","noteNumber":72,"velocity":0},{"deltaTime":2,"channel":0,"type":"noteOn","noteNumber":73,"velocity":88},{"deltaTime":214,"channel":0,"type":"noteOff","noteNumber":80,"velocity":0},{"deltaTime":0,"channel":0,"type":"noteOff","noteNumber":83,"velocity":0},{"deltaTime":24,"channel":0,"type":"noteOff","noteNumber":73,"velocity":0},{"deltaTime":0,"channel":1,"type":"noteOff","noteNumber":50,"velocity":0},{"deltaTime":2,"channel":0,"type":"noteOn","noteNumber":81,"velocity":86},{"deltaTime":0,"channel":0,"type":"noteOn","noteNumber":84,"velocity":91},{"deltaTime":0,"channel":0,"type":"noteOn","noteNumber":76,"velocity":87},{"deltaTime":0,"channel":1,"type":"noteOn","noteNumber":60,"velocity":105},{"deltaTime":0,"channel":1,"type":"noteOn","noteNumber":66,"velocity":92},{"deltaTime":238,"channel":0,"type":"noteOff","noteNumber":76,"velocity":0},{"deltaTime":0,"channel":1,"type":"noteOff","noteNumber":60,"velocity":0},{"deltaTime":0,"channel":1,"type":"noteOff","noteNumber":66,"velocity":0},{"deltaTime":2,"channel":0,"type":"noteOn","noteNumber":78,"velocity":96},{"deltaTime":214,"channel":0,"type":"noteOff","noteNumber":81,"velocity":0},{"deltaTime":0,"channel":0,"type":"noteOff","noteNumber":84,"velocity":0},{"deltaTime":24,"channel":0,"type":"noteOff","noteNumber":78,"velocity":0},{"deltaTime":2,"channel":0,"type":"noteOn","noteNumber":80,"velocity":87},{"deltaTime":0,"channel":0,"type":"noteOn","noteNumber":85,"velocity":99},{"deltaTime":0,"channel":0,"type":"noteOn","noteNumber":73,"velocity":103},{"deltaTime":0,"channel":1,"type":"noteOn","noteNumber":57,"velocity":104},{"deltaTime":0,"channel":1,"type":"noteOn","noteNumber":64,"velocity":104},{"deltaTime":0,"channel":1,"type":"noteOn","noteNumber":45,"velocity":104},{"deltaTime":226,"channel":0,"type":"noteOff","noteNumber":80,"velocity":0},{"deltaTime":0,"channel":0,"type":"noteOff","noteNumber":85,"velocity":0},{"deltaTime":0,"channel":0,"type":"noteOff","noteNumber":73,"velocity":0},{"deltaTime":14,"channel":0,"type":"noteOn","noteNumber":79,"velocity":95},{"deltaTime":0,"channel":0,"type":"noteOn","noteNumber":67,"velocity":95},{"deltaTime":226,"channel":0,"type":"noteOff","noteNumber":79,"velocity":0},{"deltaTime":0,"channel":0,"type":"noteOff","noteNumber":67,"velocity":0},{"deltaTime":12,"channel":1,"type":"noteOff","noteNumber":57,"velocity":0},{"deltaTime":0,"channel":1,"type":"noteOff","noteNumber":64,"velocity":0},{"deltaTime":0,"channel":1,"type":"noteOff","noteNumber":45,"velocity":0},{"deltaTime":2,"channel":0,"type":"noteOn","noteNumber":81,"velocity":111},{"deltaTime":0,"channel":0,"type":"noteOn","noteNumber":87,"velocity":117},{"deltaTime":0,"channel":0,"type":"noteOn","noteNumber":72,"velocity":110},{"deltaTime":0,"channel":1,"type":"noteOn","noteNumber":54,"velocity":119},{"deltaTime":0,"channel":1,"type":"noteOn","noteNumber":63,"velocity":123},{"deltaTime":0,"channel":1,"type":"noteOn","noteNumber":42,"velocity":119},{"deltaTime":226,"channel":0,"type":"noteOff","noteNumber":81,"velocity":0},{"deltaTime":0,"channel":0,"type":"noteOff","noteNumber":87,"velocity":0},{"deltaTime":0,"channel":0,"type":"noteOff","noteNumber":72,"velocity":0},{"deltaTime":14,"channel":0,"type":"noteOn","noteNumber":82,"velocity":104},{"deltaTime":0,"channel":0,"type":"noteOn","noteNumber":75,"velocity":104},{"deltaTime":214,"channel":1,"type":"noteOff","noteNumber":54,"velocity":0},{"deltaTime":0,"channel":1,"type":"noteOff","noteNumber":63,"velocity":0},{"deltaTime":12,"channel":0,"type":"noteOff","noteNumber":82,"velocity":0},{"deltaTime":0,"channel":0,"type":"noteOff","noteNumber":75,"velocity":0},{"deltaTime":12,"channel":1,"type":"noteOff","noteNumber":42,"velocity":0},{"deltaTime":2,"channel":0,"type":"noteOn","noteNumber":83,"velocity":110},{"deltaTime":0,"channel":0,"type":"noteOn","noteNumber":88,"velocity":110},{"deltaTime":0,"channel":0,"type":"noteOn","noteNumber":73,"velocity":106},{"deltaTime":0,"channel":0,"type":"noteOn","noteNumber":76,"velocity":117},{"deltaTime":0,"channel":1,"type":"noteOn","noteNumber":44,"velocity":109},{"deltaTime":0,"channel":1,"type":"noteOn","noteNumber":56,"velocity":109},{"deltaTime":4,"channel":0,"type":"controller","controllerType":64,"value":127},{"deltaTime":0,"channel":1,"type":"controller","controllerType":64,"value":127},{"deltaTime":234,"channel":0,"type":"noteOff","noteNumber":73,"velocity":0},{"deltaTime":0,"channel":0,"type":"noteOff","noteNumber":76,"velocity":0},{"deltaTime":2,"channel":0,"type":"noteOn","noteNumber":75,"velocity":62},{"deltaTime":0,"channel":0,"type":"noteOn","noteNumber":79,"velocity":56},{"deltaTime":238,"channel":0,"type":"noteOff","noteNumber":75,"velocity":0},{"deltaTime":0,"channel":0,"type":"noteOff","noteNumber":79,"velocity":0},{"deltaTime":2,"channel":0,"type":"noteOn","noteNumber":76,"velocity":66},{"deltaTime":0,"channel":0,"type":"noteOn","noteNumber":80,"velocity":63},{"deltaTime":0,"channel":1,"type":"noteOn","noteNumber":64,"velocity":74},{"deltaTime":0,"channel":1,"type":"noteOn","noteNumber":68,"velocity":74},{"deltaTime":238,"channel":0,"type":"noteOff","noteNumber":76,"velocity":0},{"deltaTime":0,"channel":0,"type":"noteOff","noteNumber":80,"velocity":0},{"deltaTime":2,"channel":0,"type":"noteOn","noteNumber":75,"velocity":74},{"deltaTime":0,"channel":0,"type":"noteOn","noteNumber":79,"velocity":81},{"deltaTime":190,"channel":0,"type":"noteOff","noteNumber":83,"velocity":0},{"deltaTime":0,"channel":0,"type":"noteOff","noteNumber":88,"velocity":0},{"deltaTime":0,"channel":1,"type":"noteOff","noteNumber":44,"velocity":0},{"deltaTime":0,"channel":1,"type":"noteOff","noteNumber":56,"velocity":0},{"deltaTime":24,"channel":1,"type":"noteOff","noteNumber":64,"velocity":0},{"deltaTime":0,"channel":1,"type":"noteOff","noteNumber":68,"velocity":0},{"deltaTime":24,"channel":0,"type":"noteOff","noteNumber":75,"velocity":0},{"deltaTime":0,"channel":0,"type":"noteOff","noteNumber":79,"velocity":0},{"deltaTime":2,"channel":0,"type":"noteOn","noteNumber":88,"velocity":98},{"deltaTime":0,"channel":0,"type":"noteOn","noteNumber":73,"velocity":95},{"deltaTime":0,"channel":0,"type":"noteOn","noteNumber":76,"velocity":105},{"deltaTime":0,"channel":0,"type":"noteOn","noteNumber":80,"velocity":98},{"deltaTime":0,"channel":1,"type":"noteOn","noteNumber":49,"velocity":76},{"deltaTime":2,"channel":0,"type":"controller","controllerType":64,"value":0},{"deltaTime":0,"channel":1,"type":"controller","controllerType":64,"value":0},{"deltaTime":2,"channel":0,"type":"controller","controllerType":64,"value":127},{"deltaTime":0,"channel":1,"type":"controller","controllerType":64,"value":127},{"deltaTime":236,"channel":1,"type":"noteOn","noteNumber":70,"velocity":72},{"deltaTime":214,"channel":0,"type":"noteOff","noteNumber":88,"velocity":0},{"deltaTime":0,"channel":0,"type":"noteOff","noteNumber":73,"velocity":0},{"deltaTime":0,"channel":0,"type":"noteOff","noteNumber":76,"velocity":0},{"deltaTime":0,"channel":0,"type":"noteOff","noteNumber":80,"velocity":0},{"deltaTime":0,"channel":1,"type":"noteOff","noteNumber":49,"velocity":0},{"deltaTime":12,"channel":1,"type":"noteOff","noteNumber":70,"velocity":0},{"deltaTime":14,"channel":0,"type":"noteOn","noteNumber":91,"velocity":112},{"deltaTime":0,"channel":0,"type":"noteOn","noteNumber":80,"velocity":101},{"deltaTime":0,"channel":1,"type":"noteOn","noteNumber":68,"velocity":89},{"deltaTime":0,"channel":1,"type":"noteOn","noteNumber":72,"velocity":92},{"deltaTime":0,"channel":1,"type":"noteOn","noteNumber":63,"velocity":89},{"deltaTime":166,"channel":0,"type":"noteOff","noteNumber":91,"velocity":0},{"deltaTime":2,"channel":0,"type":"noteOn","noteNumber":92,"velocity":97},{"deltaTime":58,"channel":1,"type":"noteOff","noteNumber":68,"velocity":0},{"deltaTime":0,"channel":1,"type":"noteOff","noteNumber":72,"velocity":0},{"deltaTime":0,"channel":1,"type":"noteOff","noteNumber":63,"velocity":0},{"deltaTime":14,"channel":1,"type":"noteOn","noteNumber":64,"velocity":54},{"deltaTime":0,"channel":1,"type":"noteOn","noteNumber":68,"velocity":54},{"deltaTime":0,"channel":1,"type":"noteOn","noteNumber":73,"velocity":86},{"deltaTime":0,"channel":1,"type":"noteOn","noteNumber":61,"velocity":54},{"deltaTime":214,"channel":0,"type":"noteOff","noteNumber":80,"velocity":0},{"deltaTime":6,"channel":0,"type":"noteOff","noteNumber":92,"velocity":0},{"deltaTime":6,"channel":1,"type":"noteOff","noteNumber":64,"velocity":0},{"deltaTime":0,"channel":1,"type":"noteOff","noteNumber":68,"velocity":0},{"deltaTime":0,"channel":1,"type":"noteOff","noteNumber":73,"velocity":0},{"deltaTime":0,"channel":1,"type":"noteOff","noteNumber":61,"velocity":0},{"deltaTime":14,"channel":0,"type":"noteOn","noteNumber":87,"velocity":101},{"deltaTime":0,"channel":0,"type":"noteOn","noteNumber":93,"velocity":101},{"deltaTime":0,"channel":0,"type":"noteOn","noteNumber":78,"velocity":107},{"deltaTime":0,"channel":1,"type":"noteOn","noteNumber":51,"velocity":93},{"deltaTime":0,"channel":1,"type":"noteOn","noteNumber":63,"velocity":93},{"deltaTime":2,"channel":0,"type":"controller","controllerType":64,"value":0},{"deltaTime":0,"channel":1,"type":"controller","controllerType":64,"value":0},{"deltaTime":2,"channel":0,"type":"controller","controllerType":64,"value":127},{"deltaTime":0,"channel":1,"type":"controller","controllerType":64,"value":127},{"deltaTime":222,"channel":0,"type":"noteOff","noteNumber":78,"velocity":0},{"deltaTime":14,"channel":0,"type":"noteOn","noteNumber":73,"velocity":87},{"deltaTime":0,"channel":0,"type":"noteOn","noteNumber":80,"velocity":87},{"deltaTime":214,"channel":0,"type":"noteOff","noteNumber":87,"velocity":0},{"deltaTime":0,"channel":0,"type":"noteOff","noteNumber":93,"velocity":0},{"deltaTime":12,"channel":0,"type":"noteOff","noteNumber":73,"velocity":0},{"deltaTime":0,"channel":0,"type":"noteOff","noteNumber":80,"velocity":0},{"deltaTime":14,"channel":0,"type":"noteOn","noteNumber":84,"velocity":113},{"deltaTime":0,"channel":0,"type":"noteOn","noteNumber":90,"velocity":113},{"deltaTime":0,"channel":0,"type":"noteOn","noteNumber":78,"velocity":113},{"deltaTime":0,"channel":1,"type":"noteOn","noteNumber":68,"velocity":97},{"deltaTime":0,"channel":1,"type":"noteOn","noteNumber":72,"velocity":97},{"deltaTime":238,"channel":0,"type":"noteOff","noteNumber":84,"velocity":0},{"deltaTime":0,"channel":0,"type":"noteOff","noteNumber":90,"velocity":0},{"deltaTime":2,"channel":0,"type":"noteOn","noteNumber":81,"velocity":71},{"deltaTime":0,"channel":0,"type":"noteOn","noteNumber":88,"velocity":99},{"deltaTime":190,"channel":1,"type":"noteOff","noteNumber":51,"velocity":0},{"deltaTime":0,"channel":1,"type":"noteOff","noteNumber":63,"velocity":0},{"deltaTime":24,"channel":0,"type":"noteOff","noteNumber":78,"velocity":0},{"deltaTime":0,"channel":1,"type":"noteOff","noteNumber":68,"velocity":0},{"deltaTime":0,"channel":1,"type":"noteOff","noteNumber":72,"velocity":0},{"deltaTime":24,"channel":0,"type":"noteOff","noteNumber":81,"velocity":0},{"deltaTime":0,"channel":0,"type":"noteOff","noteNumber":88,"velocity":0},{"deltaTime":2,"channel":0,"type":"noteOn","noteNumber":80,"velocity":87},{"deltaTime":0,"channel":0,"type":"noteOn","noteNumber":87,"velocity":111},{"deltaTime":0,"channel":0,"type":"noteOn","noteNumber":75,"velocity":111},{"deltaTime":0,"channel":1,"type":"noteOn","noteNumber":44,"velocity":94},{"deltaTime":0,"channel":1,"type":"noteOn","noteNumber":56,"velocity":101},{"deltaTime":2,"channel":0,"type":"controller","controllerType":64,"value":0},{"deltaTime":0,"channel":1,"type":"controller","controllerType":64,"value":0},{"deltaTime":2,"channel":0,"type":"controller","controllerType":64,"value":127},{"deltaTime":0,"channel":1,"type":"controller","controllerType":64,"value":127},{"deltaTime":234,"channel":0,"type":"noteOff","noteNumber":80,"velocity":0},{"deltaTime":0,"channel":0,"type":"noteOff","noteNumber":87,"velocity":0},{"deltaTime":2,"channel":0,"type":"noteOn","noteNumber":84,"velocity":97},{"deltaTime":238,"channel":0,"type":"noteOff","noteNumber":84,"velocity":0},{"deltaTime":2,"channel":0,"type":"noteOn","noteNumber":81,"velocity":93},{"deltaTime":0,"channel":1,"type":"noteOn","noteNumber":63,"velocity":93},{"deltaTime":0,"channel":1,"type":"noteOn","noteNumber":69,"velocity":93},{"deltaTime":0,"channel":1,"type":"noteOn","noteNumber":72,"velocity":93},{"deltaTime":202,"channel":0,"type":"noteOff","noteNumber":75,"velocity":0},{"deltaTime":38,"channel":0,"type":"noteOn","noteNumber":78,"velocity":104},{"deltaTime":190,"channel":1,"type":"noteOff","noteNumber":44,"velocity":0},{"deltaTime":0,"channel":1,"type":"noteOff","noteNumber":56,"velocity":0},{"deltaTime":24,"channel":0,"type":"noteOff","noteNumber":81,"velocity":0},{"deltaTime":0,"channel":1,"type":"noteOff","noteNumber":63,"velocity":0},{"deltaTime":0,"channel":1,"type":"noteOff","noteNumber":69,"velocity":0},{"deltaTime":0,"channel":1,"type":"noteOff","noteNumber":72,"velocity":0},{"deltaTime":12,"channel":0,"type":"noteOff","noteNumber":78,"velocity":0},{"deltaTime":14,"meta":true,"type":"keySignature","key":1,"scale":0},{"deltaTime":0,"channel":0,"type":"noteOn","noteNumber":88,"velocity":112},{"deltaTime":0,"meta":true,"type":"keySignature","key":1,"scale":0},{"deltaTime":0,"channel":0,"type":"noteOn","noteNumber":76,"velocity":119},{"deltaTime":0,"channel":0,"type":"noteOn","noteNumber":79,"velocity":112},{"deltaTime":0,"meta":true,"type":"keySignature","key":1,"scale":0},{"deltaTime":0,"meta":true,"type":"keySignature","key":1,"scale":0},{"deltaTime":0,"channel":1,"type":"noteOn","noteNumber":40,"velocity":107},{"deltaTime":0,"channel":1,"type":"noteOn","noteNumber":52,"velocity":107},{"deltaTime":2,"channel":0,"type":"controller","controllerType":64,"value":0},{"deltaTime":0,"channel":1,"type":"controller","controllerType":64,"value":0},{"deltaTime":2,"channel":0,"type":"controller","controllerType":64,"value":127},{"deltaTime":0,"channel":1,"type":"controller","controllerType":64,"value":127},{"deltaTime":234,"channel":0,"type":"noteOff","noteNumber":88,"velocity":0},{"deltaTime":0,"channel":0,"type":"noteOff","noteNumber":76,"velocity":0},{"deltaTime":0,"channel":0,"type":"noteOff","noteNumber":79,"velocity":0},{"deltaTime":2,"channel":0,"type":"noteOn","noteNumber":87,"velocity":94},{"deltaTime":0,"channel":0,"type":"noteOn","noteNumber":78,"velocity":94},{"deltaTime":238,"channel":0,"type":"noteOff","noteNumber":87,"velocity":0},{"deltaTime":0,"channel":0,"type":"noteOff","noteNumber":78,"velocity":0},{"deltaTime":2,"channel":0,"type":"noteOn","noteNumber":88,"velocity":98},{"deltaTime":0,"channel":0,"type":"noteOn","noteNumber":79,"velocity":98},{"deltaTime":0,"channel":1,"type":"noteOn","noteNumber":55,"velocity":108},{"deltaTime":0,"channel":1,"type":"noteOn","noteNumber":59,"velocity":108},{"deltaTime":0,"channel":1,"type":"noteOn","noteNumber":64,"velocity":108},{"deltaTime":238,"channel":0,"type":"noteOff","noteNumber":88,"velocity":0},{"deltaTime":0,"channel":0,"type":"noteOff","noteNumber":79,"velocity":0},{"deltaTime":2,"channel":0,"type":"noteOn","noteNumber":87,"velocity":87},{"deltaTime":0,"channel":0,"type":"noteOn","noteNumber":78,"velocity":87},{"deltaTime":190,"channel":1,"type":"noteOff","noteNumber":40,"velocity":0},{"deltaTime":0,"channel":1,"type":"noteOff","noteNumber":52,"velocity":0},{"deltaTime":24,"channel":1,"type":"noteOff","noteNumber":55,"velocity":0},{"deltaTime":0,"channel":1,"type":"noteOff","noteNumber":59,"velocity":0},{"deltaTime":0,"channel":1,"type":"noteOff","noteNumber":64,"velocity":0},{"deltaTime":24,"channel":0,"type":"noteOff","noteNumber":87,"velocity":0},{"deltaTime":0,"channel":0,"type":"noteOff","noteNumber":78,"velocity":0},{"deltaTime":2,"channel":0,"type":"noteOn","noteNumber":88,"velocity":116},{"deltaTime":0,"channel":0,"type":"noteOn","noteNumber":76,"velocity":116},{"deltaTime":0,"channel":1,"type":"noteOn","noteNumber":47,"velocity":95},{"deltaTime":2,"channel":0,"type":"controller","controllerType":64,"value":0},{"deltaTime":0,"channel":1,"type":"controller","controllerType":64,"value":0},{"deltaTime":2,"channel":0,"type":"controller","controllerType":64,"value":127},{"deltaTime":0,"channel":1,"type":"controller","controllerType":64,"value":127},{"deltaTime":234,"channel":0,"type":"noteOff","noteNumber":76,"velocity":0},{"deltaTime":2,"channel":0,"type":"noteOn","noteNumber":78,"velocity":95},{"deltaTime":214,"channel":0,"type":"noteOff","noteNumber":88,"velocity":0},{"deltaTime":24,"channel":0,"type":"noteOff","noteNumber":78,"velocity":0},{"deltaTime":2,"channel":0,"type":"noteOn","noteNumber":79,"velocity":111},{"deltaTime":0,"channel":0,"type":"noteOn","noteNumber":83,"velocity":111},{"deltaTime":0,"channel":0,"type":"noteOn","noteNumber":71,"velocity":111},{"deltaTime":0,"channel":1,"type":"noteOn","noteNumber":59,"velocity":99},{"deltaTime":0,"channel":1,"type":"noteOn","noteNumber":63,"velocity":99},{"deltaTime":0,"channel":1,"type":"noteOn","noteNumber":67,"velocity":108},{"deltaTime":226,"channel":1,"type":"noteOff","noteNumber":59,"velocity":0},{"deltaTime":0,"channel":1,"type":"noteOff","noteNumber":63,"velocity":0},{"deltaTime":0,"channel":1,"type":"noteOff","noteNumber":67,"velocity":0},{"deltaTime":12,"channel":0,"type":"noteOff","noteNumber":79,"velocity":0},{"deltaTime":0,"channel":0,"type":"noteOff","noteNumber":83,"velocity":0},{"deltaTime":2,"channel":0,"type":"noteOn","noteNumber":80,"velocity":87},{"deltaTime":0,"channel":1,"type":"noteOn","noteNumber":60,"velocity":74},{"deltaTime":0,"channel":1,"type":"noteOn","noteNumber":63,"velocity":74},{"deltaTime":0,"channel":1,"type":"noteOn","noteNumber":67,"velocity":74},{"deltaTime":190,"channel":1,"type":"noteOff","noteNumber":47,"velocity":0},{"deltaTime":24,"channel":0,"type":"noteOff","noteNumber":71,"velocity":0},{"deltaTime":12,"channel":1,"type":"noteOff","noteNumber":60,"velocity":0},{"deltaTime":0,"channel":1,"type":"noteOff","noteNumber":63,"velocity":0},{"deltaTime":0,"channel":1,"type":"noteOff","noteNumber":67,"velocity":0},{"deltaTime":12,"channel":0,"type":"noteOff","noteNumber":80,"velocity":0},{"deltaTime":2,"channel":0,"type":"noteOn","noteNumber":81,"velocity":115},{"deltaTime":0,"channel":0,"type":"noteOn","noteNumber":69,"velocity":115},{"deltaTime":0,"channel":1,"type":"noteOn","noteNumber":42,"velocity":105},{"deltaTime":0,"channel":1,"type":"noteOn","noteNumber":54,"velocity":105},{"deltaTime":2,"channel":0,"type":"controller","controllerType":64,"value":0},{"deltaTime":0,"channel":1,"type":"controller","controllerType":64,"value":0},{"deltaTime":2,"channel":0,"type":"controller","controllerType":64,"value":127},{"deltaTime":0,"channel":1,"type":"controller","controllerType":64,"value":127},{"deltaTime":234,"channel":0,"type":"noteOff","noteNumber":81,"velocity":0},{"deltaTime":2,"channel":0,"type":"noteOn","noteNumber":79,"velocity":104},{"deltaTime":238,"channel":0,"type":"noteOff","noteNumber":79,"velocity":0},{"deltaTime":0,"channel":0,"type":"noteOff","noteNumber":69,"velocity":0},{"deltaTime":2,"channel":0,"type":"noteOn","noteNumber":78,"velocity":116},{"deltaTime":0,"channel":0,"type":"noteOn","noteNumber":72,"velocity":100},{"deltaTime":0,"channel":1,"type":"noteOn","noteNumber":57,"velocity":100},{"deltaTime":0,"channel":1,"type":"noteOn","noteNumber":64,"velocity":100},{"deltaTime":0,"channel":1,"type":"noteOn","noteNumber":66,"velocity":118},{"deltaTime":238,"channel":0,"type":"noteOff","noteNumber":78,"velocity":0},{"deltaTime":2,"channel":0,"type":"noteOn","noteNumber":76,"velocity":100},{"deltaTime":190,"channel":1,"type":"noteOff","noteNumber":42,"velocity":0},{"deltaTime":0,"channel":1,"type":"noteOff","noteNumber":54,"velocity":0},{"deltaTime":24,"channel":1,"type":"noteOff","noteNumber":57,"velocity":0},{"deltaTime":0,"channel":1,"type":"noteOff","noteNumber":64,"velocity":0},{"deltaTime":0,"channel":1,"type":"noteOff","noteNumber":66,"velocity":0},{"deltaTime":24,"channel":0,"type":"noteOff","noteNumber":76,"velocity":0},{"deltaTime":0,"channel":0,"type":"noteOff","noteNumber":72,"velocity":0},{"deltaTime":2,"channel":0,"type":"noteOn","noteNumber":75,"velocity":116},{"deltaTime":0,"channel":0,"type":"noteOn","noteNumber":78,"velocity":99},{"deltaTime":0,"channel":0,"type":"noteOn","noteNumber":69,"velocity":99},{"deltaTime":0,"channel":1,"type":"noteOn","noteNumber":59,"velocity":99},{"deltaTime":0,"channel":1,"type":"noteOn","noteNumber":63,"velocity":116},{"deltaTime":2,"channel":0,"type":"controller","controllerType":64,"value":0},{"deltaTime":0,"channel":1,"type":"controller","controllerType":64,"value":0},{"deltaTime":2,"channel":0,"type":"controller","controllerType":64,"value":127},{"deltaTime":0,"channel":1,"type":"controller","controllerType":64,"value":127},{"deltaTime":234,"channel":0,"type":"noteOff","noteNumber":75,"velocity":0},{"deltaTime":0,"channel":0,"type":"noteOff","noteNumber":78,"velocity":0},{"deltaTime":2,"channel":0,"type":"noteOn","noteNumber":72,"velocity":105},{"deltaTime":214,"channel":1,"type":"noteOff","noteNumber":59,"velocity":0},{"deltaTime":0,"channel":1,"type":"noteOff","noteNumber":63,"velocity":0},{"deltaTime":24,"channel":0,"type":"noteOff","noteNumber":72,"velocity":0},{"deltaTime":0,"channel":0,"type":"noteOff","noteNumber":69,"velocity":0},{"deltaTime":2,"channel":0,"type":"noteOn","noteNumber":71,"velocity":92},{"deltaTime":0,"channel":0,"type":"noteOn","noteNumber":66,"velocity":92},{"deltaTime":0,"channel":1,"type":"noteOn","noteNumber":57,"velocity":92},{"deltaTime":238,"channel":0,"type":"noteOff","noteNumber":71,"velocity":0},{"deltaTime":2,"channel":0,"type":"noteOn","noteNumber":69,"velocity":103},{"deltaTime":214,"channel":0,"type":"noteOff","noteNumber":66,"velocity":0},{"deltaTime":0,"channel":1,"type":"noteOff","noteNumber":57,"velocity":0},{"deltaTime":12,"channel":0,"type":"noteOff","noteNumber":69,"velocity":0},{"deltaTime":14,"channel":0,"type":"noteOn","noteNumber":71,"velocity":114},{"deltaTime":0,"channel":0,"type":"noteOn","noteNumber":67,"velocity":110},{"deltaTime":0,"channel":1,"type":"noteOn","noteNumber":43,"velocity":110},{"deltaTime":0,"channel":1,"type":"noteOn","noteNumber":55,"velocity":110},{"deltaTime":2,"channel":0,"type":"controller","controllerType":64,"value":0},{"deltaTime":0,"channel":1,"type":"controller","controllerType":64,"value":0},{"deltaTime":2,"channel":0,"type":"controller","controllerType":64,"value":127},{"deltaTime":0,"channel":1,"type":"controller","controllerType":64,"value":127},{"deltaTime":234,"channel":0,"type":"noteOff","noteNumber":71,"velocity":0},{"deltaTime":2,"channel":0,"type":"noteOn","noteNumber":70,"velocity":93},{"deltaTime":238,"channel":0,"type":"noteOff","noteNumber":70,"velocity":0},{"deltaTime":2,"channel":0,"type":"noteOn","noteNumber":71,"velocity":104},{"deltaTime":238,"channel":0,"type":"noteOff","noteNumber":71,"velocity":0},{"deltaTime":2,"channel":0,"type":"noteOn","noteNumber":72,"velocity":105},{"deltaTime":238,"channel":0,"type":"noteOff","noteNumber":72,"velocity":0},{"deltaTime":0,"channel":0,"type":"noteOff","noteNumber":67,"velocity":0},{"deltaTime":0,"channel":1,"type":"noteOff","noteNumber":43,"velocity":0},{"deltaTime":0,"channel":1,"type":"noteOff","noteNumber":55,"velocity":0},{"deltaTime":2,"channel":0,"type":"noteOn","noteNumber":74,"velocity":115},{"deltaTime":0,"channel":0,"type":"noteOn","noteNumber":59,"velocity":117},{"deltaTime":0,"channel":0,"type":"noteOn","noteNumber":65,"velocity":115},{"deltaTime":0,"channel":0,"type":"noteOn","noteNumber":68,"velocity":115},{"deltaTime":0,"channel":1,"type":"noteOn","noteNumber":32,"velocity":113},{"deltaTime":0,"channel":1,"type":"noteOn","noteNumber":44,"velocity":113},{"deltaTime":2,"channel":0,"type":"controller","controllerType":64,"value":0},{"deltaTime":0,"channel":1,"type":"controller","controllerType":64,"value":0},{"deltaTime":2,"channel":0,"type":"controller","controllerType":64,"value":127},{"deltaTime":0,"channel":1,"type":"controller","controllerType":64,"value":127},{"deltaTime":234,"channel":0,"type":"noteOff","noteNumber":74,"velocity":0},{"deltaTime":2,"channel":0,"type":"noteOn","noteNumber":72,"velocity":93},{"deltaTime":238,"channel":0,"type":"noteOff","noteNumber":72,"velocity":0},{"deltaTime":2,"channel":0,"type":"noteOn","noteNumber":74,"velocity":106},{"deltaTime":238,"channel":0,"type":"noteOff","noteNumber":74,"velocity":0},{"deltaTime":2,"channel":0,"type":"noteOn","noteNumber":75,"velocity":105},{"deltaTime":238,"channel":0,"type":"noteOff","noteNumber":75,"velocity":0},{"deltaTime":0,"channel":0,"type":"noteOff","noteNumber":59,"velocity":0},{"deltaTime":0,"channel":0,"type":"noteOff","noteNumber":65,"velocity":0},{"deltaTime":0,"channel":0,"type":"noteOff","noteNumber":68,"velocity":0},{"deltaTime":0,"channel":1,"type":"noteOff","noteNumber":32,"velocity":0},{"deltaTime":0,"channel":1,"type":"noteOff","noteNumber":44,"velocity":0},{"deltaTime":2,"channel":0,"type":"noteOn","noteNumber":76,"velocity":119},{"deltaTime":0,"channel":0,"type":"noteOn","noteNumber":57,"velocity":123},{"deltaTime":0,"channel":0,"type":"noteOn","noteNumber":60,"velocity":123},{"deltaTime":0,"channel":0,"type":"noteOn","noteNumber":67,"velocity":119},{"deltaTime":0,"channel":1,"type":"noteOn","noteNumber":33,"velocity":123},{"deltaTime":0,"channel":1,"type":"noteOn","noteNumber":45,"velocity":123},{"deltaTime":2,"channel":0,"type":"controller","controllerType":64,"value":0},{"deltaTime":0,"channel":1,"type":"controller","controllerType":64,"value":0},{"deltaTime":2,"channel":0,"type":"controller","controllerType":64,"value":127},{"deltaTime":0,"channel":1,"type":"controller","controllerType":64,"value":127},{"deltaTime":234,"channel":0,"type":"noteOff","noteNumber":76,"velocity":0},{"deltaTime":2,"channel":0,"type":"noteOn","noteNumber":72,"velocity":107},{"deltaTime":238,"channel":0,"type":"noteOff","noteNumber":72,"velocity":0},{"deltaTime":2,"channel":0,"type":"noteOn","noteNumber":71,"velocity":119},{"deltaTime":238,"channel":0,"type":"noteOff","noteNumber":71,"velocity":0},{"deltaTime":2,"channel":0,"type":"noteOn","noteNumber":69,"velocity":112},{"deltaTime":238,"channel":0,"type":"noteOff","noteNumber":69,"velocity":0},{"deltaTime":0,"channel":0,"type":"noteOff","noteNumber":57,"velocity":0},{"deltaTime":0,"channel":0,"type":"noteOff","noteNumber":60,"velocity":0},{"deltaTime":0,"channel":0,"type":"noteOff","noteNumber":67,"velocity":0},{"deltaTime":0,"channel":1,"type":"noteOff","noteNumber":33,"velocity":0},{"deltaTime":0,"channel":1,"type":"noteOff","noteNumber":45,"velocity":0},{"deltaTime":2,"channel":0,"type":"noteOn","noteNumber":66,"velocity":115},{"deltaTime":0,"channel":0,"type":"noteOn","noteNumber":58,"velocity":122},{"deltaTime":0,"channel":1,"type":"noteOn","noteNumber":34,"velocity":122},{"deltaTime":0,"channel":1,"type":"noteOn","noteNumber":46,"velocity":122},{"deltaTime":2,"channel":0,"type":"controller","controllerType":64,"value":0},{"deltaTime":0,"channel":1,"type":"controller","controllerType":64,"value":0},{"deltaTime":2,"channel":0,"type":"controller","controllerType":64,"value":127},{"deltaTime":0,"channel":1,"type":"controller","controllerType":64,"value":127},{"deltaTime":234,"channel":0,"type":"noteOff","noteNumber":66,"velocity":0},{"deltaTime":2,"channel":0,"type":"noteOn","noteNumber":64,"velocity":99},{"deltaTime":238,"channel":0,"type":"noteOff","noteNumber":64,"velocity":0},{"deltaTime":2,"channel":0,"type":"noteOn","noteNumber":61,"velocity":113},{"deltaTime":238,"channel":0,"type":"noteOff","noteNumber":61,"velocity":0},{"deltaTime":2,"channel":0,"type":"noteOn","noteNumber":58,"velocity":124},{"deltaTime":0,"channel":0,"type":"noteOff","noteNumber":58,"velocity":0},{"deltaTime":238,"channel":0,"type":"noteOff","noteNumber":58,"velocity":0},{"deltaTime":0,"channel":1,"type":"noteOff","noteNumber":34,"velocity":0},{"deltaTime":0,"channel":1,"type":"noteOff","noteNumber":46,"velocity":0},{"deltaTime":2,"channel":0,"type":"noteOn","noteNumber":59,"velocity":112},{"deltaTime":0,"channel":1,"type":"noteOn","noteNumber":47,"velocity":119},{"deltaTime":0,"channel":1,"type":"noteOn","noteNumber":23,"velocity":119},{"deltaTime":0,"channel":1,"type":"noteOn","noteNumber":35,"velocity":119},{"deltaTime":2,"channel":0,"type":"controller","controllerType":64,"value":0},{"deltaTime":0,"channel":1,"type":"controller","controllerType":64,"value":0},{"deltaTime":2,"channel":0,"type":"controller","controllerType":64,"value":127},{"deltaTime":0,"channel":1,"type":"controller","controllerType":64,"value":127},{"deltaTime":154,"channel":1,"type":"noteOff","noteNumber":47,"velocity":0},{"deltaTime":2,"channel":1,"type":"noteOn","noteNumber":51,"velocity":105},{"deltaTime":158,"channel":1,"type":"noteOff","noteNumber":51,"velocity":0},{"deltaTime":2,"channel":1,"type":"noteOn","noteNumber":54,"velocity":104},{"deltaTime":158,"channel":1,"type":"noteOff","noteNumber":54,"velocity":0},{"deltaTime":2,"channel":0,"type":"noteOn","noteNumber":83,"velocity":127},{"deltaTime":0,"channel":0,"type":"noteOn","noteNumber":90,"velocity":127},{"deltaTime":0,"channel":0,"type":"noteOn","noteNumber":95,"velocity":127},{"deltaTime":0,"channel":1,"type":"noteOn","noteNumber":59,"velocity":90},{"deltaTime":158,"channel":1,"type":"noteOff","noteNumber":59,"velocity":0},{"deltaTime":2,"channel":1,"type":"noteOn","noteNumber":63,"velocity":112},{"deltaTime":158,"channel":1,"type":"noteOff","noteNumber":63,"velocity":0},{"deltaTime":2,"channel":1,"type":"noteOn","noteNumber":69,"velocity":92},{"deltaTime":110,"channel":0,"type":"noteOff","noteNumber":59,"velocity":0},{"deltaTime":0,"channel":1,"type":"noteOff","noteNumber":23,"velocity":0},{"deltaTime":0,"channel":1,"type":"noteOff","noteNumber":35,"velocity":0},{"deltaTime":48,"channel":0,"type":"noteOff","noteNumber":83,"velocity":0},{"deltaTime":0,"channel":0,"type":"noteOff","noteNumber":90,"velocity":0},{"deltaTime":0,"channel":0,"type":"noteOff","noteNumber":95,"velocity":0},{"deltaTime":0,"channel":1,"type":"noteOff","noteNumber":69,"velocity":0},{"deltaTime":2,"channel":1,"type":"noteOn","noteNumber":71,"velocity":79},{"deltaTime":0,"channel":1,"type":"noteOn","noteNumber":40,"velocity":119},{"deltaTime":0,"channel":1,"type":"noteOn","noteNumber":52,"velocity":119},{"deltaTime":2,"channel":0,"type":"controller","controllerType":64,"value":0},{"deltaTime":0,"channel":1,"type":"controller","controllerType":64,"value":0},{"deltaTime":2,"channel":0,"type":"controller","controllerType":64,"value":127},{"deltaTime":0,"channel":1,"type":"controller","controllerType":64,"value":127},{"deltaTime":154,"channel":1,"type":"noteOff","noteNumber":71,"velocity":0},{"deltaTime":2,"channel":1,"type":"noteOn","noteNumber":72,"velocity":90},{"deltaTime":158,"channel":1,"type":"noteOff","noteNumber":72,"velocity":0},{"deltaTime":2,"channel":1,"type":"noteOn","noteNumber":71,"velocity":102},{"deltaTime":158,"channel":1,"type":"noteOff","noteNumber":71,"velocity":0},{"deltaTime":2,"channel":0,"type":"noteOn","noteNumber":83,"velocity":127},{"deltaTime":0,"channel":0,"type":"noteOn","noteNumber":88,"velocity":127},{"deltaTime":0,"channel":0,"type":"noteOn","noteNumber":76,"velocity":127},{"deltaTime":0,"channel":1,"type":"noteOn","noteNumber":69,"velocity":90},{"deltaTime":158,"channel":1,"type":"noteOff","noteNumber":69,"velocity":0},{"deltaTime":2,"channel":1,"type":"noteOn","noteNumber":66,"velocity":95},{"deltaTime":158,"channel":1,"type":"noteOff","noteNumber":66,"velocity":0},{"deltaTime":2,"channel":1,"type":"noteOn","noteNumber":64,"velocity":106},{"deltaTime":110,"channel":1,"type":"noteOff","noteNumber":40,"velocity":0},{"deltaTime":0,"channel":1,"type":"noteOff","noteNumber":52,"velocity":0},{"deltaTime":48,"channel":0,"type":"noteOff","noteNumber":83,"velocity":0},{"deltaTime":0,"channel":0,"type":"noteOff","noteNumber":88,"velocity":0},{"deltaTime":0,"channel":0,"type":"noteOff","noteNumber":76,"velocity":0},{"deltaTime":0,"channel":1,"type":"noteOff","noteNumber":64,"velocity":0},{"deltaTime":2,"channel":1,"type":"noteOn","noteNumber":57,"velocity":119},{"deltaTime":0,"channel":1,"type":"noteOn","noteNumber":45,"velocity":119},{"deltaTime":2,"channel":0,"type":"controller","controllerType":64,"value":0},{"deltaTime":0,"channel":1,"type":"controller","controllerType":64,"value":0},{"deltaTime":2,"channel":0,"type":"controller","controllerType":64,"value":127},{"deltaTime":0,"channel":1,"type":"controller","controllerType":64,"value":127},{"deltaTime":154,"channel":1,"type":"noteOff","noteNumber":57,"velocity":0},{"deltaTime":2,"channel":1,"type":"noteOn","noteNumber":54,"velocity":105},{"deltaTime":158,"channel":1,"type":"noteOff","noteNumber":54,"velocity":0},{"deltaTime":2,"channel":1,"type":"noteOn","noteNumber":57,"velocity":104},{"deltaTime":158,"channel":1,"type":"noteOff","noteNumber":57,"velocity":0},{"deltaTime":2,"channel":0,"type":"noteOn","noteNumber":87,"velocity":127},{"deltaTime":0,"channel":0,"type":"noteOn","noteNumber":93,"velocity":127},{"deltaTime":0,"channel":0,"type":"noteOn","noteNumber":81,"velocity":127},{"deltaTime":0,"channel":1,"type":"noteOn","noteNumber":60,"velocity":90},{"deltaTime":158,"channel":1,"type":"noteOff","noteNumber":60,"velocity":0},{"deltaTime":2,"channel":1,"type":"noteOn","noteNumber":63,"velocity":96},{"deltaTime":158,"channel":1,"type":"noteOff","noteNumber":63,"velocity":0},{"deltaTime":2,"channel":1,"type":"noteOn","noteNumber":67,"velocity":96},{"deltaTime":110,"channel":1,"type":"noteOff","noteNumber":45,"velocity":0},{"deltaTime":48,"channel":0,"type":"noteOff","noteNumber":87,"velocity":0},{"deltaTime":0,"channel":0,"type":"noteOff","noteNumber":93,"velocity":0},{"deltaTime":0,"channel":0,"type":"noteOff","noteNumber":81,"velocity":0},{"deltaTime":0,"channel":1,"type":"noteOff","noteNumber":67,"velocity":0},{"deltaTime":2,"channel":1,"type":"noteOn","noteNumber":70,"velocity":109},{"deltaTime":0,"channel":1,"type":"noteOn","noteNumber":36,"velocity":112},{"deltaTime":0,"channel":1,"type":"noteOn","noteNumber":48,"velocity":119},{"deltaTime":2,"channel":0,"type":"controller","controllerType":64,"value":0},{"deltaTime":0,"channel":1,"type":"controller","controllerType":64,"value":0},{"deltaTime":2,"channel":0,"type":"controller","controllerType":64,"value":127},{"deltaTime":0,"channel":1,"type":"controller","controllerType":64,"value":127},{"deltaTime":154,"channel":1,"type":"noteOff","noteNumber":70,"velocity":0},{"deltaTime":2,"channel":1,"type":"noteOn","noteNumber":67,"velocity":90},{"deltaTime":158,"channel":1,"type":"noteOff","noteNumber":67,"velocity":0},{"deltaTime":2,"channel":1,"type":"noteOn","noteNumber":64,"velocity":90},{"deltaTime":158,"channel":1,"type":"noteOff","noteNumber":64,"velocity":0},{"deltaTime":2,"channel":0,"type":"noteOn","noteNumber":84,"velocity":127},{"deltaTime":0,"channel":0,"type":"noteOn","noteNumber":72,"velocity":127},{"deltaTime":0,"channel":1,"type":"noteOn","noteNumber":60,"velocity":104},{"deltaTime":158,"channel":1,"type":"noteOff","noteNumber":60,"velocity":0},{"deltaTime":2,"channel":1,"type":"noteOn","noteNumber":64,"velocity":106},{"deltaTime":158,"channel":1,"type":"noteOff","noteNumber":64,"velocity":0},{"deltaTime":2,"channel":1,"type":"noteOn","noteNumber":58,"velocity":109},{"deltaTime":110,"channel":1,"type":"noteOff","noteNumber":36,"velocity":0},{"deltaTime":0,"channel":1,"type":"noteOff","noteNumber":48,"velocity":0},{"deltaTime":40,"channel":1,"type":"noteOff","noteNumber":58,"velocity":0},{"deltaTime":8,"channel":0,"type":"noteOff","noteNumber":84,"velocity":0},{"deltaTime":0,"channel":0,"type":"noteOff","noteNumber":72,"velocity":0},{"deltaTime":2,"channel":0,"type":"noteOn","noteNumber":83,"velocity":91},{"deltaTime":0,"channel":0,"type":"noteOn","noteNumber":76,"velocity":104},{"deltaTime":0,"channel":1,"type":"noteOn","noteNumber":67,"velocity":116},{"deltaTime":0,"channel":1,"type":"noteOn","noteNumber":43,"velocity":116},{"deltaTime":0,"channel":1,"type":"noteOn","noteNumber":55,"velocity":116},{"deltaTime":2,"channel":0,"type":"controller","controllerType":64,"value":0},{"deltaTime":0,"channel":1,"type":"controller","controllerType":64,"value":0},{"deltaTime":2,"channel":0,"type":"controller","controllerType":64,"value":127},{"deltaTime":0,"channel":1,"type":"controller","controllerType":64,"value":127},{"deltaTime":154,"channel":0,"type":"noteOff","noteNumber":76,"velocity":0},{"deltaTime":2,"channel":0,"type":"noteOn","noteNumber":78,"velocity":104},{"deltaTime":158,"channel":0,"type":"noteOff","noteNumber":83,"velocity":0},{"deltaTime":0,"channel":0,"type":"noteOff","noteNumber":78,"velocity":0},{"deltaTime":2,"channel":0,"type":"noteOn","noteNumber":84,"velocity":79},{"deltaTime":0,"channel":0,"type":"noteOn","noteNumber":76,"velocity":79},{"deltaTime":158,"channel":0,"type":"noteOff","noteNumber":84,"velocity":0},{"deltaTime":0,"channel":0,"type":"noteOff","noteNumber":76,"velocity":0},{"deltaTime":0,"channel":1,"type":"noteOff","noteNumber":67,"velocity":0},{"deltaTime":0,"channel":1,"type":"noteOff","noteNumber":43,"velocity":0},{"deltaTime":0,"channel":1,"type":"noteOff","noteNumber":55,"velocity":0},{"deltaTime":2,"channel":0,"type":"noteOn","noteNumber":85,"velocity":36},{"deltaTime":0,"channel":0,"type":"noteOn","noteNumber":75,"velocity":112},{"deltaTime":0,"channel":1,"type":"noteOn","noteNumber":66,"velocity":113},{"deltaTime":0,"channel":1,"type":"noteOn","noteNumber":42,"velocity":113},{"deltaTime":0,"channel":1,"type":"noteOn","noteNumber":54,"velocity":113},{"deltaTime":158,"channel":0,"type":"noteOff","noteNumber":85,"velocity":0},{"deltaTime":2,"channel":0,"type":"noteOn","noteNumber":86,"velocity":75},{"deltaTime":158,"channel":0,"type":"noteOff","noteNumber":86,"velocity":0},{"deltaTime":2,"channel":0,"type":"noteOn","noteNumber":87,"velocity":56},{"deltaTime":158,"channel":0,"type":"noteOff","noteNumber":87,"velocity":0},{"deltaTime":0,"channel":0,"type":"noteOff","noteNumber":75,"velocity":0},{"deltaTime":0,"channel":1,"type":"noteOff","noteNumber":66,"velocity":0},{"deltaTime":0,"channel":1,"type":"noteOff","noteNumber":42,"velocity":0},{"deltaTime":0,"channel":1,"type":"noteOff","noteNumber":54,"velocity":0},{"deltaTime":2,"channel":0,"type":"noteOn","noteNumber":88,"velocity":77},{"deltaTime":0,"channel":0,"type":"noteOn","noteNumber":82,"velocity":112},{"deltaTime":0,"channel":1,"type":"noteOn","noteNumber":64,"velocity":117},{"deltaTime":0,"channel":1,"type":"noteOn","noteNumber":40,"velocity":117},{"deltaTime":0,"channel":1,"type":"noteOn","noteNumber":52,"velocity":117},{"deltaTime":2,"channel":0,"type":"controller","controllerType":64,"value":0},{"deltaTime":0,"channel":1,"type":"controller","controllerType":64,"value":0},{"deltaTime":156,"channel":0,"type":"noteOff","noteNumber":88,"velocity":0},{"deltaTime":2,"channel":0,"type":"noteOn","noteNumber":89,"velocity":88},{"deltaTime":78,"channel":0,"type":"noteOff","noteNumber":82,"velocity":0},{"deltaTime":0,"channel":1,"type":"noteOff","noteNumber":64,"velocity":0},{"deltaTime":0,"channel":1,"type":"noteOff","noteNumber":40,"velocity":0},{"deltaTime":0,"channel":1,"type":"noteOff","noteNumber":52,"velocity":0},{"deltaTime":80,"channel":0,"type":"noteOff","noteNumber":89,"velocity":0},{"deltaTime":2,"channel":0,"type":"noteOn","noteNumber":90,"velocity":82},{"deltaTime":158,"channel":0,"type":"noteOff","noteNumber":90,"velocity":0},{"deltaTime":2,"channel":0,"type":"noteOn","noteNumber":91,"velocity":87},{"deltaTime":0,"channel":0,"type":"noteOn","noteNumber":85,"velocity":112},{"deltaTime":0,"channel":1,"type":"noteOn","noteNumber":63,"velocity":114},{"deltaTime":0,"channel":1,"type":"noteOn","noteNumber":39,"velocity":118},{"deltaTime":0,"channel":1,"type":"noteOn","noteNumber":51,"velocity":118},{"deltaTime":158,"channel":0,"type":"noteOff","noteNumber":91,"velocity":0},{"deltaTime":2,"channel":0,"type":"noteOn","noteNumber":93,"velocity":94},{"deltaTime":78,"channel":0,"type":"noteOff","noteNumber":85,"velocity":0},{"deltaTime":0,"channel":1,"type":"noteOff","noteNumber":63,"velocity":0},{"deltaTime":0,"channel":1,"type":"noteOff","noteNumber":39,"velocity":0},{"deltaTime":0,"channel":1,"type":"noteOff","noteNumber":51,"velocity":0},{"deltaTime":80,"channel":0,"type":"noteOff","noteNumber":93,"velocity":0},{"deltaTime":2,"channel":0,"type":"noteOn","noteNumber":95,"velocity":106},{"deltaTime":158,"channel":0,"type":"noteOff","noteNumber":95,"velocity":0},{"deltaTime":2,"channel":0,"type":"noteOn","noteNumber":100,"velocity":125},{"deltaTime":0,"channel":0,"type":"noteOn","noteNumber":88,"velocity":125},{"deltaTime":0,"channel":1,"type":"noteOn","noteNumber":55,"velocity":124},{"deltaTime":0,"channel":1,"type":"noteOn","noteNumber":64,"velocity":125},{"deltaTime":0,"channel":1,"type":"noteOn","noteNumber":28,"velocity":125},{"deltaTime":0,"channel":1,"type":"noteOn","noteNumber":40,"velocity":125},{"deltaTime":958,"channel":0,"type":"noteOff","noteNumber":100,"velocity":0},{"deltaTime":0,"channel":0,"type":"noteOff","noteNumber":88,"velocity":0},{"deltaTime":0,"channel":1,"type":"noteOff","noteNumber":55,"velocity":0},{"deltaTime":0,"channel":1,"type":"noteOff","noteNumber":64,"velocity":0},{"deltaTime":0,"channel":1,"type":"noteOff","noteNumber":28,"velocity":0},{"deltaTime":0,"channel":1,"type":"noteOff","noteNumber":40,"velocity":0},{"deltaTime":0,"meta":true,"type":"endOfTrack"}]]}