<svg width="18" height="117" fill="none" xmlns="http://www.w3.org/2000/svg"><g clip-path="url(#a)"><path d="M.5.5h17V115a1.5 1.5 0 0 1-1.5 1.5H2A1.5 1.5 0 0 1 .5 115V.5z" stroke="#5C5F63"/><path d="M1 0h17v115a2 2 0 0 1-2 2H3a2 2 0 0 1-2-2V0z" fill="url(#b)"/><path d="M1 0h16v109a2 2 0 0 1-2 2H3a2 2 0 0 1-2-2V0z" fill="url(#c)" filter="url(#d)"/><path d="M0 0h18v114a3 3 0 0 1-3 3H3a3 3 0 0 1-3-3V0z" fill="#A1A7AF"/><path d="M1 1.045h16v112.91a2 2 0 0 1-2 2H3a2 2 0 0 1-2-2V1.045z" fill="#CAD5DF"/><path d="M18 0h-1v109a2.99 2.99 0 0 0 1 2.236V0zM0 111.236A2.99 2.99 0 0 0 1 109V0H0v111.236z" fill="#A1A7AF"/></g><defs><filter id="d" x="-4" y="-3" width="26" height="121" filterUnits="userSpaceOnUse" color-interpolation-filters="sRGB"><feFlood flood-opacity="0" result="BackgroundImageFix"/><feColorMatrix in="SourceAlpha" values="0 0 0 0 0 0 0 0 0 0 0 0 0 0 0 0 0 0 127 0"/><feOffset dy="2"/><feGaussianBlur stdDeviation="2.5"/><feColorMatrix values="0 0 0 0 0 0 0 0 0 0 0 0 0 0 0 0 0 0 0.25 0"/><feBlend in2="BackgroundImageFix" result="effect1_dropShadow"/><feBlend in="SourceGraphic" in2="effect1_dropShadow" result="shape"/></filter><linearGradient id="b" x1=".707" y1="116.086" x2="18" y2="116.086" gradientUnits="userSpaceOnUse"><stop stop-color="#5D6064"/><stop offset=".199" stop-color="#8C9297"/><stop offset=".768" stop-color="#8C9297"/><stop offset=".961" stop-color="#5D6064"/></linearGradient><linearGradient id="c" x1=".724" y1="110.133" x2="17" y2="110.133" gradientUnits="userSpaceOnUse"><stop stop-color="#A1A7AF"/><stop offset=".199" stop-color="#838B96"/><stop offset=".768" stop-color="#838B96"/><stop offset=".961" stop-color="#A1A7AF"/></linearGradient><clipPath id="a"><path fill="#fff" d="M0 0h18v117H0z"/></clipPath></defs></svg>