<svg width="18" height="117" xmlns="http://www.w3.org/2000/svg"><defs><linearGradient x1="-1.724%" y1="99.219%" y2="99.219%" id="a"><stop stop-color="#5D6064" offset="0%"/><stop stop-color="#8C9297" offset="19.89%"/><stop stop-color="#8C9297" offset="76.796%"/><stop stop-color="#5D6064" offset="96.133%"/></linearGradient><linearGradient x1="-1.724%" y1="99.219%" y2="99.219%" id="b"><stop stop-color="#A1A7AF" offset="0%"/><stop stop-color="#838B96" offset="19.89%"/><stop stop-color="#838B96" offset="76.796%"/><stop stop-color="#A1A7AF" offset="96.133%"/></linearGradient></defs><g fill="none" fill-rule="evenodd"><path d="M.5.5h17V115a1.5 1.5 0 0 1-1.5 1.5H2A1.5 1.5 0 0 1 .5 115V.5z" stroke="#5C5F63"/><path d="M1 0h17v115a2 2 0 0 1-2 2H3a2 2 0 0 1-2-2V0z" fill="url(#a)" fill-rule="nonzero"/><path d="M1 0h16v109a2 2 0 0 1-2 2H3a2 2 0 0 1-2-2V0z" fill="url(#b)" fill-rule="nonzero"/><path d="M0 0h18v109a3 3 0 0 1-3 3H3a3 3 0 0 1-3-3V0z" fill="#A1A7AF" fill-rule="nonzero"/><path d="M1 1h16v108a2 2 0 0 1-2 2H3a2 2 0 0 1-2-2V1z" fill="#CAD5DF" fill-rule="nonzero"/></g></svg>